<svg width="640" height="250" viewBox="0 0 640 250" fill="none" xmlns="http://www.w3.org/2000/svg">
<rect width="640" height="250" fill="#455246"/>
<g filter="url(#filter0_d_1_2)">
<rect x="580" y="10" width="50" height="50" rx="6" fill="#EBEBEB"/>
<path d="M598.032 44.544V24.816H601.8V44.544H598.032ZM599.976 37.152V33.84H606.072C607.112 33.84 607.904 33.592 608.448 33.096C609.008 32.6 609.288 31.896 609.288 30.984C609.288 30.072 609.008 29.368 608.448 28.872C607.904 28.376 607.112 28.128 606.072 28.128H599.976V24.816H606.264C608.296 24.816 609.936 25.344 611.184 26.4C612.432 27.44 613.056 28.968 613.056 30.984C613.056 33.016 612.432 34.552 611.184 35.592C609.936 36.632 608.296 37.152 606.264 37.152H599.976Z" fill="black"/>
</g>
<g filter="url(#filter1_d_1_2)">
<rect x="250" y="10" width="50" height="50" rx="6" fill="#EBEBEB"/>
<path d="M273.625 44.544V26.328H277.393V44.544H273.625ZM267.601 28.248V24.816H283.393V28.248H267.601Z" fill="black"/>
</g>
<g filter="url(#filter2_d_1_2)">
<rect x="460" y="10" width="50" height="50" rx="6" fill="#EBEBEB"/>
<path d="M483.118 44.544V24.816H486.886V44.544H483.118Z" fill="black"/>
</g>
<g filter="url(#filter3_d_1_2)">
<rect x="130" y="10" width="50" height="50" rx="6" fill="#EBEBEB"/>
<path d="M148.782 44.544V24.816H152.55V44.544H148.782ZM150.846 44.544V41.232H161.934V44.544H150.846ZM150.846 36.048V32.736H161.238V36.048H150.846ZM150.846 28.128V24.816H161.694V28.128H150.846Z" fill="black"/>
</g>
<g filter="url(#filter4_d_1_2)">
<rect x="340" y="10" width="50" height="50" rx="6" fill="#EBEBEB"/>
<path d="M363.197 37.152L356.141 24.816H360.341L364.997 33.504L369.653 24.816H373.853L366.797 37.152H363.197ZM363.125 44.544V35.088H366.893V44.544H363.125Z" fill="black"/>
</g>
<g filter="url(#filter5_d_1_2)">
<rect x="10" y="10" width="50" height="50" rx="6" fill="#EBEBEB"/>
<path d="M35.0448 38.784L37.3248 36.456L44.4528 43.56L42.1488 45.864L35.0448 38.784ZM35.1408 44.904C33.5888 44.904 32.1568 44.56 30.8448 43.872C29.5328 43.2 28.4848 42.224 27.7008 40.944C26.9328 39.648 26.5488 38.12 26.5488 36.36V33C26.5488 31.256 26.9328 29.736 27.7008 28.44C28.4848 27.144 29.5328 26.16 30.8448 25.488C32.1568 24.8 33.5888 24.456 35.1408 24.456C36.6928 24.456 38.1248 24.8 39.4368 25.488C40.7488 26.16 41.7888 27.144 42.5568 28.44C43.3408 29.736 43.7328 31.256 43.7328 33V36.36C43.7328 38.12 43.3408 39.648 42.5568 40.944C41.7888 42.224 40.7488 43.2 39.4368 43.872C38.1248 44.56 36.6928 44.904 35.1408 44.904ZM35.1408 41.4C36.0208 41.4 36.8288 41.208 37.5648 40.824C38.3008 40.424 38.8848 39.832 39.3168 39.048C39.7488 38.264 39.9648 37.32 39.9648 36.216V33.144C39.9648 32.04 39.7408 31.104 39.2928 30.336C38.8608 29.552 38.2768 28.96 37.5408 28.56C36.8208 28.16 36.0208 27.96 35.1408 27.96C34.2608 27.96 33.4528 28.16 32.7168 28.56C31.9968 28.96 31.4128 29.552 30.9648 30.336C30.5328 31.104 30.3168 32.04 30.3168 33.144V36.216C30.3168 37.32 30.5328 38.264 30.9648 39.048C31.4128 39.832 31.9968 40.424 32.7168 40.824C33.4528 41.208 34.2608 41.4 35.1408 41.4Z" fill="black"/>
</g>
<g filter="url(#filter6_d_1_2)">
<rect x="520" y="10" width="50" height="50" rx="6" fill="#EBEBEB"/>
<path d="M545.004 44.904C543.452 44.904 542.02 44.56 540.708 43.872C539.396 43.2 538.348 42.224 537.564 40.944C536.796 39.648 536.412 38.12 536.412 36.36V33C536.412 31.256 536.796 29.736 537.564 28.44C538.348 27.144 539.396 26.16 540.708 25.488C542.02 24.8 543.452 24.456 545.004 24.456C546.556 24.456 547.988 24.8 549.3 25.488C550.612 26.16 551.652 27.144 552.42 28.44C553.204 29.736 553.596 31.256 553.596 33V36.36C553.596 38.12 553.204 39.648 552.42 40.944C551.652 42.224 550.612 43.2 549.3 43.872C547.988 44.56 546.556 44.904 545.004 44.904ZM545.004 41.4C545.884 41.4 546.692 41.208 547.428 40.824C548.164 40.424 548.748 39.832 549.18 39.048C549.612 38.264 549.828 37.32 549.828 36.216V33.144C549.828 32.04 549.604 31.104 549.156 30.336C548.724 29.552 548.14 28.96 547.404 28.56C546.684 28.16 545.884 27.96 545.004 27.96C544.124 27.96 543.316 28.16 542.58 28.56C541.86 28.96 541.276 29.552 540.828 30.336C540.396 31.104 540.18 32.04 540.18 33.144V36.216C540.18 37.32 540.396 38.264 540.828 39.048C541.276 39.832 541.86 40.424 542.58 40.824C543.316 41.208 544.124 41.4 545.004 41.4Z" fill="black"/>
</g>
<g filter="url(#filter7_d_1_2)">
<rect x="190" y="10" width="50" height="50" rx="6" fill="#EBEBEB"/>
<path d="M208.168 44.544V24.816H211.936V44.544H208.168ZM210.112 36.72V33.408H216.184C217.208 33.408 218.008 33.176 218.584 32.712C219.16 32.248 219.448 31.592 219.448 30.744C219.448 29.912 219.16 29.272 218.584 28.824C218.024 28.36 217.224 28.128 216.184 28.128H210.112V24.816H216.424C218.456 24.816 220.096 25.32 221.344 26.328C222.592 27.336 223.216 28.808 223.216 30.744C223.216 32.712 222.592 34.2 221.344 35.208C220.096 36.216 218.456 36.72 216.424 36.72H210.112ZM219.616 44.544L214.936 34.128H218.656L223.792 44.544H219.616Z" fill="black"/>
</g>
<g filter="url(#filter8_d_1_2)">
<rect x="400" y="10" width="50" height="50" rx="6" fill="#EBEBEB"/>
<path d="M425.005 44.904C423.485 44.904 422.109 44.584 420.877 43.944C419.645 43.304 418.669 42.36 417.949 41.112C417.229 39.864 416.869 38.36 416.869 36.6V24.816H420.637V36.456C420.637 38.12 421.021 39.36 421.789 40.176C422.573 40.992 423.645 41.4 425.005 41.4C426.349 41.4 427.413 40.992 428.197 40.176C428.981 39.36 429.373 38.12 429.373 36.456V24.816H433.141V36.6C433.141 38.36 432.781 39.864 432.061 41.112C431.341 42.36 430.365 43.304 429.133 43.944C427.901 44.584 426.525 44.904 425.005 44.904Z" fill="black"/>
</g>
<g filter="url(#filter9_d_1_2)">
<rect x="70" y="10" width="50" height="50" rx="6" fill="#EBEBEB"/>
<path d="M82.5592 24.816H86.3752L89.9992 39.576L93.5752 24.84L97.4152 24.816L100.991 39.576L104.615 24.816H108.431L103.439 44.544H98.8792L95.4952 30.84L92.1112 44.544H87.5512L82.5592 24.816Z" fill="black"/>
</g>
<g filter="url(#filter10_d_1_2)">
<rect x="580" y="70" width="50" height="50" rx="6" fill="#EBEBEB"/>
<path d="M605.526 91.32C604.902 91.32 604.366 91.104 603.918 90.672C603.486 90.224 603.27 89.688 603.27 89.064C603.27 88.44 603.486 87.912 603.918 87.48C604.366 87.032 604.902 86.808 605.526 86.808C606.15 86.808 606.678 87.032 607.11 87.48C607.558 87.912 607.782 88.44 607.782 89.064C607.782 89.688 607.558 90.224 607.11 90.672C606.678 91.104 606.15 91.32 605.526 91.32ZM603.222 105.816L603.75 97.824H607.614L606.294 105.816H603.222Z" fill="black"/>
</g>
<g filter="url(#filter11_d_1_2)">
<rect x="250" y="70" width="50" height="50" rx="6" fill="#EBEBEB"/>
<path d="M275.726 104.904C274.174 104.904 272.742 104.56 271.43 103.872C270.134 103.2 269.102 102.224 268.334 100.944C267.566 99.648 267.182 98.12 267.182 96.36V93C267.182 91.256 267.566 89.736 268.334 88.44C269.102 87.144 270.134 86.16 271.43 85.488C272.742 84.8 274.174 84.456 275.726 84.456C277.87 84.456 279.654 85 281.078 86.088C282.502 87.176 283.454 88.736 283.934 90.768L280.358 91.8C280.038 90.472 279.51 89.504 278.774 88.896C278.038 88.272 277.022 87.96 275.726 87.96C274.846 87.96 274.038 88.16 273.302 88.56C272.582 88.944 272.006 89.528 271.574 90.312C271.158 91.096 270.95 92.04 270.95 93.144V96.216C270.95 97.32 271.158 98.264 271.574 99.048C272.006 99.832 272.582 100.424 273.302 100.824C274.038 101.208 274.846 101.4 275.726 101.4C276.798 101.4 277.67 101.192 278.342 100.776C279.014 100.36 279.486 99.848 279.758 99.24C280.046 98.616 280.19 97.992 280.19 97.368V97.296H275.966V94.032H283.934V96.864C283.934 98.64 283.558 100.136 282.806 101.352C282.054 102.552 281.054 103.44 279.806 104.016C278.558 104.608 277.198 104.904 275.726 104.904Z" fill="black"/>
</g>
<g filter="url(#filter12_d_1_2)">
<rect x="460" y="70" width="50" height="50" rx="6" fill="#EBEBEB"/>
<path d="M478.77 101.112V95.664L488.154 84.816H493.074L478.77 101.112ZM477.762 104.544V84.816H481.53V104.544H477.762ZM489.042 104.544L480.522 93.408H485.274L493.794 104.544H489.042Z" fill="black"/>
</g>
<g filter="url(#filter13_d_1_2)">
<rect x="130" y="70" width="50" height="50" rx="6" fill="#EBEBEB"/>
<path d="M149.392 104.544V101.112H154.936C155.96 101.112 156.864 100.92 157.648 100.536C158.432 100.152 159.04 99.56 159.472 98.76C159.92 97.944 160.144 96.936 160.144 95.736V93.624C160.144 92.424 159.92 91.424 159.472 90.624C159.04 89.824 158.432 89.232 157.648 88.848C156.864 88.448 155.96 88.248 154.936 88.248H149.728V84.816H154.936C156.648 84.816 158.184 85.16 159.544 85.848C160.904 86.52 161.968 87.512 162.736 88.824C163.52 90.136 163.912 91.696 163.912 93.504V95.856C163.912 97.664 163.52 99.224 162.736 100.536C161.968 101.848 160.904 102.84 159.544 103.512C158.184 104.2 156.648 104.544 154.936 104.544H149.392ZM147.688 104.544V84.816H151.456V104.544H147.688Z" fill="black"/>
</g>
<g filter="url(#filter14_d_1_2)">
<rect x="340" y="70" width="50" height="50" rx="6" fill="#EBEBEB"/>
<path d="M369.487 104.544V84.816H373.255V104.544H369.487ZM356.743 104.544V84.816H360.511V104.544H356.743ZM358.807 96.12V92.688H371.191V96.12H358.807Z" fill="black"/>
</g>
<g filter="url(#filter15_d_1_2)">
<rect x="10" y="70" width="50" height="50" rx="6" fill="#EBEBEB"/>
<path d="M40.3778 104.544L33.6098 84.816H37.3538L44.2178 104.544H40.3778ZM25.7858 104.544L32.6498 84.816H36.3938L29.6258 104.544H25.7858ZM30.4418 99.072V95.688H39.5618V99.072H30.4418Z" fill="black"/>
</g>
<g filter="url(#filter16_d_1_2)">
<rect x="520" y="70" width="50" height="50" rx="6" fill="#EBEBEB"/>
<path d="M539.879 104.544V84.816H543.647V104.544H539.879ZM541.943 104.544V101.232H552.311V104.544H541.943Z" fill="black"/>
</g>
<g filter="url(#filter17_d_1_2)">
<rect x="190" y="70" width="50" height="50" rx="6" fill="#EBEBEB"/>
<path d="M209.703 104.544V84.816H213.471V104.544H209.703ZM211.767 96.288V92.976H221.439V96.288H211.767ZM211.767 88.128V84.816H222.375V88.128H211.767Z" fill="black"/>
</g>
<g filter="url(#filter18_d_1_2)">
<rect x="400" y="70" width="50" height="50" rx="6" fill="#EBEBEB"/>
<path d="M420.759 100.68C421.175 100.904 421.591 101.08 422.007 101.208C422.423 101.336 422.839 101.4 423.255 101.4C423.863 101.4 424.351 101.2 424.719 100.8C425.087 100.384 425.271 99.832 425.271 99.144L425.319 84.816H429.087L429.039 99.096C429.023 101.08 428.511 102.544 427.503 103.488C426.495 104.432 425.079 104.904 423.255 104.904C422.551 104.904 421.887 104.816 421.263 104.64C420.655 104.464 420.055 104.216 419.463 103.896L420.759 100.68Z" fill="black"/>
</g>
<g filter="url(#filter19_d_1_2)">
<rect x="70" y="70" width="50" height="50" rx="6" fill="#EBEBEB"/>
<path d="M90.225 98.112C90.705 99.168 91.377 100 92.241 100.608C93.121 101.2 94.145 101.496 95.313 101.496C96.497 101.496 97.401 101.296 98.025 100.896C98.665 100.496 98.985 99.928 98.985 99.192C98.985 98.536 98.793 98.016 98.409 97.632C98.041 97.248 97.409 96.936 96.513 96.696L93.657 95.928C92.073 95.512 90.761 94.864 89.721 93.984C88.697 93.088 88.185 91.832 88.185 90.216C88.185 89.048 88.489 88.032 89.097 87.168C89.705 86.288 90.537 85.616 91.593 85.152C92.649 84.688 93.833 84.456 95.145 84.456C96.937 84.456 98.489 84.912 99.801 85.824C101.113 86.72 102.057 87.848 102.633 89.208L99.513 90.792C99.065 89.928 98.473 89.224 97.737 88.68C97.001 88.136 96.137 87.864 95.145 87.864C94.089 87.864 93.281 88.072 92.721 88.488C92.177 88.904 91.905 89.48 91.905 90.216C91.905 90.872 92.121 91.376 92.553 91.728C93.001 92.08 93.657 92.368 94.521 92.592L97.257 93.312C98.825 93.728 100.121 94.4 101.145 95.328C102.185 96.256 102.705 97.544 102.705 99.192C102.705 100.36 102.377 101.376 101.721 102.24C101.081 103.104 100.201 103.76 99.081 104.208C97.961 104.672 96.705 104.904 95.313 104.904C93.329 104.904 91.625 104.448 90.201 103.536C88.777 102.624 87.729 101.344 87.057 99.696L90.225 98.112Z" fill="black"/>
</g>
<g filter="url(#filter20_d_1_2)">
<rect x="580" y="130" width="50" height="50" rx="6" fill="#EBEBEB"/>
<path d="M599.315 167.904L607.715 142.416H611.675L603.275 167.904H599.315Z" fill="black"/>
</g>
<g filter="url(#filter21_d_1_2)">
<rect x="250" y="130" width="50" height="50" rx="6" fill="#EBEBEB"/>
<path d="M269.755 164.544V161.232H276.835C277.827 161.232 278.595 161.024 279.139 160.608C279.683 160.192 279.955 159.56 279.955 158.712C279.955 157.864 279.675 157.224 279.115 156.792C278.571 156.36 277.811 156.144 276.835 156.144H269.755V153.072H275.899C276.875 153.072 277.635 152.864 278.179 152.448C278.739 152.016 279.019 151.392 279.019 150.576C279.019 149.744 278.747 149.128 278.203 148.728C277.659 148.328 276.891 148.128 275.899 148.128H269.779V144.816H275.923C278.019 144.816 279.675 145.288 280.891 146.232C282.123 147.176 282.739 148.6 282.739 150.504C282.739 151.336 282.539 152.072 282.139 152.712C281.739 153.352 281.115 153.856 280.267 154.224C281.419 154.624 282.275 155.216 282.835 156C283.395 156.768 283.675 157.696 283.675 158.784C283.675 160.72 283.067 162.16 281.851 163.104C280.635 164.064 278.971 164.544 276.859 164.544H269.755ZM268.051 164.544V144.816H271.819V164.544H268.051Z" fill="black"/>
</g>
<g filter="url(#filter22_d_1_2)">
<rect x="460" y="130" width="50" height="50" rx="6" fill="#EBEBEB"/>
<path d="M482.687 164.624L483.215 156.632H487.079L485.759 164.624H482.687Z" fill="black"/>
</g>
<g filter="url(#filter23_d_1_2)">
<rect x="130" y="130" width="50" height="50" rx="6" fill="#EBEBEB"/>
<path d="M155.726 164.904C154.174 164.904 152.742 164.56 151.43 163.872C150.134 163.2 149.094 162.224 148.31 160.944C147.542 159.648 147.158 158.12 147.158 156.36V153C147.158 151.256 147.542 149.736 148.31 148.44C149.094 147.144 150.134 146.16 151.43 145.488C152.742 144.8 154.174 144.456 155.726 144.456C157.838 144.456 159.614 145.04 161.054 146.208C162.51 147.36 163.478 148.96 163.958 151.008L160.382 152.04C160.046 150.68 159.502 149.664 158.75 148.992C157.998 148.304 156.99 147.96 155.726 147.96C154.846 147.96 154.038 148.16 153.302 148.56C152.582 148.944 152.006 149.528 151.574 150.312C151.142 151.096 150.926 152.04 150.926 153.144V156.216C150.926 157.32 151.142 158.264 151.574 159.048C152.006 159.832 152.582 160.424 153.302 160.824C154.038 161.208 154.846 161.4 155.726 161.4C156.99 161.4 157.998 161.064 158.75 160.392C159.502 159.704 160.046 158.68 160.382 157.32L163.958 158.352C163.478 160.4 162.51 162 161.054 163.152C159.614 164.32 157.838 164.904 155.726 164.904Z" fill="black"/>
</g>
<g filter="url(#filter24_d_1_2)">
<rect x="340" y="130" width="50" height="50" rx="6" fill="#EBEBEB"/>
<path d="M356.989 164.544V144.816H360.637L369.541 158.064V144.816H373.261V164.544H369.613L360.709 151.296V164.544H356.989Z" fill="black"/>
</g>
<g filter="url(#filter25_d_1_2)">
<rect x="10" y="130" width="50" height="50" rx="6" fill="#EBEBEB"/>
<path d="M28.3272 164.544V161.616L37.5432 148.224H28.6872V144.816H42.2232V147.744L32.9832 161.136H42.6792V164.544H28.3272Z" fill="black"/>
</g>
<g filter="url(#filter26_d_1_2)">
<rect x="400" y="190" width="50" height="50" rx="6" fill="#EBEBEB"/>
<path d="M408.295 221.802V207.828H410.964V221.802H408.295ZM409.757 221.802V219.456H417.611V221.802H409.757ZM409.757 215.784V213.438H417.118V215.784H409.757ZM409.757 210.174V207.828H417.441V210.174H409.757ZM419.485 221.802V207.828H422.069L428.376 217.212V207.828H431.011V221.802H428.427L422.12 212.418V221.802H419.485ZM436.631 221.802V208.899H439.3V221.802H436.631ZM432.364 210.259V207.828H443.55V210.259H432.364Z" fill="black"/>
</g>
<g filter="url(#filter27_d_1_2)">
<rect x="340" y="190" width="50" height="50" rx="6" fill="#EBEBEB"/>
<path d="M348.878 221.802V219.456H353.893C354.596 219.456 355.14 219.309 355.525 219.014C355.91 218.719 356.103 218.272 356.103 217.671C356.103 217.07 355.905 216.617 355.508 216.311C355.123 216.005 354.584 215.852 353.893 215.852H348.878V213.676H353.23C353.921 213.676 354.46 213.529 354.845 213.234C355.242 212.928 355.44 212.486 355.44 211.908C355.44 211.319 355.247 210.882 354.862 210.599C354.477 210.316 353.933 210.174 353.23 210.174H348.895V207.828H353.247C354.732 207.828 355.905 208.162 356.766 208.831C357.639 209.5 358.075 210.508 358.075 211.857C358.075 212.446 357.933 212.968 357.65 213.421C357.367 213.874 356.925 214.231 356.324 214.492C357.14 214.775 357.746 215.195 358.143 215.75C358.54 216.294 358.738 216.951 358.738 217.722C358.738 219.093 358.307 220.113 357.446 220.782C356.585 221.462 355.406 221.802 353.91 221.802H348.878ZM347.671 221.802V207.828H350.34V221.802H347.671ZM361.834 217.246C362.174 217.994 362.65 218.583 363.262 219.014C363.885 219.433 364.61 219.643 365.438 219.643C366.276 219.643 366.917 219.501 367.359 219.218C367.812 218.935 368.039 218.532 368.039 218.011C368.039 217.546 367.903 217.178 367.631 216.906C367.37 216.634 366.922 216.413 366.288 216.243L364.265 215.699C363.143 215.404 362.213 214.945 361.477 214.322C360.751 213.687 360.389 212.798 360.389 211.653C360.389 210.826 360.604 210.106 361.035 209.494C361.465 208.871 362.055 208.395 362.803 208.066C363.551 207.737 364.389 207.573 365.319 207.573C366.588 207.573 367.687 207.896 368.617 208.542C369.546 209.177 370.215 209.976 370.623 210.939L368.413 212.061C368.095 211.449 367.676 210.95 367.155 210.565C366.633 210.18 366.021 209.987 365.319 209.987C364.571 209.987 363.998 210.134 363.602 210.429C363.216 210.724 363.024 211.132 363.024 211.653C363.024 212.118 363.177 212.475 363.483 212.724C363.8 212.973 364.265 213.177 364.877 213.336L366.815 213.846C367.925 214.141 368.843 214.617 369.569 215.274C370.305 215.931 370.674 216.844 370.674 218.011C370.674 218.838 370.441 219.558 369.977 220.17C369.523 220.782 368.9 221.247 368.107 221.564C367.313 221.893 366.424 222.057 365.438 222.057C364.032 222.057 362.825 221.734 361.817 221.088C360.808 220.442 360.066 219.535 359.59 218.368L361.834 217.246ZM372.457 221.802V207.828H375.126V221.802H372.457ZM373.834 216.566V214.22H378.152C378.889 214.22 379.45 214.044 379.835 213.693C380.232 213.342 380.43 212.843 380.43 212.197C380.43 211.551 380.232 211.052 379.835 210.701C379.45 210.35 378.889 210.174 378.152 210.174H373.834V207.828H378.288C379.727 207.828 380.889 208.202 381.773 208.95C382.657 209.687 383.099 210.769 383.099 212.197C383.099 213.636 382.657 214.724 381.773 215.461C380.889 216.198 379.727 216.566 378.288 216.566H373.834Z" fill="black"/>
</g>
<g filter="url(#filter28_d_1_2)">
<rect x="190" y="190" width="50" height="50" rx="6" fill="#EBEBEB"/>
<path d="M201.771 221.802V208.899H204.44V221.802H201.771ZM197.504 210.259V207.828H208.69V210.259H197.504ZM217.931 221.802L213.137 207.828H215.789L220.651 221.802H217.931ZM207.595 221.802L212.457 207.828H215.109L210.315 221.802H207.595ZM210.893 217.926V215.529H217.353V217.926H210.893ZM223.301 221.802V219.456H228.316C229.018 219.456 229.562 219.309 229.948 219.014C230.333 218.719 230.526 218.272 230.526 217.671C230.526 217.07 230.327 216.617 229.931 216.311C229.545 216.005 229.007 215.852 228.316 215.852H223.301V213.676H227.653C228.344 213.676 228.882 213.529 229.268 213.234C229.664 212.928 229.863 212.486 229.863 211.908C229.863 211.319 229.67 210.882 229.285 210.599C228.899 210.316 228.355 210.174 227.653 210.174H223.318V207.828H227.67C229.154 207.828 230.327 208.162 231.189 208.831C232.061 209.5 232.498 210.508 232.498 211.857C232.498 212.446 232.356 212.968 232.073 213.421C231.789 213.874 231.347 214.231 230.747 214.492C231.563 214.775 232.169 215.195 232.566 215.75C232.962 216.294 233.161 216.951 233.161 217.722C233.161 219.093 232.73 220.113 231.869 220.782C231.007 221.462 229.829 221.802 228.333 221.802H223.301ZM222.094 221.802V207.828H224.763V221.802H222.094Z" fill="black"/>
</g>
<g filter="url(#filter29_d_1_2)">
<rect x="400" y="130" width="50" height="50" rx="6" fill="#EBEBEB"/>
<path d="M423.744 164.544L431.136 144.816H434.784L427.368 164.544H423.744ZM414.84 164.544V144.816H418.536V164.544H414.84ZM423.624 164.544L416.208 144.816H419.856L427.248 164.544H423.624ZM432.456 164.544V144.816H436.152V164.544H432.456Z" fill="black"/>
</g>
<g filter="url(#filter30_d_1_2)">
<rect x="70" y="130" width="50" height="50" rx="6" fill="#EBEBEB"/>
<path d="M86.6463 164.544L93.3423 154.32L87.1263 144.816H91.4943L95.5023 151.128L99.5583 144.816H103.902L97.6623 154.32L104.358 164.544H100.014L95.5023 157.536L90.9903 164.544H86.6463Z" fill="black"/>
</g>
<g filter="url(#filter31_d_1_2)">
<rect x="520" y="130" width="50" height="50" rx="6" fill="#EBEBEB"/>
<path d="M545.002 160.904C544.378 160.904 543.842 160.68 543.394 160.232C542.962 159.8 542.746 159.272 542.746 158.648C542.746 158.024 542.962 157.496 543.394 157.064C543.842 156.616 544.378 156.392 545.002 156.392C545.626 156.392 546.154 156.616 546.586 157.064C547.034 157.496 547.258 158.024 547.258 158.648C547.258 159.272 547.034 159.8 546.586 160.232C546.154 160.68 545.626 160.904 545.002 160.904Z" fill="black"/>
</g>
<g filter="url(#filter32_d_1_2)">
<rect x="190" y="130" width="50" height="50" rx="6" fill="#EBEBEB"/>
<path d="M214.155 164.544L220.635 144.816H224.595L218.043 164.544H214.155ZM212.979 164.544L206.403 144.816H210.363L216.843 164.544H212.979Z" fill="black"/>
</g>
<g filter="url(#filter33_d_1_2)">
<rect x="250" y="190" width="50" height="50" rx="6" fill="#EBEBEB"/>
<path d="M258.818 217.246C259.158 217.994 259.634 218.583 260.246 219.014C260.869 219.433 261.595 219.643 262.422 219.643C263.261 219.643 263.901 219.501 264.343 219.218C264.796 218.935 265.023 218.532 265.023 218.011C265.023 217.546 264.887 217.178 264.615 216.906C264.354 216.634 263.907 216.413 263.272 216.243L261.249 215.699C260.127 215.404 259.198 214.945 258.461 214.322C257.736 213.687 257.373 212.798 257.373 211.653C257.373 210.826 257.588 210.106 258.019 209.494C258.45 208.871 259.039 208.395 259.787 208.066C260.535 207.737 261.374 207.573 262.303 207.573C263.572 207.573 264.672 207.896 265.601 208.542C266.53 209.177 267.199 209.976 267.607 210.939L265.397 212.061C265.08 211.449 264.66 210.95 264.139 210.565C263.618 210.18 263.006 209.987 262.303 209.987C261.555 209.987 260.983 210.134 260.586 210.429C260.201 210.724 260.008 211.132 260.008 211.653C260.008 212.118 260.161 212.475 260.467 212.724C260.784 212.973 261.249 213.177 261.861 213.336L263.799 213.846C264.91 214.141 265.828 214.617 266.553 215.274C267.29 215.931 267.658 216.844 267.658 218.011C267.658 218.838 267.426 219.558 266.961 220.17C266.508 220.782 265.884 221.247 265.091 221.564C264.298 221.893 263.408 222.057 262.422 222.057C261.017 222.057 259.81 221.734 258.801 221.088C257.792 220.442 257.05 219.535 256.574 218.368L258.818 217.246ZM269.441 221.802V207.828H272.11V221.802H269.441ZM270.818 216.566V214.22H275.136C275.873 214.22 276.434 214.044 276.819 213.693C277.216 213.342 277.414 212.843 277.414 212.197C277.414 211.551 277.216 211.052 276.819 210.701C276.434 210.35 275.873 210.174 275.136 210.174H270.818V207.828H275.272C276.712 207.828 277.873 208.202 278.757 208.95C279.641 209.687 280.083 210.769 280.083 212.197C280.083 213.636 279.641 214.724 278.757 215.461C277.873 216.198 276.712 216.566 275.272 216.566H270.818ZM287.337 222.057C286.238 222.057 285.224 221.813 284.294 221.326C283.376 220.85 282.64 220.159 282.084 219.252C281.54 218.334 281.268 217.252 281.268 216.005V213.625C281.268 212.39 281.54 211.313 282.084 210.395C282.64 209.477 283.376 208.78 284.294 208.304C285.224 207.817 286.238 207.573 287.337 207.573C288.833 207.573 290.091 207.987 291.111 208.814C292.143 209.63 292.828 210.763 293.168 212.214L290.635 212.945C290.397 211.982 290.012 211.262 289.479 210.786C288.947 210.299 288.233 210.055 287.337 210.055C286.714 210.055 286.142 210.197 285.62 210.48C285.11 210.752 284.702 211.166 284.396 211.721C284.09 212.276 283.937 212.945 283.937 213.727V215.903C283.937 216.685 284.09 217.354 284.396 217.909C284.702 218.464 285.11 218.884 285.62 219.167C286.142 219.439 286.714 219.575 287.337 219.575C288.233 219.575 288.947 219.337 289.479 218.861C290.012 218.374 290.397 217.648 290.635 216.685L293.168 217.416C292.828 218.867 292.143 220 291.111 220.816C290.091 221.643 288.833 222.057 287.337 222.057Z" fill="black"/>
</g>
<rect x="590" y="173" width="30" height="13" rx="6" fill="#54B5EB"/>
<path d="M598.623 180.871C598.783 181.223 599.007 181.5 599.295 181.703C599.589 181.9 599.93 181.999 600.319 181.999C600.714 181.999 601.015 181.932 601.223 181.799C601.437 181.665 601.543 181.476 601.543 181.231C601.543 181.012 601.479 180.839 601.351 180.711C601.229 180.583 601.018 180.479 600.719 180.399L599.767 180.143C599.239 180.004 598.802 179.788 598.455 179.495C598.114 179.196 597.943 178.777 597.943 178.239C597.943 177.849 598.045 177.511 598.247 177.223C598.45 176.929 598.727 176.705 599.079 176.551C599.431 176.396 599.826 176.319 600.263 176.319C600.861 176.319 601.378 176.471 601.815 176.775C602.253 177.073 602.567 177.449 602.759 177.903L601.719 178.431C601.57 178.143 601.373 177.908 601.127 177.727C600.882 177.545 600.594 177.455 600.263 177.455C599.911 177.455 599.642 177.524 599.455 177.663C599.274 177.801 599.183 177.993 599.183 178.239C599.183 178.457 599.255 178.625 599.399 178.743C599.549 178.86 599.767 178.956 600.055 179.031L600.967 179.271C601.49 179.409 601.922 179.633 602.263 179.943C602.61 180.252 602.783 180.681 602.783 181.231C602.783 181.62 602.674 181.959 602.455 182.247C602.242 182.535 601.949 182.753 601.575 182.903C601.202 183.057 600.783 183.135 600.319 183.135C599.658 183.135 599.09 182.983 598.615 182.679C598.141 182.375 597.791 181.948 597.567 181.399L598.623 180.871ZM603.623 183.015V176.439H604.879V183.015H603.623ZM604.311 180.263V179.159H607.535V180.263H604.311ZM604.311 177.543V176.439H607.847V177.543H604.311ZM610.215 183.015V176.943H611.471V183.015H610.215ZM608.207 177.583V176.439H613.471V177.583H608.207Z" fill="black"/>
<rect x="20" y="173" width="30" height="13" rx="6" fill="#54B5EB"/>
<path d="M28.6232 180.871C28.7832 181.223 29.0072 181.5 29.2952 181.703C29.5885 181.9 29.9299 181.999 30.3192 181.999C30.7139 181.999 31.0152 181.932 31.2232 181.799C31.4365 181.665 31.5432 181.476 31.5432 181.231C31.5432 181.012 31.4792 180.839 31.3512 180.711C31.2285 180.583 31.0179 180.479 30.7192 180.399L29.7672 180.143C29.2392 180.004 28.8019 179.788 28.4552 179.495C28.1139 179.196 27.9432 178.777 27.9432 178.239C27.9432 177.849 28.0445 177.511 28.2472 177.223C28.4499 176.929 28.7272 176.705 29.0792 176.551C29.4312 176.396 29.8259 176.319 30.2632 176.319C30.8605 176.319 31.3779 176.471 31.8152 176.775C32.2525 177.073 32.5672 177.449 32.7592 177.903L31.7192 178.431C31.5699 178.143 31.3725 177.908 31.1272 177.727C30.8819 177.545 30.5939 177.455 30.2632 177.455C29.9112 177.455 29.6419 177.524 29.4552 177.663C29.2739 177.801 29.1832 177.993 29.1832 178.239C29.1832 178.457 29.2552 178.625 29.3992 178.743C29.5485 178.86 29.7672 178.956 30.0552 179.031L30.9672 179.271C31.4899 179.409 31.9219 179.633 32.2632 179.943C32.6099 180.252 32.7832 180.681 32.7832 181.231C32.7832 181.62 32.6739 181.959 32.4552 182.247C32.2419 182.535 31.9485 182.753 31.5752 182.903C31.2019 183.057 30.7832 183.135 30.3192 183.135C29.6579 183.135 29.0899 182.983 28.6152 182.679C28.1405 182.375 27.7912 181.948 27.5672 181.399L28.6232 180.871ZM33.6225 183.015V176.439H34.8785V183.015H33.6225ZM34.3105 180.263V179.159H37.5345V180.263H34.3105ZM34.3105 177.543V176.439H37.8465V177.543H34.3105ZM40.2149 183.015V176.943H41.4709V183.015H40.2149ZM38.2069 177.583V176.439H43.4709V177.583H38.2069Z" fill="black"/>
<rect x="110" y="27" width="30" height="15" rx="6" fill="#EBAF54"/>
<path d="M117.439 37.848V31.272H118.695V37.848H117.439ZM118.127 37.848V36.744H121.823V37.848H118.127ZM118.127 35.016V33.912H121.591V35.016H118.127ZM118.127 32.376V31.272H121.743V32.376H118.127ZM123.401 35.704C123.561 36.056 123.785 36.3333 124.073 36.536C124.366 36.7333 124.707 36.832 125.097 36.832C125.491 36.832 125.793 36.7653 126.001 36.632C126.214 36.4987 126.321 36.3093 126.321 36.064C126.321 35.8453 126.257 35.672 126.129 35.544C126.006 35.416 125.795 35.312 125.497 35.232L124.545 34.976C124.017 34.8373 123.579 34.6213 123.233 34.328C122.891 34.0293 122.721 33.6107 122.721 33.072C122.721 32.6827 122.822 32.344 123.025 32.056C123.227 31.7627 123.505 31.5387 123.857 31.384C124.209 31.2293 124.603 31.152 125.041 31.152C125.638 31.152 126.155 31.304 126.593 31.608C127.03 31.9067 127.345 32.2827 127.537 32.736L126.497 33.264C126.347 32.976 126.15 32.7413 125.905 32.56C125.659 32.3787 125.371 32.288 125.041 32.288C124.689 32.288 124.419 32.3573 124.233 32.496C124.051 32.6347 123.961 32.8267 123.961 33.072C123.961 33.2907 124.033 33.4587 124.177 33.576C124.326 33.6933 124.545 33.7893 124.833 33.864L125.745 34.104C126.267 34.2427 126.699 34.4667 127.041 34.776C127.387 35.0853 127.561 35.5147 127.561 36.064C127.561 36.4533 127.451 36.792 127.233 37.08C127.019 37.368 126.726 37.5867 126.353 37.736C125.979 37.8907 125.561 37.968 125.097 37.968C124.435 37.968 123.867 37.816 123.393 37.512C122.918 37.208 122.569 36.7813 122.345 36.232L123.401 35.704ZM131.056 37.968C130.539 37.968 130.061 37.8533 129.624 37.624C129.192 37.4 128.845 37.0747 128.584 36.648C128.328 36.216 128.2 35.7067 128.2 35.12V34C128.2 33.4187 128.328 32.912 128.584 32.48C128.845 32.048 129.192 31.72 129.624 31.496C130.061 31.2667 130.539 31.152 131.056 31.152C131.76 31.152 132.352 31.3467 132.832 31.736C133.317 32.12 133.64 32.6533 133.8 33.336L132.608 33.68C132.496 33.2267 132.315 32.888 132.064 32.664C131.813 32.4347 131.477 32.32 131.056 32.32C130.763 32.32 130.493 32.3867 130.248 32.52C130.008 32.648 129.816 32.8427 129.672 33.104C129.528 33.3653 129.456 33.68 129.456 34.048V35.072C129.456 35.44 129.528 35.7547 129.672 36.016C129.816 36.2773 130.008 36.4747 130.248 36.608C130.493 36.736 130.763 36.8 131.056 36.8C131.477 36.8 131.813 36.688 132.064 36.464C132.315 36.2347 132.496 35.8933 132.608 35.44L133.8 35.784C133.64 36.4667 133.317 37 132.832 37.384C132.352 37.7733 131.76 37.968 131.056 37.968Z" fill="black"/>
<rect x="440" y="87" width="30" height="15" rx="6" fill="#EBAF54"/>
<path d="M447.913 97.848V96.744H450.273C450.604 96.744 450.86 96.6747 451.041 96.536C451.222 96.3973 451.313 96.1867 451.313 95.904C451.313 95.6213 451.22 95.408 451.033 95.264C450.852 95.12 450.598 95.048 450.273 95.048H447.913V94.024H449.961C450.286 94.024 450.54 93.9547 450.721 93.816C450.908 93.672 451.001 93.464 451.001 93.192C451.001 92.9147 450.91 92.7093 450.729 92.576C450.548 92.4427 450.292 92.376 449.961 92.376H447.921V91.272H449.969C450.668 91.272 451.22 91.4293 451.625 91.744C452.036 92.0587 452.241 92.5333 452.241 93.168C452.241 93.4453 452.174 93.6907 452.041 93.904C451.908 94.1173 451.7 94.2853 451.417 94.408C451.801 94.5413 452.086 94.7387 452.273 95C452.46 95.256 452.553 95.5653 452.553 95.928C452.553 96.5733 452.35 97.0533 451.945 97.368C451.54 97.688 450.985 97.848 450.281 97.848H447.913ZM447.345 97.848V91.272H448.601V97.848H447.345ZM454.01 95.704C454.17 96.056 454.394 96.3333 454.682 96.536C454.975 96.7333 455.317 96.832 455.706 96.832C456.101 96.832 456.402 96.7653 456.61 96.632C456.823 96.4987 456.93 96.3093 456.93 96.064C456.93 95.8453 456.866 95.672 456.738 95.544C456.615 95.416 456.405 95.312 456.106 95.232L455.154 94.976C454.626 94.8373 454.189 94.6213 453.842 94.328C453.501 94.0293 453.33 93.6107 453.33 93.072C453.33 92.6827 453.431 92.344 453.634 92.056C453.837 91.7627 454.114 91.5387 454.466 91.384C454.818 91.2293 455.213 91.152 455.65 91.152C456.247 91.152 456.765 91.304 457.202 91.608C457.639 91.9067 457.954 92.2827 458.146 92.736L457.106 93.264C456.957 92.976 456.759 92.7413 456.514 92.56C456.269 92.3787 455.981 92.288 455.65 92.288C455.298 92.288 455.029 92.3573 454.842 92.496C454.661 92.6347 454.57 92.8267 454.57 93.072C454.57 93.2907 454.642 93.4587 454.786 93.576C454.935 93.6933 455.154 93.7893 455.442 93.864L456.354 94.104C456.877 94.2427 457.309 94.4667 457.65 94.776C457.997 95.0853 458.17 95.5147 458.17 96.064C458.17 96.4533 458.061 96.792 457.842 97.08C457.629 97.368 457.335 97.5867 456.962 97.736C456.589 97.8907 456.17 97.968 455.706 97.968C455.045 97.968 454.477 97.816 454.002 97.512C453.527 97.208 453.178 96.7813 452.954 96.232L454.01 95.704ZM459.009 97.848V91.272H460.265V97.848H459.009ZM459.657 95.384V94.28H461.689C462.036 94.28 462.3 94.1973 462.481 94.032C462.668 93.8667 462.761 93.632 462.761 93.328C462.761 93.024 462.668 92.7893 462.481 92.624C462.3 92.4587 462.036 92.376 461.689 92.376H459.657V91.272H461.753C462.431 91.272 462.977 91.448 463.393 91.8C463.809 92.1467 464.017 92.656 464.017 93.328C464.017 94.0053 463.809 94.5173 463.393 94.864C462.977 95.2107 462.431 95.384 461.753 95.384H459.657Z" fill="black"/>
<rect x="500" y="87" width="30" height="15" rx="6" fill="#EBAF54"/>
<path d="M508.298 97.968C507.781 97.968 507.303 97.8533 506.866 97.624C506.434 97.4 506.087 97.0747 505.826 96.648C505.57 96.216 505.442 95.7067 505.442 95.12V94C505.442 93.4187 505.57 92.912 505.826 92.48C506.087 92.048 506.434 91.72 506.866 91.496C507.303 91.2667 507.781 91.152 508.298 91.152C509.002 91.152 509.594 91.3467 510.074 91.736C510.559 92.12 510.882 92.6533 511.042 93.336L509.85 93.68C509.738 93.2267 509.557 92.888 509.306 92.664C509.055 92.4347 508.719 92.32 508.298 92.32C508.005 92.32 507.735 92.3867 507.49 92.52C507.25 92.648 507.058 92.8427 506.914 93.104C506.77 93.3653 506.698 93.68 506.698 94.048V95.072C506.698 95.44 506.77 95.7547 506.914 96.016C507.058 96.2773 507.25 96.4747 507.49 96.608C507.735 96.736 508.005 96.8 508.298 96.8C508.719 96.8 509.055 96.688 509.306 96.464C509.557 96.2347 509.738 95.8933 509.85 95.44L511.042 95.784C510.882 96.4667 510.559 97 510.074 97.384C509.594 97.7733 509.002 97.968 508.298 97.968ZM514.891 97.848L517.355 91.272H518.571L516.099 97.848H514.891ZM511.923 97.848V91.272H513.155V97.848H511.923ZM514.851 97.848L512.379 91.272H513.595L516.059 97.848H514.851ZM517.795 97.848V91.272H519.027V97.848H517.795ZM520.718 97.848V96.704H522.566C522.907 96.704 523.209 96.64 523.47 96.512C523.731 96.384 523.934 96.1867 524.078 95.92C524.227 95.648 524.302 95.312 524.302 94.912V94.208C524.302 93.808 524.227 93.4747 524.078 93.208C523.934 92.9413 523.731 92.744 523.47 92.616C523.209 92.4827 522.907 92.416 522.566 92.416H520.83V91.272H522.566C523.137 91.272 523.649 91.3867 524.102 91.616C524.555 91.84 524.91 92.1707 525.166 92.608C525.427 93.0453 525.558 93.5653 525.558 94.168V94.952C525.558 95.5547 525.427 96.0747 525.166 96.512C524.91 96.9493 524.555 97.28 524.102 97.504C523.649 97.7333 523.137 97.848 522.566 97.848H520.718ZM520.15 97.848V91.272H521.406V97.848H520.15Z" fill="black"/>
<rect x="500" y="147" width="30" height="15" rx="6" fill="#EBAF54"/>
<path d="M512.425 157.848L510.169 151.272H511.417L513.705 157.848H512.425ZM507.561 157.848L509.849 151.272H511.097L508.841 157.848H507.561ZM509.113 156.024V154.896H512.153V156.024H509.113ZM514.384 157.848V151.272H515.64V157.848H514.384ZM515.072 157.848V156.744H518.528V157.848H515.072ZM520.141 157.848V151.776H521.397V157.848H520.141ZM518.133 152.416V151.272H523.397V152.416H518.133Z" fill="black"/>
<rect x="500" y="29" width="30" height="15" rx="6" fill="#EBAF54"/>
<path d="M508.398 39.848V38.704H510.246C510.587 38.704 510.888 38.64 511.15 38.512C511.411 38.384 511.614 38.1867 511.758 37.92C511.907 37.648 511.982 37.312 511.982 36.912V36.208C511.982 35.808 511.907 35.4747 511.758 35.208C511.614 34.9413 511.411 34.744 511.15 34.616C510.888 34.4827 510.587 34.416 510.246 34.416H508.51V33.272H510.246C510.816 33.272 511.328 33.3867 511.782 33.616C512.235 33.84 512.59 34.1707 512.846 34.608C513.107 35.0453 513.238 35.5653 513.238 36.168V36.952C513.238 37.5547 513.107 38.0747 512.846 38.512C512.59 38.9493 512.235 39.28 511.782 39.504C511.328 39.7333 510.816 39.848 510.246 39.848H508.398ZM507.83 39.848V33.272H509.086V39.848H507.83ZM514.158 39.848V33.272H515.414V39.848H514.158ZM514.846 39.848V38.744H518.542V39.848H514.846ZM514.846 37.016V35.912H518.31V37.016H514.846ZM514.846 34.376V33.272H518.462V34.376H514.846ZM519.423 39.848V33.272H520.679V39.848H519.423ZM520.111 39.848V38.744H523.567V39.848H520.111Z" fill="black"/>
<rect x="110" y="87" width="30" height="15" rx="6" fill="#EBAF54"/>
<path d="M118.298 97.968C117.781 97.968 117.303 97.8533 116.866 97.624C116.434 97.4 116.087 97.0747 115.826 96.648C115.57 96.216 115.442 95.7067 115.442 95.12V94C115.442 93.4187 115.57 92.912 115.826 92.48C116.087 92.048 116.434 91.72 116.866 91.496C117.303 91.2667 117.781 91.152 118.298 91.152C119.002 91.152 119.594 91.3467 120.074 91.736C120.559 92.12 120.882 92.6533 121.042 93.336L119.85 93.68C119.738 93.2267 119.557 92.888 119.306 92.664C119.055 92.4347 118.719 92.32 118.298 92.32C118.005 92.32 117.735 92.3867 117.49 92.52C117.25 92.648 117.058 92.8427 116.914 93.104C116.77 93.3653 116.698 93.68 116.698 94.048V95.072C116.698 95.44 116.77 95.7547 116.914 96.016C117.058 96.2773 117.25 96.4747 117.49 96.608C117.735 96.736 118.005 96.8 118.298 96.8C118.719 96.8 119.055 96.688 119.306 96.464C119.557 96.2347 119.738 95.8933 119.85 95.44L121.042 95.784C120.882 96.4667 120.559 97 120.074 97.384C119.594 97.7733 119.002 97.968 118.298 97.968ZM124.891 97.848L127.355 91.272H128.571L126.099 97.848H124.891ZM121.923 97.848V91.272H123.155V97.848H121.923ZM124.851 97.848L122.379 91.272H123.595L126.059 97.848H124.851ZM127.795 97.848V91.272H129.027V97.848H127.795ZM130.718 97.848V96.704H132.566C132.907 96.704 133.209 96.64 133.47 96.512C133.731 96.384 133.934 96.1867 134.078 95.92C134.227 95.648 134.302 95.312 134.302 94.912V94.208C134.302 93.808 134.227 93.4747 134.078 93.208C133.934 92.9413 133.731 92.744 133.47 92.616C133.209 92.4827 132.907 92.416 132.566 92.416H130.83V91.272H132.566C133.137 91.272 133.649 91.3867 134.102 91.616C134.555 91.84 134.91 92.1707 135.166 92.608C135.427 93.0453 135.558 93.5653 135.558 94.168V94.952C135.558 95.5547 135.427 96.0747 135.166 96.512C134.91 96.9493 134.555 97.28 134.102 97.504C133.649 97.7333 133.137 97.848 132.566 97.848H130.718ZM130.15 97.848V91.272H131.406V97.848H130.15Z" fill="black"/>
<rect x="110" y="148" width="30" height="15" rx="6" fill="#EBAF54"/>
<path d="M122.425 158.848L120.169 152.272H121.417L123.705 158.848H122.425ZM117.561 158.848L119.849 152.272H121.097L118.841 158.848H117.561ZM119.113 157.024V155.896H122.153V157.024H119.113ZM124.384 158.848V152.272H125.64V158.848H124.384ZM125.072 158.848V157.744H128.528V158.848H125.072ZM130.141 158.848V152.776H131.397V158.848H130.141ZM128.133 153.416V152.272H133.397V153.416H128.133Z" fill="black"/>
<rect x="410" y="233" width="30" height="13" rx="6" fill="#54B5EB"/>
<path d="M418.829 243.015L421.293 236.439H422.509L420.037 243.015H418.829ZM415.861 243.015V236.439H417.093V243.015H415.861ZM418.789 243.015L416.317 236.439H417.533L419.997 243.015H418.789ZM421.733 243.015V236.439H422.965V243.015H421.733ZM426.751 243.135C426.234 243.135 425.757 243.02 425.319 242.791C424.882 242.567 424.533 242.241 424.271 241.815C424.015 241.383 423.887 240.873 423.887 240.287V239.167C423.887 238.585 424.015 238.079 424.271 237.647C424.533 237.215 424.882 236.887 425.319 236.663C425.757 236.433 426.234 236.319 426.751 236.319C427.269 236.319 427.746 236.433 428.183 236.663C428.621 236.887 428.967 237.215 429.223 237.647C429.485 238.079 429.615 238.585 429.615 239.167V240.287C429.615 240.873 429.485 241.383 429.223 241.815C428.967 242.241 428.621 242.567 428.183 242.791C427.746 243.02 427.269 243.135 426.751 243.135ZM426.751 241.967C427.045 241.967 427.314 241.903 427.559 241.775C427.805 241.641 427.999 241.444 428.143 241.183C428.287 240.921 428.359 240.607 428.359 240.239V239.215C428.359 238.847 428.285 238.535 428.135 238.279C427.991 238.017 427.797 237.82 427.551 237.687C427.311 237.553 427.045 237.487 426.751 237.487C426.458 237.487 426.189 237.553 425.943 237.687C425.703 237.82 425.509 238.017 425.359 238.279C425.215 238.535 425.143 238.847 425.143 239.215V240.239C425.143 240.607 425.215 240.921 425.359 241.183C425.509 241.444 425.703 241.641 425.943 241.775C426.189 241.903 426.458 241.967 426.751 241.967ZM433.405 243.135V236.439H434.645V243.135H433.405ZM430.293 241.855V240.871L432.997 236.439H434.317L431.805 240.711H435.461V241.855H430.293Z" fill="black"/>
<rect x="200" y="233" width="30" height="13" rx="6" fill="#54B5EB"/>
<path d="M209.637 243.015L212.101 236.439H213.317L210.845 243.015H209.637ZM206.669 243.015V236.439H207.901V243.015H206.669ZM209.597 243.015L207.125 236.439H208.341L210.805 243.015H209.597ZM212.541 243.015V236.439H213.773V243.015H212.541ZM217.56 243.135C217.043 243.135 216.565 243.02 216.128 242.791C215.691 242.567 215.341 242.241 215.08 241.815C214.824 241.383 214.696 240.873 214.696 240.287V239.167C214.696 238.585 214.824 238.079 215.08 237.647C215.341 237.215 215.691 236.887 216.128 236.663C216.565 236.433 217.043 236.319 217.56 236.319C218.077 236.319 218.555 236.433 218.992 236.663C219.429 236.887 219.776 237.215 220.032 237.647C220.293 238.079 220.424 238.585 220.424 239.167V240.287C220.424 240.873 220.293 241.383 220.032 241.815C219.776 242.241 219.429 242.567 218.992 242.791C218.555 243.02 218.077 243.135 217.56 243.135ZM217.56 241.967C217.853 241.967 218.123 241.903 218.368 241.775C218.613 241.641 218.808 241.444 218.952 241.183C219.096 240.921 219.168 240.607 219.168 240.239V239.215C219.168 238.847 219.093 238.535 218.944 238.279C218.8 238.017 218.605 237.82 218.36 237.687C218.12 237.553 217.853 237.487 217.56 237.487C217.267 237.487 216.997 237.553 216.752 237.687C216.512 237.82 216.317 238.017 216.168 238.279C216.024 238.535 215.952 238.847 215.952 239.215V240.239C215.952 240.607 216.024 240.921 216.168 241.183C216.317 241.444 216.512 241.641 216.752 241.775C216.997 241.903 217.267 241.967 217.56 241.967ZM222.837 243.015V238.095L221.637 239.015L220.941 238.087L223.077 236.439H224.093V243.015H222.837Z" fill="black"/>
<rect x="350" y="233" width="30" height="13" rx="6" fill="#54B5EB"/>
<path d="M358.805 243.015L361.269 236.439H362.485L360.013 243.015H358.805ZM355.837 243.015V236.439H357.069V243.015H355.837ZM358.765 243.015L356.293 236.439H357.509L359.973 243.015H358.765ZM361.709 243.015V236.439H362.941V243.015H361.709ZM366.728 243.135C366.211 243.135 365.733 243.02 365.296 242.791C364.859 242.567 364.509 242.241 364.248 241.815C363.992 241.383 363.864 240.873 363.864 240.287V239.167C363.864 238.585 363.992 238.079 364.248 237.647C364.509 237.215 364.859 236.887 365.296 236.663C365.733 236.433 366.211 236.319 366.728 236.319C367.245 236.319 367.723 236.433 368.16 236.663C368.597 236.887 368.944 237.215 369.2 237.647C369.461 238.079 369.592 238.585 369.592 239.167V240.287C369.592 240.873 369.461 241.383 369.2 241.815C368.944 242.241 368.597 242.567 368.16 242.791C367.723 243.02 367.245 243.135 366.728 243.135ZM366.728 241.967C367.021 241.967 367.291 241.903 367.536 241.775C367.781 241.641 367.976 241.444 368.12 241.183C368.264 240.921 368.336 240.607 368.336 240.239V239.215C368.336 238.847 368.261 238.535 368.112 238.279C367.968 238.017 367.773 237.82 367.528 237.687C367.288 237.553 367.021 237.487 366.728 237.487C366.435 237.487 366.165 237.553 365.92 237.687C365.68 237.82 365.485 238.017 365.336 238.279C365.192 238.535 365.12 238.847 365.12 239.215V240.239C365.12 240.607 365.192 240.921 365.336 241.183C365.485 241.444 365.68 241.641 365.92 241.775C366.165 241.903 366.435 241.967 366.728 241.967ZM371.413 241.023C371.531 241.321 371.699 241.561 371.917 241.743C372.136 241.924 372.429 242.015 372.797 242.015C373.053 242.015 373.272 241.977 373.453 241.903C373.64 241.823 373.781 241.716 373.877 241.583C373.973 241.444 374.021 241.289 374.021 241.119C374.021 240.937 373.971 240.775 373.869 240.631C373.773 240.487 373.624 240.372 373.421 240.287C373.219 240.201 372.971 240.159 372.677 240.159H371.797V239.111H372.677C373.067 239.111 373.36 239.033 373.557 238.879C373.76 238.719 373.861 238.508 373.861 238.247C373.861 237.991 373.763 237.793 373.565 237.655C373.373 237.511 373.109 237.439 372.773 237.439C372.213 237.439 371.821 237.724 371.597 238.295L370.493 237.879C370.669 237.404 370.947 237.025 371.325 236.743C371.704 236.46 372.187 236.319 372.773 236.319C373.216 236.319 373.611 236.391 373.957 236.535C374.309 236.679 374.584 236.889 374.781 237.167C374.984 237.444 375.085 237.777 375.085 238.167C375.085 238.535 374.997 238.836 374.821 239.071C374.651 239.3 374.421 239.487 374.133 239.631C374.459 239.759 374.725 239.956 374.933 240.223C375.141 240.484 375.245 240.804 375.245 241.183C375.245 241.577 375.141 241.921 374.933 242.215C374.725 242.508 374.435 242.735 374.061 242.895C373.693 243.055 373.272 243.135 372.797 243.135C372.152 243.135 371.621 242.98 371.205 242.671C370.795 242.367 370.496 241.953 370.309 241.431L371.413 241.023Z" fill="black"/>
<rect x="260" y="233" width="30" height="13" rx="6" fill="#54B5EB"/>
<path d="M268.895 243.015L271.359 236.439H272.575L270.103 243.015H268.895ZM265.927 243.015V236.439H267.159V243.015H265.927ZM268.855 243.015L266.383 236.439H267.599L270.063 243.015H268.855ZM271.799 243.015V236.439H273.031V243.015H271.799ZM276.818 243.135C276.3 243.135 275.823 243.02 275.386 242.791C274.948 242.567 274.599 242.241 274.338 241.815C274.082 241.383 273.954 240.873 273.954 240.287V239.167C273.954 238.585 274.082 238.079 274.338 237.647C274.599 237.215 274.948 236.887 275.386 236.663C275.823 236.433 276.3 236.319 276.818 236.319C277.335 236.319 277.812 236.433 278.25 236.663C278.687 236.887 279.034 237.215 279.29 237.647C279.551 238.079 279.682 238.585 279.682 239.167V240.287C279.682 240.873 279.551 241.383 279.29 241.815C279.034 242.241 278.687 242.567 278.25 242.791C277.812 243.02 277.335 243.135 276.818 243.135ZM276.818 241.967C277.111 241.967 277.38 241.903 277.626 241.775C277.871 241.641 278.066 241.444 278.21 241.183C278.354 240.921 278.426 240.607 278.426 240.239V239.215C278.426 238.847 278.351 238.535 278.202 238.279C278.058 238.017 277.863 237.82 277.618 237.687C277.378 237.553 277.111 237.487 276.818 237.487C276.524 237.487 276.255 237.553 276.01 237.687C275.77 237.82 275.575 238.017 275.426 238.279C275.282 238.535 275.21 238.847 275.21 239.215V240.239C275.21 240.607 275.282 240.921 275.426 241.183C275.575 241.444 275.77 241.641 276.01 241.775C276.255 241.903 276.524 241.967 276.818 241.967ZM280.567 243.015V242.047L282.911 239.727C283.226 239.412 283.45 239.148 283.583 238.935C283.722 238.716 283.791 238.492 283.791 238.263C283.791 238.017 283.706 237.82 283.535 237.671C283.364 237.516 283.116 237.439 282.791 237.439C282.487 237.439 282.239 237.537 282.047 237.735C281.855 237.932 281.714 238.201 281.623 238.543L280.439 238.255C280.588 237.7 280.863 237.239 281.263 236.871C281.668 236.503 282.178 236.319 282.791 236.319C283.234 236.319 283.623 236.393 283.959 236.543C284.295 236.687 284.556 236.903 284.743 237.191C284.93 237.473 285.023 237.812 285.023 238.207C285.023 238.612 284.932 238.975 284.751 239.295C284.57 239.615 284.287 239.967 283.903 240.351L282.351 241.871H285.151V243.015H280.567Z" fill="black"/>
<rect x="590" y="113" width="30" height="13" rx="6" fill="#54B5EB"/>
<path d="M597.466 123.135C596.949 123.135 596.471 123.02 596.034 122.791C595.602 122.567 595.255 122.241 594.994 121.815C594.738 121.383 594.61 120.873 594.61 120.287V119.167C594.61 118.585 594.738 118.079 594.994 117.647C595.255 117.215 595.602 116.887 596.034 116.663C596.471 116.433 596.949 116.319 597.466 116.319C598.17 116.319 598.762 116.513 599.242 116.903C599.727 117.287 600.05 117.82 600.21 118.503L599.018 118.847C598.906 118.393 598.725 118.055 598.474 117.831C598.223 117.601 597.887 117.487 597.466 117.487C597.173 117.487 596.903 117.553 596.658 117.687C596.418 117.815 596.226 118.009 596.082 118.271C595.938 118.532 595.866 118.847 595.866 119.215V120.239C595.866 120.607 595.938 120.921 596.082 121.183C596.226 121.444 596.418 121.641 596.658 121.775C596.903 121.903 597.173 121.967 597.466 121.967C597.887 121.967 598.223 121.855 598.474 121.631C598.725 121.401 598.906 121.06 599.018 120.607L600.21 120.951C600.05 121.633 599.727 122.167 599.242 122.551C598.762 122.94 598.17 123.135 597.466 123.135ZM602.457 123.015V116.943H603.713V123.015H602.457ZM600.449 117.583V116.439H605.713V117.583H600.449ZM606.435 123.015V116.439H607.691V123.015H606.435ZM607.083 120.407V119.303H609.107C609.448 119.303 609.715 119.225 609.907 119.071C610.099 118.916 610.195 118.697 610.195 118.415C610.195 118.137 610.099 117.924 609.907 117.775C609.72 117.62 609.454 117.543 609.107 117.543H607.083V116.439H609.187C609.864 116.439 610.411 116.607 610.827 116.943C611.243 117.279 611.451 117.769 611.451 118.415C611.451 119.071 611.243 119.567 610.827 119.903C610.411 120.239 609.864 120.407 609.187 120.407H607.083ZM610.251 123.015L608.691 119.543H609.931L611.643 123.015H610.251ZM612.443 123.015V116.439H613.699V123.015H612.443ZM613.131 123.015V121.911H616.587V123.015H613.131Z" fill="black"/>
<rect x="20" y="113" width="30" height="13" rx="6" fill="#54B5EB"/>
<path d="M27.466 123.135C26.9487 123.135 26.4713 123.02 26.034 122.791C25.602 122.567 25.2553 122.241 24.994 121.815C24.738 121.383 24.61 120.873 24.61 120.287V119.167C24.61 118.585 24.738 118.079 24.994 117.647C25.2553 117.215 25.602 116.887 26.034 116.663C26.4713 116.433 26.9487 116.319 27.466 116.319C28.17 116.319 28.762 116.513 29.242 116.903C29.7273 117.287 30.05 117.82 30.21 118.503L29.018 118.847C28.906 118.393 28.7247 118.055 28.474 117.831C28.2233 117.601 27.8873 117.487 27.466 117.487C27.1727 117.487 26.9033 117.553 26.658 117.687C26.418 117.815 26.226 118.009 26.082 118.271C25.938 118.532 25.866 118.847 25.866 119.215V120.239C25.866 120.607 25.938 120.921 26.082 121.183C26.226 121.444 26.418 121.641 26.658 121.775C26.9033 121.903 27.1727 121.967 27.466 121.967C27.8873 121.967 28.2233 121.855 28.474 121.631C28.7247 121.401 28.906 121.06 29.018 120.607L30.21 120.951C30.05 121.633 29.7273 122.167 29.242 122.551C28.762 122.94 28.17 123.135 27.466 123.135ZM32.4571 123.015V116.943H33.7131V123.015H32.4571ZM30.4491 117.583V116.439H35.7131V117.583H30.4491ZM36.435 123.015V116.439H37.691V123.015H36.435ZM37.083 120.407V119.303H39.107C39.4483 119.303 39.715 119.225 39.907 119.071C40.099 118.916 40.195 118.697 40.195 118.415C40.195 118.137 40.099 117.924 39.907 117.775C39.7203 117.62 39.4537 117.543 39.107 117.543H37.083V116.439H39.187C39.8643 116.439 40.411 116.607 40.827 116.943C41.243 117.279 41.451 117.769 41.451 118.415C41.451 119.071 41.243 119.567 40.827 119.903C40.411 120.239 39.8643 120.407 39.187 120.407H37.083ZM40.251 123.015L38.691 119.543H39.931L41.643 123.015H40.251ZM42.4428 123.015V116.439H43.6988V123.015H42.4428ZM43.1308 123.015V121.911H46.5868V123.015H43.1308Z" fill="black"/>
<defs>
<filter id="filter0_d_1_2" x="576" y="10" width="58" height="58" filterUnits="userSpaceOnUse" color-interpolation-filters="sRGB">
<feFlood flood-opacity="0" result="BackgroundImageFix"/>
<feColorMatrix in="SourceAlpha" type="matrix" values="0 0 0 0 0 0 0 0 0 0 0 0 0 0 0 0 0 0 127 0" result="hardAlpha"/>
<feOffset dy="4"/>
<feGaussianBlur stdDeviation="2"/>
<feComposite in2="hardAlpha" operator="out"/>
<feColorMatrix type="matrix" values="0 0 0 0 0 0 0 0 0 0 0 0 0 0 0 0 0 0 0.25 0"/>
<feBlend mode="normal" in2="BackgroundImageFix" result="effect1_dropShadow_1_2"/>
<feBlend mode="normal" in="SourceGraphic" in2="effect1_dropShadow_1_2" result="shape"/>
</filter>
<filter id="filter1_d_1_2" x="246" y="10" width="58" height="58" filterUnits="userSpaceOnUse" color-interpolation-filters="sRGB">
<feFlood flood-opacity="0" result="BackgroundImageFix"/>
<feColorMatrix in="SourceAlpha" type="matrix" values="0 0 0 0 0 0 0 0 0 0 0 0 0 0 0 0 0 0 127 0" result="hardAlpha"/>
<feOffset dy="4"/>
<feGaussianBlur stdDeviation="2"/>
<feComposite in2="hardAlpha" operator="out"/>
<feColorMatrix type="matrix" values="0 0 0 0 0 0 0 0 0 0 0 0 0 0 0 0 0 0 0.25 0"/>
<feBlend mode="normal" in2="BackgroundImageFix" result="effect1_dropShadow_1_2"/>
<feBlend mode="normal" in="SourceGraphic" in2="effect1_dropShadow_1_2" result="shape"/>
</filter>
<filter id="filter2_d_1_2" x="456" y="10" width="58" height="58" filterUnits="userSpaceOnUse" color-interpolation-filters="sRGB">
<feFlood flood-opacity="0" result="BackgroundImageFix"/>
<feColorMatrix in="SourceAlpha" type="matrix" values="0 0 0 0 0 0 0 0 0 0 0 0 0 0 0 0 0 0 127 0" result="hardAlpha"/>
<feOffset dy="4"/>
<feGaussianBlur stdDeviation="2"/>
<feComposite in2="hardAlpha" operator="out"/>
<feColorMatrix type="matrix" values="0 0 0 0 0 0 0 0 0 0 0 0 0 0 0 0 0 0 0.25 0"/>
<feBlend mode="normal" in2="BackgroundImageFix" result="effect1_dropShadow_1_2"/>
<feBlend mode="normal" in="SourceGraphic" in2="effect1_dropShadow_1_2" result="shape"/>
</filter>
<filter id="filter3_d_1_2" x="126" y="10" width="58" height="58" filterUnits="userSpaceOnUse" color-interpolation-filters="sRGB">
<feFlood flood-opacity="0" result="BackgroundImageFix"/>
<feColorMatrix in="SourceAlpha" type="matrix" values="0 0 0 0 0 0 0 0 0 0 0 0 0 0 0 0 0 0 127 0" result="hardAlpha"/>
<feOffset dy="4"/>
<feGaussianBlur stdDeviation="2"/>
<feComposite in2="hardAlpha" operator="out"/>
<feColorMatrix type="matrix" values="0 0 0 0 0 0 0 0 0 0 0 0 0 0 0 0 0 0 0.25 0"/>
<feBlend mode="normal" in2="BackgroundImageFix" result="effect1_dropShadow_1_2"/>
<feBlend mode="normal" in="SourceGraphic" in2="effect1_dropShadow_1_2" result="shape"/>
</filter>
<filter id="filter4_d_1_2" x="336" y="10" width="58" height="58" filterUnits="userSpaceOnUse" color-interpolation-filters="sRGB">
<feFlood flood-opacity="0" result="BackgroundImageFix"/>
<feColorMatrix in="SourceAlpha" type="matrix" values="0 0 0 0 0 0 0 0 0 0 0 0 0 0 0 0 0 0 127 0" result="hardAlpha"/>
<feOffset dy="4"/>
<feGaussianBlur stdDeviation="2"/>
<feComposite in2="hardAlpha" operator="out"/>
<feColorMatrix type="matrix" values="0 0 0 0 0 0 0 0 0 0 0 0 0 0 0 0 0 0 0.25 0"/>
<feBlend mode="normal" in2="BackgroundImageFix" result="effect1_dropShadow_1_2"/>
<feBlend mode="normal" in="SourceGraphic" in2="effect1_dropShadow_1_2" result="shape"/>
</filter>
<filter id="filter5_d_1_2" x="6" y="10" width="58" height="58" filterUnits="userSpaceOnUse" color-interpolation-filters="sRGB">
<feFlood flood-opacity="0" result="BackgroundImageFix"/>
<feColorMatrix in="SourceAlpha" type="matrix" values="0 0 0 0 0 0 0 0 0 0 0 0 0 0 0 0 0 0 127 0" result="hardAlpha"/>
<feOffset dy="4"/>
<feGaussianBlur stdDeviation="2"/>
<feComposite in2="hardAlpha" operator="out"/>
<feColorMatrix type="matrix" values="0 0 0 0 0 0 0 0 0 0 0 0 0 0 0 0 0 0 0.25 0"/>
<feBlend mode="normal" in2="BackgroundImageFix" result="effect1_dropShadow_1_2"/>
<feBlend mode="normal" in="SourceGraphic" in2="effect1_dropShadow_1_2" result="shape"/>
</filter>
<filter id="filter6_d_1_2" x="516" y="10" width="58" height="58" filterUnits="userSpaceOnUse" color-interpolation-filters="sRGB">
<feFlood flood-opacity="0" result="BackgroundImageFix"/>
<feColorMatrix in="SourceAlpha" type="matrix" values="0 0 0 0 0 0 0 0 0 0 0 0 0 0 0 0 0 0 127 0" result="hardAlpha"/>
<feOffset dy="4"/>
<feGaussianBlur stdDeviation="2"/>
<feComposite in2="hardAlpha" operator="out"/>
<feColorMatrix type="matrix" values="0 0 0 0 0 0 0 0 0 0 0 0 0 0 0 0 0 0 0.25 0"/>
<feBlend mode="normal" in2="BackgroundImageFix" result="effect1_dropShadow_1_2"/>
<feBlend mode="normal" in="SourceGraphic" in2="effect1_dropShadow_1_2" result="shape"/>
</filter>
<filter id="filter7_d_1_2" x="186" y="10" width="58" height="58" filterUnits="userSpaceOnUse" color-interpolation-filters="sRGB">
<feFlood flood-opacity="0" result="BackgroundImageFix"/>
<feColorMatrix in="SourceAlpha" type="matrix" values="0 0 0 0 0 0 0 0 0 0 0 0 0 0 0 0 0 0 127 0" result="hardAlpha"/>
<feOffset dy="4"/>
<feGaussianBlur stdDeviation="2"/>
<feComposite in2="hardAlpha" operator="out"/>
<feColorMatrix type="matrix" values="0 0 0 0 0 0 0 0 0 0 0 0 0 0 0 0 0 0 0.25 0"/>
<feBlend mode="normal" in2="BackgroundImageFix" result="effect1_dropShadow_1_2"/>
<feBlend mode="normal" in="SourceGraphic" in2="effect1_dropShadow_1_2" result="shape"/>
</filter>
<filter id="filter8_d_1_2" x="396" y="10" width="58" height="58" filterUnits="userSpaceOnUse" color-interpolation-filters="sRGB">
<feFlood flood-opacity="0" result="BackgroundImageFix"/>
<feColorMatrix in="SourceAlpha" type="matrix" values="0 0 0 0 0 0 0 0 0 0 0 0 0 0 0 0 0 0 127 0" result="hardAlpha"/>
<feOffset dy="4"/>
<feGaussianBlur stdDeviation="2"/>
<feComposite in2="hardAlpha" operator="out"/>
<feColorMatrix type="matrix" values="0 0 0 0 0 0 0 0 0 0 0 0 0 0 0 0 0 0 0.25 0"/>
<feBlend mode="normal" in2="BackgroundImageFix" result="effect1_dropShadow_1_2"/>
<feBlend mode="normal" in="SourceGraphic" in2="effect1_dropShadow_1_2" result="shape"/>
</filter>
<filter id="filter9_d_1_2" x="66" y="10" width="58" height="58" filterUnits="userSpaceOnUse" color-interpolation-filters="sRGB">
<feFlood flood-opacity="0" result="BackgroundImageFix"/>
<feColorMatrix in="SourceAlpha" type="matrix" values="0 0 0 0 0 0 0 0 0 0 0 0 0 0 0 0 0 0 127 0" result="hardAlpha"/>
<feOffset dy="4"/>
<feGaussianBlur stdDeviation="2"/>
<feComposite in2="hardAlpha" operator="out"/>
<feColorMatrix type="matrix" values="0 0 0 0 0 0 0 0 0 0 0 0 0 0 0 0 0 0 0.25 0"/>
<feBlend mode="normal" in2="BackgroundImageFix" result="effect1_dropShadow_1_2"/>
<feBlend mode="normal" in="SourceGraphic" in2="effect1_dropShadow_1_2" result="shape"/>
</filter>
<filter id="filter10_d_1_2" x="576" y="70" width="58" height="58" filterUnits="userSpaceOnUse" color-interpolation-filters="sRGB">
<feFlood flood-opacity="0" result="BackgroundImageFix"/>
<feColorMatrix in="SourceAlpha" type="matrix" values="0 0 0 0 0 0 0 0 0 0 0 0 0 0 0 0 0 0 127 0" result="hardAlpha"/>
<feOffset dy="4"/>
<feGaussianBlur stdDeviation="2"/>
<feComposite in2="hardAlpha" operator="out"/>
<feColorMatrix type="matrix" values="0 0 0 0 0 0 0 0 0 0 0 0 0 0 0 0 0 0 0.25 0"/>
<feBlend mode="normal" in2="BackgroundImageFix" result="effect1_dropShadow_1_2"/>
<feBlend mode="normal" in="SourceGraphic" in2="effect1_dropShadow_1_2" result="shape"/>
</filter>
<filter id="filter11_d_1_2" x="246" y="70" width="58" height="58" filterUnits="userSpaceOnUse" color-interpolation-filters="sRGB">
<feFlood flood-opacity="0" result="BackgroundImageFix"/>
<feColorMatrix in="SourceAlpha" type="matrix" values="0 0 0 0 0 0 0 0 0 0 0 0 0 0 0 0 0 0 127 0" result="hardAlpha"/>
<feOffset dy="4"/>
<feGaussianBlur stdDeviation="2"/>
<feComposite in2="hardAlpha" operator="out"/>
<feColorMatrix type="matrix" values="0 0 0 0 0 0 0 0 0 0 0 0 0 0 0 0 0 0 0.25 0"/>
<feBlend mode="normal" in2="BackgroundImageFix" result="effect1_dropShadow_1_2"/>
<feBlend mode="normal" in="SourceGraphic" in2="effect1_dropShadow_1_2" result="shape"/>
</filter>
<filter id="filter12_d_1_2" x="456" y="70" width="58" height="58" filterUnits="userSpaceOnUse" color-interpolation-filters="sRGB">
<feFlood flood-opacity="0" result="BackgroundImageFix"/>
<feColorMatrix in="SourceAlpha" type="matrix" values="0 0 0 0 0 0 0 0 0 0 0 0 0 0 0 0 0 0 127 0" result="hardAlpha"/>
<feOffset dy="4"/>
<feGaussianBlur stdDeviation="2"/>
<feComposite in2="hardAlpha" operator="out"/>
<feColorMatrix type="matrix" values="0 0 0 0 0 0 0 0 0 0 0 0 0 0 0 0 0 0 0.25 0"/>
<feBlend mode="normal" in2="BackgroundImageFix" result="effect1_dropShadow_1_2"/>
<feBlend mode="normal" in="SourceGraphic" in2="effect1_dropShadow_1_2" result="shape"/>
</filter>
<filter id="filter13_d_1_2" x="126" y="70" width="58" height="58" filterUnits="userSpaceOnUse" color-interpolation-filters="sRGB">
<feFlood flood-opacity="0" result="BackgroundImageFix"/>
<feColorMatrix in="SourceAlpha" type="matrix" values="0 0 0 0 0 0 0 0 0 0 0 0 0 0 0 0 0 0 127 0" result="hardAlpha"/>
<feOffset dy="4"/>
<feGaussianBlur stdDeviation="2"/>
<feComposite in2="hardAlpha" operator="out"/>
<feColorMatrix type="matrix" values="0 0 0 0 0 0 0 0 0 0 0 0 0 0 0 0 0 0 0.25 0"/>
<feBlend mode="normal" in2="BackgroundImageFix" result="effect1_dropShadow_1_2"/>
<feBlend mode="normal" in="SourceGraphic" in2="effect1_dropShadow_1_2" result="shape"/>
</filter>
<filter id="filter14_d_1_2" x="336" y="70" width="58" height="58" filterUnits="userSpaceOnUse" color-interpolation-filters="sRGB">
<feFlood flood-opacity="0" result="BackgroundImageFix"/>
<feColorMatrix in="SourceAlpha" type="matrix" values="0 0 0 0 0 0 0 0 0 0 0 0 0 0 0 0 0 0 127 0" result="hardAlpha"/>
<feOffset dy="4"/>
<feGaussianBlur stdDeviation="2"/>
<feComposite in2="hardAlpha" operator="out"/>
<feColorMatrix type="matrix" values="0 0 0 0 0 0 0 0 0 0 0 0 0 0 0 0 0 0 0.25 0"/>
<feBlend mode="normal" in2="BackgroundImageFix" result="effect1_dropShadow_1_2"/>
<feBlend mode="normal" in="SourceGraphic" in2="effect1_dropShadow_1_2" result="shape"/>
</filter>
<filter id="filter15_d_1_2" x="6" y="70" width="58" height="58" filterUnits="userSpaceOnUse" color-interpolation-filters="sRGB">
<feFlood flood-opacity="0" result="BackgroundImageFix"/>
<feColorMatrix in="SourceAlpha" type="matrix" values="0 0 0 0 0 0 0 0 0 0 0 0 0 0 0 0 0 0 127 0" result="hardAlpha"/>
<feOffset dy="4"/>
<feGaussianBlur stdDeviation="2"/>
<feComposite in2="hardAlpha" operator="out"/>
<feColorMatrix type="matrix" values="0 0 0 0 0 0 0 0 0 0 0 0 0 0 0 0 0 0 0.25 0"/>
<feBlend mode="normal" in2="BackgroundImageFix" result="effect1_dropShadow_1_2"/>
<feBlend mode="normal" in="SourceGraphic" in2="effect1_dropShadow_1_2" result="shape"/>
</filter>
<filter id="filter16_d_1_2" x="516" y="70" width="58" height="58" filterUnits="userSpaceOnUse" color-interpolation-filters="sRGB">
<feFlood flood-opacity="0" result="BackgroundImageFix"/>
<feColorMatrix in="SourceAlpha" type="matrix" values="0 0 0 0 0 0 0 0 0 0 0 0 0 0 0 0 0 0 127 0" result="hardAlpha"/>
<feOffset dy="4"/>
<feGaussianBlur stdDeviation="2"/>
<feComposite in2="hardAlpha" operator="out"/>
<feColorMatrix type="matrix" values="0 0 0 0 0 0 0 0 0 0 0 0 0 0 0 0 0 0 0.25 0"/>
<feBlend mode="normal" in2="BackgroundImageFix" result="effect1_dropShadow_1_2"/>
<feBlend mode="normal" in="SourceGraphic" in2="effect1_dropShadow_1_2" result="shape"/>
</filter>
<filter id="filter17_d_1_2" x="186" y="70" width="58" height="58" filterUnits="userSpaceOnUse" color-interpolation-filters="sRGB">
<feFlood flood-opacity="0" result="BackgroundImageFix"/>
<feColorMatrix in="SourceAlpha" type="matrix" values="0 0 0 0 0 0 0 0 0 0 0 0 0 0 0 0 0 0 127 0" result="hardAlpha"/>
<feOffset dy="4"/>
<feGaussianBlur stdDeviation="2"/>
<feComposite in2="hardAlpha" operator="out"/>
<feColorMatrix type="matrix" values="0 0 0 0 0 0 0 0 0 0 0 0 0 0 0 0 0 0 0.25 0"/>
<feBlend mode="normal" in2="BackgroundImageFix" result="effect1_dropShadow_1_2"/>
<feBlend mode="normal" in="SourceGraphic" in2="effect1_dropShadow_1_2" result="shape"/>
</filter>
<filter id="filter18_d_1_2" x="396" y="70" width="58" height="58" filterUnits="userSpaceOnUse" color-interpolation-filters="sRGB">
<feFlood flood-opacity="0" result="BackgroundImageFix"/>
<feColorMatrix in="SourceAlpha" type="matrix" values="0 0 0 0 0 0 0 0 0 0 0 0 0 0 0 0 0 0 127 0" result="hardAlpha"/>
<feOffset dy="4"/>
<feGaussianBlur stdDeviation="2"/>
<feComposite in2="hardAlpha" operator="out"/>
<feColorMatrix type="matrix" values="0 0 0 0 0 0 0 0 0 0 0 0 0 0 0 0 0 0 0.25 0"/>
<feBlend mode="normal" in2="BackgroundImageFix" result="effect1_dropShadow_1_2"/>
<feBlend mode="normal" in="SourceGraphic" in2="effect1_dropShadow_1_2" result="shape"/>
</filter>
<filter id="filter19_d_1_2" x="66" y="70" width="58" height="58" filterUnits="userSpaceOnUse" color-interpolation-filters="sRGB">
<feFlood flood-opacity="0" result="BackgroundImageFix"/>
<feColorMatrix in="SourceAlpha" type="matrix" values="0 0 0 0 0 0 0 0 0 0 0 0 0 0 0 0 0 0 127 0" result="hardAlpha"/>
<feOffset dy="4"/>
<feGaussianBlur stdDeviation="2"/>
<feComposite in2="hardAlpha" operator="out"/>
<feColorMatrix type="matrix" values="0 0 0 0 0 0 0 0 0 0 0 0 0 0 0 0 0 0 0.25 0"/>
<feBlend mode="normal" in2="BackgroundImageFix" result="effect1_dropShadow_1_2"/>
<feBlend mode="normal" in="SourceGraphic" in2="effect1_dropShadow_1_2" result="shape"/>
</filter>
<filter id="filter20_d_1_2" x="576" y="130" width="58" height="58" filterUnits="userSpaceOnUse" color-interpolation-filters="sRGB">
<feFlood flood-opacity="0" result="BackgroundImageFix"/>
<feColorMatrix in="SourceAlpha" type="matrix" values="0 0 0 0 0 0 0 0 0 0 0 0 0 0 0 0 0 0 127 0" result="hardAlpha"/>
<feOffset dy="4"/>
<feGaussianBlur stdDeviation="2"/>
<feComposite in2="hardAlpha" operator="out"/>
<feColorMatrix type="matrix" values="0 0 0 0 0 0 0 0 0 0 0 0 0 0 0 0 0 0 0.25 0"/>
<feBlend mode="normal" in2="BackgroundImageFix" result="effect1_dropShadow_1_2"/>
<feBlend mode="normal" in="SourceGraphic" in2="effect1_dropShadow_1_2" result="shape"/>
</filter>
<filter id="filter21_d_1_2" x="246" y="130" width="58" height="58" filterUnits="userSpaceOnUse" color-interpolation-filters="sRGB">
<feFlood flood-opacity="0" result="BackgroundImageFix"/>
<feColorMatrix in="SourceAlpha" type="matrix" values="0 0 0 0 0 0 0 0 0 0 0 0 0 0 0 0 0 0 127 0" result="hardAlpha"/>
<feOffset dy="4"/>
<feGaussianBlur stdDeviation="2"/>
<feComposite in2="hardAlpha" operator="out"/>
<feColorMatrix type="matrix" values="0 0 0 0 0 0 0 0 0 0 0 0 0 0 0 0 0 0 0.25 0"/>
<feBlend mode="normal" in2="BackgroundImageFix" result="effect1_dropShadow_1_2"/>
<feBlend mode="normal" in="SourceGraphic" in2="effect1_dropShadow_1_2" result="shape"/>
</filter>
<filter id="filter22_d_1_2" x="456" y="130" width="58" height="58" filterUnits="userSpaceOnUse" color-interpolation-filters="sRGB">
<feFlood flood-opacity="0" result="BackgroundImageFix"/>
<feColorMatrix in="SourceAlpha" type="matrix" values="0 0 0 0 0 0 0 0 0 0 0 0 0 0 0 0 0 0 127 0" result="hardAlpha"/>
<feOffset dy="4"/>
<feGaussianBlur stdDeviation="2"/>
<feComposite in2="hardAlpha" operator="out"/>
<feColorMatrix type="matrix" values="0 0 0 0 0 0 0 0 0 0 0 0 0 0 0 0 0 0 0.25 0"/>
<feBlend mode="normal" in2="BackgroundImageFix" result="effect1_dropShadow_1_2"/>
<feBlend mode="normal" in="SourceGraphic" in2="effect1_dropShadow_1_2" result="shape"/>
</filter>
<filter id="filter23_d_1_2" x="126" y="130" width="58" height="58" filterUnits="userSpaceOnUse" color-interpolation-filters="sRGB">
<feFlood flood-opacity="0" result="BackgroundImageFix"/>
<feColorMatrix in="SourceAlpha" type="matrix" values="0 0 0 0 0 0 0 0 0 0 0 0 0 0 0 0 0 0 127 0" result="hardAlpha"/>
<feOffset dy="4"/>
<feGaussianBlur stdDeviation="2"/>
<feComposite in2="hardAlpha" operator="out"/>
<feColorMatrix type="matrix" values="0 0 0 0 0 0 0 0 0 0 0 0 0 0 0 0 0 0 0.25 0"/>
<feBlend mode="normal" in2="BackgroundImageFix" result="effect1_dropShadow_1_2"/>
<feBlend mode="normal" in="SourceGraphic" in2="effect1_dropShadow_1_2" result="shape"/>
</filter>
<filter id="filter24_d_1_2" x="336" y="130" width="58" height="58" filterUnits="userSpaceOnUse" color-interpolation-filters="sRGB">
<feFlood flood-opacity="0" result="BackgroundImageFix"/>
<feColorMatrix in="SourceAlpha" type="matrix" values="0 0 0 0 0 0 0 0 0 0 0 0 0 0 0 0 0 0 127 0" result="hardAlpha"/>
<feOffset dy="4"/>
<feGaussianBlur stdDeviation="2"/>
<feComposite in2="hardAlpha" operator="out"/>
<feColorMatrix type="matrix" values="0 0 0 0 0 0 0 0 0 0 0 0 0 0 0 0 0 0 0.25 0"/>
<feBlend mode="normal" in2="BackgroundImageFix" result="effect1_dropShadow_1_2"/>
<feBlend mode="normal" in="SourceGraphic" in2="effect1_dropShadow_1_2" result="shape"/>
</filter>
<filter id="filter25_d_1_2" x="6" y="130" width="58" height="58" filterUnits="userSpaceOnUse" color-interpolation-filters="sRGB">
<feFlood flood-opacity="0" result="BackgroundImageFix"/>
<feColorMatrix in="SourceAlpha" type="matrix" values="0 0 0 0 0 0 0 0 0 0 0 0 0 0 0 0 0 0 127 0" result="hardAlpha"/>
<feOffset dy="4"/>
<feGaussianBlur stdDeviation="2"/>
<feComposite in2="hardAlpha" operator="out"/>
<feColorMatrix type="matrix" values="0 0 0 0 0 0 0 0 0 0 0 0 0 0 0 0 0 0 0.25 0"/>
<feBlend mode="normal" in2="BackgroundImageFix" result="effect1_dropShadow_1_2"/>
<feBlend mode="normal" in="SourceGraphic" in2="effect1_dropShadow_1_2" result="shape"/>
</filter>
<filter id="filter26_d_1_2" x="396" y="190" width="58" height="58" filterUnits="userSpaceOnUse" color-interpolation-filters="sRGB">
<feFlood flood-opacity="0" result="BackgroundImageFix"/>
<feColorMatrix in="SourceAlpha" type="matrix" values="0 0 0 0 0 0 0 0 0 0 0 0 0 0 0 0 0 0 127 0" result="hardAlpha"/>
<feOffset dy="4"/>
<feGaussianBlur stdDeviation="2"/>
<feComposite in2="hardAlpha" operator="out"/>
<feColorMatrix type="matrix" values="0 0 0 0 0 0 0 0 0 0 0 0 0 0 0 0 0 0 0.25 0"/>
<feBlend mode="normal" in2="BackgroundImageFix" result="effect1_dropShadow_1_2"/>
<feBlend mode="normal" in="SourceGraphic" in2="effect1_dropShadow_1_2" result="shape"/>
</filter>
<filter id="filter27_d_1_2" x="336" y="190" width="58" height="58" filterUnits="userSpaceOnUse" color-interpolation-filters="sRGB">
<feFlood flood-opacity="0" result="BackgroundImageFix"/>
<feColorMatrix in="SourceAlpha" type="matrix" values="0 0 0 0 0 0 0 0 0 0 0 0 0 0 0 0 0 0 127 0" result="hardAlpha"/>
<feOffset dy="4"/>
<feGaussianBlur stdDeviation="2"/>
<feComposite in2="hardAlpha" operator="out"/>
<feColorMatrix type="matrix" values="0 0 0 0 0 0 0 0 0 0 0 0 0 0 0 0 0 0 0.25 0"/>
<feBlend mode="normal" in2="BackgroundImageFix" result="effect1_dropShadow_1_2"/>
<feBlend mode="normal" in="SourceGraphic" in2="effect1_dropShadow_1_2" result="shape"/>
</filter>
<filter id="filter28_d_1_2" x="186" y="190" width="58" height="58" filterUnits="userSpaceOnUse" color-interpolation-filters="sRGB">
<feFlood flood-opacity="0" result="BackgroundImageFix"/>
<feColorMatrix in="SourceAlpha" type="matrix" values="0 0 0 0 0 0 0 0 0 0 0 0 0 0 0 0 0 0 127 0" result="hardAlpha"/>
<feOffset dy="4"/>
<feGaussianBlur stdDeviation="2"/>
<feComposite in2="hardAlpha" operator="out"/>
<feColorMatrix type="matrix" values="0 0 0 0 0 0 0 0 0 0 0 0 0 0 0 0 0 0 0.25 0"/>
<feBlend mode="normal" in2="BackgroundImageFix" result="effect1_dropShadow_1_2"/>
<feBlend mode="normal" in="SourceGraphic" in2="effect1_dropShadow_1_2" result="shape"/>
</filter>
<filter id="filter29_d_1_2" x="396" y="130" width="58" height="58" filterUnits="userSpaceOnUse" color-interpolation-filters="sRGB">
<feFlood flood-opacity="0" result="BackgroundImageFix"/>
<feColorMatrix in="SourceAlpha" type="matrix" values="0 0 0 0 0 0 0 0 0 0 0 0 0 0 0 0 0 0 127 0" result="hardAlpha"/>
<feOffset dy="4"/>
<feGaussianBlur stdDeviation="2"/>
<feComposite in2="hardAlpha" operator="out"/>
<feColorMatrix type="matrix" values="0 0 0 0 0 0 0 0 0 0 0 0 0 0 0 0 0 0 0.25 0"/>
<feBlend mode="normal" in2="BackgroundImageFix" result="effect1_dropShadow_1_2"/>
<feBlend mode="normal" in="SourceGraphic" in2="effect1_dropShadow_1_2" result="shape"/>
</filter>
<filter id="filter30_d_1_2" x="66" y="130" width="58" height="58" filterUnits="userSpaceOnUse" color-interpolation-filters="sRGB">
<feFlood flood-opacity="0" result="BackgroundImageFix"/>
<feColorMatrix in="SourceAlpha" type="matrix" values="0 0 0 0 0 0 0 0 0 0 0 0 0 0 0 0 0 0 127 0" result="hardAlpha"/>
<feOffset dy="4"/>
<feGaussianBlur stdDeviation="2"/>
<feComposite in2="hardAlpha" operator="out"/>
<feColorMatrix type="matrix" values="0 0 0 0 0 0 0 0 0 0 0 0 0 0 0 0 0 0 0.25 0"/>
<feBlend mode="normal" in2="BackgroundImageFix" result="effect1_dropShadow_1_2"/>
<feBlend mode="normal" in="SourceGraphic" in2="effect1_dropShadow_1_2" result="shape"/>
</filter>
<filter id="filter31_d_1_2" x="516" y="130" width="58" height="58" filterUnits="userSpaceOnUse" color-interpolation-filters="sRGB">
<feFlood flood-opacity="0" result="BackgroundImageFix"/>
<feColorMatrix in="SourceAlpha" type="matrix" values="0 0 0 0 0 0 0 0 0 0 0 0 0 0 0 0 0 0 127 0" result="hardAlpha"/>
<feOffset dy="4"/>
<feGaussianBlur stdDeviation="2"/>
<feComposite in2="hardAlpha" operator="out"/>
<feColorMatrix type="matrix" values="0 0 0 0 0 0 0 0 0 0 0 0 0 0 0 0 0 0 0.25 0"/>
<feBlend mode="normal" in2="BackgroundImageFix" result="effect1_dropShadow_1_2"/>
<feBlend mode="normal" in="SourceGraphic" in2="effect1_dropShadow_1_2" result="shape"/>
</filter>
<filter id="filter32_d_1_2" x="186" y="130" width="58" height="58" filterUnits="userSpaceOnUse" color-interpolation-filters="sRGB">
<feFlood flood-opacity="0" result="BackgroundImageFix"/>
<feColorMatrix in="SourceAlpha" type="matrix" values="0 0 0 0 0 0 0 0 0 0 0 0 0 0 0 0 0 0 127 0" result="hardAlpha"/>
<feOffset dy="4"/>
<feGaussianBlur stdDeviation="2"/>
<feComposite in2="hardAlpha" operator="out"/>
<feColorMatrix type="matrix" values="0 0 0 0 0 0 0 0 0 0 0 0 0 0 0 0 0 0 0.25 0"/>
<feBlend mode="normal" in2="BackgroundImageFix" result="effect1_dropShadow_1_2"/>
<feBlend mode="normal" in="SourceGraphic" in2="effect1_dropShadow_1_2" result="shape"/>
</filter>
<filter id="filter33_d_1_2" x="246" y="190" width="58" height="58" filterUnits="userSpaceOnUse" color-interpolation-filters="sRGB">
<feFlood flood-opacity="0" result="BackgroundImageFix"/>
<feColorMatrix in="SourceAlpha" type="matrix" values="0 0 0 0 0 0 0 0 0 0 0 0 0 0 0 0 0 0 127 0" result="hardAlpha"/>
<feOffset dy="4"/>
<feGaussianBlur stdDeviation="2"/>
<feComposite in2="hardAlpha" operator="out"/>
<feColorMatrix type="matrix" values="0 0 0 0 0 0 0 0 0 0 0 0 0 0 0 0 0 0 0.25 0"/>
<feBlend mode="normal" in2="BackgroundImageFix" result="effect1_dropShadow_1_2"/>
<feBlend mode="normal" in="SourceGraphic" in2="effect1_dropShadow_1_2" result="shape"/>
</filter>
</defs>
</svg>
