<svg width="640" height="250" viewBox="0 0 640 250" fill="none" xmlns="http://www.w3.org/2000/svg">
<rect width="640" height="250" fill="#AF9999"/>
<g filter="url(#filter0_d_87_901)">
<rect x="340" y="10" width="50" height="50" rx="6" fill="#EBEBEB"/>
</g>
<g filter="url(#filter1_d_87_901)">
<rect x="340" y="70" width="50" height="50" rx="6" fill="#EBEBEB"/>
</g>
<g filter="url(#filter2_d_87_901)">
<rect x="340" y="130" width="50" height="50" rx="6" fill="#EBEBEB"/>
</g>
<g filter="url(#filter3_d_87_901)">
<rect x="580" y="10" width="50" height="50" rx="6" fill="#EBEBEB"/>
<path d="M611.64 47.904H607.68L599.28 22.416H603.24L611.64 47.904Z" fill="black"/>
</g>
<g filter="url(#filter4_d_87_901)">
<rect x="580" y="70" width="50" height="50" rx="6" fill="#EBEBEB"/>
<path d="M601.301 107.184V103.872H605.213V85.488H601.301V82.176H608.741V107.184H601.301Z" fill="black"/>
</g>
<g filter="url(#filter5_d_87_901)">
<rect x="580" y="130" width="50" height="50" rx="6" fill="#EBEBEB"/>
<path d="M589.027 157.084C589.387 157.876 589.891 158.5 590.539 158.956C591.199 159.4 591.967 159.622 592.843 159.622C593.731 159.622 594.409 159.472 594.877 159.172C595.357 158.872 595.597 158.446 595.597 157.894C595.597 157.402 595.453 157.012 595.165 156.724C594.889 156.436 594.415 156.202 593.743 156.022L591.601 155.446C590.413 155.134 589.429 154.648 588.649 153.988C587.881 153.316 587.497 152.374 587.497 151.162C587.497 150.286 587.725 149.524 588.181 148.876C588.637 148.216 589.261 147.712 590.053 147.364C590.845 147.016 591.733 146.842 592.717 146.842C594.061 146.842 595.225 147.184 596.209 147.868C597.193 148.54 597.901 149.386 598.333 150.406L595.993 151.594C595.657 150.946 595.213 150.418 594.661 150.01C594.109 149.602 593.461 149.398 592.717 149.398C591.925 149.398 591.319 149.554 590.899 149.866C590.491 150.178 590.287 150.61 590.287 151.162C590.287 151.654 590.449 152.032 590.773 152.296C591.109 152.56 591.601 152.776 592.249 152.944L594.301 153.484C595.477 153.796 596.449 154.3 597.217 154.996C597.997 155.692 598.387 156.658 598.387 157.894C598.387 158.77 598.141 159.532 597.649 160.18C597.169 160.828 596.509 161.32 595.669 161.656C594.829 162.004 593.887 162.178 592.843 162.178C591.355 162.178 590.077 161.836 589.009 161.152C587.941 160.468 587.155 159.508 586.651 158.272L589.027 157.084ZM600.276 161.908V147.112H603.102V161.908H600.276ZM601.824 155.716V153.232H609.078V155.716H601.824ZM601.824 149.596V147.112H609.78V149.596H601.824ZM615.108 161.908V148.246H617.934V161.908H615.108ZM610.59 149.686V147.112H622.434V149.686H610.59Z" fill="black"/>
</g>
<g filter="url(#filter6_d_87_901)">
<rect x="10" y="10" width="50" height="50" rx="6" fill="#EBEBEB"/>
</g>
<g filter="url(#filter7_d_87_901)">
<rect x="190" y="130" width="50" height="50" rx="6" fill="#EBEBEB"/>
</g>
<g filter="url(#filter8_d_87_901)">
<rect x="10" y="130" width="50" height="50" rx="6" fill="#EBEBEB"/>
<path d="M19.0272 157.084C19.3872 157.876 19.8912 158.5 20.5392 158.956C21.1992 159.4 21.9672 159.622 22.8432 159.622C23.7312 159.622 24.4092 159.472 24.8772 159.172C25.3572 158.872 25.5972 158.446 25.5972 157.894C25.5972 157.402 25.4532 157.012 25.1652 156.724C24.8892 156.436 24.4152 156.202 23.7432 156.022L21.6012 155.446C20.4132 155.134 19.4292 154.648 18.6492 153.988C17.8812 153.316 17.4972 152.374 17.4972 151.162C17.4972 150.286 17.7252 149.524 18.1812 148.876C18.6372 148.216 19.2612 147.712 20.0532 147.364C20.8452 147.016 21.7332 146.842 22.7172 146.842C24.0612 146.842 25.2252 147.184 26.2092 147.868C27.1932 148.54 27.9012 149.386 28.3332 150.406L25.9932 151.594C25.6572 150.946 25.2132 150.418 24.6612 150.01C24.1092 149.602 23.4612 149.398 22.7172 149.398C21.9252 149.398 21.3192 149.554 20.8992 149.866C20.4912 150.178 20.2872 150.61 20.2872 151.162C20.2872 151.654 20.4492 152.032 20.7732 152.296C21.1092 152.56 21.6012 152.776 22.2492 152.944L24.3012 153.484C25.4772 153.796 26.4492 154.3 27.2172 154.996C27.9972 155.692 28.3872 156.658 28.3872 157.894C28.3872 158.77 28.1412 159.532 27.6492 160.18C27.1692 160.828 26.5092 161.32 25.6692 161.656C24.8292 162.004 23.8872 162.178 22.8432 162.178C21.3552 162.178 20.0772 161.836 19.0092 161.152C17.9412 160.468 17.1552 159.508 16.6512 158.272L19.0272 157.084ZM30.2756 161.908V147.112H33.1016V161.908H30.2756ZM31.8236 155.716V153.232H39.0776V155.716H31.8236ZM31.8236 149.596V147.112H39.7796V149.596H31.8236ZM45.1085 161.908V148.246H47.9345V161.908H45.1085ZM40.5905 149.686V147.112H52.4345V149.686H40.5905Z" fill="black"/>
</g>
<g filter="url(#filter9_d_87_901)">
<rect x="190" y="190" width="50" height="50" rx="6" fill="#EBEBEB"/>
<path d="M207.289 211.802V198.899H209.958V211.802H207.289ZM203.022 200.259V197.828H214.208V200.259H203.022ZM215.742 211.802V197.828H218.411V211.802H215.742ZM217.119 206.26V203.914H221.42C222.145 203.914 222.712 203.75 223.12 203.421C223.528 203.092 223.732 202.628 223.732 202.027C223.732 201.438 223.528 200.984 223.12 200.667C222.723 200.338 222.156 200.174 221.42 200.174H217.119V197.828H221.59C223.029 197.828 224.191 198.185 225.075 198.899C225.959 199.613 226.401 200.656 226.401 202.027C226.401 203.421 225.959 204.475 225.075 205.189C224.191 205.903 223.029 206.26 221.59 206.26H217.119ZM223.851 211.802L220.536 204.424H223.171L226.809 211.802H223.851ZM203.274 230.802V216.828H205.858L212.165 226.212V216.828H214.8V230.802H212.216L205.909 221.418V230.802H203.274ZM218.482 226.246C218.822 226.994 219.298 227.583 219.91 228.014C220.534 228.433 221.259 228.643 222.086 228.643C222.925 228.643 223.565 228.501 224.007 228.218C224.461 227.935 224.687 227.532 224.687 227.011C224.687 226.546 224.551 226.178 224.279 225.906C224.019 225.634 223.571 225.413 222.936 225.243L220.913 224.699C219.791 224.404 218.862 223.945 218.125 223.322C217.4 222.687 217.037 221.798 217.037 220.653C217.037 219.826 217.253 219.106 217.683 218.494C218.114 217.871 218.703 217.395 219.451 217.066C220.199 216.737 221.038 216.573 221.967 216.573C223.237 216.573 224.336 216.896 225.265 217.542C226.195 218.177 226.863 218.976 227.271 219.939L225.061 221.061C224.744 220.449 224.325 219.95 223.803 219.565C223.282 219.18 222.67 218.987 221.967 218.987C221.219 218.987 220.647 219.134 220.25 219.429C219.865 219.724 219.672 220.132 219.672 220.653C219.672 221.118 219.825 221.475 220.131 221.724C220.449 221.973 220.913 222.177 221.525 222.336L223.463 222.846C224.574 223.141 225.492 223.617 226.217 224.274C226.954 224.931 227.322 225.844 227.322 227.011C227.322 227.838 227.09 228.558 226.625 229.17C226.172 229.782 225.549 230.247 224.755 230.564C223.962 230.893 223.072 231.057 222.086 231.057C220.681 231.057 219.474 230.734 218.465 230.088C217.457 229.442 216.714 228.535 216.238 227.368L218.482 226.246Z" fill="black"/>
</g>
<g filter="url(#filter10_d_87_901)">
<rect x="340" y="190" width="50" height="50" rx="6" fill="#EBEBEB"/>
<path d="M357.289 211.802V198.899H359.958V211.802H357.289ZM353.022 200.259V197.828H364.208V200.259H353.022ZM365.742 211.802V197.828H368.411V211.802H365.742ZM367.119 206.26V203.914H371.42C372.145 203.914 372.712 203.75 373.12 203.421C373.528 203.092 373.732 202.628 373.732 202.027C373.732 201.438 373.528 200.984 373.12 200.667C372.723 200.338 372.156 200.174 371.42 200.174H367.119V197.828H371.59C373.029 197.828 374.191 198.185 375.075 198.899C375.959 199.613 376.401 200.656 376.401 202.027C376.401 203.421 375.959 204.475 375.075 205.189C374.191 205.903 373.029 206.26 371.59 206.26H367.119ZM373.851 211.802L370.536 204.424H373.171L376.809 211.802H373.851ZM353.274 230.802V216.828H355.858L362.165 226.212V216.828H364.8V230.802H362.216L355.909 221.418V230.802H353.274ZM368.482 226.246C368.822 226.994 369.298 227.583 369.91 228.014C370.534 228.433 371.259 228.643 372.086 228.643C372.925 228.643 373.565 228.501 374.007 228.218C374.461 227.935 374.687 227.532 374.687 227.011C374.687 226.546 374.551 226.178 374.279 225.906C374.019 225.634 373.571 225.413 372.936 225.243L370.913 224.699C369.791 224.404 368.862 223.945 368.125 223.322C367.4 222.687 367.037 221.798 367.037 220.653C367.037 219.826 367.253 219.106 367.683 218.494C368.114 217.871 368.703 217.395 369.451 217.066C370.199 216.737 371.038 216.573 371.967 216.573C373.237 216.573 374.336 216.896 375.265 217.542C376.195 218.177 376.863 218.976 377.271 219.939L375.061 221.061C374.744 220.449 374.325 219.95 373.803 219.565C373.282 219.18 372.67 218.987 371.967 218.987C371.219 218.987 370.647 219.134 370.25 219.429C369.865 219.724 369.672 220.132 369.672 220.653C369.672 221.118 369.825 221.475 370.131 221.724C370.449 221.973 370.913 222.177 371.525 222.336L373.463 222.846C374.574 223.141 375.492 223.617 376.217 224.274C376.954 224.931 377.322 225.844 377.322 227.011C377.322 227.838 377.09 228.558 376.625 229.17C376.172 229.782 375.549 230.247 374.755 230.564C373.962 230.893 373.072 231.057 372.086 231.057C370.681 231.057 369.474 230.734 368.465 230.088C367.457 229.442 366.714 228.535 366.238 227.368L368.482 226.246Z" fill="black"/>
</g>
<path d="M313.198 67.4317L327.172 67.4317L327.172 70.9847L316.513 74.9797L327.172 78.9747L327.172 82.5277L313.198 82.5277L313.198 79.9097L322.786 79.9097L313.198 76.3057L313.198 73.6537L322.786 70.0497L313.198 70.0497L313.198 67.4317ZM312.943 90.5741C312.943 89.4748 313.187 88.4605 313.674 87.5311C314.15 86.6018 314.841 85.8595 315.748 85.3041C316.666 84.7601 317.748 84.4881 318.995 84.4881L321.375 84.4881C322.61 84.4881 323.687 84.7601 324.605 85.3041C325.523 85.8595 326.22 86.6018 326.696 87.5311C327.183 88.4605 327.427 89.4748 327.427 90.5741C327.427 91.6735 327.183 92.6878 326.696 93.6171C326.22 94.5465 325.523 95.2831 324.605 95.8271C323.687 96.3825 322.61 96.6601 321.375 96.6601L318.995 96.6601C317.748 96.6601 316.666 96.3825 315.748 95.8271C314.841 95.2831 314.15 94.5465 313.674 93.6171C313.187 92.6878 312.943 91.6735 312.943 90.5741ZM315.425 90.5741C315.425 91.1975 315.561 91.7698 315.833 92.2911C316.116 92.8125 316.536 93.2261 317.091 93.5321C317.646 93.8381 318.315 93.9911 319.097 93.9911L321.273 93.9911C322.055 93.9911 322.718 93.8325 323.262 93.5151C323.817 93.2091 324.237 92.7955 324.52 92.2741C324.803 91.7641 324.945 91.1975 324.945 90.5741C324.945 89.9508 324.803 89.3785 324.52 88.8571C324.237 88.3471 323.817 87.9335 323.262 87.6161C322.718 87.3101 322.055 87.1571 321.273 87.1571L319.097 87.1571C318.315 87.1571 317.646 87.3101 317.091 87.6161C316.536 87.9335 316.116 88.3471 315.833 88.8571C315.561 89.3785 315.425 89.9508 315.425 90.5741ZM313.198 101.788L323.653 101.788L321.698 99.2384L323.67 97.7594L327.172 102.298L327.172 104.457L313.198 104.457L313.198 101.788ZM314.592 109.025C314.592 108.583 314.745 108.203 315.051 107.886C315.368 107.58 315.748 107.427 316.19 107.427C316.632 107.427 317.006 107.58 317.312 107.886C317.629 108.203 317.788 108.583 317.788 109.025C317.788 109.467 317.629 109.841 317.312 110.147C317.006 110.464 316.632 110.623 316.19 110.623C315.748 110.623 315.368 110.464 315.051 110.147C314.745 109.841 314.592 109.467 314.592 109.025ZM322.565 109.025C322.565 108.583 322.718 108.203 323.024 107.886C323.341 107.58 323.721 107.427 324.163 107.427C324.605 107.427 324.979 107.58 325.285 107.886C325.602 108.203 325.761 108.583 325.761 109.025C325.761 109.467 325.602 109.841 325.285 110.147C324.979 110.464 324.605 110.623 324.163 110.623C323.721 110.623 323.341 110.464 323.024 110.147C322.718 109.841 322.565 109.467 322.565 109.025ZM317.754 118.815C317.006 119.155 316.417 119.631 315.986 120.243C315.567 120.866 315.357 121.592 315.357 122.419C315.357 123.258 315.499 123.898 315.782 124.34C316.065 124.793 316.468 125.02 316.989 125.02C317.454 125.02 317.822 124.884 318.094 124.612C318.366 124.351 318.587 123.904 318.757 123.269L319.301 121.246C319.596 120.124 320.055 119.195 320.678 118.458C321.313 117.733 322.202 117.37 323.347 117.37C324.174 117.37 324.894 117.585 325.506 118.016C326.129 118.447 326.605 119.036 326.934 119.784C327.263 120.532 327.427 121.371 327.427 122.3C327.427 123.569 327.104 124.669 326.458 125.598C325.823 126.527 325.024 127.196 324.061 127.604L322.939 125.394C323.551 125.077 324.05 124.657 324.435 124.136C324.82 123.615 325.013 123.003 325.013 122.3C325.013 121.552 324.866 120.98 324.571 120.583C324.276 120.198 323.868 120.005 323.347 120.005C322.882 120.005 322.525 120.158 322.276 120.464C322.027 120.781 321.823 121.246 321.664 121.858L321.154 123.796C320.859 124.907 320.383 125.825 319.726 126.55C319.069 127.287 318.156 127.655 316.989 127.655C316.162 127.655 315.442 127.423 314.83 126.958C314.218 126.505 313.753 125.881 313.436 125.088C313.107 124.295 312.943 123.405 312.943 122.419C312.943 121.014 313.266 119.807 313.912 118.798C314.558 117.789 315.465 117.047 316.632 116.571L317.754 118.815ZM323.517 128.419L323.517 131.207L316.7 133.485L323.517 135.763L323.517 138.551L312.909 134.624C311.923 134.261 311.203 133.825 310.75 133.315C310.285 132.805 310.053 132.198 310.053 131.496C310.053 130.487 310.189 129.609 310.461 128.861L312.671 129.456C312.592 129.705 312.529 129.954 312.484 130.204C312.439 130.453 312.416 130.708 312.416 130.969C312.416 131.229 312.49 131.445 312.637 131.615C312.773 131.796 313.005 131.926 313.334 132.006L313.674 132.091L323.517 128.419ZM319.437 151.746C320.162 151.746 320.661 151.593 320.933 151.287C321.216 150.981 321.358 150.573 321.358 150.063C321.358 149.768 321.29 149.496 321.154 149.247C321.018 149.009 320.808 148.816 320.525 148.669C320.253 148.522 319.913 148.448 319.505 148.448L320.746 147.428C321.267 147.496 321.76 147.683 322.225 147.989C322.69 148.306 323.064 148.72 323.347 149.23C323.63 149.74 323.772 150.307 323.772 150.93C323.772 151.599 323.596 152.194 323.245 152.715C322.894 153.248 322.384 153.661 321.715 153.956C321.058 154.262 320.281 154.415 319.386 154.415L313.198 154.415L313.198 151.746L319.437 151.746ZM313.198 139.914L323.517 139.914L323.517 142.413L321.545 142.583L313.198 142.583L313.198 139.914ZM319.437 145.864C320.174 145.864 320.684 145.711 320.967 145.405C321.25 145.099 321.392 144.697 321.392 144.198C321.392 143.881 321.33 143.603 321.205 143.365C321.092 143.127 320.893 142.934 320.61 142.787C320.338 142.651 319.97 142.583 319.505 142.583L320.695 141.886C321.194 141.954 321.675 142.118 322.14 142.379C322.616 142.651 323.007 143.008 323.313 143.45C323.619 143.903 323.772 144.436 323.772 145.048C323.772 145.717 323.596 146.306 323.245 146.816C322.894 147.337 322.389 147.74 321.732 148.023C321.075 148.306 320.293 148.448 319.386 148.448L313.198 148.448L313.198 145.864L319.437 145.864ZM312.943 162.227C312.943 161.468 313.147 160.765 313.555 160.119C313.952 159.473 314.524 158.958 315.272 158.572C316.031 158.198 316.921 158.011 317.941 158.011L318.791 158.011C319.788 158.011 320.661 158.198 321.409 158.572C322.168 158.958 322.752 159.473 323.16 160.119C323.568 160.765 323.772 161.468 323.772 162.227C323.772 162.941 323.568 163.61 323.16 164.233C322.752 164.868 322.168 165.378 321.409 165.763C320.661 166.16 319.788 166.358 318.791 166.358L317.941 166.358C316.932 166.358 316.048 166.16 315.289 165.763C314.53 165.378 313.952 164.868 313.555 164.233C313.147 163.61 312.943 162.941 312.943 162.227ZM313.198 156.532L327.172 156.532L327.172 159.201L315 159.201L313.198 159.031L313.198 156.532ZM315.374 161.428C315.374 161.859 315.465 162.244 315.646 162.584C315.839 162.924 316.128 163.191 316.513 163.383C316.91 163.587 317.403 163.689 317.992 163.689L318.723 163.689C319.312 163.689 319.8 163.587 320.185 163.383C320.582 163.191 320.871 162.924 321.052 162.584C321.245 162.244 321.341 161.859 321.341 161.428C321.341 161.009 321.245 160.629 321.052 160.289C320.871 159.961 320.582 159.694 320.185 159.49C319.8 159.298 319.312 159.201 318.723 159.201L317.992 159.201C317.403 159.201 316.91 159.298 316.513 159.49C316.128 159.694 315.839 159.961 315.646 160.289C315.465 160.629 315.374 161.009 315.374 161.428ZM312.943 172.756C312.943 171.861 313.13 171.045 313.504 170.308C313.867 169.572 314.411 168.982 315.136 168.54C315.861 168.11 316.74 167.894 317.771 167.894L318.961 167.894C319.992 167.894 320.865 168.11 321.579 168.54C322.304 168.982 322.848 169.572 323.211 170.308C323.585 171.045 323.772 171.861 323.772 172.756C323.772 173.652 323.585 174.468 323.211 175.204C322.848 175.952 322.304 176.542 321.579 176.972C320.865 177.414 319.992 177.635 318.961 177.635L317.771 177.635C316.74 177.635 315.861 177.414 315.136 176.972C314.411 176.542 313.867 175.952 313.504 175.204C313.13 174.468 312.943 173.652 312.943 172.756ZM315.374 172.756C315.374 173.164 315.459 173.533 315.629 173.861C315.81 174.201 316.082 174.468 316.445 174.66C316.819 174.864 317.278 174.966 317.822 174.966L318.893 174.966C319.437 174.966 319.89 174.864 320.253 174.66C320.627 174.468 320.899 174.201 321.069 173.861C321.25 173.533 321.341 173.164 321.341 172.756C321.341 172.36 321.25 171.991 321.069 171.651C320.899 171.323 320.627 171.056 320.253 170.852C319.89 170.66 319.437 170.563 318.893 170.563L317.822 170.563C317.278 170.563 316.819 170.66 316.445 170.852C316.082 171.056 315.81 171.323 315.629 171.651C315.459 171.991 315.374 172.36 315.374 172.756ZM313.198 179.592L327.172 179.592L327.172 182.261L313.198 182.261L313.198 179.592ZM316.7 186.05C316.167 186.401 315.782 186.843 315.544 187.376C315.306 187.908 315.187 188.418 315.187 188.906C315.187 189.359 315.255 189.739 315.391 190.045C315.538 190.351 315.771 190.504 316.088 190.504C316.394 190.504 316.621 190.385 316.768 190.147C316.915 189.92 317.046 189.574 317.159 189.11L317.414 188.005C317.629 187.075 317.992 186.305 318.502 185.693C319.012 185.092 319.732 184.792 320.661 184.792C321.658 184.792 322.423 185.149 322.956 185.863C323.5 186.588 323.772 187.534 323.772 188.702C323.772 189.676 323.579 190.509 323.194 191.201C322.809 191.903 322.293 192.51 321.647 193.02L320.202 191.133C320.61 190.77 320.933 190.368 321.171 189.926C321.409 189.495 321.528 189.07 321.528 188.651C321.528 188.243 321.454 187.925 321.307 187.699C321.16 187.472 320.944 187.359 320.661 187.359C320.389 187.359 320.174 187.449 320.015 187.631C319.868 187.823 319.743 188.124 319.641 188.532L319.386 189.637C319.159 190.623 318.797 191.439 318.298 192.085C317.799 192.742 317.063 193.071 316.088 193.071C315.385 193.071 314.802 192.872 314.337 192.476C313.861 192.09 313.51 191.575 313.283 190.929C313.056 190.294 312.943 189.603 312.943 188.855C312.943 187.778 313.147 186.82 313.555 185.982C313.963 185.143 314.552 184.497 315.323 184.044L316.7 186.05Z" fill="white"/>
<g filter="url(#filter11_d_87_901)">
<rect x="10" y="70" width="50" height="50" rx="6" fill="#EBEBEB"/>
</g>
<g filter="url(#filter12_d_87_901)">
<rect x="400" y="10" width="50" height="50" rx="6" fill="#EBEBEB"/>
</g>
<g filter="url(#filter13_d_87_901)">
<rect x="400" y="70" width="50" height="50" rx="6" fill="#EBEBEB"/>
</g>
<g filter="url(#filter14_d_87_901)">
<rect x="400" y="130" width="50" height="50" rx="6" fill="#EBEBEB"/>
</g>
<g filter="url(#filter15_d_87_901)">
<rect x="460" y="10" width="50" height="50" rx="6" fill="#EBEBEB"/>
<path d="M480.8 32.928H489.2V36.384H480.8V32.928Z" fill="black"/>
</g>
<g filter="url(#filter16_d_87_901)">
<rect x="460" y="70" width="50" height="50" rx="6" fill="#EBEBEB"/>
</g>
<g filter="url(#filter17_d_87_901)">
<rect x="460" y="130" width="50" height="50" rx="6" fill="#EBEBEB"/>
<path d="M482.687 168.624L483.215 160.632H487.079L485.759 168.624H482.687Z" fill="black"/>
</g>
<g filter="url(#filter18_d_87_901)">
<rect x="520" y="10" width="50" height="50" rx="6" fill="#EBEBEB"/>
<path d="M538.401 29.592L551.601 29.616V33.048L538.401 33.024V29.592ZM538.401 36.288L551.601 36.312V39.744L538.401 39.72V36.288Z" fill="black"/>
</g>
<g filter="url(#filter19_d_87_901)">
<rect x="520" y="70" width="50" height="50" rx="6" fill="#EBEBEB"/>
<path d="M542.261 107.184V82.176H549.701V85.488H545.789V103.872H549.701V107.184H542.261Z" fill="black"/>
</g>
<g filter="url(#filter20_d_87_901)">
<rect x="520" y="130" width="50" height="50" rx="6" fill="#EBEBEB"/>
<path d="M545.002 164.904C544.378 164.904 543.842 164.68 543.394 164.232C542.962 163.8 542.746 163.272 542.746 162.648C542.746 162.024 542.962 161.496 543.394 161.064C543.842 160.616 544.378 160.392 545.002 160.392C545.626 160.392 546.154 160.616 546.586 161.064C547.034 161.496 547.258 162.024 547.258 162.648C547.258 163.272 547.034 163.8 546.586 164.232C546.154 164.68 545.626 164.904 545.002 164.904Z" fill="black"/>
</g>
<g filter="url(#filter21_d_87_901)">
<rect x="70" y="130" width="50" height="50" rx="6" fill="#EBEBEB"/>
</g>
<g filter="url(#filter22_d_87_901)">
<rect x="250" y="130" width="50" height="50" rx="6" fill="#EBEBEB"/>
</g>
<g filter="url(#filter23_d_87_901)">
<rect x="130" y="130" width="50" height="50" rx="6" fill="#EBEBEB"/>
</g>
<g filter="url(#filter24_d_87_901)">
<rect x="250" y="190" width="50" height="50" rx="6" fill="#EBEBEB"/>
<path d="M267.289 211.802V198.899H269.958V211.802H267.289ZM263.022 200.259V197.828H274.208V200.259H263.022ZM275.742 211.802V197.828H278.411V211.802H275.742ZM277.119 206.26V203.914H281.42C282.145 203.914 282.712 203.75 283.12 203.421C283.528 203.092 283.732 202.628 283.732 202.027C283.732 201.438 283.528 200.984 283.12 200.667C282.723 200.338 282.156 200.174 281.42 200.174H277.119V197.828H281.59C283.029 197.828 284.191 198.185 285.075 198.899C285.959 199.613 286.401 200.656 286.401 202.027C286.401 203.421 285.959 204.475 285.075 205.189C284.191 205.903 283.029 206.26 281.59 206.26H277.119ZM283.851 211.802L280.536 204.424H283.171L286.809 211.802H283.851ZM263.274 230.802V216.828H265.858L272.165 226.212V216.828H274.8V230.802H272.216L265.909 221.418V230.802H263.274ZM278.482 226.246C278.822 226.994 279.298 227.583 279.91 228.014C280.534 228.433 281.259 228.643 282.086 228.643C282.925 228.643 283.565 228.501 284.007 228.218C284.461 227.935 284.687 227.532 284.687 227.011C284.687 226.546 284.551 226.178 284.279 225.906C284.019 225.634 283.571 225.413 282.936 225.243L280.913 224.699C279.791 224.404 278.862 223.945 278.125 223.322C277.4 222.687 277.037 221.798 277.037 220.653C277.037 219.826 277.253 219.106 277.683 218.494C278.114 217.871 278.703 217.395 279.451 217.066C280.199 216.737 281.038 216.573 281.967 216.573C283.237 216.573 284.336 216.896 285.265 217.542C286.195 218.177 286.863 218.976 287.271 219.939L285.061 221.061C284.744 220.449 284.325 219.95 283.803 219.565C283.282 219.18 282.67 218.987 281.967 218.987C281.219 218.987 280.647 219.134 280.25 219.429C279.865 219.724 279.672 220.132 279.672 220.653C279.672 221.118 279.825 221.475 280.131 221.724C280.449 221.973 280.913 222.177 281.525 222.336L283.463 222.846C284.574 223.141 285.492 223.617 286.217 224.274C286.954 224.931 287.322 225.844 287.322 227.011C287.322 227.838 287.09 228.558 286.625 229.17C286.172 229.782 285.549 230.247 284.755 230.564C283.962 230.893 283.072 231.057 282.086 231.057C280.681 231.057 279.474 230.734 278.465 230.088C277.457 229.442 276.714 228.535 276.238 227.368L278.482 226.246Z" fill="black"/>
</g>
<g filter="url(#filter25_d_87_901)">
<rect x="400" y="190" width="50" height="50" rx="6" fill="#EBEBEB"/>
<path d="M417.289 211.802V198.899H419.958V211.802H417.289ZM413.022 200.259V197.828H424.208V200.259H413.022ZM425.742 211.802V197.828H428.411V211.802H425.742ZM427.119 206.26V203.914H431.42C432.145 203.914 432.712 203.75 433.12 203.421C433.528 203.092 433.732 202.628 433.732 202.027C433.732 201.438 433.528 200.984 433.12 200.667C432.723 200.338 432.156 200.174 431.42 200.174H427.119V197.828H431.59C433.029 197.828 434.191 198.185 435.075 198.899C435.959 199.613 436.401 200.656 436.401 202.027C436.401 203.421 435.959 204.475 435.075 205.189C434.191 205.903 433.029 206.26 431.59 206.26H427.119ZM433.851 211.802L430.536 204.424H433.171L436.809 211.802H433.851ZM413.274 230.802V216.828H415.858L422.165 226.212V216.828H424.8V230.802H422.216L415.909 221.418V230.802H413.274ZM428.482 226.246C428.822 226.994 429.298 227.583 429.91 228.014C430.534 228.433 431.259 228.643 432.086 228.643C432.925 228.643 433.565 228.501 434.007 228.218C434.461 227.935 434.687 227.532 434.687 227.011C434.687 226.546 434.551 226.178 434.279 225.906C434.019 225.634 433.571 225.413 432.936 225.243L430.913 224.699C429.791 224.404 428.862 223.945 428.125 223.322C427.4 222.687 427.037 221.798 427.037 220.653C427.037 219.826 427.253 219.106 427.683 218.494C428.114 217.871 428.703 217.395 429.451 217.066C430.199 216.737 431.038 216.573 431.967 216.573C433.237 216.573 434.336 216.896 435.265 217.542C436.195 218.177 436.863 218.976 437.271 219.939L435.061 221.061C434.744 220.449 434.325 219.95 433.803 219.565C433.282 219.18 432.67 218.987 431.967 218.987C431.219 218.987 430.647 219.134 430.25 219.429C429.865 219.724 429.672 220.132 429.672 220.653C429.672 221.118 429.825 221.475 430.131 221.724C430.449 221.973 430.913 222.177 431.525 222.336L433.463 222.846C434.574 223.141 435.492 223.617 436.217 224.274C436.954 224.931 437.322 225.844 437.322 227.011C437.322 227.838 437.09 228.558 436.625 229.17C436.172 229.782 435.549 230.247 434.755 230.564C433.962 230.893 433.072 231.057 432.086 231.057C430.681 231.057 429.474 230.734 428.465 230.088C427.457 229.442 426.714 228.535 426.238 227.368L428.482 226.246Z" fill="black"/>
</g>
<g filter="url(#filter26_d_87_901)">
<rect x="250" y="10" width="50" height="50" rx="6" fill="#EBEBEB"/>
</g>
<g filter="url(#filter27_d_87_901)">
<rect x="130" y="10" width="50" height="50" rx="6" fill="#EBEBEB"/>
</g>
<g filter="url(#filter28_d_87_901)">
<rect x="190" y="10" width="50" height="50" rx="6" fill="#EBEBEB"/>
</g>
<g filter="url(#filter29_d_87_901)">
<rect x="70" y="10" width="50" height="50" rx="6" fill="#EBEBEB"/>
</g>
<g filter="url(#filter30_d_87_901)">
<rect x="190" y="70" width="50" height="50" rx="6" fill="#EBEBEB"/>
</g>
<g filter="url(#filter31_d_87_901)">
<rect x="70" y="70" width="50" height="50" rx="6" fill="#EBEBEB"/>
</g>
<g filter="url(#filter32_d_87_901)">
<rect x="130" y="70" width="50" height="50" rx="6" fill="#EBEBEB"/>
</g>
<g filter="url(#filter33_d_87_901)">
<rect x="250" y="70" width="50" height="50" rx="6" fill="#EBEBEB"/>
</g>
<defs>
<filter id="filter0_d_87_901" x="336" y="10" width="58" height="58" filterUnits="userSpaceOnUse" color-interpolation-filters="sRGB">
<feFlood flood-opacity="0" result="BackgroundImageFix"/>
<feColorMatrix in="SourceAlpha" type="matrix" values="0 0 0 0 0 0 0 0 0 0 0 0 0 0 0 0 0 0 127 0" result="hardAlpha"/>
<feOffset dy="4"/>
<feGaussianBlur stdDeviation="2"/>
<feComposite in2="hardAlpha" operator="out"/>
<feColorMatrix type="matrix" values="0 0 0 0 0 0 0 0 0 0 0 0 0 0 0 0 0 0 0.25 0"/>
<feBlend mode="normal" in2="BackgroundImageFix" result="effect1_dropShadow_87_901"/>
<feBlend mode="normal" in="SourceGraphic" in2="effect1_dropShadow_87_901" result="shape"/>
</filter>
<filter id="filter1_d_87_901" x="336" y="70" width="58" height="58" filterUnits="userSpaceOnUse" color-interpolation-filters="sRGB">
<feFlood flood-opacity="0" result="BackgroundImageFix"/>
<feColorMatrix in="SourceAlpha" type="matrix" values="0 0 0 0 0 0 0 0 0 0 0 0 0 0 0 0 0 0 127 0" result="hardAlpha"/>
<feOffset dy="4"/>
<feGaussianBlur stdDeviation="2"/>
<feComposite in2="hardAlpha" operator="out"/>
<feColorMatrix type="matrix" values="0 0 0 0 0 0 0 0 0 0 0 0 0 0 0 0 0 0 0.25 0"/>
<feBlend mode="normal" in2="BackgroundImageFix" result="effect1_dropShadow_87_901"/>
<feBlend mode="normal" in="SourceGraphic" in2="effect1_dropShadow_87_901" result="shape"/>
</filter>
<filter id="filter2_d_87_901" x="336" y="130" width="58" height="58" filterUnits="userSpaceOnUse" color-interpolation-filters="sRGB">
<feFlood flood-opacity="0" result="BackgroundImageFix"/>
<feColorMatrix in="SourceAlpha" type="matrix" values="0 0 0 0 0 0 0 0 0 0 0 0 0 0 0 0 0 0 127 0" result="hardAlpha"/>
<feOffset dy="4"/>
<feGaussianBlur stdDeviation="2"/>
<feComposite in2="hardAlpha" operator="out"/>
<feColorMatrix type="matrix" values="0 0 0 0 0 0 0 0 0 0 0 0 0 0 0 0 0 0 0.25 0"/>
<feBlend mode="normal" in2="BackgroundImageFix" result="effect1_dropShadow_87_901"/>
<feBlend mode="normal" in="SourceGraphic" in2="effect1_dropShadow_87_901" result="shape"/>
</filter>
<filter id="filter3_d_87_901" x="576" y="10" width="58" height="58" filterUnits="userSpaceOnUse" color-interpolation-filters="sRGB">
<feFlood flood-opacity="0" result="BackgroundImageFix"/>
<feColorMatrix in="SourceAlpha" type="matrix" values="0 0 0 0 0 0 0 0 0 0 0 0 0 0 0 0 0 0 127 0" result="hardAlpha"/>
<feOffset dy="4"/>
<feGaussianBlur stdDeviation="2"/>
<feComposite in2="hardAlpha" operator="out"/>
<feColorMatrix type="matrix" values="0 0 0 0 0 0 0 0 0 0 0 0 0 0 0 0 0 0 0.25 0"/>
<feBlend mode="normal" in2="BackgroundImageFix" result="effect1_dropShadow_87_901"/>
<feBlend mode="normal" in="SourceGraphic" in2="effect1_dropShadow_87_901" result="shape"/>
</filter>
<filter id="filter4_d_87_901" x="576" y="70" width="58" height="58" filterUnits="userSpaceOnUse" color-interpolation-filters="sRGB">
<feFlood flood-opacity="0" result="BackgroundImageFix"/>
<feColorMatrix in="SourceAlpha" type="matrix" values="0 0 0 0 0 0 0 0 0 0 0 0 0 0 0 0 0 0 127 0" result="hardAlpha"/>
<feOffset dy="4"/>
<feGaussianBlur stdDeviation="2"/>
<feComposite in2="hardAlpha" operator="out"/>
<feColorMatrix type="matrix" values="0 0 0 0 0 0 0 0 0 0 0 0 0 0 0 0 0 0 0.25 0"/>
<feBlend mode="normal" in2="BackgroundImageFix" result="effect1_dropShadow_87_901"/>
<feBlend mode="normal" in="SourceGraphic" in2="effect1_dropShadow_87_901" result="shape"/>
</filter>
<filter id="filter5_d_87_901" x="576" y="130" width="58" height="58" filterUnits="userSpaceOnUse" color-interpolation-filters="sRGB">
<feFlood flood-opacity="0" result="BackgroundImageFix"/>
<feColorMatrix in="SourceAlpha" type="matrix" values="0 0 0 0 0 0 0 0 0 0 0 0 0 0 0 0 0 0 127 0" result="hardAlpha"/>
<feOffset dy="4"/>
<feGaussianBlur stdDeviation="2"/>
<feComposite in2="hardAlpha" operator="out"/>
<feColorMatrix type="matrix" values="0 0 0 0 0 0 0 0 0 0 0 0 0 0 0 0 0 0 0.25 0"/>
<feBlend mode="normal" in2="BackgroundImageFix" result="effect1_dropShadow_87_901"/>
<feBlend mode="normal" in="SourceGraphic" in2="effect1_dropShadow_87_901" result="shape"/>
</filter>
<filter id="filter6_d_87_901" x="6" y="10" width="58" height="58" filterUnits="userSpaceOnUse" color-interpolation-filters="sRGB">
<feFlood flood-opacity="0" result="BackgroundImageFix"/>
<feColorMatrix in="SourceAlpha" type="matrix" values="0 0 0 0 0 0 0 0 0 0 0 0 0 0 0 0 0 0 127 0" result="hardAlpha"/>
<feOffset dy="4"/>
<feGaussianBlur stdDeviation="2"/>
<feComposite in2="hardAlpha" operator="out"/>
<feColorMatrix type="matrix" values="0 0 0 0 0 0 0 0 0 0 0 0 0 0 0 0 0 0 0.25 0"/>
<feBlend mode="normal" in2="BackgroundImageFix" result="effect1_dropShadow_87_901"/>
<feBlend mode="normal" in="SourceGraphic" in2="effect1_dropShadow_87_901" result="shape"/>
</filter>
<filter id="filter7_d_87_901" x="186" y="130" width="58" height="58" filterUnits="userSpaceOnUse" color-interpolation-filters="sRGB">
<feFlood flood-opacity="0" result="BackgroundImageFix"/>
<feColorMatrix in="SourceAlpha" type="matrix" values="0 0 0 0 0 0 0 0 0 0 0 0 0 0 0 0 0 0 127 0" result="hardAlpha"/>
<feOffset dy="4"/>
<feGaussianBlur stdDeviation="2"/>
<feComposite in2="hardAlpha" operator="out"/>
<feColorMatrix type="matrix" values="0 0 0 0 0 0 0 0 0 0 0 0 0 0 0 0 0 0 0.25 0"/>
<feBlend mode="normal" in2="BackgroundImageFix" result="effect1_dropShadow_87_901"/>
<feBlend mode="normal" in="SourceGraphic" in2="effect1_dropShadow_87_901" result="shape"/>
</filter>
<filter id="filter8_d_87_901" x="6" y="130" width="58" height="58" filterUnits="userSpaceOnUse" color-interpolation-filters="sRGB">
<feFlood flood-opacity="0" result="BackgroundImageFix"/>
<feColorMatrix in="SourceAlpha" type="matrix" values="0 0 0 0 0 0 0 0 0 0 0 0 0 0 0 0 0 0 127 0" result="hardAlpha"/>
<feOffset dy="4"/>
<feGaussianBlur stdDeviation="2"/>
<feComposite in2="hardAlpha" operator="out"/>
<feColorMatrix type="matrix" values="0 0 0 0 0 0 0 0 0 0 0 0 0 0 0 0 0 0 0.25 0"/>
<feBlend mode="normal" in2="BackgroundImageFix" result="effect1_dropShadow_87_901"/>
<feBlend mode="normal" in="SourceGraphic" in2="effect1_dropShadow_87_901" result="shape"/>
</filter>
<filter id="filter9_d_87_901" x="186" y="190" width="58" height="58" filterUnits="userSpaceOnUse" color-interpolation-filters="sRGB">
<feFlood flood-opacity="0" result="BackgroundImageFix"/>
<feColorMatrix in="SourceAlpha" type="matrix" values="0 0 0 0 0 0 0 0 0 0 0 0 0 0 0 0 0 0 127 0" result="hardAlpha"/>
<feOffset dy="4"/>
<feGaussianBlur stdDeviation="2"/>
<feComposite in2="hardAlpha" operator="out"/>
<feColorMatrix type="matrix" values="0 0 0 0 0 0 0 0 0 0 0 0 0 0 0 0 0 0 0.25 0"/>
<feBlend mode="normal" in2="BackgroundImageFix" result="effect1_dropShadow_87_901"/>
<feBlend mode="normal" in="SourceGraphic" in2="effect1_dropShadow_87_901" result="shape"/>
</filter>
<filter id="filter10_d_87_901" x="336" y="190" width="58" height="58" filterUnits="userSpaceOnUse" color-interpolation-filters="sRGB">
<feFlood flood-opacity="0" result="BackgroundImageFix"/>
<feColorMatrix in="SourceAlpha" type="matrix" values="0 0 0 0 0 0 0 0 0 0 0 0 0 0 0 0 0 0 127 0" result="hardAlpha"/>
<feOffset dy="4"/>
<feGaussianBlur stdDeviation="2"/>
<feComposite in2="hardAlpha" operator="out"/>
<feColorMatrix type="matrix" values="0 0 0 0 0 0 0 0 0 0 0 0 0 0 0 0 0 0 0.25 0"/>
<feBlend mode="normal" in2="BackgroundImageFix" result="effect1_dropShadow_87_901"/>
<feBlend mode="normal" in="SourceGraphic" in2="effect1_dropShadow_87_901" result="shape"/>
</filter>
<filter id="filter11_d_87_901" x="6" y="70" width="58" height="58" filterUnits="userSpaceOnUse" color-interpolation-filters="sRGB">
<feFlood flood-opacity="0" result="BackgroundImageFix"/>
<feColorMatrix in="SourceAlpha" type="matrix" values="0 0 0 0 0 0 0 0 0 0 0 0 0 0 0 0 0 0 127 0" result="hardAlpha"/>
<feOffset dy="4"/>
<feGaussianBlur stdDeviation="2"/>
<feComposite in2="hardAlpha" operator="out"/>
<feColorMatrix type="matrix" values="0 0 0 0 0 0 0 0 0 0 0 0 0 0 0 0 0 0 0.25 0"/>
<feBlend mode="normal" in2="BackgroundImageFix" result="effect1_dropShadow_87_901"/>
<feBlend mode="normal" in="SourceGraphic" in2="effect1_dropShadow_87_901" result="shape"/>
</filter>
<filter id="filter12_d_87_901" x="396" y="10" width="58" height="58" filterUnits="userSpaceOnUse" color-interpolation-filters="sRGB">
<feFlood flood-opacity="0" result="BackgroundImageFix"/>
<feColorMatrix in="SourceAlpha" type="matrix" values="0 0 0 0 0 0 0 0 0 0 0 0 0 0 0 0 0 0 127 0" result="hardAlpha"/>
<feOffset dy="4"/>
<feGaussianBlur stdDeviation="2"/>
<feComposite in2="hardAlpha" operator="out"/>
<feColorMatrix type="matrix" values="0 0 0 0 0 0 0 0 0 0 0 0 0 0 0 0 0 0 0.25 0"/>
<feBlend mode="normal" in2="BackgroundImageFix" result="effect1_dropShadow_87_901"/>
<feBlend mode="normal" in="SourceGraphic" in2="effect1_dropShadow_87_901" result="shape"/>
</filter>
<filter id="filter13_d_87_901" x="396" y="70" width="58" height="58" filterUnits="userSpaceOnUse" color-interpolation-filters="sRGB">
<feFlood flood-opacity="0" result="BackgroundImageFix"/>
<feColorMatrix in="SourceAlpha" type="matrix" values="0 0 0 0 0 0 0 0 0 0 0 0 0 0 0 0 0 0 127 0" result="hardAlpha"/>
<feOffset dy="4"/>
<feGaussianBlur stdDeviation="2"/>
<feComposite in2="hardAlpha" operator="out"/>
<feColorMatrix type="matrix" values="0 0 0 0 0 0 0 0 0 0 0 0 0 0 0 0 0 0 0.25 0"/>
<feBlend mode="normal" in2="BackgroundImageFix" result="effect1_dropShadow_87_901"/>
<feBlend mode="normal" in="SourceGraphic" in2="effect1_dropShadow_87_901" result="shape"/>
</filter>
<filter id="filter14_d_87_901" x="396" y="130" width="58" height="58" filterUnits="userSpaceOnUse" color-interpolation-filters="sRGB">
<feFlood flood-opacity="0" result="BackgroundImageFix"/>
<feColorMatrix in="SourceAlpha" type="matrix" values="0 0 0 0 0 0 0 0 0 0 0 0 0 0 0 0 0 0 127 0" result="hardAlpha"/>
<feOffset dy="4"/>
<feGaussianBlur stdDeviation="2"/>
<feComposite in2="hardAlpha" operator="out"/>
<feColorMatrix type="matrix" values="0 0 0 0 0 0 0 0 0 0 0 0 0 0 0 0 0 0 0.25 0"/>
<feBlend mode="normal" in2="BackgroundImageFix" result="effect1_dropShadow_87_901"/>
<feBlend mode="normal" in="SourceGraphic" in2="effect1_dropShadow_87_901" result="shape"/>
</filter>
<filter id="filter15_d_87_901" x="456" y="10" width="58" height="58" filterUnits="userSpaceOnUse" color-interpolation-filters="sRGB">
<feFlood flood-opacity="0" result="BackgroundImageFix"/>
<feColorMatrix in="SourceAlpha" type="matrix" values="0 0 0 0 0 0 0 0 0 0 0 0 0 0 0 0 0 0 127 0" result="hardAlpha"/>
<feOffset dy="4"/>
<feGaussianBlur stdDeviation="2"/>
<feComposite in2="hardAlpha" operator="out"/>
<feColorMatrix type="matrix" values="0 0 0 0 0 0 0 0 0 0 0 0 0 0 0 0 0 0 0.25 0"/>
<feBlend mode="normal" in2="BackgroundImageFix" result="effect1_dropShadow_87_901"/>
<feBlend mode="normal" in="SourceGraphic" in2="effect1_dropShadow_87_901" result="shape"/>
</filter>
<filter id="filter16_d_87_901" x="456" y="70" width="58" height="58" filterUnits="userSpaceOnUse" color-interpolation-filters="sRGB">
<feFlood flood-opacity="0" result="BackgroundImageFix"/>
<feColorMatrix in="SourceAlpha" type="matrix" values="0 0 0 0 0 0 0 0 0 0 0 0 0 0 0 0 0 0 127 0" result="hardAlpha"/>
<feOffset dy="4"/>
<feGaussianBlur stdDeviation="2"/>
<feComposite in2="hardAlpha" operator="out"/>
<feColorMatrix type="matrix" values="0 0 0 0 0 0 0 0 0 0 0 0 0 0 0 0 0 0 0.25 0"/>
<feBlend mode="normal" in2="BackgroundImageFix" result="effect1_dropShadow_87_901"/>
<feBlend mode="normal" in="SourceGraphic" in2="effect1_dropShadow_87_901" result="shape"/>
</filter>
<filter id="filter17_d_87_901" x="456" y="130" width="58" height="58" filterUnits="userSpaceOnUse" color-interpolation-filters="sRGB">
<feFlood flood-opacity="0" result="BackgroundImageFix"/>
<feColorMatrix in="SourceAlpha" type="matrix" values="0 0 0 0 0 0 0 0 0 0 0 0 0 0 0 0 0 0 127 0" result="hardAlpha"/>
<feOffset dy="4"/>
<feGaussianBlur stdDeviation="2"/>
<feComposite in2="hardAlpha" operator="out"/>
<feColorMatrix type="matrix" values="0 0 0 0 0 0 0 0 0 0 0 0 0 0 0 0 0 0 0.25 0"/>
<feBlend mode="normal" in2="BackgroundImageFix" result="effect1_dropShadow_87_901"/>
<feBlend mode="normal" in="SourceGraphic" in2="effect1_dropShadow_87_901" result="shape"/>
</filter>
<filter id="filter18_d_87_901" x="516" y="10" width="58" height="58" filterUnits="userSpaceOnUse" color-interpolation-filters="sRGB">
<feFlood flood-opacity="0" result="BackgroundImageFix"/>
<feColorMatrix in="SourceAlpha" type="matrix" values="0 0 0 0 0 0 0 0 0 0 0 0 0 0 0 0 0 0 127 0" result="hardAlpha"/>
<feOffset dy="4"/>
<feGaussianBlur stdDeviation="2"/>
<feComposite in2="hardAlpha" operator="out"/>
<feColorMatrix type="matrix" values="0 0 0 0 0 0 0 0 0 0 0 0 0 0 0 0 0 0 0.25 0"/>
<feBlend mode="normal" in2="BackgroundImageFix" result="effect1_dropShadow_87_901"/>
<feBlend mode="normal" in="SourceGraphic" in2="effect1_dropShadow_87_901" result="shape"/>
</filter>
<filter id="filter19_d_87_901" x="516" y="70" width="58" height="58" filterUnits="userSpaceOnUse" color-interpolation-filters="sRGB">
<feFlood flood-opacity="0" result="BackgroundImageFix"/>
<feColorMatrix in="SourceAlpha" type="matrix" values="0 0 0 0 0 0 0 0 0 0 0 0 0 0 0 0 0 0 127 0" result="hardAlpha"/>
<feOffset dy="4"/>
<feGaussianBlur stdDeviation="2"/>
<feComposite in2="hardAlpha" operator="out"/>
<feColorMatrix type="matrix" values="0 0 0 0 0 0 0 0 0 0 0 0 0 0 0 0 0 0 0.25 0"/>
<feBlend mode="normal" in2="BackgroundImageFix" result="effect1_dropShadow_87_901"/>
<feBlend mode="normal" in="SourceGraphic" in2="effect1_dropShadow_87_901" result="shape"/>
</filter>
<filter id="filter20_d_87_901" x="516" y="130" width="58" height="58" filterUnits="userSpaceOnUse" color-interpolation-filters="sRGB">
<feFlood flood-opacity="0" result="BackgroundImageFix"/>
<feColorMatrix in="SourceAlpha" type="matrix" values="0 0 0 0 0 0 0 0 0 0 0 0 0 0 0 0 0 0 127 0" result="hardAlpha"/>
<feOffset dy="4"/>
<feGaussianBlur stdDeviation="2"/>
<feComposite in2="hardAlpha" operator="out"/>
<feColorMatrix type="matrix" values="0 0 0 0 0 0 0 0 0 0 0 0 0 0 0 0 0 0 0.25 0"/>
<feBlend mode="normal" in2="BackgroundImageFix" result="effect1_dropShadow_87_901"/>
<feBlend mode="normal" in="SourceGraphic" in2="effect1_dropShadow_87_901" result="shape"/>
</filter>
<filter id="filter21_d_87_901" x="66" y="130" width="58" height="58" filterUnits="userSpaceOnUse" color-interpolation-filters="sRGB">
<feFlood flood-opacity="0" result="BackgroundImageFix"/>
<feColorMatrix in="SourceAlpha" type="matrix" values="0 0 0 0 0 0 0 0 0 0 0 0 0 0 0 0 0 0 127 0" result="hardAlpha"/>
<feOffset dy="4"/>
<feGaussianBlur stdDeviation="2"/>
<feComposite in2="hardAlpha" operator="out"/>
<feColorMatrix type="matrix" values="0 0 0 0 0 0 0 0 0 0 0 0 0 0 0 0 0 0 0.25 0"/>
<feBlend mode="normal" in2="BackgroundImageFix" result="effect1_dropShadow_87_901"/>
<feBlend mode="normal" in="SourceGraphic" in2="effect1_dropShadow_87_901" result="shape"/>
</filter>
<filter id="filter22_d_87_901" x="246" y="130" width="58" height="58" filterUnits="userSpaceOnUse" color-interpolation-filters="sRGB">
<feFlood flood-opacity="0" result="BackgroundImageFix"/>
<feColorMatrix in="SourceAlpha" type="matrix" values="0 0 0 0 0 0 0 0 0 0 0 0 0 0 0 0 0 0 127 0" result="hardAlpha"/>
<feOffset dy="4"/>
<feGaussianBlur stdDeviation="2"/>
<feComposite in2="hardAlpha" operator="out"/>
<feColorMatrix type="matrix" values="0 0 0 0 0 0 0 0 0 0 0 0 0 0 0 0 0 0 0.25 0"/>
<feBlend mode="normal" in2="BackgroundImageFix" result="effect1_dropShadow_87_901"/>
<feBlend mode="normal" in="SourceGraphic" in2="effect1_dropShadow_87_901" result="shape"/>
</filter>
<filter id="filter23_d_87_901" x="126" y="130" width="58" height="58" filterUnits="userSpaceOnUse" color-interpolation-filters="sRGB">
<feFlood flood-opacity="0" result="BackgroundImageFix"/>
<feColorMatrix in="SourceAlpha" type="matrix" values="0 0 0 0 0 0 0 0 0 0 0 0 0 0 0 0 0 0 127 0" result="hardAlpha"/>
<feOffset dy="4"/>
<feGaussianBlur stdDeviation="2"/>
<feComposite in2="hardAlpha" operator="out"/>
<feColorMatrix type="matrix" values="0 0 0 0 0 0 0 0 0 0 0 0 0 0 0 0 0 0 0.25 0"/>
<feBlend mode="normal" in2="BackgroundImageFix" result="effect1_dropShadow_87_901"/>
<feBlend mode="normal" in="SourceGraphic" in2="effect1_dropShadow_87_901" result="shape"/>
</filter>
<filter id="filter24_d_87_901" x="246" y="190" width="58" height="58" filterUnits="userSpaceOnUse" color-interpolation-filters="sRGB">
<feFlood flood-opacity="0" result="BackgroundImageFix"/>
<feColorMatrix in="SourceAlpha" type="matrix" values="0 0 0 0 0 0 0 0 0 0 0 0 0 0 0 0 0 0 127 0" result="hardAlpha"/>
<feOffset dy="4"/>
<feGaussianBlur stdDeviation="2"/>
<feComposite in2="hardAlpha" operator="out"/>
<feColorMatrix type="matrix" values="0 0 0 0 0 0 0 0 0 0 0 0 0 0 0 0 0 0 0.25 0"/>
<feBlend mode="normal" in2="BackgroundImageFix" result="effect1_dropShadow_87_901"/>
<feBlend mode="normal" in="SourceGraphic" in2="effect1_dropShadow_87_901" result="shape"/>
</filter>
<filter id="filter25_d_87_901" x="396" y="190" width="58" height="58" filterUnits="userSpaceOnUse" color-interpolation-filters="sRGB">
<feFlood flood-opacity="0" result="BackgroundImageFix"/>
<feColorMatrix in="SourceAlpha" type="matrix" values="0 0 0 0 0 0 0 0 0 0 0 0 0 0 0 0 0 0 127 0" result="hardAlpha"/>
<feOffset dy="4"/>
<feGaussianBlur stdDeviation="2"/>
<feComposite in2="hardAlpha" operator="out"/>
<feColorMatrix type="matrix" values="0 0 0 0 0 0 0 0 0 0 0 0 0 0 0 0 0 0 0.25 0"/>
<feBlend mode="normal" in2="BackgroundImageFix" result="effect1_dropShadow_87_901"/>
<feBlend mode="normal" in="SourceGraphic" in2="effect1_dropShadow_87_901" result="shape"/>
</filter>
<filter id="filter26_d_87_901" x="246" y="10" width="58" height="58" filterUnits="userSpaceOnUse" color-interpolation-filters="sRGB">
<feFlood flood-opacity="0" result="BackgroundImageFix"/>
<feColorMatrix in="SourceAlpha" type="matrix" values="0 0 0 0 0 0 0 0 0 0 0 0 0 0 0 0 0 0 127 0" result="hardAlpha"/>
<feOffset dy="4"/>
<feGaussianBlur stdDeviation="2"/>
<feComposite in2="hardAlpha" operator="out"/>
<feColorMatrix type="matrix" values="0 0 0 0 0 0 0 0 0 0 0 0 0 0 0 0 0 0 0.25 0"/>
<feBlend mode="normal" in2="BackgroundImageFix" result="effect1_dropShadow_87_901"/>
<feBlend mode="normal" in="SourceGraphic" in2="effect1_dropShadow_87_901" result="shape"/>
</filter>
<filter id="filter27_d_87_901" x="126" y="10" width="58" height="58" filterUnits="userSpaceOnUse" color-interpolation-filters="sRGB">
<feFlood flood-opacity="0" result="BackgroundImageFix"/>
<feColorMatrix in="SourceAlpha" type="matrix" values="0 0 0 0 0 0 0 0 0 0 0 0 0 0 0 0 0 0 127 0" result="hardAlpha"/>
<feOffset dy="4"/>
<feGaussianBlur stdDeviation="2"/>
<feComposite in2="hardAlpha" operator="out"/>
<feColorMatrix type="matrix" values="0 0 0 0 0 0 0 0 0 0 0 0 0 0 0 0 0 0 0.25 0"/>
<feBlend mode="normal" in2="BackgroundImageFix" result="effect1_dropShadow_87_901"/>
<feBlend mode="normal" in="SourceGraphic" in2="effect1_dropShadow_87_901" result="shape"/>
</filter>
<filter id="filter28_d_87_901" x="186" y="10" width="58" height="58" filterUnits="userSpaceOnUse" color-interpolation-filters="sRGB">
<feFlood flood-opacity="0" result="BackgroundImageFix"/>
<feColorMatrix in="SourceAlpha" type="matrix" values="0 0 0 0 0 0 0 0 0 0 0 0 0 0 0 0 0 0 127 0" result="hardAlpha"/>
<feOffset dy="4"/>
<feGaussianBlur stdDeviation="2"/>
<feComposite in2="hardAlpha" operator="out"/>
<feColorMatrix type="matrix" values="0 0 0 0 0 0 0 0 0 0 0 0 0 0 0 0 0 0 0.25 0"/>
<feBlend mode="normal" in2="BackgroundImageFix" result="effect1_dropShadow_87_901"/>
<feBlend mode="normal" in="SourceGraphic" in2="effect1_dropShadow_87_901" result="shape"/>
</filter>
<filter id="filter29_d_87_901" x="66" y="10" width="58" height="58" filterUnits="userSpaceOnUse" color-interpolation-filters="sRGB">
<feFlood flood-opacity="0" result="BackgroundImageFix"/>
<feColorMatrix in="SourceAlpha" type="matrix" values="0 0 0 0 0 0 0 0 0 0 0 0 0 0 0 0 0 0 127 0" result="hardAlpha"/>
<feOffset dy="4"/>
<feGaussianBlur stdDeviation="2"/>
<feComposite in2="hardAlpha" operator="out"/>
<feColorMatrix type="matrix" values="0 0 0 0 0 0 0 0 0 0 0 0 0 0 0 0 0 0 0.25 0"/>
<feBlend mode="normal" in2="BackgroundImageFix" result="effect1_dropShadow_87_901"/>
<feBlend mode="normal" in="SourceGraphic" in2="effect1_dropShadow_87_901" result="shape"/>
</filter>
<filter id="filter30_d_87_901" x="186" y="70" width="58" height="58" filterUnits="userSpaceOnUse" color-interpolation-filters="sRGB">
<feFlood flood-opacity="0" result="BackgroundImageFix"/>
<feColorMatrix in="SourceAlpha" type="matrix" values="0 0 0 0 0 0 0 0 0 0 0 0 0 0 0 0 0 0 127 0" result="hardAlpha"/>
<feOffset dy="4"/>
<feGaussianBlur stdDeviation="2"/>
<feComposite in2="hardAlpha" operator="out"/>
<feColorMatrix type="matrix" values="0 0 0 0 0 0 0 0 0 0 0 0 0 0 0 0 0 0 0.25 0"/>
<feBlend mode="normal" in2="BackgroundImageFix" result="effect1_dropShadow_87_901"/>
<feBlend mode="normal" in="SourceGraphic" in2="effect1_dropShadow_87_901" result="shape"/>
</filter>
<filter id="filter31_d_87_901" x="66" y="70" width="58" height="58" filterUnits="userSpaceOnUse" color-interpolation-filters="sRGB">
<feFlood flood-opacity="0" result="BackgroundImageFix"/>
<feColorMatrix in="SourceAlpha" type="matrix" values="0 0 0 0 0 0 0 0 0 0 0 0 0 0 0 0 0 0 127 0" result="hardAlpha"/>
<feOffset dy="4"/>
<feGaussianBlur stdDeviation="2"/>
<feComposite in2="hardAlpha" operator="out"/>
<feColorMatrix type="matrix" values="0 0 0 0 0 0 0 0 0 0 0 0 0 0 0 0 0 0 0.25 0"/>
<feBlend mode="normal" in2="BackgroundImageFix" result="effect1_dropShadow_87_901"/>
<feBlend mode="normal" in="SourceGraphic" in2="effect1_dropShadow_87_901" result="shape"/>
</filter>
<filter id="filter32_d_87_901" x="126" y="70" width="58" height="58" filterUnits="userSpaceOnUse" color-interpolation-filters="sRGB">
<feFlood flood-opacity="0" result="BackgroundImageFix"/>
<feColorMatrix in="SourceAlpha" type="matrix" values="0 0 0 0 0 0 0 0 0 0 0 0 0 0 0 0 0 0 127 0" result="hardAlpha"/>
<feOffset dy="4"/>
<feGaussianBlur stdDeviation="2"/>
<feComposite in2="hardAlpha" operator="out"/>
<feColorMatrix type="matrix" values="0 0 0 0 0 0 0 0 0 0 0 0 0 0 0 0 0 0 0.25 0"/>
<feBlend mode="normal" in2="BackgroundImageFix" result="effect1_dropShadow_87_901"/>
<feBlend mode="normal" in="SourceGraphic" in2="effect1_dropShadow_87_901" result="shape"/>
</filter>
<filter id="filter33_d_87_901" x="246" y="70" width="58" height="58" filterUnits="userSpaceOnUse" color-interpolation-filters="sRGB">
<feFlood flood-opacity="0" result="BackgroundImageFix"/>
<feColorMatrix in="SourceAlpha" type="matrix" values="0 0 0 0 0 0 0 0 0 0 0 0 0 0 0 0 0 0 127 0" result="hardAlpha"/>
<feOffset dy="4"/>
<feGaussianBlur stdDeviation="2"/>
<feComposite in2="hardAlpha" operator="out"/>
<feColorMatrix type="matrix" values="0 0 0 0 0 0 0 0 0 0 0 0 0 0 0 0 0 0 0.25 0"/>
<feBlend mode="normal" in2="BackgroundImageFix" result="effect1_dropShadow_87_901"/>
<feBlend mode="normal" in="SourceGraphic" in2="effect1_dropShadow_87_901" result="shape"/>
</filter>
</defs>
</svg>
