<svg width="640" height="250" viewBox="0 0 640 250" fill="none" xmlns="http://www.w3.org/2000/svg">
<rect width="640" height="250" fill="#99A0AF"/>
<g filter="url(#filter0_d_82_770)">
<rect x="250" y="10" width="50" height="50" rx="6" fill="#EBEBEB"/>
<path d="M275.533 44.904C273.949 44.904 272.485 44.56 271.141 43.872C269.813 43.2 268.869 42.232 268.309 40.968L271.525 39.168C271.861 39.936 272.357 40.512 273.013 40.896C273.669 41.28 274.429 41.472 275.293 41.472C276.029 41.472 276.653 41.344 277.165 41.088C277.693 40.832 278.093 40.472 278.365 40.008C278.637 39.528 278.773 38.968 278.773 38.328C278.773 37.704 278.621 37.16 278.317 36.696C278.029 36.216 277.621 35.848 277.093 35.592C276.565 35.32 275.965 35.184 275.293 35.184C274.557 35.184 273.949 35.328 273.469 35.616C272.989 35.888 272.589 36.328 272.269 36.936H268.933L270.133 24.816H281.749V28.248H273.277L272.557 34.536H271.813C272.149 33.656 272.717 32.976 273.517 32.496C274.333 32 275.205 31.752 276.133 31.752C277.301 31.752 278.365 32.024 279.325 32.568C280.285 33.112 281.045 33.888 281.605 34.896C282.165 35.888 282.445 37.032 282.445 38.328C282.445 39.656 282.157 40.816 281.581 41.808C281.021 42.8 280.221 43.56 279.181 44.088C278.141 44.632 276.925 44.904 275.533 44.904Z" fill="black"/>
</g>
<g filter="url(#filter1_d_82_770)">
<rect x="250" y="70" width="50" height="50" rx="6" fill="#EBEBEB"/>
<path d="M266.086 104.544L279.862 84.816H283.966L270.19 104.544H266.086ZM268.678 95.328C267.83 95.328 267.046 95.144 266.326 94.776C265.622 94.408 265.062 93.888 264.646 93.216C264.23 92.528 264.022 91.728 264.022 90.816V88.968C264.022 88.072 264.23 87.28 264.646 86.592C265.062 85.904 265.622 85.376 266.326 85.008C267.046 84.64 267.83 84.456 268.678 84.456C269.51 84.456 270.278 84.64 270.982 85.008C271.702 85.376 272.27 85.904 272.686 86.592C273.102 87.28 273.31 88.072 273.31 88.968V90.816C273.31 91.728 273.102 92.528 272.686 93.216C272.27 93.888 271.702 94.408 270.982 94.776C270.278 95.144 269.51 95.328 268.678 95.328ZM268.678 92.304C269.094 92.304 269.43 92.144 269.686 91.824C269.958 91.504 270.094 91.08 270.094 90.552V89.232C270.094 88.704 269.958 88.28 269.686 87.96C269.43 87.64 269.094 87.48 268.678 87.48C268.262 87.48 267.918 87.648 267.646 87.984C267.374 88.304 267.238 88.72 267.238 89.232V90.552C267.238 91.064 267.374 91.488 267.646 91.824C267.918 92.144 268.262 92.304 268.678 92.304ZM281.35 104.904C280.502 104.904 279.718 104.72 278.998 104.352C278.294 103.984 277.734 103.456 277.318 102.768C276.902 102.096 276.694 101.304 276.694 100.392V98.544C276.694 97.648 276.902 96.856 277.318 96.168C277.734 95.48 278.294 94.952 278.998 94.584C279.718 94.216 280.502 94.032 281.35 94.032C282.182 94.032 282.95 94.216 283.654 94.584C284.374 94.952 284.942 95.48 285.358 96.168C285.774 96.856 285.982 97.648 285.982 98.544V100.392C285.982 101.304 285.774 102.096 285.358 102.768C284.942 103.456 284.374 103.984 283.654 104.352C282.95 104.72 282.182 104.904 281.35 104.904ZM281.35 101.88C281.766 101.88 282.102 101.72 282.358 101.4C282.63 101.08 282.766 100.656 282.766 100.128V98.808C282.766 98.28 282.63 97.856 282.358 97.536C282.102 97.216 281.766 97.056 281.35 97.056C280.934 97.056 280.59 97.224 280.318 97.56C280.046 97.88 279.91 98.296 279.91 98.808V100.128C279.91 100.64 280.046 101.064 280.318 101.4C280.59 101.72 280.934 101.88 281.35 101.88Z" fill="black"/>
</g>
<g filter="url(#filter2_d_82_770)">
<rect x="340" y="10" width="50" height="50" rx="6" fill="#EBEBEB"/>
<path d="M364.824 24.456C366.568 24.456 368.032 24.816 369.216 25.536C370.4 26.24 371.336 27.296 372.024 28.704L368.952 30.312C368.472 29.432 367.92 28.792 367.296 28.392C366.688 27.976 365.928 27.768 365.016 27.768C363.896 27.768 362.976 28.216 362.256 29.112C361.552 29.992 361.2 31.32 361.2 33.096V34.656H360.744C361.08 33.632 361.728 32.848 362.688 32.304C363.648 31.744 364.72 31.464 365.904 31.464C367.04 31.464 368.112 31.752 369.12 32.328C370.128 32.888 370.936 33.688 371.544 34.728C372.152 35.752 372.456 36.92 372.456 38.232C372.456 39.56 372.136 40.728 371.496 41.736C370.856 42.744 369.976 43.52 368.856 44.064C367.736 44.624 366.48 44.904 365.088 44.904C363.664 44.904 362.4 44.632 361.296 44.088C360.192 43.544 359.328 42.744 358.704 41.688C358.096 40.616 357.792 39.328 357.792 37.824V32.952C357.792 31.112 358.12 29.552 358.776 28.272C359.448 26.992 360.32 26.04 361.392 25.416C362.464 24.776 363.608 24.456 364.824 24.456ZM365.112 34.728C364.408 34.728 363.784 34.872 363.24 35.16C362.712 35.448 362.296 35.856 361.992 36.384C361.688 36.896 361.536 37.488 361.536 38.16C361.536 38.832 361.688 39.432 361.992 39.96C362.296 40.472 362.712 40.872 363.24 41.16C363.784 41.448 364.408 41.592 365.112 41.592C365.832 41.592 366.464 41.448 367.008 41.16C367.568 40.872 368 40.472 368.304 39.96C368.608 39.432 368.76 38.832 368.76 38.16C368.76 37.488 368.608 36.896 368.304 36.384C368 35.856 367.568 35.448 367.008 35.16C366.464 34.872 365.832 34.728 365.112 34.728Z" fill="black"/>
</g>
<g filter="url(#filter3_d_82_770)">
<rect x="340" y="70" width="50" height="50" rx="6" fill="#EBEBEB"/>
<path d="M358.977 92.76L363.609 84.816H367.401L372.033 92.76L368.793 94.632L364.977 87.984H366.033L362.217 94.632L358.977 92.76Z" fill="black"/>
</g>
<g filter="url(#filter4_d_82_770)">
<rect x="340" y="130" width="50" height="50" rx="6" fill="#EBEBEB"/>
</g>
<g filter="url(#filter5_d_82_770)">
<rect x="580" y="10" width="50" height="50" rx="6" fill="#EBEBEB"/>
<path d="M604.999 44.904C603.607 44.904 602.343 44.584 601.207 43.944C600.071 43.32 599.167 42.376 598.495 41.112C597.823 39.848 597.487 38.304 597.487 36.48V32.88C597.487 31.056 597.823 29.512 598.495 28.248C599.167 26.984 600.071 26.04 601.207 25.416C602.343 24.776 603.607 24.456 604.999 24.456C606.391 24.456 607.655 24.776 608.791 25.416C609.927 26.04 610.831 26.984 611.503 28.248C612.175 29.512 612.511 31.056 612.511 32.88V36.48C612.511 38.304 612.175 39.848 611.503 41.112C610.831 42.376 609.927 43.32 608.791 43.944C607.655 44.584 606.391 44.904 604.999 44.904ZM604.999 41.568C605.751 41.568 606.407 41.376 606.967 40.992C607.527 40.608 607.959 40.024 608.263 39.24C608.583 38.456 608.743 37.488 608.743 36.336V33.024C608.743 31.872 608.583 30.904 608.263 30.12C607.959 29.336 607.527 28.752 606.967 28.368C606.407 27.984 605.751 27.792 604.999 27.792C604.247 27.792 603.591 27.984 603.031 28.368C602.471 28.752 602.031 29.336 601.711 30.12C601.407 30.904 601.255 31.872 601.255 33.024V36.336C601.255 37.488 601.407 38.456 601.711 39.24C602.031 40.024 602.471 40.608 603.031 40.992C603.591 41.376 604.247 41.568 604.999 41.568Z" fill="black"/>
</g>
<g filter="url(#filter6_d_82_770)">
<rect x="580" y="70" width="50" height="50" rx="6" fill="#EBEBEB"/>
<path d="M608.802 94.68C608.802 97.096 608.322 99.416 607.362 101.64C606.402 103.848 605.01 105.856 603.186 107.664L600.762 105.408C603.77 102.016 605.274 98.44 605.274 94.68C605.274 90.92 603.77 87.344 600.762 83.952L603.186 81.696C605.01 83.504 606.402 85.52 607.362 87.744C608.322 89.952 608.802 92.264 608.802 94.68Z" fill="black"/>
</g>
<g filter="url(#filter7_d_82_770)">
<rect x="580" y="130" width="50" height="50" rx="6" fill="#EBEBEB"/>
<path d="M590.027 157.084C590.387 157.876 590.891 158.5 591.539 158.956C592.199 159.4 592.967 159.622 593.843 159.622C594.731 159.622 595.409 159.472 595.877 159.172C596.357 158.872 596.597 158.446 596.597 157.894C596.597 157.402 596.453 157.012 596.165 156.724C595.889 156.436 595.415 156.202 594.743 156.022L592.601 155.446C591.413 155.134 590.429 154.648 589.649 153.988C588.881 153.316 588.497 152.374 588.497 151.162C588.497 150.286 588.725 149.524 589.181 148.876C589.637 148.216 590.261 147.712 591.053 147.364C591.845 147.016 592.733 146.842 593.717 146.842C595.061 146.842 596.225 147.184 597.209 147.868C598.193 148.54 598.901 149.386 599.333 150.406L596.993 151.594C596.657 150.946 596.213 150.418 595.661 150.01C595.109 149.602 594.461 149.398 593.717 149.398C592.925 149.398 592.319 149.554 591.899 149.866C591.491 150.178 591.287 150.61 591.287 151.162C591.287 151.654 591.449 152.032 591.773 152.296C592.109 152.56 592.601 152.776 593.249 152.944L595.301 153.484C596.477 153.796 597.449 154.3 598.217 154.996C598.997 155.692 599.387 156.658 599.387 157.894C599.387 158.77 599.141 159.532 598.649 160.18C598.169 160.828 597.509 161.32 596.669 161.656C595.829 162.004 594.887 162.178 593.843 162.178C592.355 162.178 591.077 161.836 590.009 161.152C588.941 160.468 588.155 159.508 587.651 158.272L590.027 157.084ZM601.276 161.908V147.112H604.102V161.908H601.276ZM602.824 155.716V153.232H610.078V155.716H602.824ZM602.824 149.596V147.112H610.78V149.596H602.824ZM616.108 161.908V148.246H618.934V161.908H616.108ZM611.59 149.686V147.112H623.434V149.686H611.59Z" fill="black"/>
</g>
<g filter="url(#filter8_d_82_770)">
<rect x="10" y="10" width="50" height="50" rx="6" fill="#EBEBEB"/>
<path d="M35.5039 44.544V29.784L31.9039 32.544L29.8159 29.76L36.2239 24.816H39.2719V44.544H35.5039Z" fill="black"/>
</g>
<g filter="url(#filter9_d_82_770)">
<rect x="10" y="70" width="50" height="50" rx="6" fill="#EBEBEB"/>
<path d="M33.2705 98.208L32.8865 84.216H37.1105L36.7265 98.208H33.2705ZM34.9985 104.904C34.3745 104.904 33.8385 104.68 33.3905 104.232C32.9585 103.8 32.7425 103.272 32.7425 102.648C32.7425 102.024 32.9585 101.496 33.3905 101.064C33.8385 100.616 34.3745 100.392 34.9985 100.392C35.6225 100.392 36.1505 100.616 36.5825 101.064C37.0305 101.496 37.2545 102.024 37.2545 102.648C37.2545 103.272 37.0305 103.8 36.5825 104.232C36.1505 104.68 35.6225 104.904 34.9985 104.904Z" fill="black"/>
</g>
<g filter="url(#filter10_d_82_770)">
<rect x="250" y="130" width="50" height="50" rx="6" fill="#EBEBEB"/>
</g>
<g filter="url(#filter11_d_82_770)">
<rect x="10" y="130" width="50" height="50" rx="6" fill="#EBEBEB"/>
<path d="M20.0272 157.084C20.3872 157.876 20.8912 158.5 21.5392 158.956C22.1992 159.4 22.9672 159.622 23.8432 159.622C24.7312 159.622 25.4092 159.472 25.8772 159.172C26.3572 158.872 26.5972 158.446 26.5972 157.894C26.5972 157.402 26.4532 157.012 26.1652 156.724C25.8892 156.436 25.4152 156.202 24.7432 156.022L22.6012 155.446C21.4132 155.134 20.4292 154.648 19.6492 153.988C18.8812 153.316 18.4972 152.374 18.4972 151.162C18.4972 150.286 18.7252 149.524 19.1812 148.876C19.6372 148.216 20.2612 147.712 21.0532 147.364C21.8452 147.016 22.7332 146.842 23.7172 146.842C25.0612 146.842 26.2252 147.184 27.2092 147.868C28.1932 148.54 28.9012 149.386 29.3332 150.406L26.9932 151.594C26.6572 150.946 26.2132 150.418 25.6612 150.01C25.1092 149.602 24.4612 149.398 23.7172 149.398C22.9252 149.398 22.3192 149.554 21.8992 149.866C21.4912 150.178 21.2872 150.61 21.2872 151.162C21.2872 151.654 21.4492 152.032 21.7732 152.296C22.1092 152.56 22.6012 152.776 23.2492 152.944L25.3012 153.484C26.4772 153.796 27.4492 154.3 28.2172 154.996C28.9972 155.692 29.3872 156.658 29.3872 157.894C29.3872 158.77 29.1412 159.532 28.6492 160.18C28.1692 160.828 27.5092 161.32 26.6692 161.656C25.8292 162.004 24.8872 162.178 23.8432 162.178C22.3552 162.178 21.0772 161.836 20.0092 161.152C18.9412 160.468 18.1552 159.508 17.6512 158.272L20.0272 157.084ZM31.2756 161.908V147.112H34.1016V161.908H31.2756ZM32.8236 155.716V153.232H40.0776V155.716H32.8236ZM32.8236 149.596V147.112H40.7796V149.596H32.8236ZM46.1085 161.908V148.246H48.9345V161.908H46.1085ZM41.5905 149.686V147.112H53.4345V149.686H41.5905Z" fill="black"/>
</g>
<g filter="url(#filter12_d_82_770)">
<rect x="190" y="190" width="50" height="50" rx="6" fill="#EBEBEB"/>
<path d="M207.289 211.802V198.899H209.958V211.802H207.289ZM203.022 200.259V197.828H214.208V200.259H203.022ZM215.742 211.802V197.828H218.411V211.802H215.742ZM217.119 206.26V203.914H221.42C222.145 203.914 222.712 203.75 223.12 203.421C223.528 203.092 223.732 202.628 223.732 202.027C223.732 201.438 223.528 200.984 223.12 200.667C222.723 200.338 222.156 200.174 221.42 200.174H217.119V197.828H221.59C223.029 197.828 224.191 198.185 225.075 198.899C225.959 199.613 226.401 200.656 226.401 202.027C226.401 203.421 225.959 204.475 225.075 205.189C224.191 205.903 223.029 206.26 221.59 206.26H217.119ZM223.851 211.802L220.536 204.424H223.171L226.809 211.802H223.851ZM203.274 230.802V216.828H205.858L212.165 226.212V216.828H214.8V230.802H212.216L205.909 221.418V230.802H203.274ZM218.482 226.246C218.822 226.994 219.298 227.583 219.91 228.014C220.534 228.433 221.259 228.643 222.086 228.643C222.925 228.643 223.565 228.501 224.007 228.218C224.461 227.935 224.687 227.532 224.687 227.011C224.687 226.546 224.551 226.178 224.279 225.906C224.019 225.634 223.571 225.413 222.936 225.243L220.913 224.699C219.791 224.404 218.862 223.945 218.125 223.322C217.4 222.687 217.037 221.798 217.037 220.653C217.037 219.826 217.253 219.106 217.683 218.494C218.114 217.871 218.703 217.395 219.451 217.066C220.199 216.737 221.038 216.573 221.967 216.573C223.237 216.573 224.336 216.896 225.265 217.542C226.195 218.177 226.863 218.976 227.271 219.939L225.061 221.061C224.744 220.449 224.325 219.95 223.803 219.565C223.282 219.18 222.67 218.987 221.967 218.987C221.219 218.987 220.647 219.134 220.25 219.429C219.865 219.724 219.672 220.132 219.672 220.653C219.672 221.118 219.825 221.475 220.131 221.724C220.449 221.973 220.913 222.177 221.525 222.336L223.463 222.846C224.574 223.141 225.492 223.617 226.217 224.274C226.954 224.931 227.322 225.844 227.322 227.011C227.322 227.838 227.09 228.558 226.625 229.17C226.172 229.782 225.549 230.247 224.755 230.564C223.962 230.893 223.072 231.057 222.086 231.057C220.681 231.057 219.474 230.734 218.465 230.088C217.457 229.442 216.714 228.535 216.238 227.368L218.482 226.246Z" fill="black"/>
</g>
<path d="M313.198 63.8857L327.172 69.1217L327.172 71.7057L313.198 66.4527L313.198 63.8857ZM313.198 57.5787L327.172 57.5787L327.172 60.1967L313.198 60.1967L313.198 57.5787ZM313.198 63.8007L327.172 58.5477L327.172 61.1317L313.198 66.3677L313.198 63.8007ZM313.198 70.0567L327.172 70.0567L327.172 72.6747L313.198 72.6747L313.198 70.0567ZM312.943 80.7211C312.943 79.6218 313.187 78.6075 313.674 77.6781C314.15 76.7488 314.841 76.0064 315.748 75.4511C316.666 74.9071 317.748 74.6351 318.995 74.6351L321.375 74.6351C322.61 74.6351 323.687 74.9071 324.605 75.4511C325.523 76.0065 326.22 76.7488 326.696 77.6781C327.183 78.6075 327.427 79.6218 327.427 80.7211C327.427 81.8205 327.183 82.8348 326.696 83.7641C326.22 84.6935 325.523 85.4301 324.605 85.9741C323.687 86.5295 322.61 86.8071 321.375 86.8071L318.995 86.8071C317.748 86.8071 316.666 86.5295 315.748 85.9741C314.841 85.4301 314.15 84.6935 313.674 83.7641C313.187 82.8348 312.943 81.8204 312.943 80.7211ZM315.425 80.7211C315.425 81.3445 315.561 81.9168 315.833 82.4381C316.116 82.9595 316.536 83.3731 317.091 83.6791C317.646 83.9851 318.315 84.1381 319.097 84.1381L321.273 84.1381C322.055 84.1381 322.718 83.9795 323.262 83.6621C323.817 83.3561 324.237 82.9425 324.52 82.4211C324.803 81.9111 324.945 81.3445 324.945 80.7211C324.945 80.0978 324.803 79.5255 324.52 79.0041C324.237 78.4941 323.817 78.0805 323.262 77.7631C322.718 77.4571 322.055 77.3041 321.273 77.3041L319.097 77.3041C318.315 77.3041 317.646 77.4571 317.091 77.7631C316.536 78.0805 316.116 78.4941 315.833 79.0041C315.561 79.5255 315.425 80.0978 315.425 80.7211ZM313.198 88.6884L315.255 88.6884L320.185 93.6694C320.854 94.3381 321.415 94.8141 321.868 95.0974C322.333 95.3921 322.809 95.5394 323.296 95.5394C323.817 95.5394 324.237 95.3581 324.554 94.9954C324.883 94.6327 325.047 94.1057 325.047 93.4144C325.047 92.7684 324.837 92.2414 324.418 91.8334C323.999 91.4254 323.426 91.1251 322.701 90.9324L323.313 88.4164C324.492 88.7337 325.472 89.3174 326.254 90.1674C327.036 91.0287 327.427 92.1111 327.427 93.4144C327.427 94.3551 327.268 95.1824 326.951 95.8964C326.645 96.6104 326.186 97.1657 325.574 97.5624C324.973 97.9591 324.254 98.1574 323.415 98.1574C322.554 98.1574 321.783 97.9647 321.103 97.5794C320.423 97.1941 319.675 96.5934 318.859 95.7774L315.629 92.4794L315.629 98.4294L313.198 98.4294L313.198 88.6884ZM314.592 106.576C314.592 106.134 314.745 105.754 315.051 105.437C315.368 105.131 315.748 104.978 316.19 104.978C316.632 104.978 317.006 105.131 317.312 105.437C317.629 105.754 317.788 106.134 317.788 106.576C317.788 107.018 317.629 107.392 317.312 107.698C317.006 108.015 316.632 108.174 316.19 108.174C315.748 108.174 315.368 108.015 315.051 107.698C314.745 107.392 314.592 107.018 314.592 106.576ZM322.565 106.576C322.565 106.134 322.718 105.754 323.024 105.437C323.341 105.131 323.721 104.978 324.163 104.978C324.605 104.978 324.979 105.131 325.285 105.437C325.602 105.754 325.761 106.134 325.761 106.576C325.761 107.018 325.602 107.392 325.285 107.698C324.979 108.015 324.605 108.174 324.163 108.174C323.721 108.174 323.341 108.015 323.024 107.698C322.718 107.392 322.565 107.018 322.565 106.576ZM313.198 114.887L327.172 114.887L327.172 117.471L317.788 123.778L327.172 123.778L327.172 126.413L313.198 126.413L313.198 123.829L322.582 117.522L313.198 117.522L313.198 114.887ZM317.431 131.031C316.672 131.031 316.133 131.212 315.816 131.575C315.51 131.949 315.357 132.43 315.357 133.02C315.357 133.371 315.431 133.694 315.578 133.989C315.725 134.295 315.935 134.538 316.207 134.72C316.49 134.912 316.825 135.009 317.21 135.009L315.476 135.604C315.011 135.479 314.586 135.264 314.201 134.958C313.816 134.652 313.51 134.266 313.283 133.802C313.056 133.337 312.943 132.821 312.943 132.255C312.943 131.563 313.124 130.917 313.487 130.317C313.838 129.727 314.343 129.251 315 128.889C315.669 128.537 316.445 128.362 317.329 128.362L323.517 128.362L323.517 131.031L317.431 131.031ZM323.517 135.009L323.517 137.678L313.198 137.678L313.198 135.179L315.17 135.009L323.517 135.009ZM319.437 151.887C320.162 151.887 320.661 151.734 320.933 151.428C321.216 151.122 321.358 150.714 321.358 150.204C321.358 149.91 321.29 149.638 321.154 149.388C321.018 149.15 320.808 148.958 320.525 148.81C320.253 148.663 319.913 148.589 319.505 148.589L320.746 147.569C321.267 147.637 321.76 147.824 322.225 148.13C322.69 148.448 323.064 148.861 323.347 149.371C323.63 149.881 323.772 150.448 323.772 151.071C323.772 151.74 323.596 152.335 323.245 152.856C322.894 153.389 322.384 153.803 321.715 154.097C321.058 154.403 320.281 154.556 319.386 154.556L313.198 154.556L313.198 151.887L319.437 151.887ZM313.198 140.055L323.517 140.055L323.517 142.554L321.545 142.724L313.198 142.724L313.198 140.055ZM319.437 146.005C320.174 146.005 320.684 145.852 320.967 145.546C321.25 145.24 321.392 144.838 321.392 144.339C321.392 144.022 321.33 143.744 321.205 143.506C321.092 143.268 320.893 143.076 320.61 142.928C320.338 142.792 319.97 142.724 319.505 142.724L320.695 142.027C321.194 142.095 321.675 142.26 322.14 142.52C322.616 142.792 323.007 143.149 323.313 143.591C323.619 144.045 323.772 144.577 323.772 145.189C323.772 145.858 323.596 146.447 323.245 146.957C322.894 147.479 322.389 147.881 321.732 148.164C321.075 148.448 320.293 148.589 319.386 148.589L313.198 148.589L313.198 146.005L319.437 146.005ZM310.818 155.568L328.872 161.518L328.872 164.323L310.818 158.373L310.818 155.568ZM317.754 167.084C317.006 167.424 316.417 167.9 315.986 168.512C315.567 169.135 315.357 169.861 315.357 170.688C315.357 171.527 315.499 172.167 315.782 172.609C316.065 173.062 316.468 173.289 316.989 173.289C317.454 173.289 317.822 173.153 318.094 172.881C318.366 172.62 318.587 172.173 318.757 171.538L319.301 169.515C319.596 168.393 320.055 167.464 320.678 166.727C321.313 166.002 322.202 165.639 323.347 165.639C324.174 165.639 324.894 165.854 325.506 166.285C326.129 166.716 326.605 167.305 326.934 168.053C327.263 168.801 327.427 169.64 327.427 170.569C327.427 171.838 327.104 172.938 326.458 173.867C325.823 174.796 325.024 175.465 324.061 175.873L322.939 173.663C323.551 173.346 324.05 172.926 324.435 172.405C324.82 171.884 325.013 171.272 325.013 170.569C325.013 169.821 324.866 169.249 324.571 168.852C324.276 168.467 323.868 168.274 323.347 168.274C322.882 168.274 322.525 168.427 322.276 168.733C322.027 169.05 321.823 169.515 321.664 170.127L321.154 172.065C320.859 173.176 320.383 174.094 319.726 174.819C319.069 175.556 318.156 175.924 316.989 175.924C316.162 175.924 315.442 175.692 314.83 175.227C314.218 174.774 313.753 174.15 313.436 173.357C313.107 172.564 312.943 171.674 312.943 170.688C312.943 169.283 313.266 168.076 313.912 167.067C314.558 166.058 315.465 165.316 316.632 164.84L317.754 167.084ZM323.517 176.688L323.517 179.476L316.7 181.754L323.517 184.032L323.517 186.82L312.909 182.893C311.923 182.53 311.203 182.094 310.75 181.584C310.285 181.074 310.053 180.467 310.053 179.765C310.053 178.756 310.189 177.878 310.461 177.13L312.671 177.725C312.592 177.974 312.529 178.223 312.484 178.473C312.439 178.722 312.416 178.977 312.416 179.238C312.416 179.498 312.49 179.714 312.637 179.884C312.773 180.065 313.005 180.195 313.334 180.275L313.674 180.36L323.517 176.688ZM319.437 200.015C320.162 200.015 320.661 199.862 320.933 199.556C321.216 199.25 321.358 198.842 321.358 198.332C321.358 198.037 321.29 197.765 321.154 197.516C321.018 197.278 320.808 197.085 320.525 196.938C320.253 196.791 319.913 196.717 319.505 196.717L320.746 195.697C321.267 195.765 321.76 195.952 322.225 196.258C322.69 196.575 323.064 196.989 323.347 197.499C323.63 198.009 323.772 198.576 323.772 199.199C323.772 199.868 323.596 200.463 323.245 200.984C322.894 201.517 322.384 201.93 321.715 202.225C321.058 202.531 320.281 202.684 319.386 202.684L313.198 202.684L313.198 200.015L319.437 200.015ZM313.198 188.183L323.517 188.183L323.517 190.682L321.545 190.852L313.198 190.852L313.198 188.183ZM319.437 194.133C320.174 194.133 320.684 193.98 320.967 193.674C321.25 193.368 321.392 192.966 321.392 192.467C321.392 192.15 321.33 191.872 321.205 191.634C321.092 191.396 320.893 191.203 320.61 191.056C320.338 190.92 319.97 190.852 319.505 190.852L320.695 190.155C321.194 190.223 321.675 190.387 322.14 190.648C322.616 190.92 323.007 191.277 323.313 191.719C323.619 192.172 323.772 192.705 323.772 193.317C323.772 193.986 323.596 194.575 323.245 195.085C322.894 195.606 322.389 196.009 321.732 196.292C321.075 196.575 320.293 196.717 319.386 196.717L313.198 196.717L313.198 194.133L319.437 194.133Z" fill="white"/>
<g filter="url(#filter13_d_82_770)">
<rect x="130" y="10" width="50" height="50" rx="6" fill="#EBEBEB"/>
<path d="M150.732 38.568C151.084 39.464 151.588 40.184 152.244 40.728C152.9 41.272 153.78 41.544 154.884 41.544C155.652 41.544 156.308 41.432 156.852 41.208C157.412 40.968 157.836 40.648 158.124 40.248C158.412 39.832 158.556 39.368 158.556 38.856C158.556 38.312 158.404 37.824 158.1 37.392C157.812 36.96 157.364 36.616 156.756 36.36C156.148 36.104 155.404 35.976 154.524 35.976H151.884V32.832H154.524C155.692 32.832 156.572 32.6 157.164 32.136C157.772 31.656 158.076 31.024 158.076 30.24C158.076 29.472 157.78 28.88 157.188 28.464C156.612 28.032 155.82 27.816 154.812 27.816C153.132 27.816 151.956 28.672 151.284 30.384L147.972 29.136C148.5 27.712 149.332 26.576 150.468 25.728C151.604 24.88 153.052 24.456 154.812 24.456C156.14 24.456 157.324 24.672 158.364 25.104C159.42 25.536 160.244 26.168 160.836 27C161.444 27.832 161.748 28.832 161.748 30C161.748 31.104 161.484 32.008 160.956 32.712C160.444 33.4 159.756 33.96 158.892 34.392C159.868 34.776 160.668 35.368 161.292 36.168C161.916 36.952 162.228 37.912 162.228 39.048C162.228 40.232 161.916 41.264 161.292 42.144C160.668 43.024 159.796 43.704 158.676 44.184C157.572 44.664 156.308 44.904 154.884 44.904C152.948 44.904 151.356 44.44 150.108 43.512C148.876 42.6 147.98 41.36 147.42 39.792L150.732 38.568Z" fill="black"/>
</g>
<g filter="url(#filter14_d_82_770)">
<rect x="130" y="70" width="50" height="50" rx="6" fill="#EBEBEB"/>
<path d="M151.707 84.816H155.187L151.299 104.544H147.795L151.707 84.816ZM158.451 84.816H161.955L158.043 104.544H154.563L158.451 84.816ZM147.147 89.736H163.947V92.928H147.147V89.736ZM146.043 96.432H162.843V99.624H146.043V96.432Z" fill="black"/>
</g>
<g filter="url(#filter15_d_82_770)">
<rect x="190" y="10" width="50" height="50" rx="6" fill="#EBEBEB"/>
<path d="M216.706 44.904V24.816H220.426V44.904H216.706ZM207.37 41.064V38.112L215.482 24.816H219.442L211.906 37.632H222.874V41.064H207.37Z" fill="black"/>
</g>
<g filter="url(#filter16_d_82_770)">
<rect x="190" y="70" width="50" height="50" rx="6" fill="#EBEBEB"/>
<path d="M215.783 104.664C213.863 104.664 212.207 104.216 210.815 103.32C209.439 102.424 208.431 101.176 207.791 99.576L210.743 98.04C211.207 99.128 211.879 99.984 212.759 100.608C213.639 101.216 214.647 101.52 215.783 101.52C216.935 101.52 217.839 101.312 218.495 100.896C219.151 100.464 219.479 99.864 219.479 99.096C219.479 98.392 219.279 97.848 218.879 97.464C218.495 97.064 217.855 96.744 216.959 96.504L214.199 95.76C212.615 95.328 211.335 94.704 210.359 93.888C209.383 93.072 208.895 91.88 208.895 90.312C208.895 89.176 209.191 88.184 209.783 87.336C210.375 86.488 211.183 85.84 212.207 85.392C213.231 84.928 214.375 84.696 215.639 84.696C217.367 84.696 218.863 85.136 220.127 86.016C221.391 86.896 222.311 88 222.887 89.328L219.983 90.888C219.567 89.992 218.983 89.264 218.231 88.704C217.479 88.144 216.615 87.864 215.639 87.864C214.599 87.864 213.791 88.08 213.215 88.512C212.655 88.944 212.375 89.544 212.375 90.312C212.375 91.016 212.599 91.552 213.047 91.92C213.511 92.272 214.167 92.56 215.015 92.784L217.679 93.48C219.231 93.88 220.495 94.52 221.471 95.4C222.463 96.264 222.959 97.496 222.959 99.096C222.959 100.232 222.639 101.216 221.999 102.048C221.375 102.896 220.519 103.544 219.431 103.992C218.343 104.44 217.127 104.664 215.783 104.664ZM213.695 107.256V103.704H214.415V85.656H213.695V82.104H217.775V85.656H217.055V103.704H217.775V107.256H213.695Z" fill="black"/>
</g>
<g filter="url(#filter17_d_82_770)">
<rect x="70" y="10" width="50" height="50" rx="6" fill="#EBEBEB"/>
<path d="M88.6934 44.544V41.64L95.7254 34.68C96.6694 33.736 97.3414 32.944 97.7414 32.304C98.1574 31.648 98.3654 30.976 98.3654 30.288C98.3654 29.552 98.1094 28.96 97.5974 28.512C97.0854 28.048 96.3414 27.816 95.3654 27.816C94.4534 27.816 93.7094 28.112 93.1334 28.704C92.5574 29.296 92.1334 30.104 91.8614 31.128L88.3094 30.264C88.7574 28.6 89.5814 27.216 90.7814 26.112C91.9974 25.008 93.5254 24.456 95.3654 24.456C96.6934 24.456 97.8614 24.68 98.8694 25.128C99.8774 25.56 100.661 26.208 101.221 27.072C101.781 27.92 102.061 28.936 102.061 30.12C102.061 31.336 101.789 32.424 101.245 33.384C100.701 34.344 99.8534 35.4 98.7014 36.552L94.0454 41.112H102.445V44.544H88.6934Z" fill="black"/>
</g>
<g filter="url(#filter18_d_82_770)">
<rect x="70" y="70" width="50" height="50" rx="6" fill="#EBEBEB"/>
<path d="M93.944 100.584C93.176 100.584 92.448 100.368 91.76 99.936C91.072 99.504 90.512 98.896 90.08 98.112C89.664 97.312 89.456 96.392 89.456 95.352V94.44C89.456 93.4 89.664 92.488 90.08 91.704C90.512 90.92 91.072 90.312 91.76 89.88C92.448 89.448 93.176 89.232 93.944 89.232C94.76 89.232 95.512 89.448 96.2 89.88C96.904 90.296 97.464 90.904 97.88 91.704C98.296 92.488 98.504 93.4 98.504 94.44V95.352C98.504 96.392 98.296 97.312 97.88 98.112C97.464 98.912 96.904 99.528 96.2 99.96C95.512 100.376 94.76 100.584 93.944 100.584ZM94.808 97.632C95.448 97.632 95.952 97.424 96.32 97.008C96.704 96.592 96.896 96.024 96.896 95.304V94.512C96.896 93.792 96.704 93.224 96.32 92.808C95.952 92.392 95.448 92.184 94.808 92.184C94.136 92.184 93.608 92.392 93.224 92.808C92.84 93.224 92.648 93.792 92.648 94.512V95.304C92.648 96.024 92.84 96.592 93.224 97.008C93.608 97.424 94.136 97.632 94.808 97.632ZM103.064 94.68C103.064 93.064 102.712 91.616 102.008 90.336C101.304 89.04 100.336 88.032 99.104 87.312C97.872 86.576 96.496 86.208 94.976 86.208C93.472 86.208 92.104 86.576 90.872 87.312C89.64 88.032 88.672 89.04 87.968 90.336C87.264 91.616 86.912 93.064 86.912 94.68C86.912 96.296 87.264 97.752 87.968 99.048C88.672 100.344 89.64 101.352 90.872 102.072C92.104 102.808 93.472 103.176 94.976 103.176C96.464 103.176 97.8 102.832 98.984 102.144L100.088 104.856C98.472 105.64 96.768 106.032 94.976 106.032C92.896 106.032 91.008 105.52 89.312 104.496C87.616 103.488 86.28 102.12 85.304 100.392C84.344 98.648 83.864 96.744 83.864 94.68C83.864 92.616 84.344 90.72 85.304 88.992C86.28 87.248 87.616 85.872 89.312 84.864C91.008 83.84 92.896 83.328 94.976 83.328C97.056 83.328 98.944 83.84 100.64 84.864C102.352 85.872 103.688 87.248 104.648 88.992C105.624 90.72 106.112 92.616 106.112 94.68H103.064ZM96.896 97.224V91.416L97.088 89.472H100.136V97.176C100.136 98.264 100.592 98.808 101.504 98.808C102.096 98.808 102.504 98.44 102.728 97.704C102.952 96.952 103.064 95.944 103.064 94.68H106.112C106.112 96.872 105.696 98.48 104.864 99.504C104.032 100.528 102.856 101.04 101.336 101.04C100.584 101.04 99.864 100.88 99.176 100.56C98.504 100.224 97.952 99.768 97.52 99.192C97.104 98.6 96.896 97.944 96.896 97.224Z" fill="black"/>
</g>
<g filter="url(#filter19_d_82_770)">
<rect x="400" y="10" width="50" height="50" rx="6" fill="#EBEBEB"/>
<path d="M431.854 24.816V28.224L423.406 44.904H419.182L427.654 28.224H418.27V24.816H431.854Z" fill="black"/>
</g>
<g filter="url(#filter20_d_82_770)">
<rect x="400" y="70" width="50" height="50" rx="6" fill="#EBEBEB"/>
<path d="M416.339 99.672C416.339 98.712 416.523 97.896 416.891 97.224C417.275 96.552 417.779 95.984 418.403 95.52C419.043 95.04 419.899 94.512 420.971 93.936L423.179 92.76C424.235 92.2 424.995 91.672 425.459 91.176C425.923 90.68 426.155 90.128 426.155 89.52C426.155 88.912 425.947 88.432 425.531 88.08C425.131 87.712 424.579 87.528 423.875 87.528C423.171 87.528 422.611 87.712 422.195 88.08C421.795 88.432 421.595 88.912 421.595 89.52C421.595 89.872 421.699 90.24 421.907 90.624C422.131 91.008 422.419 91.4 422.771 91.8C423.123 92.2 423.643 92.76 424.331 93.48L424.859 94.032L434.867 104.544H430.259L421.667 95.496C421.571 95.384 421.467 95.28 421.355 95.184C421.259 95.088 421.171 94.992 421.091 94.896C420.291 94.08 419.683 93.424 419.267 92.928C418.851 92.432 418.523 91.896 418.283 91.32C418.043 90.744 417.923 90.104 417.923 89.4C417.923 88.456 418.179 87.608 418.691 86.856C419.203 86.104 419.907 85.52 420.803 85.104C421.715 84.672 422.739 84.456 423.875 84.456C425.011 84.456 426.019 84.672 426.899 85.104C427.795 85.52 428.491 86.104 428.987 86.856C429.483 87.608 429.731 88.456 429.731 89.4C429.731 90.728 429.323 91.848 428.507 92.76C427.707 93.656 426.587 94.472 425.147 95.208L422.915 96.336L422.555 96.528C421.915 96.864 421.403 97.184 421.019 97.488C420.651 97.792 420.379 98.104 420.203 98.424C420.043 98.728 419.963 99.064 419.963 99.432C419.963 100.072 420.275 100.616 420.899 101.064C421.523 101.496 422.435 101.712 423.635 101.712C425.043 101.712 426.283 101.072 427.355 99.792C428.443 98.512 429.347 96.544 430.067 93.888L433.595 94.8C432.699 98.432 431.435 101.024 429.803 102.576C428.171 104.128 426.115 104.904 423.635 104.904C422.083 104.904 420.755 104.68 419.651 104.232C418.563 103.8 417.739 103.184 417.179 102.384C416.619 101.6 416.339 100.696 416.339 99.672Z" fill="black"/>
</g>
<g filter="url(#filter21_d_82_770)">
<rect x="400" y="130" width="50" height="50" rx="6" fill="#EBEBEB"/>
</g>
<g filter="url(#filter22_d_82_770)">
<rect x="460" y="10" width="50" height="50" rx="6" fill="#EBEBEB"/>
<path d="M484.997 44.904C483.589 44.904 482.325 44.68 481.205 44.232C480.085 43.8 479.197 43.136 478.541 42.24C477.885 41.36 477.557 40.264 477.557 38.952C477.557 37.96 477.853 37.064 478.445 36.264C479.053 35.464 479.957 34.824 481.157 34.344C480.085 33.912 479.293 33.336 478.781 32.616C478.285 31.88 478.037 31.056 478.037 30.144C478.037 28.896 478.333 27.848 478.925 27C479.533 26.152 480.365 25.52 481.421 25.104C482.477 24.672 483.669 24.456 484.997 24.456C486.325 24.456 487.517 24.672 488.573 25.104C489.629 25.52 490.453 26.152 491.045 27C491.653 27.848 491.957 28.896 491.957 30.144C491.957 31.056 491.701 31.88 491.189 32.616C490.693 33.336 489.909 33.912 488.837 34.344C490.037 34.824 490.933 35.464 491.525 36.264C492.133 37.064 492.437 37.96 492.437 38.952C492.437 40.264 492.109 41.36 491.453 42.24C490.813 43.136 489.933 43.8 488.813 44.232C487.693 44.68 486.421 44.904 484.997 44.904ZM484.997 41.544C485.765 41.544 486.429 41.44 486.989 41.232C487.549 41.008 487.973 40.688 488.261 40.272C488.565 39.856 488.717 39.36 488.717 38.784C488.717 38.224 488.565 37.736 488.261 37.32C487.973 36.888 487.549 36.56 486.989 36.336C486.429 36.112 485.765 36 484.997 36C484.229 36 483.565 36.112 483.005 36.336C482.445 36.56 482.013 36.888 481.709 37.32C481.421 37.736 481.277 38.224 481.277 38.784C481.277 39.36 481.421 39.856 481.709 40.272C482.013 40.688 482.445 41.008 483.005 41.232C483.565 41.44 484.229 41.544 484.997 41.544ZM484.997 32.832C485.669 32.832 486.245 32.736 486.725 32.544C487.221 32.336 487.597 32.048 487.853 31.68C488.109 31.296 488.237 30.848 488.237 30.336C488.237 29.808 488.109 29.36 487.853 28.992C487.597 28.608 487.221 28.32 486.725 28.128C486.245 27.92 485.669 27.816 484.997 27.816C484.325 27.816 483.741 27.92 483.245 28.128C482.765 28.32 482.397 28.608 482.141 28.992C481.885 29.36 481.757 29.808 481.757 30.336C481.757 30.848 481.885 31.296 482.141 31.68C482.397 32.048 482.765 32.336 483.245 32.544C483.741 32.736 484.325 32.832 484.997 32.832Z" fill="black"/>
</g>
<g filter="url(#filter23_d_82_770)">
<rect x="460" y="70" width="50" height="50" rx="6" fill="#EBEBEB"/>
<path d="M481.136 92.736L479.696 90.24L484.496 87.984L488.864 84.96L490.304 87.456L485.48 89.712L481.136 92.736ZM488.864 92.736L484.52 89.712L479.696 87.456L481.136 84.96L485.504 87.984L490.304 90.24L488.864 92.736ZM483.56 93.888L484.016 88.848L483.56 83.808H486.44L485.984 88.848L486.44 93.888H483.56Z" fill="black"/>
</g>
<g filter="url(#filter24_d_82_770)">
<rect x="460" y="130" width="50" height="50" rx="6" fill="#EBEBEB"/>
</g>
<g filter="url(#filter25_d_82_770)">
<rect x="520" y="10" width="50" height="50" rx="6" fill="#EBEBEB"/>
<path d="M545.184 44.904C543.44 44.904 541.976 44.544 540.792 43.824C539.608 43.12 538.672 42.064 537.984 40.656L541.056 39.048C541.536 39.928 542.08 40.576 542.688 40.992C543.312 41.392 544.08 41.592 544.992 41.592C546.112 41.592 547.024 41.152 547.728 40.272C548.448 39.376 548.808 38.04 548.808 36.264V34.704H549.264C548.928 35.728 548.28 36.52 547.32 37.08C546.36 37.624 545.288 37.896 544.104 37.896C542.968 37.896 541.896 37.616 540.888 37.056C539.88 36.48 539.072 35.68 538.464 34.656C537.856 33.616 537.552 32.44 537.552 31.128C537.552 29.8 537.872 28.632 538.512 27.624C539.152 26.616 540.032 25.84 541.152 25.296C542.272 24.736 543.528 24.456 544.92 24.456C546.344 24.456 547.608 24.728 548.712 25.272C549.816 25.816 550.672 26.624 551.28 27.696C551.904 28.752 552.216 30.032 552.216 31.536V36.408C552.216 38.248 551.88 39.808 551.208 41.088C550.552 42.368 549.688 43.32 548.616 43.944C547.544 44.584 546.4 44.904 545.184 44.904ZM544.896 34.632C545.6 34.632 546.216 34.488 546.744 34.2C547.288 33.912 547.712 33.512 548.016 33C548.32 32.472 548.472 31.872 548.472 31.2C548.472 30.528 548.32 29.936 548.016 29.424C547.712 28.896 547.288 28.488 546.744 28.2C546.216 27.912 545.6 27.768 544.896 27.768C544.176 27.768 543.536 27.912 542.976 28.2C542.432 28.488 542.008 28.896 541.704 29.424C541.4 29.936 541.248 30.528 541.248 31.2C541.248 31.872 541.4 32.472 541.704 33C542.008 33.512 542.432 33.912 542.976 34.2C543.536 34.488 544.176 34.632 544.896 34.632Z" fill="black"/>
</g>
<g filter="url(#filter26_d_82_770)">
<rect x="520" y="70" width="50" height="50" rx="6" fill="#EBEBEB"/>
<path d="M542.202 94.68C542.202 92.264 542.682 89.952 543.642 87.744C544.602 85.52 545.994 83.504 547.818 81.696L550.242 83.952C547.234 87.344 545.73 90.92 545.73 94.68C545.73 98.44 547.234 102.016 550.242 105.408L547.818 107.664C545.994 105.856 544.602 103.848 543.642 101.64C542.682 99.416 542.202 97.096 542.202 94.68Z" fill="black"/>
</g>
<g filter="url(#filter27_d_82_770)">
<rect x="520" y="130" width="50" height="50" rx="6" fill="#EBEBEB"/>
</g>
<g filter="url(#filter28_d_82_770)">
<rect x="130" y="130" width="50" height="50" rx="6" fill="#EBEBEB"/>
</g>
<g filter="url(#filter29_d_82_770)">
<rect x="70" y="130" width="50" height="50" rx="6" fill="#EBEBEB"/>
</g>
<g filter="url(#filter30_d_82_770)">
<rect x="190" y="130" width="50" height="50" rx="6" fill="#EBEBEB"/>
</g>
<g filter="url(#filter31_d_82_770)">
<rect x="400" y="190" width="50" height="50" rx="6" fill="#EBEBEB"/>
<path d="M427.208 204.416L426.68 212.168H422.816L424.136 204.416H427.208Z" fill="black"/>
</g>
<g filter="url(#filter32_d_82_770)">
<rect x="340" y="190" width="50" height="50" rx="6" fill="#EBEBEB"/>
<path d="M364.64 204.416L364.112 212.168H360.248L361.568 204.416H364.64ZM369.752 204.416L369.224 212.168H365.36L366.68 204.416H369.752Z" fill="black"/>
</g>
<g filter="url(#filter33_d_82_770)">
<rect x="250" y="190" width="50" height="50" rx="6" fill="#EBEBEB"/>
<path d="M267.289 211.802V198.899H269.958V211.802H267.289ZM263.022 200.259V197.828H274.208V200.259H263.022ZM275.742 211.802V197.828H278.411V211.802H275.742ZM277.119 206.26V203.914H281.42C282.145 203.914 282.712 203.75 283.12 203.421C283.528 203.092 283.732 202.628 283.732 202.027C283.732 201.438 283.528 200.984 283.12 200.667C282.723 200.338 282.156 200.174 281.42 200.174H277.119V197.828H281.59C283.029 197.828 284.191 198.185 285.075 198.899C285.959 199.613 286.401 200.656 286.401 202.027C286.401 203.421 285.959 204.475 285.075 205.189C284.191 205.903 283.029 206.26 281.59 206.26H277.119ZM283.851 211.802L280.536 204.424H283.171L286.809 211.802H283.851ZM263.274 230.802V216.828H265.858L272.165 226.212V216.828H274.8V230.802H272.216L265.909 221.418V230.802H263.274ZM278.482 226.246C278.822 226.994 279.298 227.583 279.91 228.014C280.534 228.433 281.259 228.643 282.086 228.643C282.925 228.643 283.565 228.501 284.007 228.218C284.461 227.935 284.687 227.532 284.687 227.011C284.687 226.546 284.551 226.178 284.279 225.906C284.019 225.634 283.571 225.413 282.936 225.243L280.913 224.699C279.791 224.404 278.862 223.945 278.125 223.322C277.4 222.687 277.037 221.798 277.037 220.653C277.037 219.826 277.253 219.106 277.683 218.494C278.114 217.871 278.703 217.395 279.451 217.066C280.199 216.737 281.038 216.573 281.967 216.573C283.237 216.573 284.336 216.896 285.265 217.542C286.195 218.177 286.863 218.976 287.271 219.939L285.061 221.061C284.744 220.449 284.325 219.95 283.803 219.565C283.282 219.18 282.67 218.987 281.967 218.987C281.219 218.987 280.647 219.134 280.25 219.429C279.865 219.724 279.672 220.132 279.672 220.653C279.672 221.118 279.825 221.475 280.131 221.724C280.449 221.973 280.913 222.177 281.525 222.336L283.463 222.846C284.574 223.141 285.492 223.617 286.217 224.274C286.954 224.931 287.322 225.844 287.322 227.011C287.322 227.838 287.09 228.558 286.625 229.17C286.172 229.782 285.549 230.247 284.755 230.564C283.962 230.893 283.072 231.057 282.086 231.057C280.681 231.057 279.474 230.734 278.465 230.088C277.457 229.442 276.714 228.535 276.238 227.368L278.482 226.246Z" fill="black"/>
</g>
<defs>
<filter id="filter0_d_82_770" x="246" y="10" width="58" height="58" filterUnits="userSpaceOnUse" color-interpolation-filters="sRGB">
<feFlood flood-opacity="0" result="BackgroundImageFix"/>
<feColorMatrix in="SourceAlpha" type="matrix" values="0 0 0 0 0 0 0 0 0 0 0 0 0 0 0 0 0 0 127 0" result="hardAlpha"/>
<feOffset dy="4"/>
<feGaussianBlur stdDeviation="2"/>
<feComposite in2="hardAlpha" operator="out"/>
<feColorMatrix type="matrix" values="0 0 0 0 0 0 0 0 0 0 0 0 0 0 0 0 0 0 0.25 0"/>
<feBlend mode="normal" in2="BackgroundImageFix" result="effect1_dropShadow_82_770"/>
<feBlend mode="normal" in="SourceGraphic" in2="effect1_dropShadow_82_770" result="shape"/>
</filter>
<filter id="filter1_d_82_770" x="246" y="70" width="58" height="58" filterUnits="userSpaceOnUse" color-interpolation-filters="sRGB">
<feFlood flood-opacity="0" result="BackgroundImageFix"/>
<feColorMatrix in="SourceAlpha" type="matrix" values="0 0 0 0 0 0 0 0 0 0 0 0 0 0 0 0 0 0 127 0" result="hardAlpha"/>
<feOffset dy="4"/>
<feGaussianBlur stdDeviation="2"/>
<feComposite in2="hardAlpha" operator="out"/>
<feColorMatrix type="matrix" values="0 0 0 0 0 0 0 0 0 0 0 0 0 0 0 0 0 0 0.25 0"/>
<feBlend mode="normal" in2="BackgroundImageFix" result="effect1_dropShadow_82_770"/>
<feBlend mode="normal" in="SourceGraphic" in2="effect1_dropShadow_82_770" result="shape"/>
</filter>
<filter id="filter2_d_82_770" x="336" y="10" width="58" height="58" filterUnits="userSpaceOnUse" color-interpolation-filters="sRGB">
<feFlood flood-opacity="0" result="BackgroundImageFix"/>
<feColorMatrix in="SourceAlpha" type="matrix" values="0 0 0 0 0 0 0 0 0 0 0 0 0 0 0 0 0 0 127 0" result="hardAlpha"/>
<feOffset dy="4"/>
<feGaussianBlur stdDeviation="2"/>
<feComposite in2="hardAlpha" operator="out"/>
<feColorMatrix type="matrix" values="0 0 0 0 0 0 0 0 0 0 0 0 0 0 0 0 0 0 0.25 0"/>
<feBlend mode="normal" in2="BackgroundImageFix" result="effect1_dropShadow_82_770"/>
<feBlend mode="normal" in="SourceGraphic" in2="effect1_dropShadow_82_770" result="shape"/>
</filter>
<filter id="filter3_d_82_770" x="336" y="70" width="58" height="58" filterUnits="userSpaceOnUse" color-interpolation-filters="sRGB">
<feFlood flood-opacity="0" result="BackgroundImageFix"/>
<feColorMatrix in="SourceAlpha" type="matrix" values="0 0 0 0 0 0 0 0 0 0 0 0 0 0 0 0 0 0 127 0" result="hardAlpha"/>
<feOffset dy="4"/>
<feGaussianBlur stdDeviation="2"/>
<feComposite in2="hardAlpha" operator="out"/>
<feColorMatrix type="matrix" values="0 0 0 0 0 0 0 0 0 0 0 0 0 0 0 0 0 0 0.25 0"/>
<feBlend mode="normal" in2="BackgroundImageFix" result="effect1_dropShadow_82_770"/>
<feBlend mode="normal" in="SourceGraphic" in2="effect1_dropShadow_82_770" result="shape"/>
</filter>
<filter id="filter4_d_82_770" x="336" y="130" width="58" height="58" filterUnits="userSpaceOnUse" color-interpolation-filters="sRGB">
<feFlood flood-opacity="0" result="BackgroundImageFix"/>
<feColorMatrix in="SourceAlpha" type="matrix" values="0 0 0 0 0 0 0 0 0 0 0 0 0 0 0 0 0 0 127 0" result="hardAlpha"/>
<feOffset dy="4"/>
<feGaussianBlur stdDeviation="2"/>
<feComposite in2="hardAlpha" operator="out"/>
<feColorMatrix type="matrix" values="0 0 0 0 0 0 0 0 0 0 0 0 0 0 0 0 0 0 0.25 0"/>
<feBlend mode="normal" in2="BackgroundImageFix" result="effect1_dropShadow_82_770"/>
<feBlend mode="normal" in="SourceGraphic" in2="effect1_dropShadow_82_770" result="shape"/>
</filter>
<filter id="filter5_d_82_770" x="576" y="10" width="58" height="58" filterUnits="userSpaceOnUse" color-interpolation-filters="sRGB">
<feFlood flood-opacity="0" result="BackgroundImageFix"/>
<feColorMatrix in="SourceAlpha" type="matrix" values="0 0 0 0 0 0 0 0 0 0 0 0 0 0 0 0 0 0 127 0" result="hardAlpha"/>
<feOffset dy="4"/>
<feGaussianBlur stdDeviation="2"/>
<feComposite in2="hardAlpha" operator="out"/>
<feColorMatrix type="matrix" values="0 0 0 0 0 0 0 0 0 0 0 0 0 0 0 0 0 0 0.25 0"/>
<feBlend mode="normal" in2="BackgroundImageFix" result="effect1_dropShadow_82_770"/>
<feBlend mode="normal" in="SourceGraphic" in2="effect1_dropShadow_82_770" result="shape"/>
</filter>
<filter id="filter6_d_82_770" x="576" y="70" width="58" height="58" filterUnits="userSpaceOnUse" color-interpolation-filters="sRGB">
<feFlood flood-opacity="0" result="BackgroundImageFix"/>
<feColorMatrix in="SourceAlpha" type="matrix" values="0 0 0 0 0 0 0 0 0 0 0 0 0 0 0 0 0 0 127 0" result="hardAlpha"/>
<feOffset dy="4"/>
<feGaussianBlur stdDeviation="2"/>
<feComposite in2="hardAlpha" operator="out"/>
<feColorMatrix type="matrix" values="0 0 0 0 0 0 0 0 0 0 0 0 0 0 0 0 0 0 0.25 0"/>
<feBlend mode="normal" in2="BackgroundImageFix" result="effect1_dropShadow_82_770"/>
<feBlend mode="normal" in="SourceGraphic" in2="effect1_dropShadow_82_770" result="shape"/>
</filter>
<filter id="filter7_d_82_770" x="576" y="130" width="58" height="58" filterUnits="userSpaceOnUse" color-interpolation-filters="sRGB">
<feFlood flood-opacity="0" result="BackgroundImageFix"/>
<feColorMatrix in="SourceAlpha" type="matrix" values="0 0 0 0 0 0 0 0 0 0 0 0 0 0 0 0 0 0 127 0" result="hardAlpha"/>
<feOffset dy="4"/>
<feGaussianBlur stdDeviation="2"/>
<feComposite in2="hardAlpha" operator="out"/>
<feColorMatrix type="matrix" values="0 0 0 0 0 0 0 0 0 0 0 0 0 0 0 0 0 0 0.25 0"/>
<feBlend mode="normal" in2="BackgroundImageFix" result="effect1_dropShadow_82_770"/>
<feBlend mode="normal" in="SourceGraphic" in2="effect1_dropShadow_82_770" result="shape"/>
</filter>
<filter id="filter8_d_82_770" x="6" y="10" width="58" height="58" filterUnits="userSpaceOnUse" color-interpolation-filters="sRGB">
<feFlood flood-opacity="0" result="BackgroundImageFix"/>
<feColorMatrix in="SourceAlpha" type="matrix" values="0 0 0 0 0 0 0 0 0 0 0 0 0 0 0 0 0 0 127 0" result="hardAlpha"/>
<feOffset dy="4"/>
<feGaussianBlur stdDeviation="2"/>
<feComposite in2="hardAlpha" operator="out"/>
<feColorMatrix type="matrix" values="0 0 0 0 0 0 0 0 0 0 0 0 0 0 0 0 0 0 0.25 0"/>
<feBlend mode="normal" in2="BackgroundImageFix" result="effect1_dropShadow_82_770"/>
<feBlend mode="normal" in="SourceGraphic" in2="effect1_dropShadow_82_770" result="shape"/>
</filter>
<filter id="filter9_d_82_770" x="6" y="70" width="58" height="58" filterUnits="userSpaceOnUse" color-interpolation-filters="sRGB">
<feFlood flood-opacity="0" result="BackgroundImageFix"/>
<feColorMatrix in="SourceAlpha" type="matrix" values="0 0 0 0 0 0 0 0 0 0 0 0 0 0 0 0 0 0 127 0" result="hardAlpha"/>
<feOffset dy="4"/>
<feGaussianBlur stdDeviation="2"/>
<feComposite in2="hardAlpha" operator="out"/>
<feColorMatrix type="matrix" values="0 0 0 0 0 0 0 0 0 0 0 0 0 0 0 0 0 0 0.25 0"/>
<feBlend mode="normal" in2="BackgroundImageFix" result="effect1_dropShadow_82_770"/>
<feBlend mode="normal" in="SourceGraphic" in2="effect1_dropShadow_82_770" result="shape"/>
</filter>
<filter id="filter10_d_82_770" x="246" y="130" width="58" height="58" filterUnits="userSpaceOnUse" color-interpolation-filters="sRGB">
<feFlood flood-opacity="0" result="BackgroundImageFix"/>
<feColorMatrix in="SourceAlpha" type="matrix" values="0 0 0 0 0 0 0 0 0 0 0 0 0 0 0 0 0 0 127 0" result="hardAlpha"/>
<feOffset dy="4"/>
<feGaussianBlur stdDeviation="2"/>
<feComposite in2="hardAlpha" operator="out"/>
<feColorMatrix type="matrix" values="0 0 0 0 0 0 0 0 0 0 0 0 0 0 0 0 0 0 0.25 0"/>
<feBlend mode="normal" in2="BackgroundImageFix" result="effect1_dropShadow_82_770"/>
<feBlend mode="normal" in="SourceGraphic" in2="effect1_dropShadow_82_770" result="shape"/>
</filter>
<filter id="filter11_d_82_770" x="6" y="130" width="58" height="58" filterUnits="userSpaceOnUse" color-interpolation-filters="sRGB">
<feFlood flood-opacity="0" result="BackgroundImageFix"/>
<feColorMatrix in="SourceAlpha" type="matrix" values="0 0 0 0 0 0 0 0 0 0 0 0 0 0 0 0 0 0 127 0" result="hardAlpha"/>
<feOffset dy="4"/>
<feGaussianBlur stdDeviation="2"/>
<feComposite in2="hardAlpha" operator="out"/>
<feColorMatrix type="matrix" values="0 0 0 0 0 0 0 0 0 0 0 0 0 0 0 0 0 0 0.25 0"/>
<feBlend mode="normal" in2="BackgroundImageFix" result="effect1_dropShadow_82_770"/>
<feBlend mode="normal" in="SourceGraphic" in2="effect1_dropShadow_82_770" result="shape"/>
</filter>
<filter id="filter12_d_82_770" x="186" y="190" width="58" height="58" filterUnits="userSpaceOnUse" color-interpolation-filters="sRGB">
<feFlood flood-opacity="0" result="BackgroundImageFix"/>
<feColorMatrix in="SourceAlpha" type="matrix" values="0 0 0 0 0 0 0 0 0 0 0 0 0 0 0 0 0 0 127 0" result="hardAlpha"/>
<feOffset dy="4"/>
<feGaussianBlur stdDeviation="2"/>
<feComposite in2="hardAlpha" operator="out"/>
<feColorMatrix type="matrix" values="0 0 0 0 0 0 0 0 0 0 0 0 0 0 0 0 0 0 0.25 0"/>
<feBlend mode="normal" in2="BackgroundImageFix" result="effect1_dropShadow_82_770"/>
<feBlend mode="normal" in="SourceGraphic" in2="effect1_dropShadow_82_770" result="shape"/>
</filter>
<filter id="filter13_d_82_770" x="126" y="10" width="58" height="58" filterUnits="userSpaceOnUse" color-interpolation-filters="sRGB">
<feFlood flood-opacity="0" result="BackgroundImageFix"/>
<feColorMatrix in="SourceAlpha" type="matrix" values="0 0 0 0 0 0 0 0 0 0 0 0 0 0 0 0 0 0 127 0" result="hardAlpha"/>
<feOffset dy="4"/>
<feGaussianBlur stdDeviation="2"/>
<feComposite in2="hardAlpha" operator="out"/>
<feColorMatrix type="matrix" values="0 0 0 0 0 0 0 0 0 0 0 0 0 0 0 0 0 0 0.25 0"/>
<feBlend mode="normal" in2="BackgroundImageFix" result="effect1_dropShadow_82_770"/>
<feBlend mode="normal" in="SourceGraphic" in2="effect1_dropShadow_82_770" result="shape"/>
</filter>
<filter id="filter14_d_82_770" x="126" y="70" width="58" height="58" filterUnits="userSpaceOnUse" color-interpolation-filters="sRGB">
<feFlood flood-opacity="0" result="BackgroundImageFix"/>
<feColorMatrix in="SourceAlpha" type="matrix" values="0 0 0 0 0 0 0 0 0 0 0 0 0 0 0 0 0 0 127 0" result="hardAlpha"/>
<feOffset dy="4"/>
<feGaussianBlur stdDeviation="2"/>
<feComposite in2="hardAlpha" operator="out"/>
<feColorMatrix type="matrix" values="0 0 0 0 0 0 0 0 0 0 0 0 0 0 0 0 0 0 0.25 0"/>
<feBlend mode="normal" in2="BackgroundImageFix" result="effect1_dropShadow_82_770"/>
<feBlend mode="normal" in="SourceGraphic" in2="effect1_dropShadow_82_770" result="shape"/>
</filter>
<filter id="filter15_d_82_770" x="186" y="10" width="58" height="58" filterUnits="userSpaceOnUse" color-interpolation-filters="sRGB">
<feFlood flood-opacity="0" result="BackgroundImageFix"/>
<feColorMatrix in="SourceAlpha" type="matrix" values="0 0 0 0 0 0 0 0 0 0 0 0 0 0 0 0 0 0 127 0" result="hardAlpha"/>
<feOffset dy="4"/>
<feGaussianBlur stdDeviation="2"/>
<feComposite in2="hardAlpha" operator="out"/>
<feColorMatrix type="matrix" values="0 0 0 0 0 0 0 0 0 0 0 0 0 0 0 0 0 0 0.25 0"/>
<feBlend mode="normal" in2="BackgroundImageFix" result="effect1_dropShadow_82_770"/>
<feBlend mode="normal" in="SourceGraphic" in2="effect1_dropShadow_82_770" result="shape"/>
</filter>
<filter id="filter16_d_82_770" x="186" y="70" width="58" height="58" filterUnits="userSpaceOnUse" color-interpolation-filters="sRGB">
<feFlood flood-opacity="0" result="BackgroundImageFix"/>
<feColorMatrix in="SourceAlpha" type="matrix" values="0 0 0 0 0 0 0 0 0 0 0 0 0 0 0 0 0 0 127 0" result="hardAlpha"/>
<feOffset dy="4"/>
<feGaussianBlur stdDeviation="2"/>
<feComposite in2="hardAlpha" operator="out"/>
<feColorMatrix type="matrix" values="0 0 0 0 0 0 0 0 0 0 0 0 0 0 0 0 0 0 0.25 0"/>
<feBlend mode="normal" in2="BackgroundImageFix" result="effect1_dropShadow_82_770"/>
<feBlend mode="normal" in="SourceGraphic" in2="effect1_dropShadow_82_770" result="shape"/>
</filter>
<filter id="filter17_d_82_770" x="66" y="10" width="58" height="58" filterUnits="userSpaceOnUse" color-interpolation-filters="sRGB">
<feFlood flood-opacity="0" result="BackgroundImageFix"/>
<feColorMatrix in="SourceAlpha" type="matrix" values="0 0 0 0 0 0 0 0 0 0 0 0 0 0 0 0 0 0 127 0" result="hardAlpha"/>
<feOffset dy="4"/>
<feGaussianBlur stdDeviation="2"/>
<feComposite in2="hardAlpha" operator="out"/>
<feColorMatrix type="matrix" values="0 0 0 0 0 0 0 0 0 0 0 0 0 0 0 0 0 0 0.25 0"/>
<feBlend mode="normal" in2="BackgroundImageFix" result="effect1_dropShadow_82_770"/>
<feBlend mode="normal" in="SourceGraphic" in2="effect1_dropShadow_82_770" result="shape"/>
</filter>
<filter id="filter18_d_82_770" x="66" y="70" width="58" height="58" filterUnits="userSpaceOnUse" color-interpolation-filters="sRGB">
<feFlood flood-opacity="0" result="BackgroundImageFix"/>
<feColorMatrix in="SourceAlpha" type="matrix" values="0 0 0 0 0 0 0 0 0 0 0 0 0 0 0 0 0 0 127 0" result="hardAlpha"/>
<feOffset dy="4"/>
<feGaussianBlur stdDeviation="2"/>
<feComposite in2="hardAlpha" operator="out"/>
<feColorMatrix type="matrix" values="0 0 0 0 0 0 0 0 0 0 0 0 0 0 0 0 0 0 0.25 0"/>
<feBlend mode="normal" in2="BackgroundImageFix" result="effect1_dropShadow_82_770"/>
<feBlend mode="normal" in="SourceGraphic" in2="effect1_dropShadow_82_770" result="shape"/>
</filter>
<filter id="filter19_d_82_770" x="396" y="10" width="58" height="58" filterUnits="userSpaceOnUse" color-interpolation-filters="sRGB">
<feFlood flood-opacity="0" result="BackgroundImageFix"/>
<feColorMatrix in="SourceAlpha" type="matrix" values="0 0 0 0 0 0 0 0 0 0 0 0 0 0 0 0 0 0 127 0" result="hardAlpha"/>
<feOffset dy="4"/>
<feGaussianBlur stdDeviation="2"/>
<feComposite in2="hardAlpha" operator="out"/>
<feColorMatrix type="matrix" values="0 0 0 0 0 0 0 0 0 0 0 0 0 0 0 0 0 0 0.25 0"/>
<feBlend mode="normal" in2="BackgroundImageFix" result="effect1_dropShadow_82_770"/>
<feBlend mode="normal" in="SourceGraphic" in2="effect1_dropShadow_82_770" result="shape"/>
</filter>
<filter id="filter20_d_82_770" x="396" y="70" width="58" height="58" filterUnits="userSpaceOnUse" color-interpolation-filters="sRGB">
<feFlood flood-opacity="0" result="BackgroundImageFix"/>
<feColorMatrix in="SourceAlpha" type="matrix" values="0 0 0 0 0 0 0 0 0 0 0 0 0 0 0 0 0 0 127 0" result="hardAlpha"/>
<feOffset dy="4"/>
<feGaussianBlur stdDeviation="2"/>
<feComposite in2="hardAlpha" operator="out"/>
<feColorMatrix type="matrix" values="0 0 0 0 0 0 0 0 0 0 0 0 0 0 0 0 0 0 0.25 0"/>
<feBlend mode="normal" in2="BackgroundImageFix" result="effect1_dropShadow_82_770"/>
<feBlend mode="normal" in="SourceGraphic" in2="effect1_dropShadow_82_770" result="shape"/>
</filter>
<filter id="filter21_d_82_770" x="396" y="130" width="58" height="58" filterUnits="userSpaceOnUse" color-interpolation-filters="sRGB">
<feFlood flood-opacity="0" result="BackgroundImageFix"/>
<feColorMatrix in="SourceAlpha" type="matrix" values="0 0 0 0 0 0 0 0 0 0 0 0 0 0 0 0 0 0 127 0" result="hardAlpha"/>
<feOffset dy="4"/>
<feGaussianBlur stdDeviation="2"/>
<feComposite in2="hardAlpha" operator="out"/>
<feColorMatrix type="matrix" values="0 0 0 0 0 0 0 0 0 0 0 0 0 0 0 0 0 0 0.25 0"/>
<feBlend mode="normal" in2="BackgroundImageFix" result="effect1_dropShadow_82_770"/>
<feBlend mode="normal" in="SourceGraphic" in2="effect1_dropShadow_82_770" result="shape"/>
</filter>
<filter id="filter22_d_82_770" x="456" y="10" width="58" height="58" filterUnits="userSpaceOnUse" color-interpolation-filters="sRGB">
<feFlood flood-opacity="0" result="BackgroundImageFix"/>
<feColorMatrix in="SourceAlpha" type="matrix" values="0 0 0 0 0 0 0 0 0 0 0 0 0 0 0 0 0 0 127 0" result="hardAlpha"/>
<feOffset dy="4"/>
<feGaussianBlur stdDeviation="2"/>
<feComposite in2="hardAlpha" operator="out"/>
<feColorMatrix type="matrix" values="0 0 0 0 0 0 0 0 0 0 0 0 0 0 0 0 0 0 0.25 0"/>
<feBlend mode="normal" in2="BackgroundImageFix" result="effect1_dropShadow_82_770"/>
<feBlend mode="normal" in="SourceGraphic" in2="effect1_dropShadow_82_770" result="shape"/>
</filter>
<filter id="filter23_d_82_770" x="456" y="70" width="58" height="58" filterUnits="userSpaceOnUse" color-interpolation-filters="sRGB">
<feFlood flood-opacity="0" result="BackgroundImageFix"/>
<feColorMatrix in="SourceAlpha" type="matrix" values="0 0 0 0 0 0 0 0 0 0 0 0 0 0 0 0 0 0 127 0" result="hardAlpha"/>
<feOffset dy="4"/>
<feGaussianBlur stdDeviation="2"/>
<feComposite in2="hardAlpha" operator="out"/>
<feColorMatrix type="matrix" values="0 0 0 0 0 0 0 0 0 0 0 0 0 0 0 0 0 0 0.25 0"/>
<feBlend mode="normal" in2="BackgroundImageFix" result="effect1_dropShadow_82_770"/>
<feBlend mode="normal" in="SourceGraphic" in2="effect1_dropShadow_82_770" result="shape"/>
</filter>
<filter id="filter24_d_82_770" x="456" y="130" width="58" height="58" filterUnits="userSpaceOnUse" color-interpolation-filters="sRGB">
<feFlood flood-opacity="0" result="BackgroundImageFix"/>
<feColorMatrix in="SourceAlpha" type="matrix" values="0 0 0 0 0 0 0 0 0 0 0 0 0 0 0 0 0 0 127 0" result="hardAlpha"/>
<feOffset dy="4"/>
<feGaussianBlur stdDeviation="2"/>
<feComposite in2="hardAlpha" operator="out"/>
<feColorMatrix type="matrix" values="0 0 0 0 0 0 0 0 0 0 0 0 0 0 0 0 0 0 0.25 0"/>
<feBlend mode="normal" in2="BackgroundImageFix" result="effect1_dropShadow_82_770"/>
<feBlend mode="normal" in="SourceGraphic" in2="effect1_dropShadow_82_770" result="shape"/>
</filter>
<filter id="filter25_d_82_770" x="516" y="10" width="58" height="58" filterUnits="userSpaceOnUse" color-interpolation-filters="sRGB">
<feFlood flood-opacity="0" result="BackgroundImageFix"/>
<feColorMatrix in="SourceAlpha" type="matrix" values="0 0 0 0 0 0 0 0 0 0 0 0 0 0 0 0 0 0 127 0" result="hardAlpha"/>
<feOffset dy="4"/>
<feGaussianBlur stdDeviation="2"/>
<feComposite in2="hardAlpha" operator="out"/>
<feColorMatrix type="matrix" values="0 0 0 0 0 0 0 0 0 0 0 0 0 0 0 0 0 0 0.25 0"/>
<feBlend mode="normal" in2="BackgroundImageFix" result="effect1_dropShadow_82_770"/>
<feBlend mode="normal" in="SourceGraphic" in2="effect1_dropShadow_82_770" result="shape"/>
</filter>
<filter id="filter26_d_82_770" x="516" y="70" width="58" height="58" filterUnits="userSpaceOnUse" color-interpolation-filters="sRGB">
<feFlood flood-opacity="0" result="BackgroundImageFix"/>
<feColorMatrix in="SourceAlpha" type="matrix" values="0 0 0 0 0 0 0 0 0 0 0 0 0 0 0 0 0 0 127 0" result="hardAlpha"/>
<feOffset dy="4"/>
<feGaussianBlur stdDeviation="2"/>
<feComposite in2="hardAlpha" operator="out"/>
<feColorMatrix type="matrix" values="0 0 0 0 0 0 0 0 0 0 0 0 0 0 0 0 0 0 0.25 0"/>
<feBlend mode="normal" in2="BackgroundImageFix" result="effect1_dropShadow_82_770"/>
<feBlend mode="normal" in="SourceGraphic" in2="effect1_dropShadow_82_770" result="shape"/>
</filter>
<filter id="filter27_d_82_770" x="516" y="130" width="58" height="58" filterUnits="userSpaceOnUse" color-interpolation-filters="sRGB">
<feFlood flood-opacity="0" result="BackgroundImageFix"/>
<feColorMatrix in="SourceAlpha" type="matrix" values="0 0 0 0 0 0 0 0 0 0 0 0 0 0 0 0 0 0 127 0" result="hardAlpha"/>
<feOffset dy="4"/>
<feGaussianBlur stdDeviation="2"/>
<feComposite in2="hardAlpha" operator="out"/>
<feColorMatrix type="matrix" values="0 0 0 0 0 0 0 0 0 0 0 0 0 0 0 0 0 0 0.25 0"/>
<feBlend mode="normal" in2="BackgroundImageFix" result="effect1_dropShadow_82_770"/>
<feBlend mode="normal" in="SourceGraphic" in2="effect1_dropShadow_82_770" result="shape"/>
</filter>
<filter id="filter28_d_82_770" x="126" y="130" width="58" height="58" filterUnits="userSpaceOnUse" color-interpolation-filters="sRGB">
<feFlood flood-opacity="0" result="BackgroundImageFix"/>
<feColorMatrix in="SourceAlpha" type="matrix" values="0 0 0 0 0 0 0 0 0 0 0 0 0 0 0 0 0 0 127 0" result="hardAlpha"/>
<feOffset dy="4"/>
<feGaussianBlur stdDeviation="2"/>
<feComposite in2="hardAlpha" operator="out"/>
<feColorMatrix type="matrix" values="0 0 0 0 0 0 0 0 0 0 0 0 0 0 0 0 0 0 0.25 0"/>
<feBlend mode="normal" in2="BackgroundImageFix" result="effect1_dropShadow_82_770"/>
<feBlend mode="normal" in="SourceGraphic" in2="effect1_dropShadow_82_770" result="shape"/>
</filter>
<filter id="filter29_d_82_770" x="66" y="130" width="58" height="58" filterUnits="userSpaceOnUse" color-interpolation-filters="sRGB">
<feFlood flood-opacity="0" result="BackgroundImageFix"/>
<feColorMatrix in="SourceAlpha" type="matrix" values="0 0 0 0 0 0 0 0 0 0 0 0 0 0 0 0 0 0 127 0" result="hardAlpha"/>
<feOffset dy="4"/>
<feGaussianBlur stdDeviation="2"/>
<feComposite in2="hardAlpha" operator="out"/>
<feColorMatrix type="matrix" values="0 0 0 0 0 0 0 0 0 0 0 0 0 0 0 0 0 0 0.25 0"/>
<feBlend mode="normal" in2="BackgroundImageFix" result="effect1_dropShadow_82_770"/>
<feBlend mode="normal" in="SourceGraphic" in2="effect1_dropShadow_82_770" result="shape"/>
</filter>
<filter id="filter30_d_82_770" x="186" y="130" width="58" height="58" filterUnits="userSpaceOnUse" color-interpolation-filters="sRGB">
<feFlood flood-opacity="0" result="BackgroundImageFix"/>
<feColorMatrix in="SourceAlpha" type="matrix" values="0 0 0 0 0 0 0 0 0 0 0 0 0 0 0 0 0 0 127 0" result="hardAlpha"/>
<feOffset dy="4"/>
<feGaussianBlur stdDeviation="2"/>
<feComposite in2="hardAlpha" operator="out"/>
<feColorMatrix type="matrix" values="0 0 0 0 0 0 0 0 0 0 0 0 0 0 0 0 0 0 0.25 0"/>
<feBlend mode="normal" in2="BackgroundImageFix" result="effect1_dropShadow_82_770"/>
<feBlend mode="normal" in="SourceGraphic" in2="effect1_dropShadow_82_770" result="shape"/>
</filter>
<filter id="filter31_d_82_770" x="396" y="190" width="58" height="58" filterUnits="userSpaceOnUse" color-interpolation-filters="sRGB">
<feFlood flood-opacity="0" result="BackgroundImageFix"/>
<feColorMatrix in="SourceAlpha" type="matrix" values="0 0 0 0 0 0 0 0 0 0 0 0 0 0 0 0 0 0 127 0" result="hardAlpha"/>
<feOffset dy="4"/>
<feGaussianBlur stdDeviation="2"/>
<feComposite in2="hardAlpha" operator="out"/>
<feColorMatrix type="matrix" values="0 0 0 0 0 0 0 0 0 0 0 0 0 0 0 0 0 0 0.25 0"/>
<feBlend mode="normal" in2="BackgroundImageFix" result="effect1_dropShadow_82_770"/>
<feBlend mode="normal" in="SourceGraphic" in2="effect1_dropShadow_82_770" result="shape"/>
</filter>
<filter id="filter32_d_82_770" x="336" y="190" width="58" height="58" filterUnits="userSpaceOnUse" color-interpolation-filters="sRGB">
<feFlood flood-opacity="0" result="BackgroundImageFix"/>
<feColorMatrix in="SourceAlpha" type="matrix" values="0 0 0 0 0 0 0 0 0 0 0 0 0 0 0 0 0 0 127 0" result="hardAlpha"/>
<feOffset dy="4"/>
<feGaussianBlur stdDeviation="2"/>
<feComposite in2="hardAlpha" operator="out"/>
<feColorMatrix type="matrix" values="0 0 0 0 0 0 0 0 0 0 0 0 0 0 0 0 0 0 0.25 0"/>
<feBlend mode="normal" in2="BackgroundImageFix" result="effect1_dropShadow_82_770"/>
<feBlend mode="normal" in="SourceGraphic" in2="effect1_dropShadow_82_770" result="shape"/>
</filter>
<filter id="filter33_d_82_770" x="246" y="190" width="58" height="58" filterUnits="userSpaceOnUse" color-interpolation-filters="sRGB">
<feFlood flood-opacity="0" result="BackgroundImageFix"/>
<feColorMatrix in="SourceAlpha" type="matrix" values="0 0 0 0 0 0 0 0 0 0 0 0 0 0 0 0 0 0 127 0" result="hardAlpha"/>
<feOffset dy="4"/>
<feGaussianBlur stdDeviation="2"/>
<feComposite in2="hardAlpha" operator="out"/>
<feColorMatrix type="matrix" values="0 0 0 0 0 0 0 0 0 0 0 0 0 0 0 0 0 0 0.25 0"/>
<feBlend mode="normal" in2="BackgroundImageFix" result="effect1_dropShadow_82_770"/>
<feBlend mode="normal" in="SourceGraphic" in2="effect1_dropShadow_82_770" result="shape"/>
</filter>
</defs>
</svg>
