<svg width="640" height="250" viewBox="0 0 640 250" fill="none" xmlns="http://www.w3.org/2000/svg">
<rect width="640" height="250" fill="#A999AF"/>
<g filter="url(#filter0_d_87_1007)">
<rect x="580" y="10" width="50" height="50" rx="6" fill="#EBEBEB"/>
<path d="M584.086 44.544V24.816H587.854V44.544H584.086ZM586.15 36.288V32.976H595.822V36.288H586.15ZM586.15 28.128V24.816H596.758V28.128H586.15ZM603.527 44.544V29.784L599.927 32.544L597.839 29.76L604.247 24.816H607.295V44.544H603.527ZM618.64 44.904C617.248 44.904 615.984 44.584 614.848 43.944C613.712 43.32 612.808 42.376 612.136 41.112C611.464 39.848 611.128 38.304 611.128 36.48V32.88C611.128 31.056 611.464 29.512 612.136 28.248C612.808 26.984 613.712 26.04 614.848 25.416C615.984 24.776 617.248 24.456 618.64 24.456C620.032 24.456 621.296 24.776 622.432 25.416C623.568 26.04 624.472 26.984 625.144 28.248C625.816 29.512 626.152 31.056 626.152 32.88V36.48C626.152 38.304 625.816 39.848 625.144 41.112C624.472 42.376 623.568 43.32 622.432 43.944C621.296 44.584 620.032 44.904 618.64 44.904ZM618.64 41.568C619.392 41.568 620.048 41.376 620.608 40.992C621.168 40.608 621.6 40.024 621.904 39.24C622.224 38.456 622.384 37.488 622.384 36.336V33.024C622.384 31.872 622.224 30.904 621.904 30.12C621.6 29.336 621.168 28.752 620.608 28.368C620.048 27.984 619.392 27.792 618.64 27.792C617.888 27.792 617.232 27.984 616.672 28.368C616.112 28.752 615.672 29.336 615.352 30.12C615.048 30.904 614.896 31.872 614.896 33.024V36.336C614.896 37.488 615.048 38.456 615.352 39.24C615.672 40.024 616.112 40.608 616.672 40.992C617.232 41.376 617.888 41.568 618.64 41.568Z" fill="black"/>
</g>
<g filter="url(#filter1_d_87_1007)">
<rect x="250" y="10" width="50" height="50" rx="6" fill="#EBEBEB"/>
<path d="M260.813 44.544V24.816H264.581V44.544H260.813ZM262.877 36.288V32.976H272.549V36.288H262.877ZM262.877 28.128V24.816H273.485V28.128H262.877ZM282.51 44.904C280.926 44.904 279.462 44.56 278.118 43.872C276.79 43.2 275.846 42.232 275.286 40.968L278.502 39.168C278.838 39.936 279.334 40.512 279.99 40.896C280.646 41.28 281.406 41.472 282.27 41.472C283.006 41.472 283.63 41.344 284.142 41.088C284.67 40.832 285.07 40.472 285.342 40.008C285.614 39.528 285.75 38.968 285.75 38.328C285.75 37.704 285.598 37.16 285.294 36.696C285.006 36.216 284.598 35.848 284.07 35.592C283.542 35.32 282.942 35.184 282.27 35.184C281.534 35.184 280.926 35.328 280.446 35.616C279.966 35.888 279.566 36.328 279.246 36.936H275.91L277.11 24.816H288.726V28.248H280.254L279.534 34.536H278.79C279.126 33.656 279.694 32.976 280.494 32.496C281.31 32 282.182 31.752 283.11 31.752C284.278 31.752 285.342 32.024 286.302 32.568C287.262 33.112 288.022 33.888 288.582 34.896C289.142 35.888 289.422 37.032 289.422 38.328C289.422 39.656 289.134 40.816 288.558 41.808C287.998 42.8 287.198 43.56 286.158 44.088C285.118 44.632 283.902 44.904 282.51 44.904Z" fill="black"/>
</g>
<g filter="url(#filter2_d_87_1007)">
<rect x="460" y="10" width="50" height="50" rx="6" fill="#EBEBEB"/>
<path d="M470.821 44.544V24.816H474.589V44.544H470.821ZM472.885 36.288V32.976H482.557V36.288H472.885ZM472.885 28.128V24.816H483.493V28.128H472.885ZM492.974 44.904C491.566 44.904 490.302 44.68 489.182 44.232C488.062 43.8 487.174 43.136 486.518 42.24C485.862 41.36 485.534 40.264 485.534 38.952C485.534 37.96 485.83 37.064 486.422 36.264C487.03 35.464 487.934 34.824 489.134 34.344C488.062 33.912 487.27 33.336 486.758 32.616C486.262 31.88 486.014 31.056 486.014 30.144C486.014 28.896 486.31 27.848 486.902 27C487.51 26.152 488.342 25.52 489.398 25.104C490.454 24.672 491.646 24.456 492.974 24.456C494.302 24.456 495.494 24.672 496.55 25.104C497.606 25.52 498.43 26.152 499.022 27C499.63 27.848 499.934 28.896 499.934 30.144C499.934 31.056 499.678 31.88 499.166 32.616C498.67 33.336 497.886 33.912 496.814 34.344C498.014 34.824 498.91 35.464 499.502 36.264C500.11 37.064 500.414 37.96 500.414 38.952C500.414 40.264 500.086 41.36 499.43 42.24C498.79 43.136 497.91 43.8 496.79 44.232C495.67 44.68 494.398 44.904 492.974 44.904ZM492.974 41.544C493.742 41.544 494.406 41.44 494.966 41.232C495.526 41.008 495.95 40.688 496.238 40.272C496.542 39.856 496.694 39.36 496.694 38.784C496.694 38.224 496.542 37.736 496.238 37.32C495.95 36.888 495.526 36.56 494.966 36.336C494.406 36.112 493.742 36 492.974 36C492.206 36 491.542 36.112 490.982 36.336C490.422 36.56 489.99 36.888 489.686 37.32C489.398 37.736 489.254 38.224 489.254 38.784C489.254 39.36 489.398 39.856 489.686 40.272C489.99 40.688 490.422 41.008 490.982 41.232C491.542 41.44 492.206 41.544 492.974 41.544ZM492.974 32.832C493.646 32.832 494.222 32.736 494.702 32.544C495.198 32.336 495.574 32.048 495.83 31.68C496.086 31.296 496.214 30.848 496.214 30.336C496.214 29.808 496.086 29.36 495.83 28.992C495.574 28.608 495.198 28.32 494.702 28.128C494.222 27.92 493.646 27.816 492.974 27.816C492.302 27.816 491.718 27.92 491.222 28.128C490.742 28.32 490.374 28.608 490.118 28.992C489.862 29.36 489.734 29.808 489.734 30.336C489.734 30.848 489.862 31.296 490.118 31.68C490.374 32.048 490.742 32.336 491.222 32.544C491.718 32.736 492.302 32.832 492.974 32.832Z" fill="black"/>
</g>
<g filter="url(#filter3_d_87_1007)">
<rect x="130" y="10" width="50" height="50" rx="6" fill="#EBEBEB"/>
<path d="M141.043 44.544V24.816H144.811V44.544H141.043ZM143.107 36.288V32.976H152.779V36.288H143.107ZM143.107 28.128V24.816H153.715V28.128H143.107ZM158.708 38.568C159.06 39.464 159.564 40.184 160.22 40.728C160.876 41.272 161.756 41.544 162.86 41.544C163.628 41.544 164.284 41.432 164.828 41.208C165.388 40.968 165.812 40.648 166.1 40.248C166.388 39.832 166.532 39.368 166.532 38.856C166.532 38.312 166.38 37.824 166.076 37.392C165.788 36.96 165.34 36.616 164.732 36.36C164.124 36.104 163.38 35.976 162.5 35.976H159.86V32.832H162.5C163.668 32.832 164.548 32.6 165.14 32.136C165.748 31.656 166.052 31.024 166.052 30.24C166.052 29.472 165.756 28.88 165.164 28.464C164.588 28.032 163.796 27.816 162.788 27.816C161.108 27.816 159.932 28.672 159.26 30.384L155.948 29.136C156.476 27.712 157.308 26.576 158.444 25.728C159.58 24.88 161.028 24.456 162.788 24.456C164.116 24.456 165.3 24.672 166.34 25.104C167.396 25.536 168.22 26.168 168.812 27C169.42 27.832 169.724 28.832 169.724 30C169.724 31.104 169.46 32.008 168.932 32.712C168.42 33.4 167.732 33.96 166.868 34.392C167.844 34.776 168.644 35.368 169.268 36.168C169.892 36.952 170.204 37.912 170.204 39.048C170.204 40.232 169.892 41.264 169.268 42.144C168.644 43.024 167.772 43.704 166.652 44.184C165.548 44.664 164.284 44.904 162.86 44.904C160.924 44.904 159.332 44.44 158.084 43.512C156.852 42.6 155.956 41.36 155.396 39.792L158.708 38.568Z" fill="black"/>
</g>
<g filter="url(#filter4_d_87_1007)">
<rect x="340" y="10" width="50" height="50" rx="6" fill="#EBEBEB"/>
<path d="M351.055 44.544V24.816H354.823V44.544H351.055ZM353.119 36.288V32.976H362.791V36.288H353.119ZM353.119 28.128V24.816H363.727V28.128H353.119ZM372.8 24.456C374.544 24.456 376.008 24.816 377.192 25.536C378.376 26.24 379.312 27.296 380 28.704L376.928 30.312C376.448 29.432 375.896 28.792 375.272 28.392C374.664 27.976 373.904 27.768 372.992 27.768C371.872 27.768 370.952 28.216 370.232 29.112C369.528 29.992 369.176 31.32 369.176 33.096V34.656H368.72C369.056 33.632 369.704 32.848 370.664 32.304C371.624 31.744 372.696 31.464 373.88 31.464C375.016 31.464 376.088 31.752 377.096 32.328C378.104 32.888 378.912 33.688 379.52 34.728C380.128 35.752 380.432 36.92 380.432 38.232C380.432 39.56 380.112 40.728 379.472 41.736C378.832 42.744 377.952 43.52 376.832 44.064C375.712 44.624 374.456 44.904 373.064 44.904C371.64 44.904 370.376 44.632 369.272 44.088C368.168 43.544 367.304 42.744 366.68 41.688C366.072 40.616 365.768 39.328 365.768 37.824V32.952C365.768 31.112 366.096 29.552 366.752 28.272C367.424 26.992 368.296 26.04 369.368 25.416C370.44 24.776 371.584 24.456 372.8 24.456ZM373.088 34.728C372.384 34.728 371.76 34.872 371.216 35.16C370.688 35.448 370.272 35.856 369.968 36.384C369.664 36.896 369.512 37.488 369.512 38.16C369.512 38.832 369.664 39.432 369.968 39.96C370.272 40.472 370.688 40.872 371.216 41.16C371.76 41.448 372.384 41.592 373.088 41.592C373.808 41.592 374.44 41.448 374.984 41.16C375.544 40.872 375.976 40.472 376.28 39.96C376.584 39.432 376.736 38.832 376.736 38.16C376.736 37.488 376.584 36.896 376.28 36.384C375.976 35.856 375.544 35.448 374.984 35.16C374.44 34.872 373.808 34.728 373.088 34.728Z" fill="black"/>
</g>
<g filter="url(#filter5_d_87_1007)">
<rect x="10" y="10" width="50" height="50" rx="6" fill="#EBEBEB"/>
<path d="M23.0394 44.544V24.816H26.8074V44.544H23.0394ZM25.1034 36.288V32.976H34.7754V36.288H25.1034ZM25.1034 28.128V24.816H35.7114V28.128H25.1034ZM42.4805 44.544V29.784L38.8805 32.544L36.7925 29.76L43.2005 24.816H46.2485V44.544H42.4805Z" fill="black"/>
</g>
<g filter="url(#filter6_d_87_1007)">
<rect x="520" y="10" width="50" height="50" rx="6" fill="#EBEBEB"/>
<path d="M531.055 44.544V24.816H534.823V44.544H531.055ZM533.119 36.288V32.976H542.791V36.288H533.119ZM533.119 28.128V24.816H543.727V28.128H533.119ZM553.16 44.904C551.416 44.904 549.952 44.544 548.768 43.824C547.584 43.12 546.648 42.064 545.96 40.656L549.032 39.048C549.512 39.928 550.056 40.576 550.664 40.992C551.288 41.392 552.056 41.592 552.968 41.592C554.088 41.592 555 41.152 555.704 40.272C556.424 39.376 556.784 38.04 556.784 36.264V34.704H557.24C556.904 35.728 556.256 36.52 555.296 37.08C554.336 37.624 553.264 37.896 552.08 37.896C550.944 37.896 549.872 37.616 548.864 37.056C547.856 36.48 547.048 35.68 546.44 34.656C545.832 33.616 545.528 32.44 545.528 31.128C545.528 29.8 545.848 28.632 546.488 27.624C547.128 26.616 548.008 25.84 549.128 25.296C550.248 24.736 551.504 24.456 552.896 24.456C554.32 24.456 555.584 24.728 556.688 25.272C557.792 25.816 558.648 26.624 559.256 27.696C559.88 28.752 560.192 30.032 560.192 31.536V36.408C560.192 38.248 559.856 39.808 559.184 41.088C558.528 42.368 557.664 43.32 556.592 43.944C555.52 44.584 554.376 44.904 553.16 44.904ZM552.872 34.632C553.576 34.632 554.192 34.488 554.72 34.2C555.264 33.912 555.688 33.512 555.992 33C556.296 32.472 556.448 31.872 556.448 31.2C556.448 30.528 556.296 29.936 555.992 29.424C555.688 28.896 555.264 28.488 554.72 28.2C554.192 27.912 553.576 27.768 552.872 27.768C552.152 27.768 551.512 27.912 550.952 28.2C550.408 28.488 549.984 28.896 549.68 29.424C549.376 29.936 549.224 30.528 549.224 31.2C549.224 31.872 549.376 32.472 549.68 33C549.984 33.512 550.408 33.912 550.952 34.2C551.512 34.488 552.152 34.632 552.872 34.632Z" fill="black"/>
</g>
<g filter="url(#filter7_d_87_1007)">
<rect x="190" y="10" width="50" height="50" rx="6" fill="#EBEBEB"/>
<path d="M201.114 44.544V24.816H204.882V44.544H201.114ZM203.178 36.288V32.976H212.85V36.288H203.178ZM203.178 28.128V24.816H213.786V28.128H203.178ZM224.683 44.904V24.816H228.403V44.904H224.683ZM215.347 41.064V38.112L223.459 24.816H227.419L219.883 37.632H230.851V41.064H215.347Z" fill="black"/>
</g>
<g filter="url(#filter8_d_87_1007)">
<rect x="400" y="10" width="50" height="50" rx="6" fill="#EBEBEB"/>
<path d="M412.133 44.544V24.816H415.901V44.544H412.133ZM414.197 36.288V32.976H423.869V36.288H414.197ZM414.197 28.128V24.816H424.805V28.128H414.197ZM439.83 24.816V28.224L431.382 44.904H427.158L435.63 28.224H426.246V24.816H439.83Z" fill="black"/>
</g>
<g filter="url(#filter9_d_87_1007)">
<rect x="70" y="10" width="50" height="50" rx="6" fill="#EBEBEB"/>
<path d="M80.8128 44.544V24.816H84.5808V44.544H80.8128ZM82.8768 36.288V32.976H92.5488V36.288H82.8768ZM82.8768 28.128V24.816H93.4848V28.128H82.8768ZM95.6699 44.544V41.64L102.702 34.68C103.646 33.736 104.318 32.944 104.718 32.304C105.134 31.648 105.342 30.976 105.342 30.288C105.342 29.552 105.086 28.96 104.574 28.512C104.062 28.048 103.318 27.816 102.342 27.816C101.43 27.816 100.686 28.112 100.11 28.704C99.5339 29.296 99.1099 30.104 98.8379 31.128L95.2859 30.264C95.7339 28.6 96.5579 27.216 97.7579 26.112C98.9739 25.008 100.502 24.456 102.342 24.456C103.67 24.456 104.838 24.68 105.846 25.128C106.854 25.56 107.638 26.208 108.198 27.072C108.758 27.92 109.038 28.936 109.038 30.12C109.038 31.336 108.766 32.424 108.222 33.384C107.678 34.344 106.83 35.4 105.678 36.552L101.022 41.112H109.422V44.544H95.6699Z" fill="black"/>
</g>
<g filter="url(#filter10_d_87_1007)">
<rect x="580" y="70" width="50" height="50" rx="6" fill="#EBEBEB"/>
<path d="M585.149 104.544V84.816H588.917V104.544H585.149ZM587.213 96.288V92.976H596.885V96.288H587.213ZM587.213 88.128V84.816H597.821V88.128H587.213ZM604.59 104.544V89.784L600.99 92.544L598.902 89.76L605.31 84.816H608.358V104.544H604.59ZM612.334 104.544V101.64L619.366 94.68C620.31 93.736 620.982 92.944 621.382 92.304C621.798 91.648 622.006 90.976 622.006 90.288C622.006 89.552 621.75 88.96 621.238 88.512C620.726 88.048 619.982 87.816 619.006 87.816C618.094 87.816 617.35 88.112 616.774 88.704C616.198 89.296 615.774 90.104 615.502 91.128L611.95 90.264C612.398 88.6 613.222 87.216 614.422 86.112C615.638 85.008 617.166 84.456 619.006 84.456C620.334 84.456 621.502 84.68 622.51 85.128C623.518 85.56 624.302 86.208 624.862 87.072C625.422 87.92 625.702 88.936 625.702 90.12C625.702 91.336 625.43 92.424 624.886 93.384C624.342 94.344 623.494 95.4 622.342 96.552L617.686 101.112H626.086V104.544H612.334Z" fill="black"/>
</g>
<g filter="url(#filter11_d_87_1007)">
<rect x="250" y="70" width="50" height="50" rx="6" fill="#EBEBEB"/>
</g>
<g filter="url(#filter12_d_87_1007)">
<rect x="130" y="70" width="50" height="50" rx="6" fill="#EBEBEB"/>
</g>
<g filter="url(#filter13_d_87_1007)">
<rect x="340" y="70" width="50" height="50" rx="6" fill="#EBEBEB"/>
</g>
<g filter="url(#filter14_d_87_1007)">
<rect x="10" y="70" width="50" height="50" rx="6" fill="#EBEBEB"/>
<path d="M16.8753 104.544V84.816H20.6433V104.544H16.8753ZM18.9393 96.288V92.976H28.6113V96.288H18.9393ZM18.9393 88.128V84.816H29.5473V88.128H18.9393ZM36.3164 104.544V89.784L32.7164 92.544L30.6284 89.76L37.0364 84.816H40.0844V104.544H36.3164ZM48.6446 104.544V89.784L45.0446 92.544L42.9566 89.76L49.3646 84.816H52.4126V104.544H48.6446Z" fill="black"/>
</g>
<g filter="url(#filter15_d_87_1007)">
<rect x="190" y="70" width="50" height="50" rx="6" fill="#EBEBEB"/>
</g>
<g filter="url(#filter16_d_87_1007)">
<rect x="70" y="70" width="50" height="50" rx="6" fill="#EBEBEB"/>
</g>
<g filter="url(#filter17_d_87_1007)">
<rect x="580" y="130" width="50" height="50" rx="6" fill="#EBEBEB"/>
</g>
<g filter="url(#filter18_d_87_1007)">
<rect x="250" y="130" width="50" height="50" rx="6" fill="#EBEBEB"/>
</g>
<g filter="url(#filter19_d_87_1007)">
<rect x="130" y="130" width="50" height="50" rx="6" fill="#EBEBEB"/>
</g>
<g filter="url(#filter20_d_87_1007)">
<rect x="10" y="130" width="50" height="50" rx="6" fill="#EBEBEB"/>
</g>
<g filter="url(#filter21_d_87_1007)">
<rect x="340" y="190" width="50" height="50" rx="6" fill="#EBEBEB"/>
<path d="M357.289 211.802V198.899H359.958V211.802H357.289ZM353.022 200.259V197.828H364.208V200.259H353.022ZM365.742 211.802V197.828H368.411V211.802H365.742ZM367.119 206.26V203.914H371.42C372.145 203.914 372.712 203.75 373.12 203.421C373.528 203.092 373.732 202.628 373.732 202.027C373.732 201.438 373.528 200.984 373.12 200.667C372.723 200.338 372.156 200.174 371.42 200.174H367.119V197.828H371.59C373.029 197.828 374.191 198.185 375.075 198.899C375.959 199.613 376.401 200.656 376.401 202.027C376.401 203.421 375.959 204.475 375.075 205.189C374.191 205.903 373.029 206.26 371.59 206.26H367.119ZM373.851 211.802L370.536 204.424H373.171L376.809 211.802H373.851ZM353.274 230.802V216.828H355.858L362.165 226.212V216.828H364.8V230.802H362.216L355.909 221.418V230.802H353.274ZM368.482 226.246C368.822 226.994 369.298 227.583 369.91 228.014C370.534 228.433 371.259 228.643 372.086 228.643C372.925 228.643 373.565 228.501 374.007 228.218C374.461 227.935 374.687 227.532 374.687 227.011C374.687 226.546 374.551 226.178 374.279 225.906C374.019 225.634 373.571 225.413 372.936 225.243L370.913 224.699C369.791 224.404 368.862 223.945 368.125 223.322C367.4 222.687 367.037 221.798 367.037 220.653C367.037 219.826 367.253 219.106 367.683 218.494C368.114 217.871 368.703 217.395 369.451 217.066C370.199 216.737 371.038 216.573 371.967 216.573C373.237 216.573 374.336 216.896 375.265 217.542C376.195 218.177 376.863 218.976 377.271 219.939L375.061 221.061C374.744 220.449 374.325 219.95 373.803 219.565C373.282 219.18 372.67 218.987 371.967 218.987C371.219 218.987 370.647 219.134 370.25 219.429C369.865 219.724 369.672 220.132 369.672 220.653C369.672 221.118 369.825 221.475 370.131 221.724C370.449 221.973 370.913 222.177 371.525 222.336L373.463 222.846C374.574 223.141 375.492 223.617 376.217 224.274C376.954 224.931 377.322 225.844 377.322 227.011C377.322 227.838 377.09 228.558 376.625 229.17C376.172 229.782 375.549 230.247 374.755 230.564C373.962 230.893 373.072 231.057 372.086 231.057C370.681 231.057 369.474 230.734 368.465 230.088C367.457 229.442 366.714 228.535 366.238 227.368L368.482 226.246Z" fill="black"/>
</g>
<g filter="url(#filter22_d_87_1007)">
<rect x="400" y="190" width="50" height="50" rx="6" fill="#EBEBEB"/>
<path d="M408.878 221.802V219.456H413.893C414.596 219.456 415.14 219.309 415.525 219.014C415.91 218.719 416.103 218.272 416.103 217.671C416.103 217.07 415.905 216.617 415.508 216.311C415.123 216.005 414.584 215.852 413.893 215.852H408.878V213.676H413.23C413.921 213.676 414.46 213.529 414.845 213.234C415.242 212.928 415.44 212.486 415.44 211.908C415.44 211.319 415.247 210.882 414.862 210.599C414.477 210.316 413.933 210.174 413.23 210.174H408.895V207.828H413.247C414.732 207.828 415.905 208.162 416.766 208.831C417.639 209.5 418.075 210.508 418.075 211.857C418.075 212.446 417.933 212.968 417.65 213.421C417.367 213.874 416.925 214.231 416.324 214.492C417.14 214.775 417.746 215.195 418.143 215.75C418.54 216.294 418.738 216.951 418.738 217.722C418.738 219.093 418.307 220.113 417.446 220.782C416.585 221.462 415.406 221.802 413.91 221.802H408.878ZM407.671 221.802V207.828H410.34V221.802H407.671ZM421.834 217.246C422.174 217.994 422.65 218.583 423.262 219.014C423.885 219.433 424.61 219.643 425.438 219.643C426.276 219.643 426.917 219.501 427.359 219.218C427.812 218.935 428.039 218.532 428.039 218.011C428.039 217.546 427.903 217.178 427.631 216.906C427.37 216.634 426.922 216.413 426.288 216.243L424.265 215.699C423.143 215.404 422.213 214.945 421.477 214.322C420.751 213.687 420.389 212.798 420.389 211.653C420.389 210.826 420.604 210.106 421.035 209.494C421.465 208.871 422.055 208.395 422.803 208.066C423.551 207.737 424.389 207.573 425.319 207.573C426.588 207.573 427.687 207.896 428.617 208.542C429.546 209.177 430.215 209.976 430.623 210.939L428.413 212.061C428.095 211.449 427.676 210.95 427.155 210.565C426.633 210.18 426.021 209.987 425.319 209.987C424.571 209.987 423.998 210.134 423.602 210.429C423.216 210.724 423.024 211.132 423.024 211.653C423.024 212.118 423.177 212.475 423.483 212.724C423.8 212.973 424.265 213.177 424.877 213.336L426.815 213.846C427.925 214.141 428.843 214.617 429.569 215.274C430.305 215.931 430.674 216.844 430.674 218.011C430.674 218.838 430.441 219.558 429.977 220.17C429.523 220.782 428.9 221.247 428.107 221.564C427.313 221.893 426.424 222.057 425.438 222.057C424.032 222.057 422.825 221.734 421.817 221.088C420.808 220.442 420.066 219.535 419.59 218.368L421.834 217.246ZM432.457 221.802V207.828H435.126V221.802H432.457ZM433.834 216.566V214.22H438.152C438.889 214.22 439.45 214.044 439.835 213.693C440.232 213.342 440.43 212.843 440.43 212.197C440.43 211.551 440.232 211.052 439.835 210.701C439.45 210.35 438.889 210.174 438.152 210.174H433.834V207.828H438.288C439.727 207.828 440.889 208.202 441.773 208.95C442.657 209.687 443.099 210.769 443.099 212.197C443.099 213.636 442.657 214.724 441.773 215.461C440.889 216.198 439.727 216.566 438.288 216.566H433.834Z" fill="black"/>
</g>
<g filter="url(#filter23_d_87_1007)">
<rect x="190" y="190" width="50" height="50" rx="6" fill="#EBEBEB"/>
<path d="M201.771 221.802V208.899H204.44V221.802H201.771ZM197.504 210.259V207.828H208.69V210.259H197.504ZM217.931 221.802L213.137 207.828H215.789L220.651 221.802H217.931ZM207.595 221.802L212.457 207.828H215.109L210.315 221.802H207.595ZM210.893 217.926V215.529H217.353V217.926H210.893ZM223.301 221.802V219.456H228.316C229.018 219.456 229.562 219.309 229.948 219.014C230.333 218.719 230.526 218.272 230.526 217.671C230.526 217.07 230.327 216.617 229.931 216.311C229.545 216.005 229.007 215.852 228.316 215.852H223.301V213.676H227.653C228.344 213.676 228.882 213.529 229.268 213.234C229.664 212.928 229.863 212.486 229.863 211.908C229.863 211.319 229.67 210.882 229.285 210.599C228.899 210.316 228.355 210.174 227.653 210.174H223.318V207.828H227.67C229.154 207.828 230.327 208.162 231.189 208.831C232.061 209.5 232.498 210.508 232.498 211.857C232.498 212.446 232.356 212.968 232.073 213.421C231.789 213.874 231.347 214.231 230.747 214.492C231.563 214.775 232.169 215.195 232.566 215.75C232.962 216.294 233.161 216.951 233.161 217.722C233.161 219.093 232.73 220.113 231.869 220.782C231.007 221.462 229.829 221.802 228.333 221.802H223.301ZM222.094 221.802V207.828H224.763V221.802H222.094Z" fill="black"/>
</g>
<g filter="url(#filter24_d_87_1007)">
<rect x="70" y="130" width="50" height="50" rx="6" fill="#EBEBEB"/>
</g>
<g filter="url(#filter25_d_87_1007)">
<rect x="190" y="130" width="50" height="50" rx="6" fill="#EBEBEB"/>
</g>
<g filter="url(#filter26_d_87_1007)">
<rect x="250" y="190" width="50" height="50" rx="6" fill="#EBEBEB"/>
<path d="M258.818 217.246C259.158 217.994 259.634 218.583 260.246 219.014C260.869 219.433 261.595 219.643 262.422 219.643C263.261 219.643 263.901 219.501 264.343 219.218C264.796 218.935 265.023 218.532 265.023 218.011C265.023 217.546 264.887 217.178 264.615 216.906C264.354 216.634 263.907 216.413 263.272 216.243L261.249 215.699C260.127 215.404 259.198 214.945 258.461 214.322C257.736 213.687 257.373 212.798 257.373 211.653C257.373 210.826 257.588 210.106 258.019 209.494C258.45 208.871 259.039 208.395 259.787 208.066C260.535 207.737 261.374 207.573 262.303 207.573C263.572 207.573 264.672 207.896 265.601 208.542C266.53 209.177 267.199 209.976 267.607 210.939L265.397 212.061C265.08 211.449 264.66 210.95 264.139 210.565C263.618 210.18 263.006 209.987 262.303 209.987C261.555 209.987 260.983 210.134 260.586 210.429C260.201 210.724 260.008 211.132 260.008 211.653C260.008 212.118 260.161 212.475 260.467 212.724C260.784 212.973 261.249 213.177 261.861 213.336L263.799 213.846C264.91 214.141 265.828 214.617 266.553 215.274C267.29 215.931 267.658 216.844 267.658 218.011C267.658 218.838 267.426 219.558 266.961 220.17C266.508 220.782 265.884 221.247 265.091 221.564C264.298 221.893 263.408 222.057 262.422 222.057C261.017 222.057 259.81 221.734 258.801 221.088C257.792 220.442 257.05 219.535 256.574 218.368L258.818 217.246ZM269.441 221.802V207.828H272.11V221.802H269.441ZM270.818 216.566V214.22H275.136C275.873 214.22 276.434 214.044 276.819 213.693C277.216 213.342 277.414 212.843 277.414 212.197C277.414 211.551 277.216 211.052 276.819 210.701C276.434 210.35 275.873 210.174 275.136 210.174H270.818V207.828H275.272C276.712 207.828 277.873 208.202 278.757 208.95C279.641 209.687 280.083 210.769 280.083 212.197C280.083 213.636 279.641 214.724 278.757 215.461C277.873 216.198 276.712 216.566 275.272 216.566H270.818ZM287.337 222.057C286.238 222.057 285.224 221.813 284.294 221.326C283.376 220.85 282.64 220.159 282.084 219.252C281.54 218.334 281.268 217.252 281.268 216.005V213.625C281.268 212.39 281.54 211.313 282.084 210.395C282.64 209.477 283.376 208.78 284.294 208.304C285.224 207.817 286.238 207.573 287.337 207.573C288.833 207.573 290.091 207.987 291.111 208.814C292.143 209.63 292.828 210.763 293.168 212.214L290.635 212.945C290.397 211.982 290.012 211.262 289.479 210.786C288.947 210.299 288.233 210.055 287.337 210.055C286.714 210.055 286.142 210.197 285.62 210.48C285.11 210.752 284.702 211.166 284.396 211.721C284.09 212.276 283.937 212.945 283.937 213.727V215.903C283.937 216.685 284.09 217.354 284.396 217.909C284.702 218.464 285.11 218.884 285.62 219.167C286.142 219.439 286.714 219.575 287.337 219.575C288.233 219.575 288.947 219.337 289.479 218.861C290.012 218.374 290.397 217.648 290.635 216.685L293.168 217.416C292.828 218.867 292.143 220 291.111 220.816C290.091 221.643 288.833 222.057 287.337 222.057Z" fill="black"/>
</g>
<path d="M313.198 39.6796L327.172 44.9156L327.172 47.4996L313.198 42.2466L313.198 39.6796ZM313.198 33.3726L327.172 33.3726L327.172 35.9906L313.198 35.9906L313.198 33.3726ZM313.198 39.5946L327.172 34.3416L327.172 36.9256L313.198 42.1616L313.198 39.5946ZM313.198 45.8506L327.172 45.8506L327.172 48.4686L313.198 48.4686L313.198 45.8506ZM312.943 56.5151C312.943 55.4157 313.187 54.4014 313.674 53.4721C314.15 52.5427 314.841 51.8004 315.748 51.2451C316.666 50.7011 317.748 50.4291 318.995 50.4291L321.375 50.4291C322.61 50.4291 323.687 50.7011 324.605 51.2451C325.523 51.8004 326.22 52.5427 326.696 53.4721C327.183 54.4014 327.427 55.4157 327.427 56.5151C327.427 57.6144 327.183 58.6287 326.696 59.5581C326.22 60.4874 325.523 61.2241 324.605 61.7681C323.687 62.3234 322.61 62.6011 321.375 62.6011L318.995 62.6011C317.748 62.6011 316.666 62.3234 315.748 61.7681C314.841 61.2241 314.15 60.4874 313.674 59.5581C313.187 58.6287 312.943 57.6144 312.943 56.5151ZM315.425 56.5151C315.425 57.1384 315.561 57.7107 315.833 58.2321C316.116 58.7534 316.536 59.1671 317.091 59.4731C317.646 59.7791 318.315 59.9321 319.097 59.9321L321.273 59.9321C322.055 59.9321 322.718 59.7734 323.262 59.4561C323.817 59.1501 324.237 58.7364 324.52 58.2151C324.803 57.7051 324.945 57.1384 324.945 56.5151C324.945 55.8917 324.803 55.3194 324.52 54.7981C324.237 54.2881 323.817 53.8744 323.262 53.5571C322.718 53.2511 322.055 53.0981 321.273 53.0981L319.097 53.0981C318.315 53.0981 317.646 53.2511 317.091 53.5571C316.536 53.8744 316.116 54.2881 315.833 54.7981C315.561 55.3194 315.425 55.8917 315.425 56.5151ZM317.431 66.4714C316.796 66.7207 316.286 67.0777 315.901 67.5424C315.516 68.007 315.323 68.6304 315.323 69.4124C315.323 69.9564 315.402 70.421 315.561 70.8064C315.731 71.203 315.958 71.5034 316.241 71.7074C316.536 71.9114 316.864 72.0134 317.227 72.0134C317.612 72.0134 317.958 71.9057 318.264 71.6904C318.57 71.4864 318.814 71.169 318.995 70.7384C319.176 70.3077 319.267 69.7807 319.267 69.1574L319.267 67.2874L321.494 67.2874L321.494 69.1574C321.494 69.9847 321.658 70.608 321.987 71.0274C322.327 71.458 322.775 71.6734 323.33 71.6734C323.874 71.6734 324.293 71.4637 324.588 71.0444C324.894 70.6364 325.047 70.0754 325.047 69.3614C325.047 68.1714 324.441 67.3384 323.228 66.8624L324.112 64.5164C325.121 64.8904 325.925 65.4797 326.526 66.2844C327.127 67.089 327.427 68.1147 327.427 69.3614C327.427 70.302 327.274 71.1407 326.968 71.8774C326.662 72.6254 326.214 73.209 325.625 73.6284C325.036 74.059 324.327 74.2744 323.5 74.2744C322.718 74.2744 322.078 74.0874 321.579 73.7134C321.092 73.3507 320.695 72.8634 320.389 72.2514C320.117 72.9427 319.698 73.5094 319.131 73.9514C318.576 74.3934 317.896 74.6144 317.091 74.6144C316.252 74.6144 315.521 74.3934 314.898 73.9514C314.275 73.5094 313.793 72.8917 313.453 72.0984C313.113 71.3164 312.943 70.421 312.943 69.4124C312.943 68.041 313.272 66.9134 313.929 66.0294C314.575 65.1567 315.453 64.522 316.564 64.1254L317.431 66.4714ZM314.592 78.5019C314.592 78.0599 314.745 77.6802 315.051 77.3629C315.368 77.0569 315.748 76.9039 316.19 76.9039C316.632 76.9039 317.006 77.0569 317.312 77.3629C317.629 77.6802 317.788 78.0599 317.788 78.5019C317.788 78.9439 317.629 79.3179 317.312 79.6239C317.006 79.9412 316.632 80.0999 316.19 80.0999C315.748 80.0999 315.368 79.9412 315.051 79.6239C314.745 79.3179 314.592 78.9439 314.592 78.5019ZM322.565 78.5019C322.565 78.0599 322.718 77.6802 323.024 77.3629C323.341 77.0569 323.721 76.9039 324.163 76.9039C324.605 76.9039 324.979 77.0569 325.285 77.3629C325.602 77.6802 325.761 78.0599 325.761 78.5019C325.761 78.9439 325.602 79.3179 325.285 79.6239C324.979 79.9412 324.605 80.0999 324.163 80.0999C323.721 80.0999 323.341 79.9412 323.024 79.6239C322.718 79.3179 322.565 78.9439 322.565 78.5019ZM313.198 86.813L327.172 86.813L327.172 89.482L313.198 89.482L313.198 86.813ZM319.046 88.275L321.392 88.275L321.392 95.126L319.046 95.126L319.046 88.275ZM324.826 88.275L327.172 88.275L327.172 95.789L324.826 95.789L324.826 88.275ZM317.431 99.4868C316.672 99.4868 316.133 99.6681 315.816 100.031C315.51 100.405 315.357 100.886 315.357 101.476C315.357 101.827 315.431 102.15 315.578 102.445C315.725 102.751 315.935 102.994 316.207 103.176C316.49 103.368 316.825 103.465 317.21 103.465L315.476 104.06C315.011 103.935 314.586 103.72 314.201 103.414C313.816 103.108 313.51 102.722 313.283 102.258C313.056 101.793 312.943 101.277 312.943 100.711C312.943 100.019 313.124 99.3735 313.487 98.7728C313.838 98.1835 314.343 97.7075 315 97.3448C315.669 96.9935 316.445 96.8178 317.329 96.8178L323.517 96.8178L323.517 99.4868L317.431 99.4868ZM323.517 103.465L323.517 106.134L313.198 106.134L313.198 103.635L315.17 103.465L323.517 103.465ZM319.284 115.158C320.043 115.158 320.576 114.971 320.882 114.597C321.199 114.235 321.358 113.759 321.358 113.169C321.358 112.818 321.284 112.489 321.137 112.183C320.99 111.889 320.774 111.645 320.491 111.452C320.219 111.271 319.89 111.18 319.505 111.18L321.239 110.585C321.704 110.71 322.129 110.925 322.514 111.231C322.899 111.537 323.205 111.923 323.432 112.387C323.659 112.863 323.772 113.385 323.772 113.951C323.772 114.643 323.591 115.283 323.228 115.872C322.877 116.462 322.367 116.932 321.698 117.283C321.041 117.646 320.27 117.827 319.386 117.827L313.198 117.827L313.198 115.158L319.284 115.158ZM313.198 111.18L313.198 108.511L323.517 108.511L323.517 111.01L321.545 111.18L313.198 111.18ZM312.943 124.387C312.943 123.491 313.13 122.675 313.504 121.939C313.867 121.202 314.405 120.613 315.119 120.171C315.844 119.74 316.723 119.525 317.754 119.525L318.961 119.525C319.992 119.525 320.865 119.74 321.579 120.171C322.304 120.613 322.848 121.202 323.211 121.939C323.585 122.675 323.772 123.491 323.772 124.387C323.772 125.452 323.5 126.398 322.956 127.226C322.412 128.053 321.636 128.625 320.627 128.943L319.726 126.427C320.27 126.257 320.672 125.996 320.933 125.645C321.205 125.293 321.341 124.874 321.341 124.387C321.341 123.99 321.25 123.622 321.069 123.282C320.899 122.953 320.627 122.687 320.253 122.483C319.89 122.29 319.437 122.194 318.893 122.194L317.822 122.194C317.278 122.194 316.819 122.29 316.445 122.483C316.082 122.687 315.81 122.953 315.629 123.282C315.459 123.622 315.374 123.99 315.374 124.387C315.374 124.874 315.504 125.293 315.765 125.645C316.037 125.996 316.445 126.257 316.989 126.427L316.088 128.943C315.079 128.625 314.303 128.053 313.759 127.226C313.215 126.398 312.943 125.452 312.943 124.387ZM312.943 134.585C312.943 133.577 313.204 132.783 313.725 132.205C314.246 131.639 314.994 131.355 315.969 131.355L326.152 131.355L326.152 134.024L316.394 134.024C316.02 134.024 315.754 134.104 315.595 134.262C315.448 134.421 315.374 134.665 315.374 134.993C315.374 135.243 315.397 135.469 315.442 135.673C315.487 135.877 315.55 136.098 315.629 136.336L313.402 136.897C313.255 136.591 313.141 136.229 313.062 135.809C312.983 135.39 312.943 134.982 312.943 134.585ZM321.086 129.791L323.517 129.791L323.517 136.404L321.086 136.404L321.086 129.791ZM313.198 138.514L323.517 138.514L323.517 141.183L313.198 141.183L313.198 138.514ZM325.03 139.84C325.03 139.421 325.172 139.064 325.455 138.769C325.75 138.486 326.107 138.344 326.526 138.344C326.945 138.344 327.297 138.486 327.58 138.769C327.875 139.064 328.022 139.421 328.022 139.84C328.022 140.26 327.875 140.611 327.58 140.894C327.297 141.189 326.945 141.336 326.526 141.336C326.107 141.336 325.75 141.189 325.455 140.894C325.172 140.611 325.03 140.26 325.03 139.84ZM312.943 147.911C312.943 147.016 313.13 146.2 313.504 145.463C313.867 144.727 314.411 144.137 315.136 143.695C315.861 143.265 316.74 143.049 317.771 143.049L318.961 143.049C319.992 143.049 320.865 143.265 321.579 143.695C322.304 144.137 322.848 144.727 323.211 145.463C323.585 146.2 323.772 147.016 323.772 147.911C323.772 148.807 323.585 149.623 323.211 150.359C322.848 151.107 322.304 151.697 321.579 152.127C320.865 152.569 319.992 152.79 318.961 152.79L317.771 152.79C316.74 152.79 315.861 152.569 315.136 152.127C314.411 151.697 313.867 151.107 313.504 150.359C313.13 149.623 312.943 148.807 312.943 147.911ZM315.374 147.911C315.374 148.319 315.459 148.688 315.629 149.016C315.81 149.356 316.082 149.623 316.445 149.815C316.819 150.019 317.278 150.121 317.822 150.121L318.893 150.121C319.437 150.121 319.89 150.019 320.253 149.815C320.627 149.623 320.899 149.356 321.069 149.016C321.25 148.688 321.341 148.319 321.341 147.911C321.341 147.515 321.25 147.146 321.069 146.806C320.899 146.478 320.627 146.211 320.253 146.007C319.89 145.815 319.437 145.718 318.893 145.718L317.822 145.718C317.278 145.718 316.819 145.815 316.445 146.007C316.082 146.211 315.81 146.478 315.629 146.806C315.459 147.146 315.374 147.515 315.374 147.911ZM319.284 161.394C320.043 161.394 320.576 161.207 320.882 160.833C321.199 160.47 321.358 159.994 321.358 159.405C321.358 159.053 321.284 158.725 321.137 158.419C320.99 158.124 320.774 157.88 320.491 157.688C320.219 157.506 319.89 157.416 319.505 157.416L321.239 156.821C321.704 156.945 322.129 157.161 322.514 157.467C322.899 157.773 323.205 158.158 323.432 158.623C323.659 159.099 323.772 159.62 323.772 160.187C323.772 160.878 323.591 161.518 323.228 162.108C322.877 162.697 322.367 163.167 321.698 163.519C321.041 163.881 320.27 164.063 319.386 164.063L313.198 164.063L313.198 161.394L319.284 161.394ZM313.198 157.416L313.198 154.747L323.517 154.747L323.517 157.246L321.545 157.416L313.198 157.416ZM313.198 170.435L327.172 170.435L327.172 173.104L313.198 173.104L313.198 170.435ZM313.198 171.897L315.544 171.897L315.544 179.241L313.198 179.241L313.198 171.897ZM313.198 186.949L315.017 186.779L319.675 186.779C320.162 186.779 320.559 186.62 320.865 186.303C321.182 185.986 321.341 185.521 321.341 184.909C321.341 184.478 321.245 184.104 321.052 183.787C320.871 183.47 320.599 183.215 320.236 183.022L321.239 180.642C321.987 181.061 322.593 181.668 323.058 182.461C323.534 183.254 323.772 184.133 323.772 185.096C323.772 185.912 323.613 186.643 323.296 187.289C322.979 187.946 322.514 188.462 321.902 188.836C321.301 189.221 320.587 189.414 319.76 189.414L313.198 189.414L313.198 186.949ZM312.943 183.498C312.943 182.897 313.09 182.348 313.385 181.849C313.668 181.362 314.065 180.976 314.575 180.693C315.085 180.41 315.669 180.268 316.326 180.268C317.267 180.268 318.032 180.591 318.621 181.237C319.222 181.894 319.522 182.824 319.522 184.025L319.522 187.306L317.261 187.306L317.261 184.076C317.261 183.725 317.176 183.441 317.006 183.226C316.836 183.011 316.604 182.903 316.309 182.903C316.026 182.903 315.799 183.011 315.629 183.226C315.47 183.441 315.391 183.725 315.391 184.076L315.391 184.722C315.391 185.085 315.459 185.425 315.595 185.742C315.731 186.071 315.929 186.331 316.19 186.524C316.462 186.717 316.785 186.813 317.159 186.813L315.629 187.255C315.074 187.153 314.598 186.96 314.201 186.677C313.793 186.405 313.481 186.048 313.266 185.606C313.051 185.175 312.943 184.682 312.943 184.127L312.943 183.498ZM323.517 190.184L323.517 192.972L316.7 195.25L323.517 197.528L323.517 200.316L312.909 196.389C311.923 196.026 311.203 195.59 310.75 195.08C310.285 194.57 310.053 193.963 310.053 193.261C310.053 192.252 310.189 191.374 310.461 190.626L312.671 191.221C312.592 191.47 312.529 191.719 312.484 191.969C312.439 192.218 312.416 192.473 312.416 192.734C312.416 192.994 312.49 193.21 312.637 193.38C312.773 193.561 313.005 193.691 313.334 193.771L313.674 193.856L323.517 190.184ZM312.943 205.517C312.943 204.621 313.136 203.811 313.521 203.086C313.895 202.372 314.45 201.799 315.187 201.369C315.935 200.949 316.842 200.74 317.907 200.74L318.825 200.74C319.879 200.74 320.78 200.949 321.528 201.369C322.276 201.799 322.837 202.372 323.211 203.086C323.585 203.811 323.772 204.621 323.772 205.517C323.772 206.412 323.585 207.222 323.211 207.948C322.837 208.673 322.276 209.245 321.528 209.665C320.78 210.095 319.873 210.311 318.808 210.311L317.38 210.311L317.38 201.998L319.556 202.015L319.556 207.693C319.885 207.693 320.191 207.591 320.474 207.387C320.769 207.194 321.001 206.928 321.171 206.588C321.341 206.259 321.426 205.902 321.426 205.517C321.426 205.109 321.33 204.735 321.137 204.395C320.944 204.066 320.65 203.805 320.253 203.613C319.856 203.42 319.363 203.324 318.774 203.324L317.941 203.324C317.352 203.324 316.859 203.42 316.462 203.613C316.065 203.805 315.771 204.066 315.578 204.395C315.385 204.735 315.289 205.109 315.289 205.517C315.289 206.038 315.397 206.491 315.612 206.877C315.839 207.262 316.162 207.54 316.581 207.71L315.867 210.141C314.938 209.857 314.218 209.302 313.708 208.475C313.198 207.647 312.943 206.661 312.943 205.517ZM321.375 214.447C321.885 214.628 322.316 214.849 322.667 215.11C323.018 215.371 323.29 215.682 323.483 216.045C323.676 216.419 323.772 216.85 323.772 217.337C323.772 217.564 323.749 217.796 323.704 218.034C323.659 218.283 323.602 218.487 323.534 218.646L321.137 218.017C321.273 217.643 321.341 217.252 321.341 216.844C321.341 216.538 321.284 216.238 321.171 215.943C321.058 215.66 320.865 215.422 320.593 215.229C320.321 215.036 319.958 214.94 319.505 214.94L321.375 214.447ZM313.198 212.271L323.517 212.271L323.517 214.77L321.375 214.94L313.198 214.94L313.198 212.271Z" fill="white"/>
<g filter="url(#filter27_d_87_1007)">
<rect x="460" y="130" width="50" height="50" rx="6" fill="#EBEBEB"/>
<path d="M473.287 152.696V150.488H478.007C478.669 150.488 479.181 150.349 479.543 150.072C479.906 149.795 480.087 149.373 480.087 148.808C480.087 148.243 479.901 147.816 479.527 147.528C479.165 147.24 478.658 147.096 478.007 147.096H473.287V145.048H477.383C478.034 145.048 478.541 144.909 478.903 144.632C479.277 144.344 479.463 143.928 479.463 143.384C479.463 142.829 479.282 142.419 478.919 142.152C478.557 141.885 478.045 141.752 477.383 141.752H473.303V139.544H477.399C478.797 139.544 479.901 139.859 480.711 140.488C481.533 141.117 481.943 142.067 481.943 143.336C481.943 143.891 481.81 144.381 481.543 144.808C481.277 145.235 480.861 145.571 480.295 145.816C481.063 146.083 481.634 146.477 482.007 147C482.381 147.512 482.567 148.131 482.567 148.856C482.567 150.147 482.162 151.107 481.351 151.736C480.541 152.376 479.431 152.696 478.023 152.696H473.287ZM472.151 152.696V139.544H474.663V152.696H472.151ZM484.323 152.696V139.544H486.835V152.696H484.323ZM485.619 147.48V145.272H489.667C490.35 145.272 490.883 145.117 491.267 144.808C491.651 144.499 491.843 144.061 491.843 143.496C491.843 142.941 491.651 142.515 491.267 142.216C490.894 141.907 490.36 141.752 489.667 141.752H485.619V139.544H489.827C491.182 139.544 492.275 139.88 493.107 140.552C493.939 141.224 494.355 142.205 494.355 143.496C494.355 144.808 493.939 145.8 493.107 146.472C492.275 147.144 491.182 147.48 489.827 147.48H485.619ZM491.955 152.696L488.835 145.752H491.315L494.739 152.696H491.955ZM496.339 152.696V139.544H498.851V152.696H496.339ZM482.7 162.952H488.3V165.256H482.7V162.952Z" fill="black"/>
</g>
<g filter="url(#filter28_d_87_1007)">
<rect x="340" y="130" width="50" height="50" rx="6" fill="#EBEBEB"/>
<path d="M353.611 152.696L357.931 139.544H360.571L356.203 152.696H353.611ZM352.827 152.696L348.443 139.544H351.083L355.403 152.696H352.827ZM366.62 152.936C365.585 152.936 364.631 152.707 363.756 152.248C362.881 151.8 362.183 151.149 361.66 150.296C361.148 149.432 360.892 148.413 360.892 147.24V145C360.892 143.837 361.148 142.824 361.66 141.96C362.183 141.096 362.881 140.44 363.756 139.992C364.631 139.533 365.585 139.304 366.62 139.304C367.655 139.304 368.609 139.533 369.484 139.992C370.359 140.44 371.052 141.096 371.564 141.96C372.087 142.824 372.348 143.837 372.348 145V147.24C372.348 148.413 372.087 149.432 371.564 150.296C371.052 151.149 370.359 151.8 369.484 152.248C368.609 152.707 367.655 152.936 366.62 152.936ZM366.62 150.6C367.207 150.6 367.745 150.472 368.236 150.216C368.727 149.949 369.116 149.555 369.404 149.032C369.692 148.509 369.836 147.88 369.836 147.144V145.096C369.836 144.36 369.687 143.736 369.388 143.224C369.1 142.701 368.711 142.307 368.22 142.04C367.74 141.773 367.207 141.64 366.62 141.64C366.033 141.64 365.495 141.773 365.004 142.04C364.524 142.307 364.135 142.701 363.836 143.224C363.548 143.736 363.404 144.36 363.404 145.096V147.144C363.404 147.88 363.548 148.509 363.836 149.032C364.135 149.555 364.524 149.949 365.004 150.216C365.495 150.472 366.033 150.6 366.62 150.6ZM374.183 152.696V139.544H376.695V152.696H374.183ZM375.559 152.696V150.488H382.47V152.696H375.559ZM362.7 162.952H368.3V165.256H362.7V162.952Z" fill="black"/>
</g>
<g filter="url(#filter29_d_87_1007)">
<rect x="400" y="130" width="50" height="50" rx="6" fill="#EBEBEB"/>
<path d="M413.611 152.696L417.931 139.544H420.571L416.203 152.696H413.611ZM412.827 152.696L408.443 139.544H411.083L415.403 152.696H412.827ZM426.62 152.936C425.585 152.936 424.631 152.707 423.756 152.248C422.881 151.8 422.183 151.149 421.66 150.296C421.148 149.432 420.892 148.413 420.892 147.24V145C420.892 143.837 421.148 142.824 421.66 141.96C422.183 141.096 422.881 140.44 423.756 139.992C424.631 139.533 425.585 139.304 426.62 139.304C427.655 139.304 428.609 139.533 429.484 139.992C430.359 140.44 431.052 141.096 431.564 141.96C432.087 142.824 432.348 143.837 432.348 145V147.24C432.348 148.413 432.087 149.432 431.564 150.296C431.052 151.149 430.359 151.8 429.484 152.248C428.609 152.707 427.655 152.936 426.62 152.936ZM426.62 150.6C427.207 150.6 427.745 150.472 428.236 150.216C428.727 149.949 429.116 149.555 429.404 149.032C429.692 148.509 429.836 147.88 429.836 147.144V145.096C429.836 144.36 429.687 143.736 429.388 143.224C429.1 142.701 428.711 142.307 428.22 142.04C427.74 141.773 427.207 141.64 426.62 141.64C426.033 141.64 425.495 141.773 425.004 142.04C424.524 142.307 424.135 142.701 423.836 143.224C423.548 143.736 423.404 144.36 423.404 145.096V147.144C423.404 147.88 423.548 148.509 423.836 149.032C424.135 149.555 424.524 149.949 425.004 150.216C425.495 150.472 426.033 150.6 426.62 150.6ZM434.183 152.696V139.544H436.695V152.696H434.183ZM435.559 152.696V150.488H442.47V152.696H435.559ZM424.155 168.744V159.464H426.843V168.744H424.155ZM420.859 165.256V162.952H430.139V165.256H420.859Z" fill="black"/>
</g>
<g filter="url(#filter30_d_87_1007)">
<rect x="520" y="130" width="50" height="50" rx="6" fill="#EBEBEB"/>
<path d="M533.287 152.696V150.488H538.007C538.669 150.488 539.181 150.349 539.543 150.072C539.906 149.795 540.087 149.373 540.087 148.808C540.087 148.243 539.901 147.816 539.527 147.528C539.165 147.24 538.658 147.096 538.007 147.096H533.287V145.048H537.383C538.034 145.048 538.541 144.909 538.903 144.632C539.277 144.344 539.463 143.928 539.463 143.384C539.463 142.829 539.282 142.419 538.919 142.152C538.557 141.885 538.045 141.752 537.383 141.752H533.303V139.544H537.399C538.797 139.544 539.901 139.859 540.711 140.488C541.533 141.117 541.943 142.067 541.943 143.336C541.943 143.891 541.81 144.381 541.543 144.808C541.277 145.235 540.861 145.571 540.295 145.816C541.063 146.083 541.634 146.477 542.007 147C542.381 147.512 542.567 148.131 542.567 148.856C542.567 150.147 542.162 151.107 541.351 151.736C540.541 152.376 539.431 152.696 538.023 152.696H533.287ZM532.151 152.696V139.544H534.663V152.696H532.151ZM544.323 152.696V139.544H546.835V152.696H544.323ZM545.619 147.48V145.272H549.667C550.35 145.272 550.883 145.117 551.267 144.808C551.651 144.499 551.843 144.061 551.843 143.496C551.843 142.941 551.651 142.515 551.267 142.216C550.894 141.907 550.36 141.752 549.667 141.752H545.619V139.544H549.827C551.182 139.544 552.275 139.88 553.107 140.552C553.939 141.224 554.355 142.205 554.355 143.496C554.355 144.808 553.939 145.8 553.107 146.472C552.275 147.144 551.182 147.48 549.827 147.48H545.619ZM551.955 152.696L548.835 145.752H551.315L554.739 152.696H551.955ZM556.339 152.696V139.544H558.851V152.696H556.339ZM544.155 168.744V159.464H546.843V168.744H544.155ZM540.859 165.256V162.952H550.139V165.256H540.859Z" fill="black"/>
</g>
<g filter="url(#filter31_d_87_1007)">
<rect x="460" y="70" width="50" height="50" rx="6" fill="#EBEBEB"/>
<path d="M472.858 92.272V82.408H474.742V92.272H472.858ZM473.83 88.576V86.92H476.878C477.398 86.92 477.794 86.796 478.066 86.548C478.346 86.3 478.486 85.948 478.486 85.492C478.486 85.036 478.346 84.684 478.066 84.436C477.794 84.188 477.398 84.064 476.878 84.064H473.83V82.408H476.974C477.99 82.408 478.81 82.672 479.434 83.2C480.058 83.72 480.37 84.484 480.37 85.492C480.37 86.508 480.058 87.276 479.434 87.796C478.81 88.316 477.99 88.576 476.974 88.576H473.83ZM481.506 92.272V82.408H483.39V92.272H481.506ZM489.425 92.272L489.305 90.988V87.7C489.305 87.356 489.193 87.076 488.969 86.86C488.745 86.636 488.417 86.524 487.985 86.524C487.681 86.524 487.417 86.592 487.193 86.728C486.969 86.856 486.789 87.048 486.653 87.304L484.973 86.596C485.269 86.068 485.697 85.64 486.257 85.312C486.817 84.976 487.437 84.808 488.117 84.808C488.693 84.808 489.209 84.92 489.665 85.144C490.129 85.368 490.493 85.696 490.757 86.128C491.029 86.552 491.165 87.056 491.165 87.64V92.272H489.425ZM486.989 92.452C486.565 92.452 486.177 92.348 485.825 92.14C485.481 91.94 485.209 91.66 485.009 91.3C484.809 90.94 484.709 90.528 484.709 90.064C484.709 89.4 484.937 88.86 485.393 88.444C485.857 88.02 486.513 87.808 487.361 87.808H489.677V89.404H487.397C487.149 89.404 486.949 89.464 486.797 89.584C486.645 89.704 486.569 89.868 486.569 90.076C486.569 90.276 486.645 90.436 486.797 90.556C486.949 90.668 487.149 90.724 487.397 90.724H487.853C488.109 90.724 488.349 90.676 488.573 90.58C488.805 90.484 488.989 90.344 489.125 90.16C489.261 89.968 489.329 89.74 489.329 89.476L489.641 90.556C489.569 90.948 489.433 91.284 489.233 91.564C489.041 91.852 488.789 92.072 488.477 92.224C488.173 92.376 487.825 92.452 487.433 92.452H486.989ZM491.708 84.988H493.676L495.284 89.8L496.892 84.988H498.86L496.088 92.476C495.832 93.172 495.524 93.68 495.164 94C494.804 94.328 494.376 94.492 493.88 94.492C493.168 94.492 492.548 94.396 492.02 94.204L492.44 92.644C492.616 92.7 492.792 92.744 492.968 92.776C493.144 92.808 493.324 92.824 493.508 92.824C493.692 92.824 493.844 92.772 493.964 92.668C494.092 92.572 494.184 92.408 494.24 92.176L494.3 91.936L491.708 84.988ZM466.863 105.272V95.408H468.747V105.272H466.863ZM467.835 101.576V99.92H470.883C471.403 99.92 471.799 99.796 472.071 99.548C472.351 99.3 472.491 98.948 472.491 98.492C472.491 98.036 472.351 97.684 472.071 97.436C471.799 97.188 471.403 97.064 470.883 97.064H467.835V95.408H470.979C471.995 95.408 472.815 95.672 473.439 96.2C474.063 96.72 474.375 97.484 474.375 98.492C474.375 99.508 474.063 100.276 473.439 100.796C472.815 101.316 471.995 101.576 470.979 101.576H467.835ZM479.505 105.272L479.385 103.988V100.7C479.385 100.356 479.273 100.076 479.049 99.86C478.825 99.636 478.497 99.524 478.065 99.524C477.761 99.524 477.497 99.592 477.273 99.728C477.049 99.856 476.869 100.048 476.733 100.304L475.053 99.596C475.349 99.068 475.777 98.64 476.337 98.312C476.897 97.976 477.517 97.808 478.197 97.808C478.773 97.808 479.289 97.92 479.745 98.144C480.209 98.368 480.573 98.696 480.837 99.128C481.109 99.552 481.245 100.056 481.245 100.64V105.272H479.505ZM477.069 105.452C476.645 105.452 476.257 105.348 475.905 105.14C475.561 104.94 475.289 104.66 475.089 104.3C474.889 103.94 474.789 103.528 474.789 103.064C474.789 102.4 475.017 101.86 475.473 101.444C475.937 101.02 476.593 100.808 477.441 100.808H479.757V102.404H477.477C477.229 102.404 477.029 102.464 476.877 102.584C476.725 102.704 476.649 102.868 476.649 103.076C476.649 103.276 476.725 103.436 476.877 103.556C477.029 103.668 477.229 103.724 477.477 103.724H477.933C478.189 103.724 478.429 103.676 478.653 103.58C478.885 103.484 479.069 103.344 479.205 103.16C479.341 102.968 479.409 102.74 479.409 102.476L479.721 103.556C479.649 103.948 479.513 104.284 479.313 104.564C479.121 104.852 478.869 105.072 478.557 105.224C478.253 105.376 477.905 105.452 477.513 105.452H477.069ZM484.446 102.284C484.446 102.82 484.574 103.2 484.83 103.424C485.094 103.64 485.434 103.748 485.85 103.748C486.098 103.748 486.326 103.696 486.534 103.592C486.75 103.488 486.922 103.34 487.05 103.148C487.186 102.948 487.254 102.712 487.254 102.44L487.674 103.664C487.586 103.992 487.434 104.292 487.218 104.564C487.002 104.836 486.73 105.052 486.402 105.212C486.074 105.372 485.71 105.452 485.31 105.452C484.822 105.452 484.366 105.324 483.942 105.068C483.526 104.82 483.19 104.464 482.934 104C482.686 103.528 482.562 102.98 482.562 102.356V97.988H484.446V102.284ZM487.254 97.988H489.138V105.272H487.374L487.254 103.88V97.988ZM491.695 102.8C491.943 103.176 492.255 103.448 492.631 103.616C493.007 103.784 493.367 103.868 493.711 103.868C494.031 103.868 494.299 103.82 494.515 103.724C494.731 103.62 494.839 103.456 494.839 103.232C494.839 103.016 494.755 102.856 494.587 102.752C494.427 102.648 494.183 102.556 493.855 102.476L493.075 102.296C492.419 102.144 491.875 101.888 491.443 101.528C491.019 101.168 490.807 100.66 490.807 100.004C490.807 99.3 491.059 98.76 491.563 98.384C492.075 98 492.743 97.808 493.567 97.808C494.255 97.808 494.843 97.944 495.331 98.216C495.827 98.488 496.255 98.852 496.615 99.308L495.283 100.328C495.027 100.04 494.743 99.812 494.431 99.644C494.127 99.476 493.827 99.392 493.531 99.392C493.243 99.392 493.019 99.444 492.859 99.548C492.699 99.652 492.619 99.804 492.619 100.004C492.619 100.196 492.683 100.348 492.811 100.46C492.947 100.564 493.159 100.652 493.447 100.724L494.227 100.904C494.923 101.064 495.499 101.32 495.955 101.672C496.419 102.024 496.651 102.544 496.651 103.232C496.651 103.728 496.511 104.14 496.231 104.468C495.959 104.804 495.595 105.052 495.139 105.212C494.691 105.372 494.203 105.452 493.675 105.452C492.915 105.452 492.239 105.308 491.647 105.02C491.055 104.732 490.599 104.316 490.279 103.772L491.695 102.8ZM501.049 105.452C500.417 105.452 499.845 105.316 499.333 105.044C498.829 104.78 498.425 104.388 498.121 103.868C497.825 103.34 497.677 102.7 497.677 101.948V101.3C497.677 100.556 497.825 99.92 498.121 99.392C498.425 98.864 498.829 98.468 499.333 98.204C499.845 97.94 500.417 97.808 501.049 97.808C501.681 97.808 502.253 97.94 502.765 98.204C503.277 98.468 503.681 98.864 503.977 99.392C504.281 99.92 504.433 100.56 504.433 101.312V102.32H498.565L498.577 100.784H502.585C502.585 100.552 502.513 100.336 502.369 100.136C502.233 99.928 502.045 99.764 501.805 99.644C501.573 99.524 501.321 99.464 501.049 99.464C500.761 99.464 500.497 99.532 500.257 99.668C500.025 99.804 499.841 100.012 499.705 100.292C499.569 100.572 499.501 100.92 499.501 101.336V101.924C499.501 102.34 499.569 102.688 499.705 102.968C499.841 103.248 500.025 103.456 500.257 103.592C500.497 103.728 500.761 103.796 501.049 103.796C501.417 103.796 501.737 103.72 502.009 103.568C502.281 103.408 502.477 103.18 502.597 102.884L504.313 103.388C504.113 104.044 503.721 104.552 503.137 104.912C502.553 105.272 501.857 105.452 501.049 105.452Z" fill="black"/>
</g>
<g filter="url(#filter32_d_87_1007)">
<rect x="400" y="70" width="50" height="50" rx="6" fill="#EBEBEB"/>
<path d="M406.054 100.484V88.976H408.252V100.484H406.054ZM407.188 96.172V94.24H410.744C411.351 94.24 411.813 94.0953 412.13 93.806C412.457 93.5167 412.62 93.106 412.62 92.574C412.62 92.042 412.457 91.6313 412.13 91.342C411.813 91.0527 411.351 90.908 410.744 90.908H407.188V88.976H410.856C412.042 88.976 412.998 89.284 413.726 89.9C414.454 90.5067 414.818 91.398 414.818 92.574C414.818 93.7593 414.454 94.6553 413.726 95.262C412.998 95.8687 412.042 96.172 410.856 96.172H407.188ZM416.144 100.484V88.976H418.342V100.484H416.144ZM417.278 95.92V93.988H420.82C421.417 93.988 421.884 93.8527 422.22 93.582C422.556 93.3113 422.724 92.9287 422.724 92.434C422.724 91.9487 422.556 91.5753 422.22 91.314C421.893 91.0433 421.427 90.908 420.82 90.908H417.278V88.976H420.96C422.145 88.976 423.102 89.27 423.83 89.858C424.558 90.446 424.922 91.3047 424.922 92.434C424.922 93.582 424.558 94.45 423.83 95.038C423.102 95.626 422.145 95.92 420.96 95.92H417.278ZM422.822 100.484L420.092 94.408H422.262L425.258 100.484H422.822ZM426.658 100.484V88.976H428.856V100.484H426.658ZM427.862 100.484V98.552H434.33V100.484H427.862ZM427.862 95.528V93.596H433.924V95.528H427.862ZM427.862 90.908V88.976H434.19V90.908H427.862ZM439.625 100.484L443.405 88.976H445.715L441.893 100.484H439.625ZM438.939 100.484L435.103 88.976H437.413L441.193 100.484H438.939Z" fill="black"/>
</g>
<g filter="url(#filter33_d_87_1007)">
<rect x="520" y="70" width="50" height="50" rx="6" fill="#EBEBEB"/>
<path d="M526.027 100.484V88.976H528.155L533.349 96.704V88.976H535.519V100.484H533.391L528.197 92.756V100.484H526.027ZM537.334 100.484V88.976H539.532V100.484H537.334ZM538.538 100.484V98.552H545.006V100.484H538.538ZM538.538 95.528V93.596H544.6V95.528H538.538ZM538.538 90.908V88.976H544.866V90.908H538.538ZM545.708 100.484L549.614 94.52L545.988 88.976H548.536L550.874 92.658L553.24 88.976H555.774L552.134 94.52L556.04 100.484H553.506L550.874 96.396L548.242 100.484H545.708ZM559.972 100.484V89.858H562.17V100.484H559.972ZM556.458 90.978V88.976H565.67V90.978H556.458Z" fill="black"/>
</g>
<defs>
<filter id="filter0_d_87_1007" x="576" y="10" width="58" height="58" filterUnits="userSpaceOnUse" color-interpolation-filters="sRGB">
<feFlood flood-opacity="0" result="BackgroundImageFix"/>
<feColorMatrix in="SourceAlpha" type="matrix" values="0 0 0 0 0 0 0 0 0 0 0 0 0 0 0 0 0 0 127 0" result="hardAlpha"/>
<feOffset dy="4"/>
<feGaussianBlur stdDeviation="2"/>
<feComposite in2="hardAlpha" operator="out"/>
<feColorMatrix type="matrix" values="0 0 0 0 0 0 0 0 0 0 0 0 0 0 0 0 0 0 0.25 0"/>
<feBlend mode="normal" in2="BackgroundImageFix" result="effect1_dropShadow_87_1007"/>
<feBlend mode="normal" in="SourceGraphic" in2="effect1_dropShadow_87_1007" result="shape"/>
</filter>
<filter id="filter1_d_87_1007" x="246" y="10" width="58" height="58" filterUnits="userSpaceOnUse" color-interpolation-filters="sRGB">
<feFlood flood-opacity="0" result="BackgroundImageFix"/>
<feColorMatrix in="SourceAlpha" type="matrix" values="0 0 0 0 0 0 0 0 0 0 0 0 0 0 0 0 0 0 127 0" result="hardAlpha"/>
<feOffset dy="4"/>
<feGaussianBlur stdDeviation="2"/>
<feComposite in2="hardAlpha" operator="out"/>
<feColorMatrix type="matrix" values="0 0 0 0 0 0 0 0 0 0 0 0 0 0 0 0 0 0 0.25 0"/>
<feBlend mode="normal" in2="BackgroundImageFix" result="effect1_dropShadow_87_1007"/>
<feBlend mode="normal" in="SourceGraphic" in2="effect1_dropShadow_87_1007" result="shape"/>
</filter>
<filter id="filter2_d_87_1007" x="456" y="10" width="58" height="58" filterUnits="userSpaceOnUse" color-interpolation-filters="sRGB">
<feFlood flood-opacity="0" result="BackgroundImageFix"/>
<feColorMatrix in="SourceAlpha" type="matrix" values="0 0 0 0 0 0 0 0 0 0 0 0 0 0 0 0 0 0 127 0" result="hardAlpha"/>
<feOffset dy="4"/>
<feGaussianBlur stdDeviation="2"/>
<feComposite in2="hardAlpha" operator="out"/>
<feColorMatrix type="matrix" values="0 0 0 0 0 0 0 0 0 0 0 0 0 0 0 0 0 0 0.25 0"/>
<feBlend mode="normal" in2="BackgroundImageFix" result="effect1_dropShadow_87_1007"/>
<feBlend mode="normal" in="SourceGraphic" in2="effect1_dropShadow_87_1007" result="shape"/>
</filter>
<filter id="filter3_d_87_1007" x="126" y="10" width="58" height="58" filterUnits="userSpaceOnUse" color-interpolation-filters="sRGB">
<feFlood flood-opacity="0" result="BackgroundImageFix"/>
<feColorMatrix in="SourceAlpha" type="matrix" values="0 0 0 0 0 0 0 0 0 0 0 0 0 0 0 0 0 0 127 0" result="hardAlpha"/>
<feOffset dy="4"/>
<feGaussianBlur stdDeviation="2"/>
<feComposite in2="hardAlpha" operator="out"/>
<feColorMatrix type="matrix" values="0 0 0 0 0 0 0 0 0 0 0 0 0 0 0 0 0 0 0.25 0"/>
<feBlend mode="normal" in2="BackgroundImageFix" result="effect1_dropShadow_87_1007"/>
<feBlend mode="normal" in="SourceGraphic" in2="effect1_dropShadow_87_1007" result="shape"/>
</filter>
<filter id="filter4_d_87_1007" x="336" y="10" width="58" height="58" filterUnits="userSpaceOnUse" color-interpolation-filters="sRGB">
<feFlood flood-opacity="0" result="BackgroundImageFix"/>
<feColorMatrix in="SourceAlpha" type="matrix" values="0 0 0 0 0 0 0 0 0 0 0 0 0 0 0 0 0 0 127 0" result="hardAlpha"/>
<feOffset dy="4"/>
<feGaussianBlur stdDeviation="2"/>
<feComposite in2="hardAlpha" operator="out"/>
<feColorMatrix type="matrix" values="0 0 0 0 0 0 0 0 0 0 0 0 0 0 0 0 0 0 0.25 0"/>
<feBlend mode="normal" in2="BackgroundImageFix" result="effect1_dropShadow_87_1007"/>
<feBlend mode="normal" in="SourceGraphic" in2="effect1_dropShadow_87_1007" result="shape"/>
</filter>
<filter id="filter5_d_87_1007" x="6" y="10" width="58" height="58" filterUnits="userSpaceOnUse" color-interpolation-filters="sRGB">
<feFlood flood-opacity="0" result="BackgroundImageFix"/>
<feColorMatrix in="SourceAlpha" type="matrix" values="0 0 0 0 0 0 0 0 0 0 0 0 0 0 0 0 0 0 127 0" result="hardAlpha"/>
<feOffset dy="4"/>
<feGaussianBlur stdDeviation="2"/>
<feComposite in2="hardAlpha" operator="out"/>
<feColorMatrix type="matrix" values="0 0 0 0 0 0 0 0 0 0 0 0 0 0 0 0 0 0 0.25 0"/>
<feBlend mode="normal" in2="BackgroundImageFix" result="effect1_dropShadow_87_1007"/>
<feBlend mode="normal" in="SourceGraphic" in2="effect1_dropShadow_87_1007" result="shape"/>
</filter>
<filter id="filter6_d_87_1007" x="516" y="10" width="58" height="58" filterUnits="userSpaceOnUse" color-interpolation-filters="sRGB">
<feFlood flood-opacity="0" result="BackgroundImageFix"/>
<feColorMatrix in="SourceAlpha" type="matrix" values="0 0 0 0 0 0 0 0 0 0 0 0 0 0 0 0 0 0 127 0" result="hardAlpha"/>
<feOffset dy="4"/>
<feGaussianBlur stdDeviation="2"/>
<feComposite in2="hardAlpha" operator="out"/>
<feColorMatrix type="matrix" values="0 0 0 0 0 0 0 0 0 0 0 0 0 0 0 0 0 0 0.25 0"/>
<feBlend mode="normal" in2="BackgroundImageFix" result="effect1_dropShadow_87_1007"/>
<feBlend mode="normal" in="SourceGraphic" in2="effect1_dropShadow_87_1007" result="shape"/>
</filter>
<filter id="filter7_d_87_1007" x="186" y="10" width="58" height="58" filterUnits="userSpaceOnUse" color-interpolation-filters="sRGB">
<feFlood flood-opacity="0" result="BackgroundImageFix"/>
<feColorMatrix in="SourceAlpha" type="matrix" values="0 0 0 0 0 0 0 0 0 0 0 0 0 0 0 0 0 0 127 0" result="hardAlpha"/>
<feOffset dy="4"/>
<feGaussianBlur stdDeviation="2"/>
<feComposite in2="hardAlpha" operator="out"/>
<feColorMatrix type="matrix" values="0 0 0 0 0 0 0 0 0 0 0 0 0 0 0 0 0 0 0.25 0"/>
<feBlend mode="normal" in2="BackgroundImageFix" result="effect1_dropShadow_87_1007"/>
<feBlend mode="normal" in="SourceGraphic" in2="effect1_dropShadow_87_1007" result="shape"/>
</filter>
<filter id="filter8_d_87_1007" x="396" y="10" width="58" height="58" filterUnits="userSpaceOnUse" color-interpolation-filters="sRGB">
<feFlood flood-opacity="0" result="BackgroundImageFix"/>
<feColorMatrix in="SourceAlpha" type="matrix" values="0 0 0 0 0 0 0 0 0 0 0 0 0 0 0 0 0 0 127 0" result="hardAlpha"/>
<feOffset dy="4"/>
<feGaussianBlur stdDeviation="2"/>
<feComposite in2="hardAlpha" operator="out"/>
<feColorMatrix type="matrix" values="0 0 0 0 0 0 0 0 0 0 0 0 0 0 0 0 0 0 0.25 0"/>
<feBlend mode="normal" in2="BackgroundImageFix" result="effect1_dropShadow_87_1007"/>
<feBlend mode="normal" in="SourceGraphic" in2="effect1_dropShadow_87_1007" result="shape"/>
</filter>
<filter id="filter9_d_87_1007" x="66" y="10" width="58" height="58" filterUnits="userSpaceOnUse" color-interpolation-filters="sRGB">
<feFlood flood-opacity="0" result="BackgroundImageFix"/>
<feColorMatrix in="SourceAlpha" type="matrix" values="0 0 0 0 0 0 0 0 0 0 0 0 0 0 0 0 0 0 127 0" result="hardAlpha"/>
<feOffset dy="4"/>
<feGaussianBlur stdDeviation="2"/>
<feComposite in2="hardAlpha" operator="out"/>
<feColorMatrix type="matrix" values="0 0 0 0 0 0 0 0 0 0 0 0 0 0 0 0 0 0 0.25 0"/>
<feBlend mode="normal" in2="BackgroundImageFix" result="effect1_dropShadow_87_1007"/>
<feBlend mode="normal" in="SourceGraphic" in2="effect1_dropShadow_87_1007" result="shape"/>
</filter>
<filter id="filter10_d_87_1007" x="576" y="70" width="58" height="58" filterUnits="userSpaceOnUse" color-interpolation-filters="sRGB">
<feFlood flood-opacity="0" result="BackgroundImageFix"/>
<feColorMatrix in="SourceAlpha" type="matrix" values="0 0 0 0 0 0 0 0 0 0 0 0 0 0 0 0 0 0 127 0" result="hardAlpha"/>
<feOffset dy="4"/>
<feGaussianBlur stdDeviation="2"/>
<feComposite in2="hardAlpha" operator="out"/>
<feColorMatrix type="matrix" values="0 0 0 0 0 0 0 0 0 0 0 0 0 0 0 0 0 0 0.25 0"/>
<feBlend mode="normal" in2="BackgroundImageFix" result="effect1_dropShadow_87_1007"/>
<feBlend mode="normal" in="SourceGraphic" in2="effect1_dropShadow_87_1007" result="shape"/>
</filter>
<filter id="filter11_d_87_1007" x="246" y="70" width="58" height="58" filterUnits="userSpaceOnUse" color-interpolation-filters="sRGB">
<feFlood flood-opacity="0" result="BackgroundImageFix"/>
<feColorMatrix in="SourceAlpha" type="matrix" values="0 0 0 0 0 0 0 0 0 0 0 0 0 0 0 0 0 0 127 0" result="hardAlpha"/>
<feOffset dy="4"/>
<feGaussianBlur stdDeviation="2"/>
<feComposite in2="hardAlpha" operator="out"/>
<feColorMatrix type="matrix" values="0 0 0 0 0 0 0 0 0 0 0 0 0 0 0 0 0 0 0.25 0"/>
<feBlend mode="normal" in2="BackgroundImageFix" result="effect1_dropShadow_87_1007"/>
<feBlend mode="normal" in="SourceGraphic" in2="effect1_dropShadow_87_1007" result="shape"/>
</filter>
<filter id="filter12_d_87_1007" x="126" y="70" width="58" height="58" filterUnits="userSpaceOnUse" color-interpolation-filters="sRGB">
<feFlood flood-opacity="0" result="BackgroundImageFix"/>
<feColorMatrix in="SourceAlpha" type="matrix" values="0 0 0 0 0 0 0 0 0 0 0 0 0 0 0 0 0 0 127 0" result="hardAlpha"/>
<feOffset dy="4"/>
<feGaussianBlur stdDeviation="2"/>
<feComposite in2="hardAlpha" operator="out"/>
<feColorMatrix type="matrix" values="0 0 0 0 0 0 0 0 0 0 0 0 0 0 0 0 0 0 0.25 0"/>
<feBlend mode="normal" in2="BackgroundImageFix" result="effect1_dropShadow_87_1007"/>
<feBlend mode="normal" in="SourceGraphic" in2="effect1_dropShadow_87_1007" result="shape"/>
</filter>
<filter id="filter13_d_87_1007" x="336" y="70" width="58" height="58" filterUnits="userSpaceOnUse" color-interpolation-filters="sRGB">
<feFlood flood-opacity="0" result="BackgroundImageFix"/>
<feColorMatrix in="SourceAlpha" type="matrix" values="0 0 0 0 0 0 0 0 0 0 0 0 0 0 0 0 0 0 127 0" result="hardAlpha"/>
<feOffset dy="4"/>
<feGaussianBlur stdDeviation="2"/>
<feComposite in2="hardAlpha" operator="out"/>
<feColorMatrix type="matrix" values="0 0 0 0 0 0 0 0 0 0 0 0 0 0 0 0 0 0 0.25 0"/>
<feBlend mode="normal" in2="BackgroundImageFix" result="effect1_dropShadow_87_1007"/>
<feBlend mode="normal" in="SourceGraphic" in2="effect1_dropShadow_87_1007" result="shape"/>
</filter>
<filter id="filter14_d_87_1007" x="6" y="70" width="58" height="58" filterUnits="userSpaceOnUse" color-interpolation-filters="sRGB">
<feFlood flood-opacity="0" result="BackgroundImageFix"/>
<feColorMatrix in="SourceAlpha" type="matrix" values="0 0 0 0 0 0 0 0 0 0 0 0 0 0 0 0 0 0 127 0" result="hardAlpha"/>
<feOffset dy="4"/>
<feGaussianBlur stdDeviation="2"/>
<feComposite in2="hardAlpha" operator="out"/>
<feColorMatrix type="matrix" values="0 0 0 0 0 0 0 0 0 0 0 0 0 0 0 0 0 0 0.25 0"/>
<feBlend mode="normal" in2="BackgroundImageFix" result="effect1_dropShadow_87_1007"/>
<feBlend mode="normal" in="SourceGraphic" in2="effect1_dropShadow_87_1007" result="shape"/>
</filter>
<filter id="filter15_d_87_1007" x="186" y="70" width="58" height="58" filterUnits="userSpaceOnUse" color-interpolation-filters="sRGB">
<feFlood flood-opacity="0" result="BackgroundImageFix"/>
<feColorMatrix in="SourceAlpha" type="matrix" values="0 0 0 0 0 0 0 0 0 0 0 0 0 0 0 0 0 0 127 0" result="hardAlpha"/>
<feOffset dy="4"/>
<feGaussianBlur stdDeviation="2"/>
<feComposite in2="hardAlpha" operator="out"/>
<feColorMatrix type="matrix" values="0 0 0 0 0 0 0 0 0 0 0 0 0 0 0 0 0 0 0.25 0"/>
<feBlend mode="normal" in2="BackgroundImageFix" result="effect1_dropShadow_87_1007"/>
<feBlend mode="normal" in="SourceGraphic" in2="effect1_dropShadow_87_1007" result="shape"/>
</filter>
<filter id="filter16_d_87_1007" x="66" y="70" width="58" height="58" filterUnits="userSpaceOnUse" color-interpolation-filters="sRGB">
<feFlood flood-opacity="0" result="BackgroundImageFix"/>
<feColorMatrix in="SourceAlpha" type="matrix" values="0 0 0 0 0 0 0 0 0 0 0 0 0 0 0 0 0 0 127 0" result="hardAlpha"/>
<feOffset dy="4"/>
<feGaussianBlur stdDeviation="2"/>
<feComposite in2="hardAlpha" operator="out"/>
<feColorMatrix type="matrix" values="0 0 0 0 0 0 0 0 0 0 0 0 0 0 0 0 0 0 0.25 0"/>
<feBlend mode="normal" in2="BackgroundImageFix" result="effect1_dropShadow_87_1007"/>
<feBlend mode="normal" in="SourceGraphic" in2="effect1_dropShadow_87_1007" result="shape"/>
</filter>
<filter id="filter17_d_87_1007" x="576" y="130" width="58" height="58" filterUnits="userSpaceOnUse" color-interpolation-filters="sRGB">
<feFlood flood-opacity="0" result="BackgroundImageFix"/>
<feColorMatrix in="SourceAlpha" type="matrix" values="0 0 0 0 0 0 0 0 0 0 0 0 0 0 0 0 0 0 127 0" result="hardAlpha"/>
<feOffset dy="4"/>
<feGaussianBlur stdDeviation="2"/>
<feComposite in2="hardAlpha" operator="out"/>
<feColorMatrix type="matrix" values="0 0 0 0 0 0 0 0 0 0 0 0 0 0 0 0 0 0 0.25 0"/>
<feBlend mode="normal" in2="BackgroundImageFix" result="effect1_dropShadow_87_1007"/>
<feBlend mode="normal" in="SourceGraphic" in2="effect1_dropShadow_87_1007" result="shape"/>
</filter>
<filter id="filter18_d_87_1007" x="246" y="130" width="58" height="58" filterUnits="userSpaceOnUse" color-interpolation-filters="sRGB">
<feFlood flood-opacity="0" result="BackgroundImageFix"/>
<feColorMatrix in="SourceAlpha" type="matrix" values="0 0 0 0 0 0 0 0 0 0 0 0 0 0 0 0 0 0 127 0" result="hardAlpha"/>
<feOffset dy="4"/>
<feGaussianBlur stdDeviation="2"/>
<feComposite in2="hardAlpha" operator="out"/>
<feColorMatrix type="matrix" values="0 0 0 0 0 0 0 0 0 0 0 0 0 0 0 0 0 0 0.25 0"/>
<feBlend mode="normal" in2="BackgroundImageFix" result="effect1_dropShadow_87_1007"/>
<feBlend mode="normal" in="SourceGraphic" in2="effect1_dropShadow_87_1007" result="shape"/>
</filter>
<filter id="filter19_d_87_1007" x="126" y="130" width="58" height="58" filterUnits="userSpaceOnUse" color-interpolation-filters="sRGB">
<feFlood flood-opacity="0" result="BackgroundImageFix"/>
<feColorMatrix in="SourceAlpha" type="matrix" values="0 0 0 0 0 0 0 0 0 0 0 0 0 0 0 0 0 0 127 0" result="hardAlpha"/>
<feOffset dy="4"/>
<feGaussianBlur stdDeviation="2"/>
<feComposite in2="hardAlpha" operator="out"/>
<feColorMatrix type="matrix" values="0 0 0 0 0 0 0 0 0 0 0 0 0 0 0 0 0 0 0.25 0"/>
<feBlend mode="normal" in2="BackgroundImageFix" result="effect1_dropShadow_87_1007"/>
<feBlend mode="normal" in="SourceGraphic" in2="effect1_dropShadow_87_1007" result="shape"/>
</filter>
<filter id="filter20_d_87_1007" x="6" y="130" width="58" height="58" filterUnits="userSpaceOnUse" color-interpolation-filters="sRGB">
<feFlood flood-opacity="0" result="BackgroundImageFix"/>
<feColorMatrix in="SourceAlpha" type="matrix" values="0 0 0 0 0 0 0 0 0 0 0 0 0 0 0 0 0 0 127 0" result="hardAlpha"/>
<feOffset dy="4"/>
<feGaussianBlur stdDeviation="2"/>
<feComposite in2="hardAlpha" operator="out"/>
<feColorMatrix type="matrix" values="0 0 0 0 0 0 0 0 0 0 0 0 0 0 0 0 0 0 0.25 0"/>
<feBlend mode="normal" in2="BackgroundImageFix" result="effect1_dropShadow_87_1007"/>
<feBlend mode="normal" in="SourceGraphic" in2="effect1_dropShadow_87_1007" result="shape"/>
</filter>
<filter id="filter21_d_87_1007" x="336" y="190" width="58" height="58" filterUnits="userSpaceOnUse" color-interpolation-filters="sRGB">
<feFlood flood-opacity="0" result="BackgroundImageFix"/>
<feColorMatrix in="SourceAlpha" type="matrix" values="0 0 0 0 0 0 0 0 0 0 0 0 0 0 0 0 0 0 127 0" result="hardAlpha"/>
<feOffset dy="4"/>
<feGaussianBlur stdDeviation="2"/>
<feComposite in2="hardAlpha" operator="out"/>
<feColorMatrix type="matrix" values="0 0 0 0 0 0 0 0 0 0 0 0 0 0 0 0 0 0 0.25 0"/>
<feBlend mode="normal" in2="BackgroundImageFix" result="effect1_dropShadow_87_1007"/>
<feBlend mode="normal" in="SourceGraphic" in2="effect1_dropShadow_87_1007" result="shape"/>
</filter>
<filter id="filter22_d_87_1007" x="396" y="190" width="58" height="58" filterUnits="userSpaceOnUse" color-interpolation-filters="sRGB">
<feFlood flood-opacity="0" result="BackgroundImageFix"/>
<feColorMatrix in="SourceAlpha" type="matrix" values="0 0 0 0 0 0 0 0 0 0 0 0 0 0 0 0 0 0 127 0" result="hardAlpha"/>
<feOffset dy="4"/>
<feGaussianBlur stdDeviation="2"/>
<feComposite in2="hardAlpha" operator="out"/>
<feColorMatrix type="matrix" values="0 0 0 0 0 0 0 0 0 0 0 0 0 0 0 0 0 0 0.25 0"/>
<feBlend mode="normal" in2="BackgroundImageFix" result="effect1_dropShadow_87_1007"/>
<feBlend mode="normal" in="SourceGraphic" in2="effect1_dropShadow_87_1007" result="shape"/>
</filter>
<filter id="filter23_d_87_1007" x="186" y="190" width="58" height="58" filterUnits="userSpaceOnUse" color-interpolation-filters="sRGB">
<feFlood flood-opacity="0" result="BackgroundImageFix"/>
<feColorMatrix in="SourceAlpha" type="matrix" values="0 0 0 0 0 0 0 0 0 0 0 0 0 0 0 0 0 0 127 0" result="hardAlpha"/>
<feOffset dy="4"/>
<feGaussianBlur stdDeviation="2"/>
<feComposite in2="hardAlpha" operator="out"/>
<feColorMatrix type="matrix" values="0 0 0 0 0 0 0 0 0 0 0 0 0 0 0 0 0 0 0.25 0"/>
<feBlend mode="normal" in2="BackgroundImageFix" result="effect1_dropShadow_87_1007"/>
<feBlend mode="normal" in="SourceGraphic" in2="effect1_dropShadow_87_1007" result="shape"/>
</filter>
<filter id="filter24_d_87_1007" x="66" y="130" width="58" height="58" filterUnits="userSpaceOnUse" color-interpolation-filters="sRGB">
<feFlood flood-opacity="0" result="BackgroundImageFix"/>
<feColorMatrix in="SourceAlpha" type="matrix" values="0 0 0 0 0 0 0 0 0 0 0 0 0 0 0 0 0 0 127 0" result="hardAlpha"/>
<feOffset dy="4"/>
<feGaussianBlur stdDeviation="2"/>
<feComposite in2="hardAlpha" operator="out"/>
<feColorMatrix type="matrix" values="0 0 0 0 0 0 0 0 0 0 0 0 0 0 0 0 0 0 0.25 0"/>
<feBlend mode="normal" in2="BackgroundImageFix" result="effect1_dropShadow_87_1007"/>
<feBlend mode="normal" in="SourceGraphic" in2="effect1_dropShadow_87_1007" result="shape"/>
</filter>
<filter id="filter25_d_87_1007" x="186" y="130" width="58" height="58" filterUnits="userSpaceOnUse" color-interpolation-filters="sRGB">
<feFlood flood-opacity="0" result="BackgroundImageFix"/>
<feColorMatrix in="SourceAlpha" type="matrix" values="0 0 0 0 0 0 0 0 0 0 0 0 0 0 0 0 0 0 127 0" result="hardAlpha"/>
<feOffset dy="4"/>
<feGaussianBlur stdDeviation="2"/>
<feComposite in2="hardAlpha" operator="out"/>
<feColorMatrix type="matrix" values="0 0 0 0 0 0 0 0 0 0 0 0 0 0 0 0 0 0 0.25 0"/>
<feBlend mode="normal" in2="BackgroundImageFix" result="effect1_dropShadow_87_1007"/>
<feBlend mode="normal" in="SourceGraphic" in2="effect1_dropShadow_87_1007" result="shape"/>
</filter>
<filter id="filter26_d_87_1007" x="246" y="190" width="58" height="58" filterUnits="userSpaceOnUse" color-interpolation-filters="sRGB">
<feFlood flood-opacity="0" result="BackgroundImageFix"/>
<feColorMatrix in="SourceAlpha" type="matrix" values="0 0 0 0 0 0 0 0 0 0 0 0 0 0 0 0 0 0 127 0" result="hardAlpha"/>
<feOffset dy="4"/>
<feGaussianBlur stdDeviation="2"/>
<feComposite in2="hardAlpha" operator="out"/>
<feColorMatrix type="matrix" values="0 0 0 0 0 0 0 0 0 0 0 0 0 0 0 0 0 0 0.25 0"/>
<feBlend mode="normal" in2="BackgroundImageFix" result="effect1_dropShadow_87_1007"/>
<feBlend mode="normal" in="SourceGraphic" in2="effect1_dropShadow_87_1007" result="shape"/>
</filter>
<filter id="filter27_d_87_1007" x="456" y="130" width="58" height="58" filterUnits="userSpaceOnUse" color-interpolation-filters="sRGB">
<feFlood flood-opacity="0" result="BackgroundImageFix"/>
<feColorMatrix in="SourceAlpha" type="matrix" values="0 0 0 0 0 0 0 0 0 0 0 0 0 0 0 0 0 0 127 0" result="hardAlpha"/>
<feOffset dy="4"/>
<feGaussianBlur stdDeviation="2"/>
<feComposite in2="hardAlpha" operator="out"/>
<feColorMatrix type="matrix" values="0 0 0 0 0 0 0 0 0 0 0 0 0 0 0 0 0 0 0.25 0"/>
<feBlend mode="normal" in2="BackgroundImageFix" result="effect1_dropShadow_87_1007"/>
<feBlend mode="normal" in="SourceGraphic" in2="effect1_dropShadow_87_1007" result="shape"/>
</filter>
<filter id="filter28_d_87_1007" x="336" y="130" width="58" height="58" filterUnits="userSpaceOnUse" color-interpolation-filters="sRGB">
<feFlood flood-opacity="0" result="BackgroundImageFix"/>
<feColorMatrix in="SourceAlpha" type="matrix" values="0 0 0 0 0 0 0 0 0 0 0 0 0 0 0 0 0 0 127 0" result="hardAlpha"/>
<feOffset dy="4"/>
<feGaussianBlur stdDeviation="2"/>
<feComposite in2="hardAlpha" operator="out"/>
<feColorMatrix type="matrix" values="0 0 0 0 0 0 0 0 0 0 0 0 0 0 0 0 0 0 0.25 0"/>
<feBlend mode="normal" in2="BackgroundImageFix" result="effect1_dropShadow_87_1007"/>
<feBlend mode="normal" in="SourceGraphic" in2="effect1_dropShadow_87_1007" result="shape"/>
</filter>
<filter id="filter29_d_87_1007" x="396" y="130" width="58" height="58" filterUnits="userSpaceOnUse" color-interpolation-filters="sRGB">
<feFlood flood-opacity="0" result="BackgroundImageFix"/>
<feColorMatrix in="SourceAlpha" type="matrix" values="0 0 0 0 0 0 0 0 0 0 0 0 0 0 0 0 0 0 127 0" result="hardAlpha"/>
<feOffset dy="4"/>
<feGaussianBlur stdDeviation="2"/>
<feComposite in2="hardAlpha" operator="out"/>
<feColorMatrix type="matrix" values="0 0 0 0 0 0 0 0 0 0 0 0 0 0 0 0 0 0 0.25 0"/>
<feBlend mode="normal" in2="BackgroundImageFix" result="effect1_dropShadow_87_1007"/>
<feBlend mode="normal" in="SourceGraphic" in2="effect1_dropShadow_87_1007" result="shape"/>
</filter>
<filter id="filter30_d_87_1007" x="516" y="130" width="58" height="58" filterUnits="userSpaceOnUse" color-interpolation-filters="sRGB">
<feFlood flood-opacity="0" result="BackgroundImageFix"/>
<feColorMatrix in="SourceAlpha" type="matrix" values="0 0 0 0 0 0 0 0 0 0 0 0 0 0 0 0 0 0 127 0" result="hardAlpha"/>
<feOffset dy="4"/>
<feGaussianBlur stdDeviation="2"/>
<feComposite in2="hardAlpha" operator="out"/>
<feColorMatrix type="matrix" values="0 0 0 0 0 0 0 0 0 0 0 0 0 0 0 0 0 0 0.25 0"/>
<feBlend mode="normal" in2="BackgroundImageFix" result="effect1_dropShadow_87_1007"/>
<feBlend mode="normal" in="SourceGraphic" in2="effect1_dropShadow_87_1007" result="shape"/>
</filter>
<filter id="filter31_d_87_1007" x="456" y="70" width="58" height="58" filterUnits="userSpaceOnUse" color-interpolation-filters="sRGB">
<feFlood flood-opacity="0" result="BackgroundImageFix"/>
<feColorMatrix in="SourceAlpha" type="matrix" values="0 0 0 0 0 0 0 0 0 0 0 0 0 0 0 0 0 0 127 0" result="hardAlpha"/>
<feOffset dy="4"/>
<feGaussianBlur stdDeviation="2"/>
<feComposite in2="hardAlpha" operator="out"/>
<feColorMatrix type="matrix" values="0 0 0 0 0 0 0 0 0 0 0 0 0 0 0 0 0 0 0.25 0"/>
<feBlend mode="normal" in2="BackgroundImageFix" result="effect1_dropShadow_87_1007"/>
<feBlend mode="normal" in="SourceGraphic" in2="effect1_dropShadow_87_1007" result="shape"/>
</filter>
<filter id="filter32_d_87_1007" x="396" y="70" width="58" height="58" filterUnits="userSpaceOnUse" color-interpolation-filters="sRGB">
<feFlood flood-opacity="0" result="BackgroundImageFix"/>
<feColorMatrix in="SourceAlpha" type="matrix" values="0 0 0 0 0 0 0 0 0 0 0 0 0 0 0 0 0 0 127 0" result="hardAlpha"/>
<feOffset dy="4"/>
<feGaussianBlur stdDeviation="2"/>
<feComposite in2="hardAlpha" operator="out"/>
<feColorMatrix type="matrix" values="0 0 0 0 0 0 0 0 0 0 0 0 0 0 0 0 0 0 0.25 0"/>
<feBlend mode="normal" in2="BackgroundImageFix" result="effect1_dropShadow_87_1007"/>
<feBlend mode="normal" in="SourceGraphic" in2="effect1_dropShadow_87_1007" result="shape"/>
</filter>
<filter id="filter33_d_87_1007" x="516" y="70" width="58" height="58" filterUnits="userSpaceOnUse" color-interpolation-filters="sRGB">
<feFlood flood-opacity="0" result="BackgroundImageFix"/>
<feColorMatrix in="SourceAlpha" type="matrix" values="0 0 0 0 0 0 0 0 0 0 0 0 0 0 0 0 0 0 127 0" result="hardAlpha"/>
<feOffset dy="4"/>
<feGaussianBlur stdDeviation="2"/>
<feComposite in2="hardAlpha" operator="out"/>
<feColorMatrix type="matrix" values="0 0 0 0 0 0 0 0 0 0 0 0 0 0 0 0 0 0 0.25 0"/>
<feBlend mode="normal" in2="BackgroundImageFix" result="effect1_dropShadow_87_1007"/>
<feBlend mode="normal" in="SourceGraphic" in2="effect1_dropShadow_87_1007" result="shape"/>
</filter>
</defs>
</svg>
