<svg width="640" height="250" viewBox="0 0 640 250" fill="none" xmlns="http://www.w3.org/2000/svg">
<rect width="640" height="250" fill="#A999AF"/>
<g filter="url(#filter0_d_87_1007)">
<rect x="580" y="10" width="50" height="50" rx="6" fill="#EBEBEB"/>
</g>
<g filter="url(#filter1_d_87_1007)">
<rect x="250" y="10" width="50" height="50" rx="6" fill="#EBEBEB"/>
<path d="M255.149 44.544V24.816H258.917V44.544H255.149ZM257.213 36.288V32.976H266.885V36.288H257.213ZM257.213 28.128V24.816H267.821V28.128H257.213ZM274.59 44.544V29.784L270.99 32.544L268.902 29.76L275.31 24.816H278.358V44.544H274.59ZM282.334 44.544V41.64L289.366 34.68C290.31 33.736 290.982 32.944 291.382 32.304C291.798 31.648 292.006 30.976 292.006 30.288C292.006 29.552 291.75 28.96 291.238 28.512C290.726 28.048 289.982 27.816 289.006 27.816C288.094 27.816 287.35 28.112 286.774 28.704C286.198 29.296 285.774 30.104 285.502 31.128L281.95 30.264C282.398 28.6 283.222 27.216 284.422 26.112C285.638 25.008 287.166 24.456 289.006 24.456C290.334 24.456 291.502 24.68 292.51 25.128C293.518 25.56 294.302 26.208 294.862 27.072C295.422 27.92 295.702 28.936 295.702 30.12C295.702 31.336 295.43 32.424 294.886 33.384C294.342 34.344 293.494 35.4 292.342 36.552L287.686 41.112H296.086V44.544H282.334Z" fill="black"/>
</g>
<g filter="url(#filter2_d_87_1007)">
<rect x="460" y="10" width="50" height="50" rx="6" fill="#EBEBEB"/>
</g>
<g filter="url(#filter3_d_87_1007)">
<rect x="130" y="10" width="50" height="50" rx="6" fill="#EBEBEB"/>
<path d="M134.086 44.544V24.816H137.854V44.544H134.086ZM136.15 36.288V32.976H145.822V36.288H136.15ZM136.15 28.128V24.816H146.758V28.128H136.15ZM153.527 44.544V29.784L149.927 32.544L147.839 29.76L154.247 24.816H157.295V44.544H153.527ZM168.64 44.904C167.248 44.904 165.984 44.584 164.848 43.944C163.712 43.32 162.808 42.376 162.136 41.112C161.464 39.848 161.128 38.304 161.128 36.48V32.88C161.128 31.056 161.464 29.512 162.136 28.248C162.808 26.984 163.712 26.04 164.848 25.416C165.984 24.776 167.248 24.456 168.64 24.456C170.032 24.456 171.296 24.776 172.432 25.416C173.568 26.04 174.472 26.984 175.144 28.248C175.816 29.512 176.152 31.056 176.152 32.88V36.48C176.152 38.304 175.816 39.848 175.144 41.112C174.472 42.376 173.568 43.32 172.432 43.944C171.296 44.584 170.032 44.904 168.64 44.904ZM168.64 41.568C169.392 41.568 170.048 41.376 170.608 40.992C171.168 40.608 171.6 40.024 171.904 39.24C172.224 38.456 172.384 37.488 172.384 36.336V33.024C172.384 31.872 172.224 30.904 171.904 30.12C171.6 29.336 171.168 28.752 170.608 28.368C170.048 27.984 169.392 27.792 168.64 27.792C167.888 27.792 167.232 27.984 166.672 28.368C166.112 28.752 165.672 29.336 165.352 30.12C165.048 30.904 164.896 31.872 164.896 33.024V36.336C164.896 37.488 165.048 38.456 165.352 39.24C165.672 40.024 166.112 40.608 166.672 40.992C167.232 41.376 167.888 41.568 168.64 41.568Z" fill="black"/>
</g>
<g filter="url(#filter4_d_87_1007)">
<rect x="340" y="10" width="50" height="50" rx="6" fill="#EBEBEB"/>
</g>
<g filter="url(#filter5_d_87_1007)">
<rect x="10" y="10" width="50" height="50" rx="6" fill="#EBEBEB"/>
</g>
<g filter="url(#filter6_d_87_1007)">
<rect x="520" y="10" width="50" height="50" rx="6" fill="#EBEBEB"/>
</g>
<g filter="url(#filter7_d_87_1007)">
<rect x="190" y="10" width="50" height="50" rx="6" fill="#EBEBEB"/>
<path d="M196.875 44.544V24.816H200.643V44.544H196.875ZM198.939 36.288V32.976H208.611V36.288H198.939ZM198.939 28.128V24.816H209.547V28.128H198.939ZM216.316 44.544V29.784L212.716 32.544L210.628 29.76L217.036 24.816H220.084V44.544H216.316ZM228.645 44.544V29.784L225.045 32.544L222.957 29.76L229.365 24.816H232.413V44.544H228.645Z" fill="black"/>
</g>
<g filter="url(#filter8_d_87_1007)">
<rect x="400" y="10" width="50" height="50" rx="6" fill="#EBEBEB"/>
</g>
<g filter="url(#filter9_d_87_1007)">
<rect x="70" y="10" width="50" height="50" rx="6" fill="#EBEBEB"/>
<path d="M81.055 44.544V24.816H84.823V44.544H81.055ZM83.119 36.288V32.976H92.791V36.288H83.119ZM83.119 28.128V24.816H93.727V28.128H83.119ZM103.16 44.904C101.416 44.904 99.9521 44.544 98.7681 43.824C97.5841 43.12 96.6481 42.064 95.9601 40.656L99.0321 39.048C99.5121 39.928 100.056 40.576 100.664 40.992C101.288 41.392 102.056 41.592 102.968 41.592C104.088 41.592 105 41.152 105.704 40.272C106.424 39.376 106.784 38.04 106.784 36.264V34.704H107.24C106.904 35.728 106.256 36.52 105.296 37.08C104.336 37.624 103.264 37.896 102.08 37.896C100.944 37.896 99.8721 37.616 98.8641 37.056C97.8561 36.48 97.0481 35.68 96.4401 34.656C95.8321 33.616 95.5281 32.44 95.5281 31.128C95.5281 29.8 95.8481 28.632 96.4881 27.624C97.1281 26.616 98.0081 25.84 99.1281 25.296C100.248 24.736 101.504 24.456 102.896 24.456C104.32 24.456 105.584 24.728 106.688 25.272C107.792 25.816 108.648 26.624 109.256 27.696C109.88 28.752 110.192 30.032 110.192 31.536V36.408C110.192 38.248 109.856 39.808 109.184 41.088C108.528 42.368 107.664 43.32 106.592 43.944C105.52 44.584 104.376 44.904 103.16 44.904ZM102.872 34.632C103.576 34.632 104.192 34.488 104.72 34.2C105.264 33.912 105.688 33.512 105.992 33C106.296 32.472 106.448 31.872 106.448 31.2C106.448 30.528 106.296 29.936 105.992 29.424C105.688 28.896 105.264 28.488 104.72 28.2C104.192 27.912 103.576 27.768 102.872 27.768C102.152 27.768 101.512 27.912 100.952 28.2C100.408 28.488 99.9841 28.896 99.6801 29.424C99.3761 29.936 99.2241 30.528 99.2241 31.2C99.2241 31.872 99.3761 32.472 99.6801 33C99.9841 33.512 100.408 33.912 100.952 34.2C101.512 34.488 102.152 34.632 102.872 34.632Z" fill="black"/>
</g>
<g filter="url(#filter10_d_87_1007)">
<rect x="580" y="70" width="50" height="50" rx="6" fill="#EBEBEB"/>
</g>
<g filter="url(#filter11_d_87_1007)">
<rect x="250" y="70" width="50" height="50" rx="6" fill="#EBEBEB"/>
<path d="M260.821 104.544V84.816H264.589V104.544H260.821ZM262.885 96.288V92.976H272.557V96.288H262.885ZM262.885 88.128V84.816H273.493V88.128H262.885ZM282.974 104.904C281.566 104.904 280.302 104.68 279.182 104.232C278.062 103.8 277.174 103.136 276.518 102.24C275.862 101.36 275.534 100.264 275.534 98.952C275.534 97.96 275.83 97.064 276.422 96.264C277.03 95.464 277.934 94.824 279.134 94.344C278.062 93.912 277.27 93.336 276.758 92.616C276.262 91.88 276.014 91.056 276.014 90.144C276.014 88.896 276.31 87.848 276.902 87C277.51 86.152 278.342 85.52 279.398 85.104C280.454 84.672 281.646 84.456 282.974 84.456C284.302 84.456 285.494 84.672 286.55 85.104C287.606 85.52 288.43 86.152 289.022 87C289.63 87.848 289.934 88.896 289.934 90.144C289.934 91.056 289.678 91.88 289.166 92.616C288.67 93.336 287.886 93.912 286.814 94.344C288.014 94.824 288.91 95.464 289.502 96.264C290.11 97.064 290.414 97.96 290.414 98.952C290.414 100.264 290.086 101.36 289.43 102.24C288.79 103.136 287.91 103.8 286.79 104.232C285.67 104.68 284.398 104.904 282.974 104.904ZM282.974 101.544C283.742 101.544 284.406 101.44 284.966 101.232C285.526 101.008 285.95 100.688 286.238 100.272C286.542 99.856 286.694 99.36 286.694 98.784C286.694 98.224 286.542 97.736 286.238 97.32C285.95 96.888 285.526 96.56 284.966 96.336C284.406 96.112 283.742 96 282.974 96C282.206 96 281.542 96.112 280.982 96.336C280.422 96.56 279.99 96.888 279.686 97.32C279.398 97.736 279.254 98.224 279.254 98.784C279.254 99.36 279.398 99.856 279.686 100.272C279.99 100.688 280.422 101.008 280.982 101.232C281.542 101.44 282.206 101.544 282.974 101.544ZM282.974 92.832C283.646 92.832 284.222 92.736 284.702 92.544C285.198 92.336 285.574 92.048 285.83 91.68C286.086 91.296 286.214 90.848 286.214 90.336C286.214 89.808 286.086 89.36 285.83 88.992C285.574 88.608 285.198 88.32 284.702 88.128C284.222 87.92 283.646 87.816 282.974 87.816C282.302 87.816 281.718 87.92 281.222 88.128C280.742 88.32 280.374 88.608 280.118 88.992C279.862 89.36 279.734 89.808 279.734 90.336C279.734 90.848 279.862 91.296 280.118 91.68C280.374 92.048 280.742 92.336 281.222 92.544C281.718 92.736 282.302 92.832 282.974 92.832Z" fill="black"/>
</g>
<g filter="url(#filter12_d_87_1007)">
<rect x="130" y="70" width="50" height="50" rx="6" fill="#EBEBEB"/>
<path d="M141.055 104.544V84.816H144.823V104.544H141.055ZM143.119 96.288V92.976H152.791V96.288H143.119ZM143.119 88.128V84.816H153.727V88.128H143.119ZM162.8 84.456C164.544 84.456 166.008 84.816 167.192 85.536C168.376 86.24 169.312 87.296 170 88.704L166.928 90.312C166.448 89.432 165.896 88.792 165.272 88.392C164.664 87.976 163.904 87.768 162.992 87.768C161.872 87.768 160.952 88.216 160.232 89.112C159.528 89.992 159.176 91.32 159.176 93.096V94.656H158.72C159.056 93.632 159.704 92.848 160.664 92.304C161.624 91.744 162.696 91.464 163.88 91.464C165.016 91.464 166.088 91.752 167.096 92.328C168.104 92.888 168.912 93.688 169.52 94.728C170.128 95.752 170.432 96.92 170.432 98.232C170.432 99.56 170.112 100.728 169.472 101.736C168.832 102.744 167.952 103.52 166.832 104.064C165.712 104.624 164.456 104.904 163.064 104.904C161.64 104.904 160.376 104.632 159.272 104.088C158.168 103.544 157.304 102.744 156.68 101.688C156.072 100.616 155.768 99.328 155.768 97.824V92.952C155.768 91.112 156.096 89.552 156.752 88.272C157.424 86.992 158.296 86.04 159.368 85.416C160.44 84.776 161.584 84.456 162.8 84.456ZM163.088 94.728C162.384 94.728 161.76 94.872 161.216 95.16C160.688 95.448 160.272 95.856 159.968 96.384C159.664 96.896 159.512 97.488 159.512 98.16C159.512 98.832 159.664 99.432 159.968 99.96C160.272 100.472 160.688 100.872 161.216 101.16C161.76 101.448 162.384 101.592 163.088 101.592C163.808 101.592 164.44 101.448 164.984 101.16C165.544 100.872 165.976 100.472 166.28 99.96C166.584 99.432 166.736 98.832 166.736 98.16C166.736 97.488 166.584 96.896 166.28 96.384C165.976 95.856 165.544 95.448 164.984 95.16C164.44 94.872 163.808 94.728 163.088 94.728Z" fill="black"/>
</g>
<g filter="url(#filter13_d_87_1007)">
<rect x="340" y="70" width="50" height="50" rx="6" fill="#EBEBEB"/>
</g>
<g filter="url(#filter14_d_87_1007)">
<rect x="10" y="70" width="50" height="50" rx="6" fill="#EBEBEB"/>
</g>
<g filter="url(#filter15_d_87_1007)">
<rect x="190" y="70" width="50" height="50" rx="6" fill="#EBEBEB"/>
<path d="M202.133 104.544V84.816H205.901V104.544H202.133ZM204.197 96.288V92.976H213.869V96.288H204.197ZM204.197 88.128V84.816H214.805V88.128H204.197ZM229.83 84.816V88.224L221.382 104.904H217.158L225.63 88.224H216.246V84.816H229.83Z" fill="black"/>
</g>
<g filter="url(#filter16_d_87_1007)">
<rect x="70" y="70" width="50" height="50" rx="6" fill="#EBEBEB"/>
<path d="M80.8128 104.544V84.816H84.5808V104.544H80.8128ZM82.8768 96.288V92.976H92.5488V96.288H82.8768ZM82.8768 88.128V84.816H93.4848V88.128H82.8768ZM102.51 104.904C100.926 104.904 99.4619 104.56 98.1179 103.872C96.7899 103.2 95.8459 102.232 95.2859 100.968L98.5019 99.168C98.8379 99.936 99.3339 100.512 99.9899 100.896C100.646 101.28 101.406 101.472 102.27 101.472C103.006 101.472 103.63 101.344 104.142 101.088C104.67 100.832 105.07 100.472 105.342 100.008C105.614 99.528 105.75 98.968 105.75 98.328C105.75 97.704 105.598 97.16 105.294 96.696C105.006 96.216 104.598 95.848 104.07 95.592C103.542 95.32 102.942 95.184 102.27 95.184C101.534 95.184 100.926 95.328 100.446 95.616C99.9659 95.888 99.5659 96.328 99.2459 96.936H95.9099L97.1099 84.816H108.726V88.248H100.254L99.5339 94.536H98.7899C99.1259 93.656 99.6939 92.976 100.494 92.496C101.31 92 102.182 91.752 103.11 91.752C104.278 91.752 105.342 92.024 106.302 92.568C107.262 93.112 108.022 93.888 108.582 94.896C109.142 95.888 109.422 97.032 109.422 98.328C109.422 99.656 109.134 100.816 108.558 101.808C107.998 102.8 107.198 103.56 106.158 104.088C105.118 104.632 103.902 104.904 102.51 104.904Z" fill="black"/>
</g>
<g filter="url(#filter17_d_87_1007)">
<rect x="580" y="130" width="50" height="50" rx="6" fill="#EBEBEB"/>
</g>
<g filter="url(#filter18_d_87_1007)">
<rect x="250" y="130" width="50" height="50" rx="6" fill="#EBEBEB"/>
<path d="M261.114 164.544V144.816H264.882V164.544H261.114ZM263.178 156.288V152.976H272.85V156.288H263.178ZM263.178 148.128V144.816H273.786V148.128H263.178ZM284.683 164.904V144.816H288.403V164.904H284.683ZM275.347 161.064V158.112L283.459 144.816H287.419L279.883 157.632H290.851V161.064H275.347Z" fill="black"/>
</g>
<g filter="url(#filter19_d_87_1007)">
<rect x="130" y="130" width="50" height="50" rx="6" fill="#EBEBEB"/>
<path d="M140.813 164.544V144.816H144.581V164.544H140.813ZM142.877 156.288V152.976H152.549V156.288H142.877ZM142.877 148.128V144.816H153.485V148.128H142.877ZM155.67 164.544V161.64L162.702 154.68C163.646 153.736 164.318 152.944 164.718 152.304C165.134 151.648 165.342 150.976 165.342 150.288C165.342 149.552 165.086 148.96 164.574 148.512C164.062 148.048 163.318 147.816 162.342 147.816C161.43 147.816 160.686 148.112 160.11 148.704C159.534 149.296 159.11 150.104 158.838 151.128L155.286 150.264C155.734 148.6 156.558 147.216 157.758 146.112C158.974 145.008 160.502 144.456 162.342 144.456C163.67 144.456 164.838 144.68 165.846 145.128C166.854 145.56 167.638 146.208 168.198 147.072C168.758 147.92 169.038 148.936 169.038 150.12C169.038 151.336 168.766 152.424 168.222 153.384C167.678 154.344 166.83 155.4 165.678 156.552L161.022 161.112H169.422V164.544H155.67Z" fill="black"/>
</g>
<g filter="url(#filter20_d_87_1007)">
<rect x="10" y="130" width="50" height="50" rx="6" fill="#EBEBEB"/>
</g>
<g filter="url(#filter21_d_87_1007)">
<rect x="340" y="190" width="50" height="50" rx="6" fill="#EBEBEB"/>
<path d="M357.289 211.802V198.899H359.958V211.802H357.289ZM353.022 200.259V197.828H364.208V200.259H353.022ZM365.742 211.802V197.828H368.411V211.802H365.742ZM367.119 206.26V203.914H371.42C372.145 203.914 372.712 203.75 373.12 203.421C373.528 203.092 373.732 202.628 373.732 202.027C373.732 201.438 373.528 200.984 373.12 200.667C372.723 200.338 372.156 200.174 371.42 200.174H367.119V197.828H371.59C373.029 197.828 374.191 198.185 375.075 198.899C375.959 199.613 376.401 200.656 376.401 202.027C376.401 203.421 375.959 204.475 375.075 205.189C374.191 205.903 373.029 206.26 371.59 206.26H367.119ZM373.851 211.802L370.536 204.424H373.171L376.809 211.802H373.851ZM353.274 230.802V216.828H355.858L362.165 226.212V216.828H364.8V230.802H362.216L355.909 221.418V230.802H353.274ZM368.482 226.246C368.822 226.994 369.298 227.583 369.91 228.014C370.534 228.433 371.259 228.643 372.086 228.643C372.925 228.643 373.565 228.501 374.007 228.218C374.461 227.935 374.687 227.532 374.687 227.011C374.687 226.546 374.551 226.178 374.279 225.906C374.019 225.634 373.571 225.413 372.936 225.243L370.913 224.699C369.791 224.404 368.862 223.945 368.125 223.322C367.4 222.687 367.037 221.798 367.037 220.653C367.037 219.826 367.253 219.106 367.683 218.494C368.114 217.871 368.703 217.395 369.451 217.066C370.199 216.737 371.038 216.573 371.967 216.573C373.237 216.573 374.336 216.896 375.265 217.542C376.195 218.177 376.863 218.976 377.271 219.939L375.061 221.061C374.744 220.449 374.325 219.95 373.803 219.565C373.282 219.18 372.67 218.987 371.967 218.987C371.219 218.987 370.647 219.134 370.25 219.429C369.865 219.724 369.672 220.132 369.672 220.653C369.672 221.118 369.825 221.475 370.131 221.724C370.449 221.973 370.913 222.177 371.525 222.336L373.463 222.846C374.574 223.141 375.492 223.617 376.217 224.274C376.954 224.931 377.322 225.844 377.322 227.011C377.322 227.838 377.09 228.558 376.625 229.17C376.172 229.782 375.549 230.247 374.755 230.564C373.962 230.893 373.072 231.057 372.086 231.057C370.681 231.057 369.474 230.734 368.465 230.088C367.457 229.442 366.714 228.535 366.238 227.368L368.482 226.246Z" fill="black"/>
</g>
<g filter="url(#filter22_d_87_1007)">
<rect x="400" y="190" width="50" height="50" rx="6" fill="#EBEBEB"/>
<path d="M408.878 221.802V219.456H413.893C414.596 219.456 415.14 219.309 415.525 219.014C415.91 218.719 416.103 218.272 416.103 217.671C416.103 217.07 415.905 216.617 415.508 216.311C415.123 216.005 414.584 215.852 413.893 215.852H408.878V213.676H413.23C413.921 213.676 414.46 213.529 414.845 213.234C415.242 212.928 415.44 212.486 415.44 211.908C415.44 211.319 415.247 210.882 414.862 210.599C414.477 210.316 413.933 210.174 413.23 210.174H408.895V207.828H413.247C414.732 207.828 415.905 208.162 416.766 208.831C417.639 209.5 418.075 210.508 418.075 211.857C418.075 212.446 417.933 212.968 417.65 213.421C417.367 213.874 416.925 214.231 416.324 214.492C417.14 214.775 417.746 215.195 418.143 215.75C418.54 216.294 418.738 216.951 418.738 217.722C418.738 219.093 418.307 220.113 417.446 220.782C416.585 221.462 415.406 221.802 413.91 221.802H408.878ZM407.671 221.802V207.828H410.34V221.802H407.671ZM421.834 217.246C422.174 217.994 422.65 218.583 423.262 219.014C423.885 219.433 424.61 219.643 425.438 219.643C426.276 219.643 426.917 219.501 427.359 219.218C427.812 218.935 428.039 218.532 428.039 218.011C428.039 217.546 427.903 217.178 427.631 216.906C427.37 216.634 426.922 216.413 426.288 216.243L424.265 215.699C423.143 215.404 422.213 214.945 421.477 214.322C420.751 213.687 420.389 212.798 420.389 211.653C420.389 210.826 420.604 210.106 421.035 209.494C421.465 208.871 422.055 208.395 422.803 208.066C423.551 207.737 424.389 207.573 425.319 207.573C426.588 207.573 427.687 207.896 428.617 208.542C429.546 209.177 430.215 209.976 430.623 210.939L428.413 212.061C428.095 211.449 427.676 210.95 427.155 210.565C426.633 210.18 426.021 209.987 425.319 209.987C424.571 209.987 423.998 210.134 423.602 210.429C423.216 210.724 423.024 211.132 423.024 211.653C423.024 212.118 423.177 212.475 423.483 212.724C423.8 212.973 424.265 213.177 424.877 213.336L426.815 213.846C427.925 214.141 428.843 214.617 429.569 215.274C430.305 215.931 430.674 216.844 430.674 218.011C430.674 218.838 430.441 219.558 429.977 220.17C429.523 220.782 428.9 221.247 428.107 221.564C427.313 221.893 426.424 222.057 425.438 222.057C424.032 222.057 422.825 221.734 421.817 221.088C420.808 220.442 420.066 219.535 419.59 218.368L421.834 217.246ZM432.457 221.802V207.828H435.126V221.802H432.457ZM433.834 216.566V214.22H438.152C438.889 214.22 439.45 214.044 439.835 213.693C440.232 213.342 440.43 212.843 440.43 212.197C440.43 211.551 440.232 211.052 439.835 210.701C439.45 210.35 438.889 210.174 438.152 210.174H433.834V207.828H438.288C439.727 207.828 440.889 208.202 441.773 208.95C442.657 209.687 443.099 210.769 443.099 212.197C443.099 213.636 442.657 214.724 441.773 215.461C440.889 216.198 439.727 216.566 438.288 216.566H433.834Z" fill="black"/>
</g>
<g filter="url(#filter23_d_87_1007)">
<rect x="190" y="190" width="50" height="50" rx="6" fill="#EBEBEB"/>
<path d="M201.771 221.802V208.899H204.44V221.802H201.771ZM197.504 210.259V207.828H208.69V210.259H197.504ZM217.931 221.802L213.137 207.828H215.789L220.651 221.802H217.931ZM207.595 221.802L212.457 207.828H215.109L210.315 221.802H207.595ZM210.893 217.926V215.529H217.353V217.926H210.893ZM223.301 221.802V219.456H228.316C229.018 219.456 229.562 219.309 229.948 219.014C230.333 218.719 230.526 218.272 230.526 217.671C230.526 217.07 230.327 216.617 229.931 216.311C229.545 216.005 229.007 215.852 228.316 215.852H223.301V213.676H227.653C228.344 213.676 228.882 213.529 229.268 213.234C229.664 212.928 229.863 212.486 229.863 211.908C229.863 211.319 229.67 210.882 229.285 210.599C228.899 210.316 228.355 210.174 227.653 210.174H223.318V207.828H227.67C229.154 207.828 230.327 208.162 231.189 208.831C232.061 209.5 232.498 210.508 232.498 211.857C232.498 212.446 232.356 212.968 232.073 213.421C231.789 213.874 231.347 214.231 230.747 214.492C231.563 214.775 232.169 215.195 232.566 215.75C232.962 216.294 233.161 216.951 233.161 217.722C233.161 219.093 232.73 220.113 231.869 220.782C231.007 221.462 229.829 221.802 228.333 221.802H223.301ZM222.094 221.802V207.828H224.763V221.802H222.094Z" fill="black"/>
</g>
<g filter="url(#filter24_d_87_1007)">
<rect x="70" y="130" width="50" height="50" rx="6" fill="#EBEBEB"/>
<path d="M83.0394 164.544V144.816H86.8074V164.544H83.0394ZM85.1034 156.288V152.976H94.7754V156.288H85.1034ZM85.1034 148.128V144.816H95.7114V148.128H85.1034ZM102.48 164.544V149.784L98.8805 152.544L96.7925 149.76L103.201 144.816H106.249V164.544H102.48Z" fill="black"/>
</g>
<g filter="url(#filter25_d_87_1007)">
<rect x="190" y="130" width="50" height="50" rx="6" fill="#EBEBEB"/>
<path d="M201.043 164.544V144.816H204.811V164.544H201.043ZM203.107 156.288V152.976H212.779V156.288H203.107ZM203.107 148.128V144.816H213.715V148.128H203.107ZM218.708 158.568C219.06 159.464 219.564 160.184 220.22 160.728C220.876 161.272 221.756 161.544 222.86 161.544C223.628 161.544 224.284 161.432 224.828 161.208C225.388 160.968 225.812 160.648 226.1 160.248C226.388 159.832 226.532 159.368 226.532 158.856C226.532 158.312 226.38 157.824 226.076 157.392C225.788 156.96 225.34 156.616 224.732 156.36C224.124 156.104 223.38 155.976 222.5 155.976H219.86V152.832H222.5C223.668 152.832 224.548 152.6 225.14 152.136C225.748 151.656 226.052 151.024 226.052 150.24C226.052 149.472 225.756 148.88 225.164 148.464C224.588 148.032 223.796 147.816 222.788 147.816C221.108 147.816 219.932 148.672 219.26 150.384L215.948 149.136C216.476 147.712 217.308 146.576 218.444 145.728C219.58 144.88 221.028 144.456 222.788 144.456C224.116 144.456 225.3 144.672 226.34 145.104C227.396 145.536 228.22 146.168 228.812 147C229.42 147.832 229.724 148.832 229.724 150C229.724 151.104 229.46 152.008 228.932 152.712C228.42 153.4 227.732 153.96 226.868 154.392C227.844 154.776 228.644 155.368 229.268 156.168C229.892 156.952 230.204 157.912 230.204 159.048C230.204 160.232 229.892 161.264 229.268 162.144C228.644 163.024 227.772 163.704 226.652 164.184C225.548 164.664 224.284 164.904 222.86 164.904C220.924 164.904 219.332 164.44 218.084 163.512C216.852 162.6 215.956 161.36 215.396 159.792L218.708 158.568Z" fill="black"/>
</g>
<g filter="url(#filter26_d_87_1007)">
<rect x="250" y="190" width="50" height="50" rx="6" fill="#EBEBEB"/>
<path d="M258.818 217.246C259.158 217.994 259.634 218.583 260.246 219.014C260.869 219.433 261.595 219.643 262.422 219.643C263.261 219.643 263.901 219.501 264.343 219.218C264.796 218.935 265.023 218.532 265.023 218.011C265.023 217.546 264.887 217.178 264.615 216.906C264.354 216.634 263.907 216.413 263.272 216.243L261.249 215.699C260.127 215.404 259.198 214.945 258.461 214.322C257.736 213.687 257.373 212.798 257.373 211.653C257.373 210.826 257.588 210.106 258.019 209.494C258.45 208.871 259.039 208.395 259.787 208.066C260.535 207.737 261.374 207.573 262.303 207.573C263.572 207.573 264.672 207.896 265.601 208.542C266.53 209.177 267.199 209.976 267.607 210.939L265.397 212.061C265.08 211.449 264.66 210.95 264.139 210.565C263.618 210.18 263.006 209.987 262.303 209.987C261.555 209.987 260.983 210.134 260.586 210.429C260.201 210.724 260.008 211.132 260.008 211.653C260.008 212.118 260.161 212.475 260.467 212.724C260.784 212.973 261.249 213.177 261.861 213.336L263.799 213.846C264.91 214.141 265.828 214.617 266.553 215.274C267.29 215.931 267.658 216.844 267.658 218.011C267.658 218.838 267.426 219.558 266.961 220.17C266.508 220.782 265.884 221.247 265.091 221.564C264.298 221.893 263.408 222.057 262.422 222.057C261.017 222.057 259.81 221.734 258.801 221.088C257.792 220.442 257.05 219.535 256.574 218.368L258.818 217.246ZM269.441 221.802V207.828H272.11V221.802H269.441ZM270.818 216.566V214.22H275.136C275.873 214.22 276.434 214.044 276.819 213.693C277.216 213.342 277.414 212.843 277.414 212.197C277.414 211.551 277.216 211.052 276.819 210.701C276.434 210.35 275.873 210.174 275.136 210.174H270.818V207.828H275.272C276.712 207.828 277.873 208.202 278.757 208.95C279.641 209.687 280.083 210.769 280.083 212.197C280.083 213.636 279.641 214.724 278.757 215.461C277.873 216.198 276.712 216.566 275.272 216.566H270.818ZM287.337 222.057C286.238 222.057 285.224 221.813 284.294 221.326C283.376 220.85 282.64 220.159 282.084 219.252C281.54 218.334 281.268 217.252 281.268 216.005V213.625C281.268 212.39 281.54 211.313 282.084 210.395C282.64 209.477 283.376 208.78 284.294 208.304C285.224 207.817 286.238 207.573 287.337 207.573C288.833 207.573 290.091 207.987 291.111 208.814C292.143 209.63 292.828 210.763 293.168 212.214L290.635 212.945C290.397 211.982 290.012 211.262 289.479 210.786C288.947 210.299 288.233 210.055 287.337 210.055C286.714 210.055 286.142 210.197 285.62 210.48C285.11 210.752 284.702 211.166 284.396 211.721C284.09 212.276 283.937 212.945 283.937 213.727V215.903C283.937 216.685 284.09 217.354 284.396 217.909C284.702 218.464 285.11 218.884 285.62 219.167C286.142 219.439 286.714 219.575 287.337 219.575C288.233 219.575 288.947 219.337 289.479 218.861C290.012 218.374 290.397 217.648 290.635 216.685L293.168 217.416C292.828 218.867 292.143 220 291.111 220.816C290.091 221.643 288.833 222.057 287.337 222.057Z" fill="black"/>
</g>
<path d="M313.198 39.6796L327.172 44.9156L327.172 47.4996L313.198 42.2466L313.198 39.6796ZM313.198 33.3726L327.172 33.3726L327.172 35.9906L313.198 35.9906L313.198 33.3726ZM313.198 39.5946L327.172 34.3416L327.172 36.9256L313.198 42.1616L313.198 39.5946ZM313.198 45.8506L327.172 45.8506L327.172 48.4686L313.198 48.4686L313.198 45.8506ZM312.943 56.5151C312.943 55.4157 313.187 54.4014 313.674 53.4721C314.15 52.5427 314.841 51.8004 315.748 51.2451C316.666 50.7011 317.748 50.4291 318.995 50.4291L321.375 50.4291C322.61 50.4291 323.687 50.7011 324.605 51.2451C325.523 51.8004 326.22 52.5427 326.696 53.4721C327.183 54.4014 327.427 55.4157 327.427 56.5151C327.427 57.6144 327.183 58.6287 326.696 59.5581C326.22 60.4874 325.523 61.2241 324.605 61.7681C323.687 62.3234 322.61 62.6011 321.375 62.6011L318.995 62.6011C317.748 62.6011 316.666 62.3234 315.748 61.7681C314.841 61.2241 314.15 60.4874 313.674 59.5581C313.187 58.6287 312.943 57.6144 312.943 56.5151ZM315.425 56.5151C315.425 57.1384 315.561 57.7107 315.833 58.2321C316.116 58.7534 316.536 59.1671 317.091 59.4731C317.646 59.7791 318.315 59.9321 319.097 59.9321L321.273 59.9321C322.055 59.9321 322.718 59.7734 323.262 59.4561C323.817 59.1501 324.237 58.7364 324.52 58.2151C324.803 57.7051 324.945 57.1384 324.945 56.5151C324.945 55.8917 324.803 55.3194 324.52 54.7981C324.237 54.2881 323.817 53.8744 323.262 53.5571C322.718 53.2511 322.055 53.0981 321.273 53.0981L319.097 53.0981C318.315 53.0981 317.646 53.2511 317.091 53.5571C316.536 53.8744 316.116 54.2881 315.833 54.7981C315.561 55.3194 315.425 55.8917 315.425 56.5151ZM317.431 66.4714C316.796 66.7207 316.286 67.0777 315.901 67.5424C315.516 68.007 315.323 68.6304 315.323 69.4124C315.323 69.9564 315.402 70.421 315.561 70.8064C315.731 71.203 315.958 71.5034 316.241 71.7074C316.536 71.9114 316.864 72.0134 317.227 72.0134C317.612 72.0134 317.958 71.9057 318.264 71.6904C318.57 71.4864 318.814 71.169 318.995 70.7384C319.176 70.3077 319.267 69.7807 319.267 69.1574L319.267 67.2874L321.494 67.2874L321.494 69.1574C321.494 69.9847 321.658 70.608 321.987 71.0274C322.327 71.458 322.775 71.6734 323.33 71.6734C323.874 71.6734 324.293 71.4637 324.588 71.0444C324.894 70.6364 325.047 70.0754 325.047 69.3614C325.047 68.1714 324.441 67.3384 323.228 66.8624L324.112 64.5164C325.121 64.8904 325.925 65.4797 326.526 66.2844C327.127 67.089 327.427 68.1147 327.427 69.3614C327.427 70.302 327.274 71.1407 326.968 71.8774C326.662 72.6254 326.214 73.209 325.625 73.6284C325.036 74.059 324.327 74.2744 323.5 74.2744C322.718 74.2744 322.078 74.0874 321.579 73.7134C321.092 73.3507 320.695 72.8634 320.389 72.2514C320.117 72.9427 319.698 73.5094 319.131 73.9514C318.576 74.3934 317.896 74.6144 317.091 74.6144C316.252 74.6144 315.521 74.3934 314.898 73.9514C314.275 73.5094 313.793 72.8917 313.453 72.0984C313.113 71.3164 312.943 70.421 312.943 69.4124C312.943 68.041 313.272 66.9134 313.929 66.0294C314.575 65.1567 315.453 64.522 316.564 64.1254L317.431 66.4714ZM314.592 78.5019C314.592 78.0599 314.745 77.6802 315.051 77.3629C315.368 77.0569 315.748 76.9039 316.19 76.9039C316.632 76.9039 317.006 77.0569 317.312 77.3629C317.629 77.6802 317.788 78.0599 317.788 78.5019C317.788 78.9439 317.629 79.3179 317.312 79.6239C317.006 79.9412 316.632 80.0999 316.19 80.0999C315.748 80.0999 315.368 79.9412 315.051 79.6239C314.745 79.3179 314.592 78.9439 314.592 78.5019ZM322.565 78.5019C322.565 78.0599 322.718 77.6802 323.024 77.3629C323.341 77.0569 323.721 76.9039 324.163 76.9039C324.605 76.9039 324.979 77.0569 325.285 77.3629C325.602 77.6802 325.761 78.0599 325.761 78.5019C325.761 78.9439 325.602 79.3179 325.285 79.6239C324.979 79.9412 324.605 80.0999 324.163 80.0999C323.721 80.0999 323.341 79.9412 323.024 79.6239C322.718 79.3179 322.565 78.9439 322.565 78.5019ZM313.198 86.813L327.172 86.813L327.172 89.482L313.198 89.482L313.198 86.813ZM319.046 88.275L321.392 88.275L321.392 95.126L319.046 95.126L319.046 88.275ZM324.826 88.275L327.172 88.275L327.172 95.789L324.826 95.789L324.826 88.275ZM317.431 99.4868C316.672 99.4868 316.133 99.6681 315.816 100.031C315.51 100.405 315.357 100.886 315.357 101.476C315.357 101.827 315.431 102.15 315.578 102.445C315.725 102.751 315.935 102.994 316.207 103.176C316.49 103.368 316.825 103.465 317.21 103.465L315.476 104.06C315.011 103.935 314.586 103.72 314.201 103.414C313.816 103.108 313.51 102.722 313.283 102.258C313.056 101.793 312.943 101.277 312.943 100.711C312.943 100.019 313.124 99.3735 313.487 98.7728C313.838 98.1835 314.343 97.7075 315 97.3448C315.669 96.9935 316.445 96.8178 317.329 96.8178L323.517 96.8178L323.517 99.4868L317.431 99.4868ZM323.517 103.465L323.517 106.134L313.198 106.134L313.198 103.635L315.17 103.465L323.517 103.465ZM319.284 115.158C320.043 115.158 320.576 114.971 320.882 114.597C321.199 114.235 321.358 113.759 321.358 113.169C321.358 112.818 321.284 112.489 321.137 112.183C320.99 111.889 320.774 111.645 320.491 111.452C320.219 111.271 319.89 111.18 319.505 111.18L321.239 110.585C321.704 110.71 322.129 110.925 322.514 111.231C322.899 111.537 323.205 111.923 323.432 112.387C323.659 112.863 323.772 113.385 323.772 113.951C323.772 114.643 323.591 115.283 323.228 115.872C322.877 116.462 322.367 116.932 321.698 117.283C321.041 117.646 320.27 117.827 319.386 117.827L313.198 117.827L313.198 115.158L319.284 115.158ZM313.198 111.18L313.198 108.511L323.517 108.511L323.517 111.01L321.545 111.18L313.198 111.18ZM312.943 124.387C312.943 123.491 313.13 122.675 313.504 121.939C313.867 121.202 314.405 120.613 315.119 120.171C315.844 119.74 316.723 119.525 317.754 119.525L318.961 119.525C319.992 119.525 320.865 119.74 321.579 120.171C322.304 120.613 322.848 121.202 323.211 121.939C323.585 122.675 323.772 123.491 323.772 124.387C323.772 125.452 323.5 126.398 322.956 127.226C322.412 128.053 321.636 128.625 320.627 128.943L319.726 126.427C320.27 126.257 320.672 125.996 320.933 125.645C321.205 125.293 321.341 124.874 321.341 124.387C321.341 123.99 321.25 123.622 321.069 123.282C320.899 122.953 320.627 122.687 320.253 122.483C319.89 122.29 319.437 122.194 318.893 122.194L317.822 122.194C317.278 122.194 316.819 122.29 316.445 122.483C316.082 122.687 315.81 122.953 315.629 123.282C315.459 123.622 315.374 123.99 315.374 124.387C315.374 124.874 315.504 125.293 315.765 125.645C316.037 125.996 316.445 126.257 316.989 126.427L316.088 128.943C315.079 128.625 314.303 128.053 313.759 127.226C313.215 126.398 312.943 125.452 312.943 124.387ZM312.943 134.585C312.943 133.577 313.204 132.783 313.725 132.205C314.246 131.639 314.994 131.355 315.969 131.355L326.152 131.355L326.152 134.024L316.394 134.024C316.02 134.024 315.754 134.104 315.595 134.262C315.448 134.421 315.374 134.665 315.374 134.993C315.374 135.243 315.397 135.469 315.442 135.673C315.487 135.877 315.55 136.098 315.629 136.336L313.402 136.897C313.255 136.591 313.141 136.229 313.062 135.809C312.983 135.39 312.943 134.982 312.943 134.585ZM321.086 129.791L323.517 129.791L323.517 136.404L321.086 136.404L321.086 129.791ZM313.198 138.514L323.517 138.514L323.517 141.183L313.198 141.183L313.198 138.514ZM325.03 139.84C325.03 139.421 325.172 139.064 325.455 138.769C325.75 138.486 326.107 138.344 326.526 138.344C326.945 138.344 327.297 138.486 327.58 138.769C327.875 139.064 328.022 139.421 328.022 139.84C328.022 140.26 327.875 140.611 327.58 140.894C327.297 141.189 326.945 141.336 326.526 141.336C326.107 141.336 325.75 141.189 325.455 140.894C325.172 140.611 325.03 140.26 325.03 139.84ZM312.943 147.911C312.943 147.016 313.13 146.2 313.504 145.463C313.867 144.727 314.411 144.137 315.136 143.695C315.861 143.265 316.74 143.049 317.771 143.049L318.961 143.049C319.992 143.049 320.865 143.265 321.579 143.695C322.304 144.137 322.848 144.727 323.211 145.463C323.585 146.2 323.772 147.016 323.772 147.911C323.772 148.807 323.585 149.623 323.211 150.359C322.848 151.107 322.304 151.697 321.579 152.127C320.865 152.569 319.992 152.79 318.961 152.79L317.771 152.79C316.74 152.79 315.861 152.569 315.136 152.127C314.411 151.697 313.867 151.107 313.504 150.359C313.13 149.623 312.943 148.807 312.943 147.911ZM315.374 147.911C315.374 148.319 315.459 148.688 315.629 149.016C315.81 149.356 316.082 149.623 316.445 149.815C316.819 150.019 317.278 150.121 317.822 150.121L318.893 150.121C319.437 150.121 319.89 150.019 320.253 149.815C320.627 149.623 320.899 149.356 321.069 149.016C321.25 148.688 321.341 148.319 321.341 147.911C321.341 147.515 321.25 147.146 321.069 146.806C320.899 146.478 320.627 146.211 320.253 146.007C319.89 145.815 319.437 145.718 318.893 145.718L317.822 145.718C317.278 145.718 316.819 145.815 316.445 146.007C316.082 146.211 315.81 146.478 315.629 146.806C315.459 147.146 315.374 147.515 315.374 147.911ZM319.284 161.394C320.043 161.394 320.576 161.207 320.882 160.833C321.199 160.47 321.358 159.994 321.358 159.405C321.358 159.053 321.284 158.725 321.137 158.419C320.99 158.124 320.774 157.88 320.491 157.688C320.219 157.506 319.89 157.416 319.505 157.416L321.239 156.821C321.704 156.945 322.129 157.161 322.514 157.467C322.899 157.773 323.205 158.158 323.432 158.623C323.659 159.099 323.772 159.62 323.772 160.187C323.772 160.878 323.591 161.518 323.228 162.108C322.877 162.697 322.367 163.167 321.698 163.519C321.041 163.881 320.27 164.063 319.386 164.063L313.198 164.063L313.198 161.394L319.284 161.394ZM313.198 157.416L313.198 154.747L323.517 154.747L323.517 157.246L321.545 157.416L313.198 157.416ZM313.198 170.435L327.172 170.435L327.172 173.104L313.198 173.104L313.198 170.435ZM313.198 171.897L315.544 171.897L315.544 179.241L313.198 179.241L313.198 171.897ZM313.198 186.949L315.017 186.779L319.675 186.779C320.162 186.779 320.559 186.62 320.865 186.303C321.182 185.986 321.341 185.521 321.341 184.909C321.341 184.478 321.245 184.104 321.052 183.787C320.871 183.47 320.599 183.215 320.236 183.022L321.239 180.642C321.987 181.061 322.593 181.668 323.058 182.461C323.534 183.254 323.772 184.133 323.772 185.096C323.772 185.912 323.613 186.643 323.296 187.289C322.979 187.946 322.514 188.462 321.902 188.836C321.301 189.221 320.587 189.414 319.76 189.414L313.198 189.414L313.198 186.949ZM312.943 183.498C312.943 182.897 313.09 182.348 313.385 181.849C313.668 181.362 314.065 180.976 314.575 180.693C315.085 180.41 315.669 180.268 316.326 180.268C317.267 180.268 318.032 180.591 318.621 181.237C319.222 181.894 319.522 182.824 319.522 184.025L319.522 187.306L317.261 187.306L317.261 184.076C317.261 183.725 317.176 183.441 317.006 183.226C316.836 183.011 316.604 182.903 316.309 182.903C316.026 182.903 315.799 183.011 315.629 183.226C315.47 183.441 315.391 183.725 315.391 184.076L315.391 184.722C315.391 185.085 315.459 185.425 315.595 185.742C315.731 186.071 315.929 186.331 316.19 186.524C316.462 186.717 316.785 186.813 317.159 186.813L315.629 187.255C315.074 187.153 314.598 186.96 314.201 186.677C313.793 186.405 313.481 186.048 313.266 185.606C313.051 185.175 312.943 184.682 312.943 184.127L312.943 183.498ZM323.517 190.184L323.517 192.972L316.7 195.25L323.517 197.528L323.517 200.316L312.909 196.389C311.923 196.026 311.203 195.59 310.75 195.08C310.285 194.57 310.053 193.963 310.053 193.261C310.053 192.252 310.189 191.374 310.461 190.626L312.671 191.221C312.592 191.47 312.529 191.719 312.484 191.969C312.439 192.218 312.416 192.473 312.416 192.734C312.416 192.994 312.49 193.21 312.637 193.38C312.773 193.561 313.005 193.691 313.334 193.771L313.674 193.856L323.517 190.184ZM312.943 205.517C312.943 204.621 313.136 203.811 313.521 203.086C313.895 202.372 314.45 201.799 315.187 201.369C315.935 200.949 316.842 200.74 317.907 200.74L318.825 200.74C319.879 200.74 320.78 200.949 321.528 201.369C322.276 201.799 322.837 202.372 323.211 203.086C323.585 203.811 323.772 204.621 323.772 205.517C323.772 206.412 323.585 207.222 323.211 207.948C322.837 208.673 322.276 209.245 321.528 209.665C320.78 210.095 319.873 210.311 318.808 210.311L317.38 210.311L317.38 201.998L319.556 202.015L319.556 207.693C319.885 207.693 320.191 207.591 320.474 207.387C320.769 207.194 321.001 206.928 321.171 206.588C321.341 206.259 321.426 205.902 321.426 205.517C321.426 205.109 321.33 204.735 321.137 204.395C320.944 204.066 320.65 203.805 320.253 203.613C319.856 203.42 319.363 203.324 318.774 203.324L317.941 203.324C317.352 203.324 316.859 203.42 316.462 203.613C316.065 203.805 315.771 204.066 315.578 204.395C315.385 204.735 315.289 205.109 315.289 205.517C315.289 206.038 315.397 206.491 315.612 206.877C315.839 207.262 316.162 207.54 316.581 207.71L315.867 210.141C314.938 209.857 314.218 209.302 313.708 208.475C313.198 207.647 312.943 206.661 312.943 205.517ZM321.375 214.447C321.885 214.628 322.316 214.849 322.667 215.11C323.018 215.371 323.29 215.682 323.483 216.045C323.676 216.419 323.772 216.85 323.772 217.337C323.772 217.564 323.749 217.796 323.704 218.034C323.659 218.283 323.602 218.487 323.534 218.646L321.137 218.017C321.273 217.643 321.341 217.252 321.341 216.844C321.341 216.538 321.284 216.238 321.171 215.943C321.058 215.66 320.865 215.422 320.593 215.229C320.321 215.036 319.958 214.94 319.505 214.94L321.375 214.447ZM313.198 212.271L323.517 212.271L323.517 214.77L321.375 214.94L313.198 214.94L313.198 212.271Z" fill="white"/>
<g filter="url(#filter27_d_87_1007)">
<rect x="460" y="130" width="50" height="50" rx="6" fill="#EBEBEB"/>
<path d="M473.287 152.696V150.488H478.007C478.669 150.488 479.181 150.349 479.543 150.072C479.906 149.795 480.087 149.373 480.087 148.808C480.087 148.243 479.901 147.816 479.527 147.528C479.165 147.24 478.658 147.096 478.007 147.096H473.287V145.048H477.383C478.034 145.048 478.541 144.909 478.903 144.632C479.277 144.344 479.463 143.928 479.463 143.384C479.463 142.829 479.282 142.419 478.919 142.152C478.557 141.885 478.045 141.752 477.383 141.752H473.303V139.544H477.399C478.797 139.544 479.901 139.859 480.711 140.488C481.533 141.117 481.943 142.067 481.943 143.336C481.943 143.891 481.81 144.381 481.543 144.808C481.277 145.235 480.861 145.571 480.295 145.816C481.063 146.083 481.634 146.477 482.007 147C482.381 147.512 482.567 148.131 482.567 148.856C482.567 150.147 482.162 151.107 481.351 151.736C480.541 152.376 479.431 152.696 478.023 152.696H473.287ZM472.151 152.696V139.544H474.663V152.696H472.151ZM484.323 152.696V139.544H486.835V152.696H484.323ZM485.619 147.48V145.272H489.667C490.35 145.272 490.883 145.117 491.267 144.808C491.651 144.499 491.843 144.061 491.843 143.496C491.843 142.941 491.651 142.515 491.267 142.216C490.894 141.907 490.36 141.752 489.667 141.752H485.619V139.544H489.827C491.182 139.544 492.275 139.88 493.107 140.552C493.939 141.224 494.355 142.205 494.355 143.496C494.355 144.808 493.939 145.8 493.107 146.472C492.275 147.144 491.182 147.48 489.827 147.48H485.619ZM491.955 152.696L488.835 145.752H491.315L494.739 152.696H491.955ZM496.339 152.696V139.544H498.851V152.696H496.339ZM482.7 162.952H488.3V165.256H482.7V162.952Z" fill="black"/>
</g>
<g filter="url(#filter28_d_87_1007)">
<rect x="340" y="130" width="50" height="50" rx="6" fill="#EBEBEB"/>
<path d="M353.611 152.696L357.931 139.544H360.571L356.203 152.696H353.611ZM352.827 152.696L348.443 139.544H351.083L355.403 152.696H352.827ZM366.62 152.936C365.585 152.936 364.631 152.707 363.756 152.248C362.881 151.8 362.183 151.149 361.66 150.296C361.148 149.432 360.892 148.413 360.892 147.24V145C360.892 143.837 361.148 142.824 361.66 141.96C362.183 141.096 362.881 140.44 363.756 139.992C364.631 139.533 365.585 139.304 366.62 139.304C367.655 139.304 368.609 139.533 369.484 139.992C370.359 140.44 371.052 141.096 371.564 141.96C372.087 142.824 372.348 143.837 372.348 145V147.24C372.348 148.413 372.087 149.432 371.564 150.296C371.052 151.149 370.359 151.8 369.484 152.248C368.609 152.707 367.655 152.936 366.62 152.936ZM366.62 150.6C367.207 150.6 367.745 150.472 368.236 150.216C368.727 149.949 369.116 149.555 369.404 149.032C369.692 148.509 369.836 147.88 369.836 147.144V145.096C369.836 144.36 369.687 143.736 369.388 143.224C369.1 142.701 368.711 142.307 368.22 142.04C367.74 141.773 367.207 141.64 366.62 141.64C366.033 141.64 365.495 141.773 365.004 142.04C364.524 142.307 364.135 142.701 363.836 143.224C363.548 143.736 363.404 144.36 363.404 145.096V147.144C363.404 147.88 363.548 148.509 363.836 149.032C364.135 149.555 364.524 149.949 365.004 150.216C365.495 150.472 366.033 150.6 366.62 150.6ZM374.183 152.696V139.544H376.695V152.696H374.183ZM375.559 152.696V150.488H382.47V152.696H375.559ZM362.7 162.952H368.3V165.256H362.7V162.952Z" fill="black"/>
</g>
<g filter="url(#filter29_d_87_1007)">
<rect x="400" y="130" width="50" height="50" rx="6" fill="#EBEBEB"/>
<path d="M413.611 152.696L417.931 139.544H420.571L416.203 152.696H413.611ZM412.827 152.696L408.443 139.544H411.083L415.403 152.696H412.827ZM426.62 152.936C425.585 152.936 424.631 152.707 423.756 152.248C422.881 151.8 422.183 151.149 421.66 150.296C421.148 149.432 420.892 148.413 420.892 147.24V145C420.892 143.837 421.148 142.824 421.66 141.96C422.183 141.096 422.881 140.44 423.756 139.992C424.631 139.533 425.585 139.304 426.62 139.304C427.655 139.304 428.609 139.533 429.484 139.992C430.359 140.44 431.052 141.096 431.564 141.96C432.087 142.824 432.348 143.837 432.348 145V147.24C432.348 148.413 432.087 149.432 431.564 150.296C431.052 151.149 430.359 151.8 429.484 152.248C428.609 152.707 427.655 152.936 426.62 152.936ZM426.62 150.6C427.207 150.6 427.745 150.472 428.236 150.216C428.727 149.949 429.116 149.555 429.404 149.032C429.692 148.509 429.836 147.88 429.836 147.144V145.096C429.836 144.36 429.687 143.736 429.388 143.224C429.1 142.701 428.711 142.307 428.22 142.04C427.74 141.773 427.207 141.64 426.62 141.64C426.033 141.64 425.495 141.773 425.004 142.04C424.524 142.307 424.135 142.701 423.836 143.224C423.548 143.736 423.404 144.36 423.404 145.096V147.144C423.404 147.88 423.548 148.509 423.836 149.032C424.135 149.555 424.524 149.949 425.004 150.216C425.495 150.472 426.033 150.6 426.62 150.6ZM434.183 152.696V139.544H436.695V152.696H434.183ZM435.559 152.696V150.488H442.47V152.696H435.559ZM424.155 168.744V159.464H426.843V168.744H424.155ZM420.859 165.256V162.952H430.139V165.256H420.859Z" fill="black"/>
</g>
<g filter="url(#filter30_d_87_1007)">
<rect x="520" y="130" width="50" height="50" rx="6" fill="#EBEBEB"/>
<path d="M533.287 152.696V150.488H538.007C538.669 150.488 539.181 150.349 539.543 150.072C539.906 149.795 540.087 149.373 540.087 148.808C540.087 148.243 539.901 147.816 539.527 147.528C539.165 147.24 538.658 147.096 538.007 147.096H533.287V145.048H537.383C538.034 145.048 538.541 144.909 538.903 144.632C539.277 144.344 539.463 143.928 539.463 143.384C539.463 142.829 539.282 142.419 538.919 142.152C538.557 141.885 538.045 141.752 537.383 141.752H533.303V139.544H537.399C538.797 139.544 539.901 139.859 540.711 140.488C541.533 141.117 541.943 142.067 541.943 143.336C541.943 143.891 541.81 144.381 541.543 144.808C541.277 145.235 540.861 145.571 540.295 145.816C541.063 146.083 541.634 146.477 542.007 147C542.381 147.512 542.567 148.131 542.567 148.856C542.567 150.147 542.162 151.107 541.351 151.736C540.541 152.376 539.431 152.696 538.023 152.696H533.287ZM532.151 152.696V139.544H534.663V152.696H532.151ZM544.323 152.696V139.544H546.835V152.696H544.323ZM545.619 147.48V145.272H549.667C550.35 145.272 550.883 145.117 551.267 144.808C551.651 144.499 551.843 144.061 551.843 143.496C551.843 142.941 551.651 142.515 551.267 142.216C550.894 141.907 550.36 141.752 549.667 141.752H545.619V139.544H549.827C551.182 139.544 552.275 139.88 553.107 140.552C553.939 141.224 554.355 142.205 554.355 143.496C554.355 144.808 553.939 145.8 553.107 146.472C552.275 147.144 551.182 147.48 549.827 147.48H545.619ZM551.955 152.696L548.835 145.752H551.315L554.739 152.696H551.955ZM556.339 152.696V139.544H558.851V152.696H556.339ZM544.155 168.744V159.464H546.843V168.744H544.155ZM540.859 165.256V162.952H550.139V165.256H540.859Z" fill="black"/>
</g>
<g filter="url(#filter31_d_87_1007)">
<rect x="460" y="70" width="50" height="50" rx="6" fill="#EBEBEB"/>
<path d="M472.858 92.272V82.408H474.742V92.272H472.858ZM473.83 88.576V86.92H476.878C477.398 86.92 477.794 86.796 478.066 86.548C478.346 86.3 478.486 85.948 478.486 85.492C478.486 85.036 478.346 84.684 478.066 84.436C477.794 84.188 477.398 84.064 476.878 84.064H473.83V82.408H476.974C477.99 82.408 478.81 82.672 479.434 83.2C480.058 83.72 480.37 84.484 480.37 85.492C480.37 86.508 480.058 87.276 479.434 87.796C478.81 88.316 477.99 88.576 476.974 88.576H473.83ZM481.506 92.272V82.408H483.39V92.272H481.506ZM489.425 92.272L489.305 90.988V87.7C489.305 87.356 489.193 87.076 488.969 86.86C488.745 86.636 488.417 86.524 487.985 86.524C487.681 86.524 487.417 86.592 487.193 86.728C486.969 86.856 486.789 87.048 486.653 87.304L484.973 86.596C485.269 86.068 485.697 85.64 486.257 85.312C486.817 84.976 487.437 84.808 488.117 84.808C488.693 84.808 489.209 84.92 489.665 85.144C490.129 85.368 490.493 85.696 490.757 86.128C491.029 86.552 491.165 87.056 491.165 87.64V92.272H489.425ZM486.989 92.452C486.565 92.452 486.177 92.348 485.825 92.14C485.481 91.94 485.209 91.66 485.009 91.3C484.809 90.94 484.709 90.528 484.709 90.064C484.709 89.4 484.937 88.86 485.393 88.444C485.857 88.02 486.513 87.808 487.361 87.808H489.677V89.404H487.397C487.149 89.404 486.949 89.464 486.797 89.584C486.645 89.704 486.569 89.868 486.569 90.076C486.569 90.276 486.645 90.436 486.797 90.556C486.949 90.668 487.149 90.724 487.397 90.724H487.853C488.109 90.724 488.349 90.676 488.573 90.58C488.805 90.484 488.989 90.344 489.125 90.16C489.261 89.968 489.329 89.74 489.329 89.476L489.641 90.556C489.569 90.948 489.433 91.284 489.233 91.564C489.041 91.852 488.789 92.072 488.477 92.224C488.173 92.376 487.825 92.452 487.433 92.452H486.989ZM491.708 84.988H493.676L495.284 89.8L496.892 84.988H498.86L496.088 92.476C495.832 93.172 495.524 93.68 495.164 94C494.804 94.328 494.376 94.492 493.88 94.492C493.168 94.492 492.548 94.396 492.02 94.204L492.44 92.644C492.616 92.7 492.792 92.744 492.968 92.776C493.144 92.808 493.324 92.824 493.508 92.824C493.692 92.824 493.844 92.772 493.964 92.668C494.092 92.572 494.184 92.408 494.24 92.176L494.3 91.936L491.708 84.988ZM466.863 105.272V95.408H468.747V105.272H466.863ZM467.835 101.576V99.92H470.883C471.403 99.92 471.799 99.796 472.071 99.548C472.351 99.3 472.491 98.948 472.491 98.492C472.491 98.036 472.351 97.684 472.071 97.436C471.799 97.188 471.403 97.064 470.883 97.064H467.835V95.408H470.979C471.995 95.408 472.815 95.672 473.439 96.2C474.063 96.72 474.375 97.484 474.375 98.492C474.375 99.508 474.063 100.276 473.439 100.796C472.815 101.316 471.995 101.576 470.979 101.576H467.835ZM479.505 105.272L479.385 103.988V100.7C479.385 100.356 479.273 100.076 479.049 99.86C478.825 99.636 478.497 99.524 478.065 99.524C477.761 99.524 477.497 99.592 477.273 99.728C477.049 99.856 476.869 100.048 476.733 100.304L475.053 99.596C475.349 99.068 475.777 98.64 476.337 98.312C476.897 97.976 477.517 97.808 478.197 97.808C478.773 97.808 479.289 97.92 479.745 98.144C480.209 98.368 480.573 98.696 480.837 99.128C481.109 99.552 481.245 100.056 481.245 100.64V105.272H479.505ZM477.069 105.452C476.645 105.452 476.257 105.348 475.905 105.14C475.561 104.94 475.289 104.66 475.089 104.3C474.889 103.94 474.789 103.528 474.789 103.064C474.789 102.4 475.017 101.86 475.473 101.444C475.937 101.02 476.593 100.808 477.441 100.808H479.757V102.404H477.477C477.229 102.404 477.029 102.464 476.877 102.584C476.725 102.704 476.649 102.868 476.649 103.076C476.649 103.276 476.725 103.436 476.877 103.556C477.029 103.668 477.229 103.724 477.477 103.724H477.933C478.189 103.724 478.429 103.676 478.653 103.58C478.885 103.484 479.069 103.344 479.205 103.16C479.341 102.968 479.409 102.74 479.409 102.476L479.721 103.556C479.649 103.948 479.513 104.284 479.313 104.564C479.121 104.852 478.869 105.072 478.557 105.224C478.253 105.376 477.905 105.452 477.513 105.452H477.069ZM484.446 102.284C484.446 102.82 484.574 103.2 484.83 103.424C485.094 103.64 485.434 103.748 485.85 103.748C486.098 103.748 486.326 103.696 486.534 103.592C486.75 103.488 486.922 103.34 487.05 103.148C487.186 102.948 487.254 102.712 487.254 102.44L487.674 103.664C487.586 103.992 487.434 104.292 487.218 104.564C487.002 104.836 486.73 105.052 486.402 105.212C486.074 105.372 485.71 105.452 485.31 105.452C484.822 105.452 484.366 105.324 483.942 105.068C483.526 104.82 483.19 104.464 482.934 104C482.686 103.528 482.562 102.98 482.562 102.356V97.988H484.446V102.284ZM487.254 97.988H489.138V105.272H487.374L487.254 103.88V97.988ZM491.695 102.8C491.943 103.176 492.255 103.448 492.631 103.616C493.007 103.784 493.367 103.868 493.711 103.868C494.031 103.868 494.299 103.82 494.515 103.724C494.731 103.62 494.839 103.456 494.839 103.232C494.839 103.016 494.755 102.856 494.587 102.752C494.427 102.648 494.183 102.556 493.855 102.476L493.075 102.296C492.419 102.144 491.875 101.888 491.443 101.528C491.019 101.168 490.807 100.66 490.807 100.004C490.807 99.3 491.059 98.76 491.563 98.384C492.075 98 492.743 97.808 493.567 97.808C494.255 97.808 494.843 97.944 495.331 98.216C495.827 98.488 496.255 98.852 496.615 99.308L495.283 100.328C495.027 100.04 494.743 99.812 494.431 99.644C494.127 99.476 493.827 99.392 493.531 99.392C493.243 99.392 493.019 99.444 492.859 99.548C492.699 99.652 492.619 99.804 492.619 100.004C492.619 100.196 492.683 100.348 492.811 100.46C492.947 100.564 493.159 100.652 493.447 100.724L494.227 100.904C494.923 101.064 495.499 101.32 495.955 101.672C496.419 102.024 496.651 102.544 496.651 103.232C496.651 103.728 496.511 104.14 496.231 104.468C495.959 104.804 495.595 105.052 495.139 105.212C494.691 105.372 494.203 105.452 493.675 105.452C492.915 105.452 492.239 105.308 491.647 105.02C491.055 104.732 490.599 104.316 490.279 103.772L491.695 102.8ZM501.049 105.452C500.417 105.452 499.845 105.316 499.333 105.044C498.829 104.78 498.425 104.388 498.121 103.868C497.825 103.34 497.677 102.7 497.677 101.948V101.3C497.677 100.556 497.825 99.92 498.121 99.392C498.425 98.864 498.829 98.468 499.333 98.204C499.845 97.94 500.417 97.808 501.049 97.808C501.681 97.808 502.253 97.94 502.765 98.204C503.277 98.468 503.681 98.864 503.977 99.392C504.281 99.92 504.433 100.56 504.433 101.312V102.32H498.565L498.577 100.784H502.585C502.585 100.552 502.513 100.336 502.369 100.136C502.233 99.928 502.045 99.764 501.805 99.644C501.573 99.524 501.321 99.464 501.049 99.464C500.761 99.464 500.497 99.532 500.257 99.668C500.025 99.804 499.841 100.012 499.705 100.292C499.569 100.572 499.501 100.92 499.501 101.336V101.924C499.501 102.34 499.569 102.688 499.705 102.968C499.841 103.248 500.025 103.456 500.257 103.592C500.497 103.728 500.761 103.796 501.049 103.796C501.417 103.796 501.737 103.72 502.009 103.568C502.281 103.408 502.477 103.18 502.597 102.884L504.313 103.388C504.113 104.044 503.721 104.552 503.137 104.912C502.553 105.272 501.857 105.452 501.049 105.452Z" fill="black"/>
</g>
<g filter="url(#filter32_d_87_1007)">
<rect x="400" y="70" width="50" height="50" rx="6" fill="#EBEBEB"/>
<path d="M406.054 100.484V88.976H408.252V100.484H406.054ZM407.188 96.172V94.24H410.744C411.351 94.24 411.813 94.0953 412.13 93.806C412.457 93.5167 412.62 93.106 412.62 92.574C412.62 92.042 412.457 91.6313 412.13 91.342C411.813 91.0527 411.351 90.908 410.744 90.908H407.188V88.976H410.856C412.042 88.976 412.998 89.284 413.726 89.9C414.454 90.5067 414.818 91.398 414.818 92.574C414.818 93.7593 414.454 94.6553 413.726 95.262C412.998 95.8687 412.042 96.172 410.856 96.172H407.188ZM416.144 100.484V88.976H418.342V100.484H416.144ZM417.278 95.92V93.988H420.82C421.417 93.988 421.884 93.8527 422.22 93.582C422.556 93.3113 422.724 92.9287 422.724 92.434C422.724 91.9487 422.556 91.5753 422.22 91.314C421.893 91.0433 421.427 90.908 420.82 90.908H417.278V88.976H420.96C422.145 88.976 423.102 89.27 423.83 89.858C424.558 90.446 424.922 91.3047 424.922 92.434C424.922 93.582 424.558 94.45 423.83 95.038C423.102 95.626 422.145 95.92 420.96 95.92H417.278ZM422.822 100.484L420.092 94.408H422.262L425.258 100.484H422.822ZM426.658 100.484V88.976H428.856V100.484H426.658ZM427.862 100.484V98.552H434.33V100.484H427.862ZM427.862 95.528V93.596H433.924V95.528H427.862ZM427.862 90.908V88.976H434.19V90.908H427.862ZM439.625 100.484L443.405 88.976H445.715L441.893 100.484H439.625ZM438.939 100.484L435.103 88.976H437.413L441.193 100.484H438.939Z" fill="black"/>
</g>
<g filter="url(#filter33_d_87_1007)">
<rect x="520" y="70" width="50" height="50" rx="6" fill="#EBEBEB"/>
<path d="M526.027 100.484V88.976H528.155L533.349 96.704V88.976H535.519V100.484H533.391L528.197 92.756V100.484H526.027ZM537.334 100.484V88.976H539.532V100.484H537.334ZM538.538 100.484V98.552H545.006V100.484H538.538ZM538.538 95.528V93.596H544.6V95.528H538.538ZM538.538 90.908V88.976H544.866V90.908H538.538ZM545.708 100.484L549.614 94.52L545.988 88.976H548.536L550.874 92.658L553.24 88.976H555.774L552.134 94.52L556.04 100.484H553.506L550.874 96.396L548.242 100.484H545.708ZM559.972 100.484V89.858H562.17V100.484H559.972ZM556.458 90.978V88.976H565.67V90.978H556.458Z" fill="black"/>
</g>
<defs>
<filter id="filter0_d_87_1007" x="576" y="10" width="58" height="58" filterUnits="userSpaceOnUse" color-interpolation-filters="sRGB">
<feFlood flood-opacity="0" result="BackgroundImageFix"/>
<feColorMatrix in="SourceAlpha" type="matrix" values="0 0 0 0 0 0 0 0 0 0 0 0 0 0 0 0 0 0 127 0" result="hardAlpha"/>
<feOffset dy="4"/>
<feGaussianBlur stdDeviation="2"/>
<feComposite in2="hardAlpha" operator="out"/>
<feColorMatrix type="matrix" values="0 0 0 0 0 0 0 0 0 0 0 0 0 0 0 0 0 0 0.25 0"/>
<feBlend mode="normal" in2="BackgroundImageFix" result="effect1_dropShadow_87_1007"/>
<feBlend mode="normal" in="SourceGraphic" in2="effect1_dropShadow_87_1007" result="shape"/>
</filter>
<filter id="filter1_d_87_1007" x="246" y="10" width="58" height="58" filterUnits="userSpaceOnUse" color-interpolation-filters="sRGB">
<feFlood flood-opacity="0" result="BackgroundImageFix"/>
<feColorMatrix in="SourceAlpha" type="matrix" values="0 0 0 0 0 0 0 0 0 0 0 0 0 0 0 0 0 0 127 0" result="hardAlpha"/>
<feOffset dy="4"/>
<feGaussianBlur stdDeviation="2"/>
<feComposite in2="hardAlpha" operator="out"/>
<feColorMatrix type="matrix" values="0 0 0 0 0 0 0 0 0 0 0 0 0 0 0 0 0 0 0.25 0"/>
<feBlend mode="normal" in2="BackgroundImageFix" result="effect1_dropShadow_87_1007"/>
<feBlend mode="normal" in="SourceGraphic" in2="effect1_dropShadow_87_1007" result="shape"/>
</filter>
<filter id="filter2_d_87_1007" x="456" y="10" width="58" height="58" filterUnits="userSpaceOnUse" color-interpolation-filters="sRGB">
<feFlood flood-opacity="0" result="BackgroundImageFix"/>
<feColorMatrix in="SourceAlpha" type="matrix" values="0 0 0 0 0 0 0 0 0 0 0 0 0 0 0 0 0 0 127 0" result="hardAlpha"/>
<feOffset dy="4"/>
<feGaussianBlur stdDeviation="2"/>
<feComposite in2="hardAlpha" operator="out"/>
<feColorMatrix type="matrix" values="0 0 0 0 0 0 0 0 0 0 0 0 0 0 0 0 0 0 0.25 0"/>
<feBlend mode="normal" in2="BackgroundImageFix" result="effect1_dropShadow_87_1007"/>
<feBlend mode="normal" in="SourceGraphic" in2="effect1_dropShadow_87_1007" result="shape"/>
</filter>
<filter id="filter3_d_87_1007" x="126" y="10" width="58" height="58" filterUnits="userSpaceOnUse" color-interpolation-filters="sRGB">
<feFlood flood-opacity="0" result="BackgroundImageFix"/>
<feColorMatrix in="SourceAlpha" type="matrix" values="0 0 0 0 0 0 0 0 0 0 0 0 0 0 0 0 0 0 127 0" result="hardAlpha"/>
<feOffset dy="4"/>
<feGaussianBlur stdDeviation="2"/>
<feComposite in2="hardAlpha" operator="out"/>
<feColorMatrix type="matrix" values="0 0 0 0 0 0 0 0 0 0 0 0 0 0 0 0 0 0 0.25 0"/>
<feBlend mode="normal" in2="BackgroundImageFix" result="effect1_dropShadow_87_1007"/>
<feBlend mode="normal" in="SourceGraphic" in2="effect1_dropShadow_87_1007" result="shape"/>
</filter>
<filter id="filter4_d_87_1007" x="336" y="10" width="58" height="58" filterUnits="userSpaceOnUse" color-interpolation-filters="sRGB">
<feFlood flood-opacity="0" result="BackgroundImageFix"/>
<feColorMatrix in="SourceAlpha" type="matrix" values="0 0 0 0 0 0 0 0 0 0 0 0 0 0 0 0 0 0 127 0" result="hardAlpha"/>
<feOffset dy="4"/>
<feGaussianBlur stdDeviation="2"/>
<feComposite in2="hardAlpha" operator="out"/>
<feColorMatrix type="matrix" values="0 0 0 0 0 0 0 0 0 0 0 0 0 0 0 0 0 0 0.25 0"/>
<feBlend mode="normal" in2="BackgroundImageFix" result="effect1_dropShadow_87_1007"/>
<feBlend mode="normal" in="SourceGraphic" in2="effect1_dropShadow_87_1007" result="shape"/>
</filter>
<filter id="filter5_d_87_1007" x="6" y="10" width="58" height="58" filterUnits="userSpaceOnUse" color-interpolation-filters="sRGB">
<feFlood flood-opacity="0" result="BackgroundImageFix"/>
<feColorMatrix in="SourceAlpha" type="matrix" values="0 0 0 0 0 0 0 0 0 0 0 0 0 0 0 0 0 0 127 0" result="hardAlpha"/>
<feOffset dy="4"/>
<feGaussianBlur stdDeviation="2"/>
<feComposite in2="hardAlpha" operator="out"/>
<feColorMatrix type="matrix" values="0 0 0 0 0 0 0 0 0 0 0 0 0 0 0 0 0 0 0.25 0"/>
<feBlend mode="normal" in2="BackgroundImageFix" result="effect1_dropShadow_87_1007"/>
<feBlend mode="normal" in="SourceGraphic" in2="effect1_dropShadow_87_1007" result="shape"/>
</filter>
<filter id="filter6_d_87_1007" x="516" y="10" width="58" height="58" filterUnits="userSpaceOnUse" color-interpolation-filters="sRGB">
<feFlood flood-opacity="0" result="BackgroundImageFix"/>
<feColorMatrix in="SourceAlpha" type="matrix" values="0 0 0 0 0 0 0 0 0 0 0 0 0 0 0 0 0 0 127 0" result="hardAlpha"/>
<feOffset dy="4"/>
<feGaussianBlur stdDeviation="2"/>
<feComposite in2="hardAlpha" operator="out"/>
<feColorMatrix type="matrix" values="0 0 0 0 0 0 0 0 0 0 0 0 0 0 0 0 0 0 0.25 0"/>
<feBlend mode="normal" in2="BackgroundImageFix" result="effect1_dropShadow_87_1007"/>
<feBlend mode="normal" in="SourceGraphic" in2="effect1_dropShadow_87_1007" result="shape"/>
</filter>
<filter id="filter7_d_87_1007" x="186" y="10" width="58" height="58" filterUnits="userSpaceOnUse" color-interpolation-filters="sRGB">
<feFlood flood-opacity="0" result="BackgroundImageFix"/>
<feColorMatrix in="SourceAlpha" type="matrix" values="0 0 0 0 0 0 0 0 0 0 0 0 0 0 0 0 0 0 127 0" result="hardAlpha"/>
<feOffset dy="4"/>
<feGaussianBlur stdDeviation="2"/>
<feComposite in2="hardAlpha" operator="out"/>
<feColorMatrix type="matrix" values="0 0 0 0 0 0 0 0 0 0 0 0 0 0 0 0 0 0 0.25 0"/>
<feBlend mode="normal" in2="BackgroundImageFix" result="effect1_dropShadow_87_1007"/>
<feBlend mode="normal" in="SourceGraphic" in2="effect1_dropShadow_87_1007" result="shape"/>
</filter>
<filter id="filter8_d_87_1007" x="396" y="10" width="58" height="58" filterUnits="userSpaceOnUse" color-interpolation-filters="sRGB">
<feFlood flood-opacity="0" result="BackgroundImageFix"/>
<feColorMatrix in="SourceAlpha" type="matrix" values="0 0 0 0 0 0 0 0 0 0 0 0 0 0 0 0 0 0 127 0" result="hardAlpha"/>
<feOffset dy="4"/>
<feGaussianBlur stdDeviation="2"/>
<feComposite in2="hardAlpha" operator="out"/>
<feColorMatrix type="matrix" values="0 0 0 0 0 0 0 0 0 0 0 0 0 0 0 0 0 0 0.25 0"/>
<feBlend mode="normal" in2="BackgroundImageFix" result="effect1_dropShadow_87_1007"/>
<feBlend mode="normal" in="SourceGraphic" in2="effect1_dropShadow_87_1007" result="shape"/>
</filter>
<filter id="filter9_d_87_1007" x="66" y="10" width="58" height="58" filterUnits="userSpaceOnUse" color-interpolation-filters="sRGB">
<feFlood flood-opacity="0" result="BackgroundImageFix"/>
<feColorMatrix in="SourceAlpha" type="matrix" values="0 0 0 0 0 0 0 0 0 0 0 0 0 0 0 0 0 0 127 0" result="hardAlpha"/>
<feOffset dy="4"/>
<feGaussianBlur stdDeviation="2"/>
<feComposite in2="hardAlpha" operator="out"/>
<feColorMatrix type="matrix" values="0 0 0 0 0 0 0 0 0 0 0 0 0 0 0 0 0 0 0.25 0"/>
<feBlend mode="normal" in2="BackgroundImageFix" result="effect1_dropShadow_87_1007"/>
<feBlend mode="normal" in="SourceGraphic" in2="effect1_dropShadow_87_1007" result="shape"/>
</filter>
<filter id="filter10_d_87_1007" x="576" y="70" width="58" height="58" filterUnits="userSpaceOnUse" color-interpolation-filters="sRGB">
<feFlood flood-opacity="0" result="BackgroundImageFix"/>
<feColorMatrix in="SourceAlpha" type="matrix" values="0 0 0 0 0 0 0 0 0 0 0 0 0 0 0 0 0 0 127 0" result="hardAlpha"/>
<feOffset dy="4"/>
<feGaussianBlur stdDeviation="2"/>
<feComposite in2="hardAlpha" operator="out"/>
<feColorMatrix type="matrix" values="0 0 0 0 0 0 0 0 0 0 0 0 0 0 0 0 0 0 0.25 0"/>
<feBlend mode="normal" in2="BackgroundImageFix" result="effect1_dropShadow_87_1007"/>
<feBlend mode="normal" in="SourceGraphic" in2="effect1_dropShadow_87_1007" result="shape"/>
</filter>
<filter id="filter11_d_87_1007" x="246" y="70" width="58" height="58" filterUnits="userSpaceOnUse" color-interpolation-filters="sRGB">
<feFlood flood-opacity="0" result="BackgroundImageFix"/>
<feColorMatrix in="SourceAlpha" type="matrix" values="0 0 0 0 0 0 0 0 0 0 0 0 0 0 0 0 0 0 127 0" result="hardAlpha"/>
<feOffset dy="4"/>
<feGaussianBlur stdDeviation="2"/>
<feComposite in2="hardAlpha" operator="out"/>
<feColorMatrix type="matrix" values="0 0 0 0 0 0 0 0 0 0 0 0 0 0 0 0 0 0 0.25 0"/>
<feBlend mode="normal" in2="BackgroundImageFix" result="effect1_dropShadow_87_1007"/>
<feBlend mode="normal" in="SourceGraphic" in2="effect1_dropShadow_87_1007" result="shape"/>
</filter>
<filter id="filter12_d_87_1007" x="126" y="70" width="58" height="58" filterUnits="userSpaceOnUse" color-interpolation-filters="sRGB">
<feFlood flood-opacity="0" result="BackgroundImageFix"/>
<feColorMatrix in="SourceAlpha" type="matrix" values="0 0 0 0 0 0 0 0 0 0 0 0 0 0 0 0 0 0 127 0" result="hardAlpha"/>
<feOffset dy="4"/>
<feGaussianBlur stdDeviation="2"/>
<feComposite in2="hardAlpha" operator="out"/>
<feColorMatrix type="matrix" values="0 0 0 0 0 0 0 0 0 0 0 0 0 0 0 0 0 0 0.25 0"/>
<feBlend mode="normal" in2="BackgroundImageFix" result="effect1_dropShadow_87_1007"/>
<feBlend mode="normal" in="SourceGraphic" in2="effect1_dropShadow_87_1007" result="shape"/>
</filter>
<filter id="filter13_d_87_1007" x="336" y="70" width="58" height="58" filterUnits="userSpaceOnUse" color-interpolation-filters="sRGB">
<feFlood flood-opacity="0" result="BackgroundImageFix"/>
<feColorMatrix in="SourceAlpha" type="matrix" values="0 0 0 0 0 0 0 0 0 0 0 0 0 0 0 0 0 0 127 0" result="hardAlpha"/>
<feOffset dy="4"/>
<feGaussianBlur stdDeviation="2"/>
<feComposite in2="hardAlpha" operator="out"/>
<feColorMatrix type="matrix" values="0 0 0 0 0 0 0 0 0 0 0 0 0 0 0 0 0 0 0.25 0"/>
<feBlend mode="normal" in2="BackgroundImageFix" result="effect1_dropShadow_87_1007"/>
<feBlend mode="normal" in="SourceGraphic" in2="effect1_dropShadow_87_1007" result="shape"/>
</filter>
<filter id="filter14_d_87_1007" x="6" y="70" width="58" height="58" filterUnits="userSpaceOnUse" color-interpolation-filters="sRGB">
<feFlood flood-opacity="0" result="BackgroundImageFix"/>
<feColorMatrix in="SourceAlpha" type="matrix" values="0 0 0 0 0 0 0 0 0 0 0 0 0 0 0 0 0 0 127 0" result="hardAlpha"/>
<feOffset dy="4"/>
<feGaussianBlur stdDeviation="2"/>
<feComposite in2="hardAlpha" operator="out"/>
<feColorMatrix type="matrix" values="0 0 0 0 0 0 0 0 0 0 0 0 0 0 0 0 0 0 0.25 0"/>
<feBlend mode="normal" in2="BackgroundImageFix" result="effect1_dropShadow_87_1007"/>
<feBlend mode="normal" in="SourceGraphic" in2="effect1_dropShadow_87_1007" result="shape"/>
</filter>
<filter id="filter15_d_87_1007" x="186" y="70" width="58" height="58" filterUnits="userSpaceOnUse" color-interpolation-filters="sRGB">
<feFlood flood-opacity="0" result="BackgroundImageFix"/>
<feColorMatrix in="SourceAlpha" type="matrix" values="0 0 0 0 0 0 0 0 0 0 0 0 0 0 0 0 0 0 127 0" result="hardAlpha"/>
<feOffset dy="4"/>
<feGaussianBlur stdDeviation="2"/>
<feComposite in2="hardAlpha" operator="out"/>
<feColorMatrix type="matrix" values="0 0 0 0 0 0 0 0 0 0 0 0 0 0 0 0 0 0 0.25 0"/>
<feBlend mode="normal" in2="BackgroundImageFix" result="effect1_dropShadow_87_1007"/>
<feBlend mode="normal" in="SourceGraphic" in2="effect1_dropShadow_87_1007" result="shape"/>
</filter>
<filter id="filter16_d_87_1007" x="66" y="70" width="58" height="58" filterUnits="userSpaceOnUse" color-interpolation-filters="sRGB">
<feFlood flood-opacity="0" result="BackgroundImageFix"/>
<feColorMatrix in="SourceAlpha" type="matrix" values="0 0 0 0 0 0 0 0 0 0 0 0 0 0 0 0 0 0 127 0" result="hardAlpha"/>
<feOffset dy="4"/>
<feGaussianBlur stdDeviation="2"/>
<feComposite in2="hardAlpha" operator="out"/>
<feColorMatrix type="matrix" values="0 0 0 0 0 0 0 0 0 0 0 0 0 0 0 0 0 0 0.25 0"/>
<feBlend mode="normal" in2="BackgroundImageFix" result="effect1_dropShadow_87_1007"/>
<feBlend mode="normal" in="SourceGraphic" in2="effect1_dropShadow_87_1007" result="shape"/>
</filter>
<filter id="filter17_d_87_1007" x="576" y="130" width="58" height="58" filterUnits="userSpaceOnUse" color-interpolation-filters="sRGB">
<feFlood flood-opacity="0" result="BackgroundImageFix"/>
<feColorMatrix in="SourceAlpha" type="matrix" values="0 0 0 0 0 0 0 0 0 0 0 0 0 0 0 0 0 0 127 0" result="hardAlpha"/>
<feOffset dy="4"/>
<feGaussianBlur stdDeviation="2"/>
<feComposite in2="hardAlpha" operator="out"/>
<feColorMatrix type="matrix" values="0 0 0 0 0 0 0 0 0 0 0 0 0 0 0 0 0 0 0.25 0"/>
<feBlend mode="normal" in2="BackgroundImageFix" result="effect1_dropShadow_87_1007"/>
<feBlend mode="normal" in="SourceGraphic" in2="effect1_dropShadow_87_1007" result="shape"/>
</filter>
<filter id="filter18_d_87_1007" x="246" y="130" width="58" height="58" filterUnits="userSpaceOnUse" color-interpolation-filters="sRGB">
<feFlood flood-opacity="0" result="BackgroundImageFix"/>
<feColorMatrix in="SourceAlpha" type="matrix" values="0 0 0 0 0 0 0 0 0 0 0 0 0 0 0 0 0 0 127 0" result="hardAlpha"/>
<feOffset dy="4"/>
<feGaussianBlur stdDeviation="2"/>
<feComposite in2="hardAlpha" operator="out"/>
<feColorMatrix type="matrix" values="0 0 0 0 0 0 0 0 0 0 0 0 0 0 0 0 0 0 0.25 0"/>
<feBlend mode="normal" in2="BackgroundImageFix" result="effect1_dropShadow_87_1007"/>
<feBlend mode="normal" in="SourceGraphic" in2="effect1_dropShadow_87_1007" result="shape"/>
</filter>
<filter id="filter19_d_87_1007" x="126" y="130" width="58" height="58" filterUnits="userSpaceOnUse" color-interpolation-filters="sRGB">
<feFlood flood-opacity="0" result="BackgroundImageFix"/>
<feColorMatrix in="SourceAlpha" type="matrix" values="0 0 0 0 0 0 0 0 0 0 0 0 0 0 0 0 0 0 127 0" result="hardAlpha"/>
<feOffset dy="4"/>
<feGaussianBlur stdDeviation="2"/>
<feComposite in2="hardAlpha" operator="out"/>
<feColorMatrix type="matrix" values="0 0 0 0 0 0 0 0 0 0 0 0 0 0 0 0 0 0 0.25 0"/>
<feBlend mode="normal" in2="BackgroundImageFix" result="effect1_dropShadow_87_1007"/>
<feBlend mode="normal" in="SourceGraphic" in2="effect1_dropShadow_87_1007" result="shape"/>
</filter>
<filter id="filter20_d_87_1007" x="6" y="130" width="58" height="58" filterUnits="userSpaceOnUse" color-interpolation-filters="sRGB">
<feFlood flood-opacity="0" result="BackgroundImageFix"/>
<feColorMatrix in="SourceAlpha" type="matrix" values="0 0 0 0 0 0 0 0 0 0 0 0 0 0 0 0 0 0 127 0" result="hardAlpha"/>
<feOffset dy="4"/>
<feGaussianBlur stdDeviation="2"/>
<feComposite in2="hardAlpha" operator="out"/>
<feColorMatrix type="matrix" values="0 0 0 0 0 0 0 0 0 0 0 0 0 0 0 0 0 0 0.25 0"/>
<feBlend mode="normal" in2="BackgroundImageFix" result="effect1_dropShadow_87_1007"/>
<feBlend mode="normal" in="SourceGraphic" in2="effect1_dropShadow_87_1007" result="shape"/>
</filter>
<filter id="filter21_d_87_1007" x="336" y="190" width="58" height="58" filterUnits="userSpaceOnUse" color-interpolation-filters="sRGB">
<feFlood flood-opacity="0" result="BackgroundImageFix"/>
<feColorMatrix in="SourceAlpha" type="matrix" values="0 0 0 0 0 0 0 0 0 0 0 0 0 0 0 0 0 0 127 0" result="hardAlpha"/>
<feOffset dy="4"/>
<feGaussianBlur stdDeviation="2"/>
<feComposite in2="hardAlpha" operator="out"/>
<feColorMatrix type="matrix" values="0 0 0 0 0 0 0 0 0 0 0 0 0 0 0 0 0 0 0.25 0"/>
<feBlend mode="normal" in2="BackgroundImageFix" result="effect1_dropShadow_87_1007"/>
<feBlend mode="normal" in="SourceGraphic" in2="effect1_dropShadow_87_1007" result="shape"/>
</filter>
<filter id="filter22_d_87_1007" x="396" y="190" width="58" height="58" filterUnits="userSpaceOnUse" color-interpolation-filters="sRGB">
<feFlood flood-opacity="0" result="BackgroundImageFix"/>
<feColorMatrix in="SourceAlpha" type="matrix" values="0 0 0 0 0 0 0 0 0 0 0 0 0 0 0 0 0 0 127 0" result="hardAlpha"/>
<feOffset dy="4"/>
<feGaussianBlur stdDeviation="2"/>
<feComposite in2="hardAlpha" operator="out"/>
<feColorMatrix type="matrix" values="0 0 0 0 0 0 0 0 0 0 0 0 0 0 0 0 0 0 0.25 0"/>
<feBlend mode="normal" in2="BackgroundImageFix" result="effect1_dropShadow_87_1007"/>
<feBlend mode="normal" in="SourceGraphic" in2="effect1_dropShadow_87_1007" result="shape"/>
</filter>
<filter id="filter23_d_87_1007" x="186" y="190" width="58" height="58" filterUnits="userSpaceOnUse" color-interpolation-filters="sRGB">
<feFlood flood-opacity="0" result="BackgroundImageFix"/>
<feColorMatrix in="SourceAlpha" type="matrix" values="0 0 0 0 0 0 0 0 0 0 0 0 0 0 0 0 0 0 127 0" result="hardAlpha"/>
<feOffset dy="4"/>
<feGaussianBlur stdDeviation="2"/>
<feComposite in2="hardAlpha" operator="out"/>
<feColorMatrix type="matrix" values="0 0 0 0 0 0 0 0 0 0 0 0 0 0 0 0 0 0 0.25 0"/>
<feBlend mode="normal" in2="BackgroundImageFix" result="effect1_dropShadow_87_1007"/>
<feBlend mode="normal" in="SourceGraphic" in2="effect1_dropShadow_87_1007" result="shape"/>
</filter>
<filter id="filter24_d_87_1007" x="66" y="130" width="58" height="58" filterUnits="userSpaceOnUse" color-interpolation-filters="sRGB">
<feFlood flood-opacity="0" result="BackgroundImageFix"/>
<feColorMatrix in="SourceAlpha" type="matrix" values="0 0 0 0 0 0 0 0 0 0 0 0 0 0 0 0 0 0 127 0" result="hardAlpha"/>
<feOffset dy="4"/>
<feGaussianBlur stdDeviation="2"/>
<feComposite in2="hardAlpha" operator="out"/>
<feColorMatrix type="matrix" values="0 0 0 0 0 0 0 0 0 0 0 0 0 0 0 0 0 0 0.25 0"/>
<feBlend mode="normal" in2="BackgroundImageFix" result="effect1_dropShadow_87_1007"/>
<feBlend mode="normal" in="SourceGraphic" in2="effect1_dropShadow_87_1007" result="shape"/>
</filter>
<filter id="filter25_d_87_1007" x="186" y="130" width="58" height="58" filterUnits="userSpaceOnUse" color-interpolation-filters="sRGB">
<feFlood flood-opacity="0" result="BackgroundImageFix"/>
<feColorMatrix in="SourceAlpha" type="matrix" values="0 0 0 0 0 0 0 0 0 0 0 0 0 0 0 0 0 0 127 0" result="hardAlpha"/>
<feOffset dy="4"/>
<feGaussianBlur stdDeviation="2"/>
<feComposite in2="hardAlpha" operator="out"/>
<feColorMatrix type="matrix" values="0 0 0 0 0 0 0 0 0 0 0 0 0 0 0 0 0 0 0.25 0"/>
<feBlend mode="normal" in2="BackgroundImageFix" result="effect1_dropShadow_87_1007"/>
<feBlend mode="normal" in="SourceGraphic" in2="effect1_dropShadow_87_1007" result="shape"/>
</filter>
<filter id="filter26_d_87_1007" x="246" y="190" width="58" height="58" filterUnits="userSpaceOnUse" color-interpolation-filters="sRGB">
<feFlood flood-opacity="0" result="BackgroundImageFix"/>
<feColorMatrix in="SourceAlpha" type="matrix" values="0 0 0 0 0 0 0 0 0 0 0 0 0 0 0 0 0 0 127 0" result="hardAlpha"/>
<feOffset dy="4"/>
<feGaussianBlur stdDeviation="2"/>
<feComposite in2="hardAlpha" operator="out"/>
<feColorMatrix type="matrix" values="0 0 0 0 0 0 0 0 0 0 0 0 0 0 0 0 0 0 0.25 0"/>
<feBlend mode="normal" in2="BackgroundImageFix" result="effect1_dropShadow_87_1007"/>
<feBlend mode="normal" in="SourceGraphic" in2="effect1_dropShadow_87_1007" result="shape"/>
</filter>
<filter id="filter27_d_87_1007" x="456" y="130" width="58" height="58" filterUnits="userSpaceOnUse" color-interpolation-filters="sRGB">
<feFlood flood-opacity="0" result="BackgroundImageFix"/>
<feColorMatrix in="SourceAlpha" type="matrix" values="0 0 0 0 0 0 0 0 0 0 0 0 0 0 0 0 0 0 127 0" result="hardAlpha"/>
<feOffset dy="4"/>
<feGaussianBlur stdDeviation="2"/>
<feComposite in2="hardAlpha" operator="out"/>
<feColorMatrix type="matrix" values="0 0 0 0 0 0 0 0 0 0 0 0 0 0 0 0 0 0 0.25 0"/>
<feBlend mode="normal" in2="BackgroundImageFix" result="effect1_dropShadow_87_1007"/>
<feBlend mode="normal" in="SourceGraphic" in2="effect1_dropShadow_87_1007" result="shape"/>
</filter>
<filter id="filter28_d_87_1007" x="336" y="130" width="58" height="58" filterUnits="userSpaceOnUse" color-interpolation-filters="sRGB">
<feFlood flood-opacity="0" result="BackgroundImageFix"/>
<feColorMatrix in="SourceAlpha" type="matrix" values="0 0 0 0 0 0 0 0 0 0 0 0 0 0 0 0 0 0 127 0" result="hardAlpha"/>
<feOffset dy="4"/>
<feGaussianBlur stdDeviation="2"/>
<feComposite in2="hardAlpha" operator="out"/>
<feColorMatrix type="matrix" values="0 0 0 0 0 0 0 0 0 0 0 0 0 0 0 0 0 0 0.25 0"/>
<feBlend mode="normal" in2="BackgroundImageFix" result="effect1_dropShadow_87_1007"/>
<feBlend mode="normal" in="SourceGraphic" in2="effect1_dropShadow_87_1007" result="shape"/>
</filter>
<filter id="filter29_d_87_1007" x="396" y="130" width="58" height="58" filterUnits="userSpaceOnUse" color-interpolation-filters="sRGB">
<feFlood flood-opacity="0" result="BackgroundImageFix"/>
<feColorMatrix in="SourceAlpha" type="matrix" values="0 0 0 0 0 0 0 0 0 0 0 0 0 0 0 0 0 0 127 0" result="hardAlpha"/>
<feOffset dy="4"/>
<feGaussianBlur stdDeviation="2"/>
<feComposite in2="hardAlpha" operator="out"/>
<feColorMatrix type="matrix" values="0 0 0 0 0 0 0 0 0 0 0 0 0 0 0 0 0 0 0.25 0"/>
<feBlend mode="normal" in2="BackgroundImageFix" result="effect1_dropShadow_87_1007"/>
<feBlend mode="normal" in="SourceGraphic" in2="effect1_dropShadow_87_1007" result="shape"/>
</filter>
<filter id="filter30_d_87_1007" x="516" y="130" width="58" height="58" filterUnits="userSpaceOnUse" color-interpolation-filters="sRGB">
<feFlood flood-opacity="0" result="BackgroundImageFix"/>
<feColorMatrix in="SourceAlpha" type="matrix" values="0 0 0 0 0 0 0 0 0 0 0 0 0 0 0 0 0 0 127 0" result="hardAlpha"/>
<feOffset dy="4"/>
<feGaussianBlur stdDeviation="2"/>
<feComposite in2="hardAlpha" operator="out"/>
<feColorMatrix type="matrix" values="0 0 0 0 0 0 0 0 0 0 0 0 0 0 0 0 0 0 0.25 0"/>
<feBlend mode="normal" in2="BackgroundImageFix" result="effect1_dropShadow_87_1007"/>
<feBlend mode="normal" in="SourceGraphic" in2="effect1_dropShadow_87_1007" result="shape"/>
</filter>
<filter id="filter31_d_87_1007" x="456" y="70" width="58" height="58" filterUnits="userSpaceOnUse" color-interpolation-filters="sRGB">
<feFlood flood-opacity="0" result="BackgroundImageFix"/>
<feColorMatrix in="SourceAlpha" type="matrix" values="0 0 0 0 0 0 0 0 0 0 0 0 0 0 0 0 0 0 127 0" result="hardAlpha"/>
<feOffset dy="4"/>
<feGaussianBlur stdDeviation="2"/>
<feComposite in2="hardAlpha" operator="out"/>
<feColorMatrix type="matrix" values="0 0 0 0 0 0 0 0 0 0 0 0 0 0 0 0 0 0 0.25 0"/>
<feBlend mode="normal" in2="BackgroundImageFix" result="effect1_dropShadow_87_1007"/>
<feBlend mode="normal" in="SourceGraphic" in2="effect1_dropShadow_87_1007" result="shape"/>
</filter>
<filter id="filter32_d_87_1007" x="396" y="70" width="58" height="58" filterUnits="userSpaceOnUse" color-interpolation-filters="sRGB">
<feFlood flood-opacity="0" result="BackgroundImageFix"/>
<feColorMatrix in="SourceAlpha" type="matrix" values="0 0 0 0 0 0 0 0 0 0 0 0 0 0 0 0 0 0 127 0" result="hardAlpha"/>
<feOffset dy="4"/>
<feGaussianBlur stdDeviation="2"/>
<feComposite in2="hardAlpha" operator="out"/>
<feColorMatrix type="matrix" values="0 0 0 0 0 0 0 0 0 0 0 0 0 0 0 0 0 0 0.25 0"/>
<feBlend mode="normal" in2="BackgroundImageFix" result="effect1_dropShadow_87_1007"/>
<feBlend mode="normal" in="SourceGraphic" in2="effect1_dropShadow_87_1007" result="shape"/>
</filter>
<filter id="filter33_d_87_1007" x="516" y="70" width="58" height="58" filterUnits="userSpaceOnUse" color-interpolation-filters="sRGB">
<feFlood flood-opacity="0" result="BackgroundImageFix"/>
<feColorMatrix in="SourceAlpha" type="matrix" values="0 0 0 0 0 0 0 0 0 0 0 0 0 0 0 0 0 0 127 0" result="hardAlpha"/>
<feOffset dy="4"/>
<feGaussianBlur stdDeviation="2"/>
<feComposite in2="hardAlpha" operator="out"/>
<feColorMatrix type="matrix" values="0 0 0 0 0 0 0 0 0 0 0 0 0 0 0 0 0 0 0.25 0"/>
<feBlend mode="normal" in2="BackgroundImageFix" result="effect1_dropShadow_87_1007"/>
<feBlend mode="normal" in="SourceGraphic" in2="effect1_dropShadow_87_1007" result="shape"/>
</filter>
</defs>
</svg>
